M48
; DRILL file {KiCad 9.0.1} date 2025-05-14T23:35:05-0500
; FORMAT={-:-/ absolute / inch / decimal}
; #@! TF.CreationDate,2025-05-14T23:35:05-05:00
; #@! TF.GenerationSoftware,Kicad,Pcbnew,9.0.1
; #@! TF.FileFunction,Plated,1,4,PTH
FMAT,2
INCH
; #@! TA.AperFunction,Plated,PTH,ViaDrill
T1C0.0118
; #@! TA.AperFunction,Plated,PTH,ComponentDrill
T2C0.0591
; #@! TA.AperFunction,Plated,PTH,ComponentDrill
T3C0.0736
; #@! TA.AperFunction,Plated,PTH,ComponentDrill
T4C0.1260
%
G90
G05
T1
X5.2165Y-3.8878
X5.2362Y-3.6811
X5.2657Y-4.2028
X5.2953Y-4.065
X5.3009Y-4.156
X5.3051Y-3.8329
X5.3121Y-3.9567
X5.3465Y-4.3307
X5.349Y-3.9622
X5.3647Y-4.0676
X5.3858Y-3.9445
X5.3858Y-3.9799
X5.398Y-4.2717
X5.4226Y-3.9622
X5.4227Y-3.8331
X5.4681Y-4.0791
X5.4837Y-4.1026
X5.4921Y-4.0256
X5.5039Y-3.8228
X5.5512Y-4.4587
X5.561Y-4.1431
X5.5748Y-3.7205
X5.5807Y-3.9319
X5.6102Y-3.8287
X5.6413Y-4.0331
X5.6557Y-3.9439
X5.6594Y-3.9764
X5.6693Y-3.878
X5.7185Y-3.6319
T2
X4.8803Y-3.8732
X4.8803Y-4.0732
X6.5945Y-3.8748
X6.5945Y-4.0748
T3
X5.1772Y-3.7795
X5.9843Y-4.4094
X6.1335Y-3.6516
T4
X4.813Y-3.5335
X4.8228Y-4.4016
X6.4764Y-4.4016
X6.6634Y-3.5335
M30
