%TF.GenerationSoftware,KiCad,Pcbnew,9.0.1*%
%TF.CreationDate,2025-05-14T23:35:05-05:00*%
%TF.ProjectId,Project-Star,50726f6a-6563-4742-9d53-7461722e6b69,rev?*%
%TF.SameCoordinates,Original*%
%TF.FileFunction,Legend,Bot*%
%TF.FilePolarity,Positive*%
%FSLAX46Y46*%
G04 Gerber Fmt 4.6, Leading zero omitted, Abs format (unit mm)*
G04 Created by KiCad (PCBNEW 9.0.1) date 2025-05-14 23:35:05*
%MOMM*%
%LPD*%
G01*
G04 APERTURE LIST*
%ADD10C,0.150000*%
%ADD11C,0.125000*%
%ADD12C,0.100000*%
G04 APERTURE END LIST*
D10*
X134636779Y-88840124D02*
X134636779Y-89840124D01*
X135112969Y-88840124D02*
X135112969Y-89840124D01*
X135112969Y-89840124D02*
X135684397Y-88840124D01*
X135684397Y-88840124D02*
X135684397Y-89840124D01*
X136160588Y-88935363D02*
X136208207Y-88887744D01*
X136208207Y-88887744D02*
X136160588Y-88840124D01*
X136160588Y-88840124D02*
X136112969Y-88887744D01*
X136112969Y-88887744D02*
X136160588Y-88935363D01*
X136160588Y-88935363D02*
X136160588Y-88840124D01*
X136160588Y-89459172D02*
X136208207Y-89411553D01*
X136208207Y-89411553D02*
X136160588Y-89363934D01*
X136160588Y-89363934D02*
X136112969Y-89411553D01*
X136112969Y-89411553D02*
X136160588Y-89459172D01*
X136160588Y-89459172D02*
X136160588Y-89363934D01*
X137351064Y-89744886D02*
X137398683Y-89792505D01*
X137398683Y-89792505D02*
X137493921Y-89840124D01*
X137493921Y-89840124D02*
X137732016Y-89840124D01*
X137732016Y-89840124D02*
X137827254Y-89792505D01*
X137827254Y-89792505D02*
X137874873Y-89744886D01*
X137874873Y-89744886D02*
X137922492Y-89649648D01*
X137922492Y-89649648D02*
X137922492Y-89554410D01*
X137922492Y-89554410D02*
X137874873Y-89411553D01*
X137874873Y-89411553D02*
X137303445Y-88840124D01*
X137303445Y-88840124D02*
X137922492Y-88840124D01*
X138779635Y-89506791D02*
X138779635Y-88840124D01*
X138541540Y-89887744D02*
X138303445Y-89173458D01*
X138303445Y-89173458D02*
X138922492Y-89173458D01*
X139303445Y-89221077D02*
X140065350Y-89221077D01*
X140446302Y-89840124D02*
X141065349Y-89840124D01*
X141065349Y-89840124D02*
X140732016Y-89459172D01*
X140732016Y-89459172D02*
X140874873Y-89459172D01*
X140874873Y-89459172D02*
X140970111Y-89411553D01*
X140970111Y-89411553D02*
X141017730Y-89363934D01*
X141017730Y-89363934D02*
X141065349Y-89268696D01*
X141065349Y-89268696D02*
X141065349Y-89030601D01*
X141065349Y-89030601D02*
X141017730Y-88935363D01*
X141017730Y-88935363D02*
X140970111Y-88887744D01*
X140970111Y-88887744D02*
X140874873Y-88840124D01*
X140874873Y-88840124D02*
X140589159Y-88840124D01*
X140589159Y-88840124D02*
X140493921Y-88887744D01*
X140493921Y-88887744D02*
X140446302Y-88935363D01*
X141398683Y-89840124D02*
X142017730Y-89840124D01*
X142017730Y-89840124D02*
X141684397Y-89459172D01*
X141684397Y-89459172D02*
X141827254Y-89459172D01*
X141827254Y-89459172D02*
X141922492Y-89411553D01*
X141922492Y-89411553D02*
X141970111Y-89363934D01*
X141970111Y-89363934D02*
X142017730Y-89268696D01*
X142017730Y-89268696D02*
X142017730Y-89030601D01*
X142017730Y-89030601D02*
X141970111Y-88935363D01*
X141970111Y-88935363D02*
X141922492Y-88887744D01*
X141922492Y-88887744D02*
X141827254Y-88840124D01*
X141827254Y-88840124D02*
X141541540Y-88840124D01*
X141541540Y-88840124D02*
X141446302Y-88887744D01*
X141446302Y-88887744D02*
X141398683Y-88935363D01*
X142446302Y-88935363D02*
X142493921Y-88887744D01*
X142493921Y-88887744D02*
X142446302Y-88840124D01*
X142446302Y-88840124D02*
X142398683Y-88887744D01*
X142398683Y-88887744D02*
X142446302Y-88935363D01*
X142446302Y-88935363D02*
X142446302Y-88840124D01*
X143351063Y-89840124D02*
X143160587Y-89840124D01*
X143160587Y-89840124D02*
X143065349Y-89792505D01*
X143065349Y-89792505D02*
X143017730Y-89744886D01*
X143017730Y-89744886D02*
X142922492Y-89602029D01*
X142922492Y-89602029D02*
X142874873Y-89411553D01*
X142874873Y-89411553D02*
X142874873Y-89030601D01*
X142874873Y-89030601D02*
X142922492Y-88935363D01*
X142922492Y-88935363D02*
X142970111Y-88887744D01*
X142970111Y-88887744D02*
X143065349Y-88840124D01*
X143065349Y-88840124D02*
X143255825Y-88840124D01*
X143255825Y-88840124D02*
X143351063Y-88887744D01*
X143351063Y-88887744D02*
X143398682Y-88935363D01*
X143398682Y-88935363D02*
X143446301Y-89030601D01*
X143446301Y-89030601D02*
X143446301Y-89268696D01*
X143446301Y-89268696D02*
X143398682Y-89363934D01*
X143398682Y-89363934D02*
X143351063Y-89411553D01*
X143351063Y-89411553D02*
X143255825Y-89459172D01*
X143255825Y-89459172D02*
X143065349Y-89459172D01*
X143065349Y-89459172D02*
X142970111Y-89411553D01*
X142970111Y-89411553D02*
X142922492Y-89363934D01*
X142922492Y-89363934D02*
X142874873Y-89268696D01*
X143732016Y-89840124D02*
X144065349Y-88840124D01*
X144065349Y-88840124D02*
X144398682Y-89840124D01*
X144732016Y-88840124D02*
X144732016Y-89840124D01*
X144732016Y-89840124D02*
X144970111Y-89840124D01*
X144970111Y-89840124D02*
X145112968Y-89792505D01*
X145112968Y-89792505D02*
X145208206Y-89697267D01*
X145208206Y-89697267D02*
X145255825Y-89602029D01*
X145255825Y-89602029D02*
X145303444Y-89411553D01*
X145303444Y-89411553D02*
X145303444Y-89268696D01*
X145303444Y-89268696D02*
X145255825Y-89078220D01*
X145255825Y-89078220D02*
X145208206Y-88982982D01*
X145208206Y-88982982D02*
X145112968Y-88887744D01*
X145112968Y-88887744D02*
X144970111Y-88840124D01*
X144970111Y-88840124D02*
X144732016Y-88840124D01*
X146303444Y-88935363D02*
X146255825Y-88887744D01*
X146255825Y-88887744D02*
X146112968Y-88840124D01*
X146112968Y-88840124D02*
X146017730Y-88840124D01*
X146017730Y-88840124D02*
X145874873Y-88887744D01*
X145874873Y-88887744D02*
X145779635Y-88982982D01*
X145779635Y-88982982D02*
X145732016Y-89078220D01*
X145732016Y-89078220D02*
X145684397Y-89268696D01*
X145684397Y-89268696D02*
X145684397Y-89411553D01*
X145684397Y-89411553D02*
X145732016Y-89602029D01*
X145732016Y-89602029D02*
X145779635Y-89697267D01*
X145779635Y-89697267D02*
X145874873Y-89792505D01*
X145874873Y-89792505D02*
X146017730Y-89840124D01*
X146017730Y-89840124D02*
X146112968Y-89840124D01*
X146112968Y-89840124D02*
X146255825Y-89792505D01*
X146255825Y-89792505D02*
X146303444Y-89744886D01*
X147779635Y-88459172D02*
X147732016Y-88506791D01*
X147732016Y-88506791D02*
X147636778Y-88649648D01*
X147636778Y-88649648D02*
X147589159Y-88744886D01*
X147589159Y-88744886D02*
X147541540Y-88887744D01*
X147541540Y-88887744D02*
X147493921Y-89125839D01*
X147493921Y-89125839D02*
X147493921Y-89316315D01*
X147493921Y-89316315D02*
X147541540Y-89554410D01*
X147541540Y-89554410D02*
X147589159Y-89697267D01*
X147589159Y-89697267D02*
X147636778Y-89792505D01*
X147636778Y-89792505D02*
X147732016Y-89935363D01*
X147732016Y-89935363D02*
X147779635Y-89982982D01*
X148112969Y-89744886D02*
X148160588Y-89792505D01*
X148160588Y-89792505D02*
X148255826Y-89840124D01*
X148255826Y-89840124D02*
X148493921Y-89840124D01*
X148493921Y-89840124D02*
X148589159Y-89792505D01*
X148589159Y-89792505D02*
X148636778Y-89744886D01*
X148636778Y-89744886D02*
X148684397Y-89649648D01*
X148684397Y-89649648D02*
X148684397Y-89554410D01*
X148684397Y-89554410D02*
X148636778Y-89411553D01*
X148636778Y-89411553D02*
X148065350Y-88840124D01*
X148065350Y-88840124D02*
X148684397Y-88840124D01*
X149160588Y-88840124D02*
X149351064Y-88840124D01*
X149351064Y-88840124D02*
X149446302Y-88887744D01*
X149446302Y-88887744D02*
X149493921Y-88935363D01*
X149493921Y-88935363D02*
X149589159Y-89078220D01*
X149589159Y-89078220D02*
X149636778Y-89268696D01*
X149636778Y-89268696D02*
X149636778Y-89649648D01*
X149636778Y-89649648D02*
X149589159Y-89744886D01*
X149589159Y-89744886D02*
X149541540Y-89792505D01*
X149541540Y-89792505D02*
X149446302Y-89840124D01*
X149446302Y-89840124D02*
X149255826Y-89840124D01*
X149255826Y-89840124D02*
X149160588Y-89792505D01*
X149160588Y-89792505D02*
X149112969Y-89744886D01*
X149112969Y-89744886D02*
X149065350Y-89649648D01*
X149065350Y-89649648D02*
X149065350Y-89411553D01*
X149065350Y-89411553D02*
X149112969Y-89316315D01*
X149112969Y-89316315D02*
X149160588Y-89268696D01*
X149160588Y-89268696D02*
X149255826Y-89221077D01*
X149255826Y-89221077D02*
X149446302Y-89221077D01*
X149446302Y-89221077D02*
X149541540Y-89268696D01*
X149541540Y-89268696D02*
X149589159Y-89316315D01*
X149589159Y-89316315D02*
X149636778Y-89411553D01*
X150065350Y-88935363D02*
X150112969Y-88887744D01*
X150112969Y-88887744D02*
X150065350Y-88840124D01*
X150065350Y-88840124D02*
X150017731Y-88887744D01*
X150017731Y-88887744D02*
X150065350Y-88935363D01*
X150065350Y-88935363D02*
X150065350Y-88840124D01*
X150970111Y-89840124D02*
X150779635Y-89840124D01*
X150779635Y-89840124D02*
X150684397Y-89792505D01*
X150684397Y-89792505D02*
X150636778Y-89744886D01*
X150636778Y-89744886D02*
X150541540Y-89602029D01*
X150541540Y-89602029D02*
X150493921Y-89411553D01*
X150493921Y-89411553D02*
X150493921Y-89030601D01*
X150493921Y-89030601D02*
X150541540Y-88935363D01*
X150541540Y-88935363D02*
X150589159Y-88887744D01*
X150589159Y-88887744D02*
X150684397Y-88840124D01*
X150684397Y-88840124D02*
X150874873Y-88840124D01*
X150874873Y-88840124D02*
X150970111Y-88887744D01*
X150970111Y-88887744D02*
X151017730Y-88935363D01*
X151017730Y-88935363D02*
X151065349Y-89030601D01*
X151065349Y-89030601D02*
X151065349Y-89268696D01*
X151065349Y-89268696D02*
X151017730Y-89363934D01*
X151017730Y-89363934D02*
X150970111Y-89411553D01*
X150970111Y-89411553D02*
X150874873Y-89459172D01*
X150874873Y-89459172D02*
X150684397Y-89459172D01*
X150684397Y-89459172D02*
X150589159Y-89411553D01*
X150589159Y-89411553D02*
X150541540Y-89363934D01*
X150541540Y-89363934D02*
X150493921Y-89268696D01*
X151351064Y-89840124D02*
X151684397Y-88840124D01*
X151684397Y-88840124D02*
X152017730Y-89840124D01*
X153112969Y-88840124D02*
X153112969Y-89840124D01*
X153112969Y-89840124D02*
X153684397Y-88840124D01*
X153684397Y-88840124D02*
X153684397Y-89840124D01*
X154303445Y-88840124D02*
X154208207Y-88887744D01*
X154208207Y-88887744D02*
X154160588Y-88935363D01*
X154160588Y-88935363D02*
X154112969Y-89030601D01*
X154112969Y-89030601D02*
X154112969Y-89316315D01*
X154112969Y-89316315D02*
X154160588Y-89411553D01*
X154160588Y-89411553D02*
X154208207Y-89459172D01*
X154208207Y-89459172D02*
X154303445Y-89506791D01*
X154303445Y-89506791D02*
X154446302Y-89506791D01*
X154446302Y-89506791D02*
X154541540Y-89459172D01*
X154541540Y-89459172D02*
X154589159Y-89411553D01*
X154589159Y-89411553D02*
X154636778Y-89316315D01*
X154636778Y-89316315D02*
X154636778Y-89030601D01*
X154636778Y-89030601D02*
X154589159Y-88935363D01*
X154589159Y-88935363D02*
X154541540Y-88887744D01*
X154541540Y-88887744D02*
X154446302Y-88840124D01*
X154446302Y-88840124D02*
X154303445Y-88840124D01*
X155065350Y-88840124D02*
X155065350Y-89506791D01*
X155065350Y-89411553D02*
X155112969Y-89459172D01*
X155112969Y-89459172D02*
X155208207Y-89506791D01*
X155208207Y-89506791D02*
X155351064Y-89506791D01*
X155351064Y-89506791D02*
X155446302Y-89459172D01*
X155446302Y-89459172D02*
X155493921Y-89363934D01*
X155493921Y-89363934D02*
X155493921Y-88840124D01*
X155493921Y-89363934D02*
X155541540Y-89459172D01*
X155541540Y-89459172D02*
X155636778Y-89506791D01*
X155636778Y-89506791D02*
X155779635Y-89506791D01*
X155779635Y-89506791D02*
X155874874Y-89459172D01*
X155874874Y-89459172D02*
X155922493Y-89363934D01*
X155922493Y-89363934D02*
X155922493Y-88840124D01*
X156303445Y-88459172D02*
X156351064Y-88506791D01*
X156351064Y-88506791D02*
X156446302Y-88649648D01*
X156446302Y-88649648D02*
X156493921Y-88744886D01*
X156493921Y-88744886D02*
X156541540Y-88887744D01*
X156541540Y-88887744D02*
X156589159Y-89125839D01*
X156589159Y-89125839D02*
X156589159Y-89316315D01*
X156589159Y-89316315D02*
X156541540Y-89554410D01*
X156541540Y-89554410D02*
X156493921Y-89697267D01*
X156493921Y-89697267D02*
X156446302Y-89792505D01*
X156446302Y-89792505D02*
X156351064Y-89935363D01*
X156351064Y-89935363D02*
X156303445Y-89982982D01*
X134827255Y-88230180D02*
X135017731Y-88230180D01*
X135017731Y-88230180D02*
X135112969Y-88182561D01*
X135112969Y-88182561D02*
X135208207Y-88087323D01*
X135208207Y-88087323D02*
X135255826Y-87896847D01*
X135255826Y-87896847D02*
X135255826Y-87563514D01*
X135255826Y-87563514D02*
X135208207Y-87373038D01*
X135208207Y-87373038D02*
X135112969Y-87277800D01*
X135112969Y-87277800D02*
X135017731Y-87230180D01*
X135017731Y-87230180D02*
X134827255Y-87230180D01*
X134827255Y-87230180D02*
X134732017Y-87277800D01*
X134732017Y-87277800D02*
X134636779Y-87373038D01*
X134636779Y-87373038D02*
X134589160Y-87563514D01*
X134589160Y-87563514D02*
X134589160Y-87896847D01*
X134589160Y-87896847D02*
X134636779Y-88087323D01*
X134636779Y-88087323D02*
X134732017Y-88182561D01*
X134732017Y-88182561D02*
X134827255Y-88230180D01*
X135684398Y-88230180D02*
X135684398Y-87420657D01*
X135684398Y-87420657D02*
X135732017Y-87325419D01*
X135732017Y-87325419D02*
X135779636Y-87277800D01*
X135779636Y-87277800D02*
X135874874Y-87230180D01*
X135874874Y-87230180D02*
X136065350Y-87230180D01*
X136065350Y-87230180D02*
X136160588Y-87277800D01*
X136160588Y-87277800D02*
X136208207Y-87325419D01*
X136208207Y-87325419D02*
X136255826Y-87420657D01*
X136255826Y-87420657D02*
X136255826Y-88230180D01*
X136589160Y-88230180D02*
X137160588Y-88230180D01*
X136874874Y-87230180D02*
X136874874Y-88230180D01*
X137493922Y-87325419D02*
X137541541Y-87277800D01*
X137541541Y-87277800D02*
X137493922Y-87230180D01*
X137493922Y-87230180D02*
X137446303Y-87277800D01*
X137446303Y-87277800D02*
X137493922Y-87325419D01*
X137493922Y-87325419D02*
X137493922Y-87230180D01*
X137493922Y-87849228D02*
X137541541Y-87801609D01*
X137541541Y-87801609D02*
X137493922Y-87753990D01*
X137493922Y-87753990D02*
X137446303Y-87801609D01*
X137446303Y-87801609D02*
X137493922Y-87849228D01*
X137493922Y-87849228D02*
X137493922Y-87753990D01*
X138684398Y-88134942D02*
X138732017Y-88182561D01*
X138732017Y-88182561D02*
X138827255Y-88230180D01*
X138827255Y-88230180D02*
X139065350Y-88230180D01*
X139065350Y-88230180D02*
X139160588Y-88182561D01*
X139160588Y-88182561D02*
X139208207Y-88134942D01*
X139208207Y-88134942D02*
X139255826Y-88039704D01*
X139255826Y-88039704D02*
X139255826Y-87944466D01*
X139255826Y-87944466D02*
X139208207Y-87801609D01*
X139208207Y-87801609D02*
X138636779Y-87230180D01*
X138636779Y-87230180D02*
X139255826Y-87230180D01*
X139874874Y-88230180D02*
X139970112Y-88230180D01*
X139970112Y-88230180D02*
X140065350Y-88182561D01*
X140065350Y-88182561D02*
X140112969Y-88134942D01*
X140112969Y-88134942D02*
X140160588Y-88039704D01*
X140160588Y-88039704D02*
X140208207Y-87849228D01*
X140208207Y-87849228D02*
X140208207Y-87611133D01*
X140208207Y-87611133D02*
X140160588Y-87420657D01*
X140160588Y-87420657D02*
X140112969Y-87325419D01*
X140112969Y-87325419D02*
X140065350Y-87277800D01*
X140065350Y-87277800D02*
X139970112Y-87230180D01*
X139970112Y-87230180D02*
X139874874Y-87230180D01*
X139874874Y-87230180D02*
X139779636Y-87277800D01*
X139779636Y-87277800D02*
X139732017Y-87325419D01*
X139732017Y-87325419D02*
X139684398Y-87420657D01*
X139684398Y-87420657D02*
X139636779Y-87611133D01*
X139636779Y-87611133D02*
X139636779Y-87849228D01*
X139636779Y-87849228D02*
X139684398Y-88039704D01*
X139684398Y-88039704D02*
X139732017Y-88134942D01*
X139732017Y-88134942D02*
X139779636Y-88182561D01*
X139779636Y-88182561D02*
X139874874Y-88230180D01*
X140493922Y-88230180D02*
X140827255Y-87230180D01*
X140827255Y-87230180D02*
X141160588Y-88230180D01*
X141493922Y-87230180D02*
X141493922Y-88230180D01*
X141493922Y-88230180D02*
X141732017Y-88230180D01*
X141732017Y-88230180D02*
X141874874Y-88182561D01*
X141874874Y-88182561D02*
X141970112Y-88087323D01*
X141970112Y-88087323D02*
X142017731Y-87992085D01*
X142017731Y-87992085D02*
X142065350Y-87801609D01*
X142065350Y-87801609D02*
X142065350Y-87658752D01*
X142065350Y-87658752D02*
X142017731Y-87468276D01*
X142017731Y-87468276D02*
X141970112Y-87373038D01*
X141970112Y-87373038D02*
X141874874Y-87277800D01*
X141874874Y-87277800D02*
X141732017Y-87230180D01*
X141732017Y-87230180D02*
X141493922Y-87230180D01*
X143065350Y-87325419D02*
X143017731Y-87277800D01*
X143017731Y-87277800D02*
X142874874Y-87230180D01*
X142874874Y-87230180D02*
X142779636Y-87230180D01*
X142779636Y-87230180D02*
X142636779Y-87277800D01*
X142636779Y-87277800D02*
X142541541Y-87373038D01*
X142541541Y-87373038D02*
X142493922Y-87468276D01*
X142493922Y-87468276D02*
X142446303Y-87658752D01*
X142446303Y-87658752D02*
X142446303Y-87801609D01*
X142446303Y-87801609D02*
X142493922Y-87992085D01*
X142493922Y-87992085D02*
X142541541Y-88087323D01*
X142541541Y-88087323D02*
X142636779Y-88182561D01*
X142636779Y-88182561D02*
X142779636Y-88230180D01*
X142779636Y-88230180D02*
X142874874Y-88230180D01*
X142874874Y-88230180D02*
X143017731Y-88182561D01*
X143017731Y-88182561D02*
X143065350Y-88134942D01*
X144732017Y-88230180D02*
X144255827Y-88230180D01*
X144255827Y-88230180D02*
X144208208Y-87753990D01*
X144208208Y-87753990D02*
X144255827Y-87801609D01*
X144255827Y-87801609D02*
X144351065Y-87849228D01*
X144351065Y-87849228D02*
X144589160Y-87849228D01*
X144589160Y-87849228D02*
X144684398Y-87801609D01*
X144684398Y-87801609D02*
X144732017Y-87753990D01*
X144732017Y-87753990D02*
X144779636Y-87658752D01*
X144779636Y-87658752D02*
X144779636Y-87420657D01*
X144779636Y-87420657D02*
X144732017Y-87325419D01*
X144732017Y-87325419D02*
X144684398Y-87277800D01*
X144684398Y-87277800D02*
X144589160Y-87230180D01*
X144589160Y-87230180D02*
X144351065Y-87230180D01*
X144351065Y-87230180D02*
X144255827Y-87277800D01*
X144255827Y-87277800D02*
X144208208Y-87325419D01*
X145160589Y-87515895D02*
X145636779Y-87515895D01*
X145065351Y-87230180D02*
X145398684Y-88230180D01*
X145398684Y-88230180D02*
X145732017Y-87230180D01*
X146827256Y-87230180D02*
X146827256Y-88230180D01*
X146827256Y-88230180D02*
X147398684Y-87230180D01*
X147398684Y-87230180D02*
X147398684Y-88230180D01*
X148017732Y-87230180D02*
X147922494Y-87277800D01*
X147922494Y-87277800D02*
X147874875Y-87325419D01*
X147874875Y-87325419D02*
X147827256Y-87420657D01*
X147827256Y-87420657D02*
X147827256Y-87706371D01*
X147827256Y-87706371D02*
X147874875Y-87801609D01*
X147874875Y-87801609D02*
X147922494Y-87849228D01*
X147922494Y-87849228D02*
X148017732Y-87896847D01*
X148017732Y-87896847D02*
X148160589Y-87896847D01*
X148160589Y-87896847D02*
X148255827Y-87849228D01*
X148255827Y-87849228D02*
X148303446Y-87801609D01*
X148303446Y-87801609D02*
X148351065Y-87706371D01*
X148351065Y-87706371D02*
X148351065Y-87420657D01*
X148351065Y-87420657D02*
X148303446Y-87325419D01*
X148303446Y-87325419D02*
X148255827Y-87277800D01*
X148255827Y-87277800D02*
X148160589Y-87230180D01*
X148160589Y-87230180D02*
X148017732Y-87230180D01*
X148779637Y-87230180D02*
X148779637Y-87896847D01*
X148779637Y-87801609D02*
X148827256Y-87849228D01*
X148827256Y-87849228D02*
X148922494Y-87896847D01*
X148922494Y-87896847D02*
X149065351Y-87896847D01*
X149065351Y-87896847D02*
X149160589Y-87849228D01*
X149160589Y-87849228D02*
X149208208Y-87753990D01*
X149208208Y-87753990D02*
X149208208Y-87230180D01*
X149208208Y-87753990D02*
X149255827Y-87849228D01*
X149255827Y-87849228D02*
X149351065Y-87896847D01*
X149351065Y-87896847D02*
X149493922Y-87896847D01*
X149493922Y-87896847D02*
X149589161Y-87849228D01*
X149589161Y-87849228D02*
X149636780Y-87753990D01*
X149636780Y-87753990D02*
X149636780Y-87230180D01*
X151589160Y-88277800D02*
X150732018Y-86992085D01*
X152589161Y-88230180D02*
X153255827Y-88230180D01*
X153255827Y-88230180D02*
X152827256Y-87230180D01*
X153589161Y-87515895D02*
X154065351Y-87515895D01*
X153493923Y-87230180D02*
X153827256Y-88230180D01*
X153827256Y-88230180D02*
X154160589Y-87230180D01*
X155255828Y-87230180D02*
X155255828Y-88230180D01*
X155255828Y-88230180D02*
X155589161Y-87515895D01*
X155589161Y-87515895D02*
X155922494Y-88230180D01*
X155922494Y-88230180D02*
X155922494Y-87230180D01*
X156827256Y-87230180D02*
X156827256Y-87753990D01*
X156827256Y-87753990D02*
X156779637Y-87849228D01*
X156779637Y-87849228D02*
X156684399Y-87896847D01*
X156684399Y-87896847D02*
X156493923Y-87896847D01*
X156493923Y-87896847D02*
X156398685Y-87849228D01*
X156827256Y-87277800D02*
X156732018Y-87230180D01*
X156732018Y-87230180D02*
X156493923Y-87230180D01*
X156493923Y-87230180D02*
X156398685Y-87277800D01*
X156398685Y-87277800D02*
X156351066Y-87373038D01*
X156351066Y-87373038D02*
X156351066Y-87468276D01*
X156351066Y-87468276D02*
X156398685Y-87563514D01*
X156398685Y-87563514D02*
X156493923Y-87611133D01*
X156493923Y-87611133D02*
X156732018Y-87611133D01*
X156732018Y-87611133D02*
X156827256Y-87658752D01*
X157208209Y-87230180D02*
X157732018Y-87896847D01*
X157208209Y-87896847D02*
X157732018Y-87230180D01*
D11*
X139955166Y-95395238D02*
X139978976Y-95371429D01*
X139978976Y-95371429D02*
X140002785Y-95300000D01*
X140002785Y-95300000D02*
X140002785Y-95252381D01*
X140002785Y-95252381D02*
X139978976Y-95180953D01*
X139978976Y-95180953D02*
X139931356Y-95133334D01*
X139931356Y-95133334D02*
X139883737Y-95109524D01*
X139883737Y-95109524D02*
X139788499Y-95085715D01*
X139788499Y-95085715D02*
X139717071Y-95085715D01*
X139717071Y-95085715D02*
X139621833Y-95109524D01*
X139621833Y-95109524D02*
X139574214Y-95133334D01*
X139574214Y-95133334D02*
X139526595Y-95180953D01*
X139526595Y-95180953D02*
X139502785Y-95252381D01*
X139502785Y-95252381D02*
X139502785Y-95300000D01*
X139502785Y-95300000D02*
X139526595Y-95371429D01*
X139526595Y-95371429D02*
X139550404Y-95395238D01*
X140002785Y-95609524D02*
X139502785Y-95609524D01*
X139693261Y-95609524D02*
X139669452Y-95657143D01*
X139669452Y-95657143D02*
X139669452Y-95752381D01*
X139669452Y-95752381D02*
X139693261Y-95800000D01*
X139693261Y-95800000D02*
X139717071Y-95823810D01*
X139717071Y-95823810D02*
X139764690Y-95847619D01*
X139764690Y-95847619D02*
X139907547Y-95847619D01*
X139907547Y-95847619D02*
X139955166Y-95823810D01*
X139955166Y-95823810D02*
X139978976Y-95800000D01*
X139978976Y-95800000D02*
X140002785Y-95752381D01*
X140002785Y-95752381D02*
X140002785Y-95657143D01*
X140002785Y-95657143D02*
X139978976Y-95609524D01*
X139978976Y-96038096D02*
X140002785Y-96085715D01*
X140002785Y-96085715D02*
X140002785Y-96180953D01*
X140002785Y-96180953D02*
X139978976Y-96228572D01*
X139978976Y-96228572D02*
X139931356Y-96252381D01*
X139931356Y-96252381D02*
X139907547Y-96252381D01*
X139907547Y-96252381D02*
X139859928Y-96228572D01*
X139859928Y-96228572D02*
X139836118Y-96180953D01*
X139836118Y-96180953D02*
X139836118Y-96109524D01*
X139836118Y-96109524D02*
X139812309Y-96061905D01*
X139812309Y-96061905D02*
X139764690Y-96038096D01*
X139764690Y-96038096D02*
X139740880Y-96038096D01*
X139740880Y-96038096D02*
X139693261Y-96061905D01*
X139693261Y-96061905D02*
X139669452Y-96109524D01*
X139669452Y-96109524D02*
X139669452Y-96180953D01*
X139669452Y-96180953D02*
X139693261Y-96228572D01*
X139669452Y-96395239D02*
X139669452Y-96585715D01*
X139502785Y-96466667D02*
X139931356Y-96466667D01*
X139931356Y-96466667D02*
X139978976Y-96490477D01*
X139978976Y-96490477D02*
X140002785Y-96538096D01*
X140002785Y-96538096D02*
X140002785Y-96585715D01*
X140002785Y-97014286D02*
X140002785Y-96728572D01*
X140002785Y-96871429D02*
X139502785Y-96871429D01*
X139502785Y-96871429D02*
X139574214Y-96823810D01*
X139574214Y-96823810D02*
X139621833Y-96776191D01*
X139621833Y-96776191D02*
X139645642Y-96728572D01*
X142877976Y-100025190D02*
X142711310Y-100263285D01*
X142592262Y-100025190D02*
X142592262Y-100525190D01*
X142592262Y-100525190D02*
X142782738Y-100525190D01*
X142782738Y-100525190D02*
X142830357Y-100501380D01*
X142830357Y-100501380D02*
X142854167Y-100477571D01*
X142854167Y-100477571D02*
X142877976Y-100429952D01*
X142877976Y-100429952D02*
X142877976Y-100358523D01*
X142877976Y-100358523D02*
X142854167Y-100310904D01*
X142854167Y-100310904D02*
X142830357Y-100287095D01*
X142830357Y-100287095D02*
X142782738Y-100263285D01*
X142782738Y-100263285D02*
X142592262Y-100263285D01*
X143306548Y-100358523D02*
X143306548Y-100025190D01*
X143092262Y-100358523D02*
X143092262Y-100096619D01*
X143092262Y-100096619D02*
X143116072Y-100049000D01*
X143116072Y-100049000D02*
X143163691Y-100025190D01*
X143163691Y-100025190D02*
X143235119Y-100025190D01*
X143235119Y-100025190D02*
X143282738Y-100049000D01*
X143282738Y-100049000D02*
X143306548Y-100072809D01*
X143497024Y-100358523D02*
X143616072Y-100025190D01*
X143616072Y-100025190D02*
X143735119Y-100358523D01*
X144187500Y-100025190D02*
X143901786Y-100025190D01*
X144044643Y-100025190D02*
X144044643Y-100525190D01*
X144044643Y-100525190D02*
X143997024Y-100453761D01*
X143997024Y-100453761D02*
X143949405Y-100406142D01*
X143949405Y-100406142D02*
X143901786Y-100382333D01*
X133875595Y-91312809D02*
X133851786Y-91289000D01*
X133851786Y-91289000D02*
X133780357Y-91265190D01*
X133780357Y-91265190D02*
X133732738Y-91265190D01*
X133732738Y-91265190D02*
X133661310Y-91289000D01*
X133661310Y-91289000D02*
X133613691Y-91336619D01*
X133613691Y-91336619D02*
X133589881Y-91384238D01*
X133589881Y-91384238D02*
X133566072Y-91479476D01*
X133566072Y-91479476D02*
X133566072Y-91550904D01*
X133566072Y-91550904D02*
X133589881Y-91646142D01*
X133589881Y-91646142D02*
X133613691Y-91693761D01*
X133613691Y-91693761D02*
X133661310Y-91741380D01*
X133661310Y-91741380D02*
X133732738Y-91765190D01*
X133732738Y-91765190D02*
X133780357Y-91765190D01*
X133780357Y-91765190D02*
X133851786Y-91741380D01*
X133851786Y-91741380D02*
X133875595Y-91717571D01*
X134042262Y-91598523D02*
X134161310Y-91265190D01*
X134161310Y-91265190D02*
X134280357Y-91598523D01*
X134685119Y-91289000D02*
X134637500Y-91265190D01*
X134637500Y-91265190D02*
X134542262Y-91265190D01*
X134542262Y-91265190D02*
X134494643Y-91289000D01*
X134494643Y-91289000D02*
X134470833Y-91312809D01*
X134470833Y-91312809D02*
X134447024Y-91360428D01*
X134447024Y-91360428D02*
X134447024Y-91503285D01*
X134447024Y-91503285D02*
X134470833Y-91550904D01*
X134470833Y-91550904D02*
X134494643Y-91574714D01*
X134494643Y-91574714D02*
X134542262Y-91598523D01*
X134542262Y-91598523D02*
X134637500Y-91598523D01*
X134637500Y-91598523D02*
X134685119Y-91574714D01*
X135113690Y-91289000D02*
X135066071Y-91265190D01*
X135066071Y-91265190D02*
X134970833Y-91265190D01*
X134970833Y-91265190D02*
X134923214Y-91289000D01*
X134923214Y-91289000D02*
X134899404Y-91312809D01*
X134899404Y-91312809D02*
X134875595Y-91360428D01*
X134875595Y-91360428D02*
X134875595Y-91503285D01*
X134875595Y-91503285D02*
X134899404Y-91550904D01*
X134899404Y-91550904D02*
X134923214Y-91574714D01*
X134923214Y-91574714D02*
X134970833Y-91598523D01*
X134970833Y-91598523D02*
X135066071Y-91598523D01*
X135066071Y-91598523D02*
X135113690Y-91574714D01*
X135589880Y-91265190D02*
X135304166Y-91265190D01*
X135447023Y-91265190D02*
X135447023Y-91765190D01*
X135447023Y-91765190D02*
X135399404Y-91693761D01*
X135399404Y-91693761D02*
X135351785Y-91646142D01*
X135351785Y-91646142D02*
X135304166Y-91622333D01*
X131155166Y-99664285D02*
X131178976Y-99640476D01*
X131178976Y-99640476D02*
X131202785Y-99569047D01*
X131202785Y-99569047D02*
X131202785Y-99521428D01*
X131202785Y-99521428D02*
X131178976Y-99450000D01*
X131178976Y-99450000D02*
X131131356Y-99402381D01*
X131131356Y-99402381D02*
X131083737Y-99378571D01*
X131083737Y-99378571D02*
X130988499Y-99354762D01*
X130988499Y-99354762D02*
X130917071Y-99354762D01*
X130917071Y-99354762D02*
X130821833Y-99378571D01*
X130821833Y-99378571D02*
X130774214Y-99402381D01*
X130774214Y-99402381D02*
X130726595Y-99450000D01*
X130726595Y-99450000D02*
X130702785Y-99521428D01*
X130702785Y-99521428D02*
X130702785Y-99569047D01*
X130702785Y-99569047D02*
X130726595Y-99640476D01*
X130726595Y-99640476D02*
X130750404Y-99664285D01*
X131202785Y-99878571D02*
X130869452Y-99878571D01*
X130702785Y-99878571D02*
X130726595Y-99854762D01*
X130726595Y-99854762D02*
X130750404Y-99878571D01*
X130750404Y-99878571D02*
X130726595Y-99902381D01*
X130726595Y-99902381D02*
X130702785Y-99878571D01*
X130702785Y-99878571D02*
X130750404Y-99878571D01*
X131202785Y-100188095D02*
X131178976Y-100140476D01*
X131178976Y-100140476D02*
X131131356Y-100116666D01*
X131131356Y-100116666D02*
X130702785Y-100116666D01*
X131202785Y-100378571D02*
X130869452Y-100378571D01*
X130702785Y-100378571D02*
X130726595Y-100354762D01*
X130726595Y-100354762D02*
X130750404Y-100378571D01*
X130750404Y-100378571D02*
X130726595Y-100402381D01*
X130726595Y-100402381D02*
X130702785Y-100378571D01*
X130702785Y-100378571D02*
X130750404Y-100378571D01*
X131202785Y-100616666D02*
X130869452Y-100616666D01*
X130917071Y-100616666D02*
X130893261Y-100640476D01*
X130893261Y-100640476D02*
X130869452Y-100688095D01*
X130869452Y-100688095D02*
X130869452Y-100759523D01*
X130869452Y-100759523D02*
X130893261Y-100807142D01*
X130893261Y-100807142D02*
X130940880Y-100830952D01*
X130940880Y-100830952D02*
X131202785Y-100830952D01*
X130940880Y-100830952D02*
X130893261Y-100854761D01*
X130893261Y-100854761D02*
X130869452Y-100902380D01*
X130869452Y-100902380D02*
X130869452Y-100973809D01*
X130869452Y-100973809D02*
X130893261Y-101021428D01*
X130893261Y-101021428D02*
X130940880Y-101045238D01*
X130940880Y-101045238D02*
X131202785Y-101045238D01*
X131202785Y-101545238D02*
X131202785Y-101259524D01*
X131202785Y-101402381D02*
X130702785Y-101402381D01*
X130702785Y-101402381D02*
X130774214Y-101354762D01*
X130774214Y-101354762D02*
X130821833Y-101307143D01*
X130821833Y-101307143D02*
X130845642Y-101259524D01*
X140355166Y-106366666D02*
X140378976Y-106342857D01*
X140378976Y-106342857D02*
X140402785Y-106271428D01*
X140402785Y-106271428D02*
X140402785Y-106223809D01*
X140402785Y-106223809D02*
X140378976Y-106152381D01*
X140378976Y-106152381D02*
X140331356Y-106104762D01*
X140331356Y-106104762D02*
X140283737Y-106080952D01*
X140283737Y-106080952D02*
X140188499Y-106057143D01*
X140188499Y-106057143D02*
X140117071Y-106057143D01*
X140117071Y-106057143D02*
X140021833Y-106080952D01*
X140021833Y-106080952D02*
X139974214Y-106104762D01*
X139974214Y-106104762D02*
X139926595Y-106152381D01*
X139926595Y-106152381D02*
X139902785Y-106223809D01*
X139902785Y-106223809D02*
X139902785Y-106271428D01*
X139902785Y-106271428D02*
X139926595Y-106342857D01*
X139926595Y-106342857D02*
X139950404Y-106366666D01*
X140378976Y-106795238D02*
X140402785Y-106747619D01*
X140402785Y-106747619D02*
X140402785Y-106652381D01*
X140402785Y-106652381D02*
X140378976Y-106604762D01*
X140378976Y-106604762D02*
X140355166Y-106580952D01*
X140355166Y-106580952D02*
X140307547Y-106557143D01*
X140307547Y-106557143D02*
X140164690Y-106557143D01*
X140164690Y-106557143D02*
X140117071Y-106580952D01*
X140117071Y-106580952D02*
X140093261Y-106604762D01*
X140093261Y-106604762D02*
X140069452Y-106652381D01*
X140069452Y-106652381D02*
X140069452Y-106747619D01*
X140069452Y-106747619D02*
X140093261Y-106795238D01*
X140402785Y-107080952D02*
X140378976Y-107033333D01*
X140378976Y-107033333D02*
X140355166Y-107009523D01*
X140355166Y-107009523D02*
X140307547Y-106985714D01*
X140307547Y-106985714D02*
X140164690Y-106985714D01*
X140164690Y-106985714D02*
X140117071Y-107009523D01*
X140117071Y-107009523D02*
X140093261Y-107033333D01*
X140093261Y-107033333D02*
X140069452Y-107080952D01*
X140069452Y-107080952D02*
X140069452Y-107152380D01*
X140069452Y-107152380D02*
X140093261Y-107199999D01*
X140093261Y-107199999D02*
X140117071Y-107223809D01*
X140117071Y-107223809D02*
X140164690Y-107247618D01*
X140164690Y-107247618D02*
X140307547Y-107247618D01*
X140307547Y-107247618D02*
X140355166Y-107223809D01*
X140355166Y-107223809D02*
X140378976Y-107199999D01*
X140378976Y-107199999D02*
X140402785Y-107152380D01*
X140402785Y-107152380D02*
X140402785Y-107080952D01*
X140402785Y-107461904D02*
X140069452Y-107461904D01*
X140117071Y-107461904D02*
X140093261Y-107485714D01*
X140093261Y-107485714D02*
X140069452Y-107533333D01*
X140069452Y-107533333D02*
X140069452Y-107604761D01*
X140069452Y-107604761D02*
X140093261Y-107652380D01*
X140093261Y-107652380D02*
X140140880Y-107676190D01*
X140140880Y-107676190D02*
X140402785Y-107676190D01*
X140140880Y-107676190D02*
X140093261Y-107699999D01*
X140093261Y-107699999D02*
X140069452Y-107747618D01*
X140069452Y-107747618D02*
X140069452Y-107819047D01*
X140069452Y-107819047D02*
X140093261Y-107866666D01*
X140093261Y-107866666D02*
X140140880Y-107890476D01*
X140140880Y-107890476D02*
X140402785Y-107890476D01*
X140069452Y-108128571D02*
X140569452Y-108128571D01*
X140093261Y-108128571D02*
X140069452Y-108176190D01*
X140069452Y-108176190D02*
X140069452Y-108271428D01*
X140069452Y-108271428D02*
X140093261Y-108319047D01*
X140093261Y-108319047D02*
X140117071Y-108342857D01*
X140117071Y-108342857D02*
X140164690Y-108366666D01*
X140164690Y-108366666D02*
X140307547Y-108366666D01*
X140307547Y-108366666D02*
X140355166Y-108342857D01*
X140355166Y-108342857D02*
X140378976Y-108319047D01*
X140378976Y-108319047D02*
X140402785Y-108271428D01*
X140402785Y-108271428D02*
X140402785Y-108176190D01*
X140402785Y-108176190D02*
X140378976Y-108128571D01*
X139950404Y-108557143D02*
X139926595Y-108580952D01*
X139926595Y-108580952D02*
X139902785Y-108628571D01*
X139902785Y-108628571D02*
X139902785Y-108747619D01*
X139902785Y-108747619D02*
X139926595Y-108795238D01*
X139926595Y-108795238D02*
X139950404Y-108819047D01*
X139950404Y-108819047D02*
X139998023Y-108842857D01*
X139998023Y-108842857D02*
X140045642Y-108842857D01*
X140045642Y-108842857D02*
X140117071Y-108819047D01*
X140117071Y-108819047D02*
X140402785Y-108533333D01*
X140402785Y-108533333D02*
X140402785Y-108842857D01*
X134802785Y-110766666D02*
X134564690Y-110600000D01*
X134802785Y-110480952D02*
X134302785Y-110480952D01*
X134302785Y-110480952D02*
X134302785Y-110671428D01*
X134302785Y-110671428D02*
X134326595Y-110719047D01*
X134326595Y-110719047D02*
X134350404Y-110742857D01*
X134350404Y-110742857D02*
X134398023Y-110766666D01*
X134398023Y-110766666D02*
X134469452Y-110766666D01*
X134469452Y-110766666D02*
X134517071Y-110742857D01*
X134517071Y-110742857D02*
X134540880Y-110719047D01*
X134540880Y-110719047D02*
X134564690Y-110671428D01*
X134564690Y-110671428D02*
X134564690Y-110480952D01*
X134778976Y-111195238D02*
X134802785Y-111147619D01*
X134802785Y-111147619D02*
X134802785Y-111052381D01*
X134802785Y-111052381D02*
X134778976Y-111004762D01*
X134778976Y-111004762D02*
X134755166Y-110980952D01*
X134755166Y-110980952D02*
X134707547Y-110957143D01*
X134707547Y-110957143D02*
X134564690Y-110957143D01*
X134564690Y-110957143D02*
X134517071Y-110980952D01*
X134517071Y-110980952D02*
X134493261Y-111004762D01*
X134493261Y-111004762D02*
X134469452Y-111052381D01*
X134469452Y-111052381D02*
X134469452Y-111147619D01*
X134469452Y-111147619D02*
X134493261Y-111195238D01*
X134802785Y-111480952D02*
X134778976Y-111433333D01*
X134778976Y-111433333D02*
X134755166Y-111409523D01*
X134755166Y-111409523D02*
X134707547Y-111385714D01*
X134707547Y-111385714D02*
X134564690Y-111385714D01*
X134564690Y-111385714D02*
X134517071Y-111409523D01*
X134517071Y-111409523D02*
X134493261Y-111433333D01*
X134493261Y-111433333D02*
X134469452Y-111480952D01*
X134469452Y-111480952D02*
X134469452Y-111552380D01*
X134469452Y-111552380D02*
X134493261Y-111599999D01*
X134493261Y-111599999D02*
X134517071Y-111623809D01*
X134517071Y-111623809D02*
X134564690Y-111647618D01*
X134564690Y-111647618D02*
X134707547Y-111647618D01*
X134707547Y-111647618D02*
X134755166Y-111623809D01*
X134755166Y-111623809D02*
X134778976Y-111599999D01*
X134778976Y-111599999D02*
X134802785Y-111552380D01*
X134802785Y-111552380D02*
X134802785Y-111480952D01*
X134802785Y-111861904D02*
X134469452Y-111861904D01*
X134517071Y-111861904D02*
X134493261Y-111885714D01*
X134493261Y-111885714D02*
X134469452Y-111933333D01*
X134469452Y-111933333D02*
X134469452Y-112004761D01*
X134469452Y-112004761D02*
X134493261Y-112052380D01*
X134493261Y-112052380D02*
X134540880Y-112076190D01*
X134540880Y-112076190D02*
X134802785Y-112076190D01*
X134540880Y-112076190D02*
X134493261Y-112099999D01*
X134493261Y-112099999D02*
X134469452Y-112147618D01*
X134469452Y-112147618D02*
X134469452Y-112219047D01*
X134469452Y-112219047D02*
X134493261Y-112266666D01*
X134493261Y-112266666D02*
X134540880Y-112290476D01*
X134540880Y-112290476D02*
X134802785Y-112290476D01*
X134469452Y-112528571D02*
X134969452Y-112528571D01*
X134493261Y-112528571D02*
X134469452Y-112576190D01*
X134469452Y-112576190D02*
X134469452Y-112671428D01*
X134469452Y-112671428D02*
X134493261Y-112719047D01*
X134493261Y-112719047D02*
X134517071Y-112742857D01*
X134517071Y-112742857D02*
X134564690Y-112766666D01*
X134564690Y-112766666D02*
X134707547Y-112766666D01*
X134707547Y-112766666D02*
X134755166Y-112742857D01*
X134755166Y-112742857D02*
X134778976Y-112719047D01*
X134778976Y-112719047D02*
X134802785Y-112671428D01*
X134802785Y-112671428D02*
X134802785Y-112576190D01*
X134802785Y-112576190D02*
X134778976Y-112528571D01*
X134350404Y-112957143D02*
X134326595Y-112980952D01*
X134326595Y-112980952D02*
X134302785Y-113028571D01*
X134302785Y-113028571D02*
X134302785Y-113147619D01*
X134302785Y-113147619D02*
X134326595Y-113195238D01*
X134326595Y-113195238D02*
X134350404Y-113219047D01*
X134350404Y-113219047D02*
X134398023Y-113242857D01*
X134398023Y-113242857D02*
X134445642Y-113242857D01*
X134445642Y-113242857D02*
X134517071Y-113219047D01*
X134517071Y-113219047D02*
X134802785Y-112933333D01*
X134802785Y-112933333D02*
X134802785Y-113242857D01*
X136694642Y-113472809D02*
X136670833Y-113449000D01*
X136670833Y-113449000D02*
X136599404Y-113425190D01*
X136599404Y-113425190D02*
X136551785Y-113425190D01*
X136551785Y-113425190D02*
X136480357Y-113449000D01*
X136480357Y-113449000D02*
X136432738Y-113496619D01*
X136432738Y-113496619D02*
X136408928Y-113544238D01*
X136408928Y-113544238D02*
X136385119Y-113639476D01*
X136385119Y-113639476D02*
X136385119Y-113710904D01*
X136385119Y-113710904D02*
X136408928Y-113806142D01*
X136408928Y-113806142D02*
X136432738Y-113853761D01*
X136432738Y-113853761D02*
X136480357Y-113901380D01*
X136480357Y-113901380D02*
X136551785Y-113925190D01*
X136551785Y-113925190D02*
X136599404Y-113925190D01*
X136599404Y-113925190D02*
X136670833Y-113901380D01*
X136670833Y-113901380D02*
X136694642Y-113877571D01*
X137123214Y-113449000D02*
X137075595Y-113425190D01*
X137075595Y-113425190D02*
X136980357Y-113425190D01*
X136980357Y-113425190D02*
X136932738Y-113449000D01*
X136932738Y-113449000D02*
X136908928Y-113472809D01*
X136908928Y-113472809D02*
X136885119Y-113520428D01*
X136885119Y-113520428D02*
X136885119Y-113663285D01*
X136885119Y-113663285D02*
X136908928Y-113710904D01*
X136908928Y-113710904D02*
X136932738Y-113734714D01*
X136932738Y-113734714D02*
X136980357Y-113758523D01*
X136980357Y-113758523D02*
X137075595Y-113758523D01*
X137075595Y-113758523D02*
X137123214Y-113734714D01*
X137408928Y-113425190D02*
X137361309Y-113449000D01*
X137361309Y-113449000D02*
X137337499Y-113472809D01*
X137337499Y-113472809D02*
X137313690Y-113520428D01*
X137313690Y-113520428D02*
X137313690Y-113663285D01*
X137313690Y-113663285D02*
X137337499Y-113710904D01*
X137337499Y-113710904D02*
X137361309Y-113734714D01*
X137361309Y-113734714D02*
X137408928Y-113758523D01*
X137408928Y-113758523D02*
X137480356Y-113758523D01*
X137480356Y-113758523D02*
X137527975Y-113734714D01*
X137527975Y-113734714D02*
X137551785Y-113710904D01*
X137551785Y-113710904D02*
X137575594Y-113663285D01*
X137575594Y-113663285D02*
X137575594Y-113520428D01*
X137575594Y-113520428D02*
X137551785Y-113472809D01*
X137551785Y-113472809D02*
X137527975Y-113449000D01*
X137527975Y-113449000D02*
X137480356Y-113425190D01*
X137480356Y-113425190D02*
X137408928Y-113425190D01*
X137789880Y-113425190D02*
X137789880Y-113758523D01*
X137789880Y-113710904D02*
X137813690Y-113734714D01*
X137813690Y-113734714D02*
X137861309Y-113758523D01*
X137861309Y-113758523D02*
X137932737Y-113758523D01*
X137932737Y-113758523D02*
X137980356Y-113734714D01*
X137980356Y-113734714D02*
X138004166Y-113687095D01*
X138004166Y-113687095D02*
X138004166Y-113425190D01*
X138004166Y-113687095D02*
X138027975Y-113734714D01*
X138027975Y-113734714D02*
X138075594Y-113758523D01*
X138075594Y-113758523D02*
X138147023Y-113758523D01*
X138147023Y-113758523D02*
X138194642Y-113734714D01*
X138194642Y-113734714D02*
X138218452Y-113687095D01*
X138218452Y-113687095D02*
X138218452Y-113425190D01*
X138456547Y-113758523D02*
X138456547Y-113258523D01*
X138456547Y-113734714D02*
X138504166Y-113758523D01*
X138504166Y-113758523D02*
X138599404Y-113758523D01*
X138599404Y-113758523D02*
X138647023Y-113734714D01*
X138647023Y-113734714D02*
X138670833Y-113710904D01*
X138670833Y-113710904D02*
X138694642Y-113663285D01*
X138694642Y-113663285D02*
X138694642Y-113520428D01*
X138694642Y-113520428D02*
X138670833Y-113472809D01*
X138670833Y-113472809D02*
X138647023Y-113449000D01*
X138647023Y-113449000D02*
X138599404Y-113425190D01*
X138599404Y-113425190D02*
X138504166Y-113425190D01*
X138504166Y-113425190D02*
X138456547Y-113449000D01*
X138861309Y-113925190D02*
X139170833Y-113925190D01*
X139170833Y-113925190D02*
X139004166Y-113734714D01*
X139004166Y-113734714D02*
X139075595Y-113734714D01*
X139075595Y-113734714D02*
X139123214Y-113710904D01*
X139123214Y-113710904D02*
X139147023Y-113687095D01*
X139147023Y-113687095D02*
X139170833Y-113639476D01*
X139170833Y-113639476D02*
X139170833Y-113520428D01*
X139170833Y-113520428D02*
X139147023Y-113472809D01*
X139147023Y-113472809D02*
X139123214Y-113449000D01*
X139123214Y-113449000D02*
X139075595Y-113425190D01*
X139075595Y-113425190D02*
X138932738Y-113425190D01*
X138932738Y-113425190D02*
X138885119Y-113449000D01*
X138885119Y-113449000D02*
X138861309Y-113472809D01*
X141202785Y-108766666D02*
X140964690Y-108600000D01*
X141202785Y-108480952D02*
X140702785Y-108480952D01*
X140702785Y-108480952D02*
X140702785Y-108671428D01*
X140702785Y-108671428D02*
X140726595Y-108719047D01*
X140726595Y-108719047D02*
X140750404Y-108742857D01*
X140750404Y-108742857D02*
X140798023Y-108766666D01*
X140798023Y-108766666D02*
X140869452Y-108766666D01*
X140869452Y-108766666D02*
X140917071Y-108742857D01*
X140917071Y-108742857D02*
X140940880Y-108719047D01*
X140940880Y-108719047D02*
X140964690Y-108671428D01*
X140964690Y-108671428D02*
X140964690Y-108480952D01*
X141178976Y-109195238D02*
X141202785Y-109147619D01*
X141202785Y-109147619D02*
X141202785Y-109052381D01*
X141202785Y-109052381D02*
X141178976Y-109004762D01*
X141178976Y-109004762D02*
X141155166Y-108980952D01*
X141155166Y-108980952D02*
X141107547Y-108957143D01*
X141107547Y-108957143D02*
X140964690Y-108957143D01*
X140964690Y-108957143D02*
X140917071Y-108980952D01*
X140917071Y-108980952D02*
X140893261Y-109004762D01*
X140893261Y-109004762D02*
X140869452Y-109052381D01*
X140869452Y-109052381D02*
X140869452Y-109147619D01*
X140869452Y-109147619D02*
X140893261Y-109195238D01*
X141202785Y-109480952D02*
X141178976Y-109433333D01*
X141178976Y-109433333D02*
X141155166Y-109409523D01*
X141155166Y-109409523D02*
X141107547Y-109385714D01*
X141107547Y-109385714D02*
X140964690Y-109385714D01*
X140964690Y-109385714D02*
X140917071Y-109409523D01*
X140917071Y-109409523D02*
X140893261Y-109433333D01*
X140893261Y-109433333D02*
X140869452Y-109480952D01*
X140869452Y-109480952D02*
X140869452Y-109552380D01*
X140869452Y-109552380D02*
X140893261Y-109599999D01*
X140893261Y-109599999D02*
X140917071Y-109623809D01*
X140917071Y-109623809D02*
X140964690Y-109647618D01*
X140964690Y-109647618D02*
X141107547Y-109647618D01*
X141107547Y-109647618D02*
X141155166Y-109623809D01*
X141155166Y-109623809D02*
X141178976Y-109599999D01*
X141178976Y-109599999D02*
X141202785Y-109552380D01*
X141202785Y-109552380D02*
X141202785Y-109480952D01*
X141202785Y-109861904D02*
X140869452Y-109861904D01*
X140917071Y-109861904D02*
X140893261Y-109885714D01*
X140893261Y-109885714D02*
X140869452Y-109933333D01*
X140869452Y-109933333D02*
X140869452Y-110004761D01*
X140869452Y-110004761D02*
X140893261Y-110052380D01*
X140893261Y-110052380D02*
X140940880Y-110076190D01*
X140940880Y-110076190D02*
X141202785Y-110076190D01*
X140940880Y-110076190D02*
X140893261Y-110099999D01*
X140893261Y-110099999D02*
X140869452Y-110147618D01*
X140869452Y-110147618D02*
X140869452Y-110219047D01*
X140869452Y-110219047D02*
X140893261Y-110266666D01*
X140893261Y-110266666D02*
X140940880Y-110290476D01*
X140940880Y-110290476D02*
X141202785Y-110290476D01*
X140869452Y-110528571D02*
X141369452Y-110528571D01*
X140893261Y-110528571D02*
X140869452Y-110576190D01*
X140869452Y-110576190D02*
X140869452Y-110671428D01*
X140869452Y-110671428D02*
X140893261Y-110719047D01*
X140893261Y-110719047D02*
X140917071Y-110742857D01*
X140917071Y-110742857D02*
X140964690Y-110766666D01*
X140964690Y-110766666D02*
X141107547Y-110766666D01*
X141107547Y-110766666D02*
X141155166Y-110742857D01*
X141155166Y-110742857D02*
X141178976Y-110719047D01*
X141178976Y-110719047D02*
X141202785Y-110671428D01*
X141202785Y-110671428D02*
X141202785Y-110576190D01*
X141202785Y-110576190D02*
X141178976Y-110528571D01*
X141202785Y-111242857D02*
X141202785Y-110957143D01*
X141202785Y-111100000D02*
X140702785Y-111100000D01*
X140702785Y-111100000D02*
X140774214Y-111052381D01*
X140774214Y-111052381D02*
X140821833Y-111004762D01*
X140821833Y-111004762D02*
X140845642Y-110957143D01*
X133875595Y-105625190D02*
X133708929Y-105863285D01*
X133589881Y-105625190D02*
X133589881Y-106125190D01*
X133589881Y-106125190D02*
X133780357Y-106125190D01*
X133780357Y-106125190D02*
X133827976Y-106101380D01*
X133827976Y-106101380D02*
X133851786Y-106077571D01*
X133851786Y-106077571D02*
X133875595Y-106029952D01*
X133875595Y-106029952D02*
X133875595Y-105958523D01*
X133875595Y-105958523D02*
X133851786Y-105910904D01*
X133851786Y-105910904D02*
X133827976Y-105887095D01*
X133827976Y-105887095D02*
X133780357Y-105863285D01*
X133780357Y-105863285D02*
X133589881Y-105863285D01*
X134042262Y-105958523D02*
X134161310Y-105625190D01*
X134161310Y-105625190D02*
X134280357Y-105958523D01*
X134685119Y-105649000D02*
X134637500Y-105625190D01*
X134637500Y-105625190D02*
X134542262Y-105625190D01*
X134542262Y-105625190D02*
X134494643Y-105649000D01*
X134494643Y-105649000D02*
X134470833Y-105672809D01*
X134470833Y-105672809D02*
X134447024Y-105720428D01*
X134447024Y-105720428D02*
X134447024Y-105863285D01*
X134447024Y-105863285D02*
X134470833Y-105910904D01*
X134470833Y-105910904D02*
X134494643Y-105934714D01*
X134494643Y-105934714D02*
X134542262Y-105958523D01*
X134542262Y-105958523D02*
X134637500Y-105958523D01*
X134637500Y-105958523D02*
X134685119Y-105934714D01*
X135113690Y-105649000D02*
X135066071Y-105625190D01*
X135066071Y-105625190D02*
X134970833Y-105625190D01*
X134970833Y-105625190D02*
X134923214Y-105649000D01*
X134923214Y-105649000D02*
X134899404Y-105672809D01*
X134899404Y-105672809D02*
X134875595Y-105720428D01*
X134875595Y-105720428D02*
X134875595Y-105863285D01*
X134875595Y-105863285D02*
X134899404Y-105910904D01*
X134899404Y-105910904D02*
X134923214Y-105934714D01*
X134923214Y-105934714D02*
X134970833Y-105958523D01*
X134970833Y-105958523D02*
X135066071Y-105958523D01*
X135066071Y-105958523D02*
X135113690Y-105934714D01*
X135589880Y-105625190D02*
X135304166Y-105625190D01*
X135447023Y-105625190D02*
X135447023Y-106125190D01*
X135447023Y-106125190D02*
X135399404Y-106053761D01*
X135399404Y-106053761D02*
X135351785Y-106006142D01*
X135351785Y-106006142D02*
X135304166Y-105982333D01*
X138402785Y-109797619D02*
X138164690Y-109630953D01*
X138402785Y-109511905D02*
X137902785Y-109511905D01*
X137902785Y-109511905D02*
X137902785Y-109702381D01*
X137902785Y-109702381D02*
X137926595Y-109750000D01*
X137926595Y-109750000D02*
X137950404Y-109773810D01*
X137950404Y-109773810D02*
X137998023Y-109797619D01*
X137998023Y-109797619D02*
X138069452Y-109797619D01*
X138069452Y-109797619D02*
X138117071Y-109773810D01*
X138117071Y-109773810D02*
X138140880Y-109750000D01*
X138140880Y-109750000D02*
X138164690Y-109702381D01*
X138164690Y-109702381D02*
X138164690Y-109511905D01*
X138069452Y-109940477D02*
X138069452Y-110130953D01*
X138402785Y-110011905D02*
X137974214Y-110011905D01*
X137974214Y-110011905D02*
X137926595Y-110035715D01*
X137926595Y-110035715D02*
X137902785Y-110083334D01*
X137902785Y-110083334D02*
X137902785Y-110130953D01*
X138402785Y-110297619D02*
X137902785Y-110297619D01*
X138093261Y-110297619D02*
X138069452Y-110345238D01*
X138069452Y-110345238D02*
X138069452Y-110440476D01*
X138069452Y-110440476D02*
X138093261Y-110488095D01*
X138093261Y-110488095D02*
X138117071Y-110511905D01*
X138117071Y-110511905D02*
X138164690Y-110535714D01*
X138164690Y-110535714D02*
X138307547Y-110535714D01*
X138307547Y-110535714D02*
X138355166Y-110511905D01*
X138355166Y-110511905D02*
X138378976Y-110488095D01*
X138378976Y-110488095D02*
X138402785Y-110440476D01*
X138402785Y-110440476D02*
X138402785Y-110345238D01*
X138402785Y-110345238D02*
X138378976Y-110297619D01*
X138402785Y-111011905D02*
X138402785Y-110726191D01*
X138402785Y-110869048D02*
X137902785Y-110869048D01*
X137902785Y-110869048D02*
X137974214Y-110821429D01*
X137974214Y-110821429D02*
X138021833Y-110773810D01*
X138021833Y-110773810D02*
X138045642Y-110726191D01*
X143558928Y-98472809D02*
X143535119Y-98449000D01*
X143535119Y-98449000D02*
X143463690Y-98425190D01*
X143463690Y-98425190D02*
X143416071Y-98425190D01*
X143416071Y-98425190D02*
X143344643Y-98449000D01*
X143344643Y-98449000D02*
X143297024Y-98496619D01*
X143297024Y-98496619D02*
X143273214Y-98544238D01*
X143273214Y-98544238D02*
X143249405Y-98639476D01*
X143249405Y-98639476D02*
X143249405Y-98710904D01*
X143249405Y-98710904D02*
X143273214Y-98806142D01*
X143273214Y-98806142D02*
X143297024Y-98853761D01*
X143297024Y-98853761D02*
X143344643Y-98901380D01*
X143344643Y-98901380D02*
X143416071Y-98925190D01*
X143416071Y-98925190D02*
X143463690Y-98925190D01*
X143463690Y-98925190D02*
X143535119Y-98901380D01*
X143535119Y-98901380D02*
X143558928Y-98877571D01*
X143725595Y-98758523D02*
X143844643Y-98425190D01*
X143844643Y-98425190D02*
X143963690Y-98758523D01*
X144154166Y-98425190D02*
X144154166Y-98758523D01*
X144154166Y-98925190D02*
X144130357Y-98901380D01*
X144130357Y-98901380D02*
X144154166Y-98877571D01*
X144154166Y-98877571D02*
X144177976Y-98901380D01*
X144177976Y-98901380D02*
X144154166Y-98925190D01*
X144154166Y-98925190D02*
X144154166Y-98877571D01*
X144392261Y-98758523D02*
X144392261Y-98425190D01*
X144392261Y-98710904D02*
X144416071Y-98734714D01*
X144416071Y-98734714D02*
X144463690Y-98758523D01*
X144463690Y-98758523D02*
X144535118Y-98758523D01*
X144535118Y-98758523D02*
X144582737Y-98734714D01*
X144582737Y-98734714D02*
X144606547Y-98687095D01*
X144606547Y-98687095D02*
X144606547Y-98425190D01*
X145106547Y-98425190D02*
X144820833Y-98425190D01*
X144963690Y-98425190D02*
X144963690Y-98925190D01*
X144963690Y-98925190D02*
X144916071Y-98853761D01*
X144916071Y-98853761D02*
X144868452Y-98806142D01*
X144868452Y-98806142D02*
X144820833Y-98782333D01*
X138355166Y-106566666D02*
X138378976Y-106542857D01*
X138378976Y-106542857D02*
X138402785Y-106471428D01*
X138402785Y-106471428D02*
X138402785Y-106423809D01*
X138402785Y-106423809D02*
X138378976Y-106352381D01*
X138378976Y-106352381D02*
X138331356Y-106304762D01*
X138331356Y-106304762D02*
X138283737Y-106280952D01*
X138283737Y-106280952D02*
X138188499Y-106257143D01*
X138188499Y-106257143D02*
X138117071Y-106257143D01*
X138117071Y-106257143D02*
X138021833Y-106280952D01*
X138021833Y-106280952D02*
X137974214Y-106304762D01*
X137974214Y-106304762D02*
X137926595Y-106352381D01*
X137926595Y-106352381D02*
X137902785Y-106423809D01*
X137902785Y-106423809D02*
X137902785Y-106471428D01*
X137902785Y-106471428D02*
X137926595Y-106542857D01*
X137926595Y-106542857D02*
X137950404Y-106566666D01*
X138378976Y-106995238D02*
X138402785Y-106947619D01*
X138402785Y-106947619D02*
X138402785Y-106852381D01*
X138402785Y-106852381D02*
X138378976Y-106804762D01*
X138378976Y-106804762D02*
X138355166Y-106780952D01*
X138355166Y-106780952D02*
X138307547Y-106757143D01*
X138307547Y-106757143D02*
X138164690Y-106757143D01*
X138164690Y-106757143D02*
X138117071Y-106780952D01*
X138117071Y-106780952D02*
X138093261Y-106804762D01*
X138093261Y-106804762D02*
X138069452Y-106852381D01*
X138069452Y-106852381D02*
X138069452Y-106947619D01*
X138069452Y-106947619D02*
X138093261Y-106995238D01*
X138402785Y-107280952D02*
X138378976Y-107233333D01*
X138378976Y-107233333D02*
X138355166Y-107209523D01*
X138355166Y-107209523D02*
X138307547Y-107185714D01*
X138307547Y-107185714D02*
X138164690Y-107185714D01*
X138164690Y-107185714D02*
X138117071Y-107209523D01*
X138117071Y-107209523D02*
X138093261Y-107233333D01*
X138093261Y-107233333D02*
X138069452Y-107280952D01*
X138069452Y-107280952D02*
X138069452Y-107352380D01*
X138069452Y-107352380D02*
X138093261Y-107399999D01*
X138093261Y-107399999D02*
X138117071Y-107423809D01*
X138117071Y-107423809D02*
X138164690Y-107447618D01*
X138164690Y-107447618D02*
X138307547Y-107447618D01*
X138307547Y-107447618D02*
X138355166Y-107423809D01*
X138355166Y-107423809D02*
X138378976Y-107399999D01*
X138378976Y-107399999D02*
X138402785Y-107352380D01*
X138402785Y-107352380D02*
X138402785Y-107280952D01*
X138402785Y-107661904D02*
X138069452Y-107661904D01*
X138117071Y-107661904D02*
X138093261Y-107685714D01*
X138093261Y-107685714D02*
X138069452Y-107733333D01*
X138069452Y-107733333D02*
X138069452Y-107804761D01*
X138069452Y-107804761D02*
X138093261Y-107852380D01*
X138093261Y-107852380D02*
X138140880Y-107876190D01*
X138140880Y-107876190D02*
X138402785Y-107876190D01*
X138140880Y-107876190D02*
X138093261Y-107899999D01*
X138093261Y-107899999D02*
X138069452Y-107947618D01*
X138069452Y-107947618D02*
X138069452Y-108019047D01*
X138069452Y-108019047D02*
X138093261Y-108066666D01*
X138093261Y-108066666D02*
X138140880Y-108090476D01*
X138140880Y-108090476D02*
X138402785Y-108090476D01*
X138069452Y-108328571D02*
X138569452Y-108328571D01*
X138093261Y-108328571D02*
X138069452Y-108376190D01*
X138069452Y-108376190D02*
X138069452Y-108471428D01*
X138069452Y-108471428D02*
X138093261Y-108519047D01*
X138093261Y-108519047D02*
X138117071Y-108542857D01*
X138117071Y-108542857D02*
X138164690Y-108566666D01*
X138164690Y-108566666D02*
X138307547Y-108566666D01*
X138307547Y-108566666D02*
X138355166Y-108542857D01*
X138355166Y-108542857D02*
X138378976Y-108519047D01*
X138378976Y-108519047D02*
X138402785Y-108471428D01*
X138402785Y-108471428D02*
X138402785Y-108376190D01*
X138402785Y-108376190D02*
X138378976Y-108328571D01*
X138402785Y-109042857D02*
X138402785Y-108757143D01*
X138402785Y-108900000D02*
X137902785Y-108900000D01*
X137902785Y-108900000D02*
X137974214Y-108852381D01*
X137974214Y-108852381D02*
X138021833Y-108804762D01*
X138021833Y-108804762D02*
X138045642Y-108757143D01*
X143002785Y-102869047D02*
X142764690Y-102702381D01*
X143002785Y-102583333D02*
X142502785Y-102583333D01*
X142502785Y-102583333D02*
X142502785Y-102773809D01*
X142502785Y-102773809D02*
X142526595Y-102821428D01*
X142526595Y-102821428D02*
X142550404Y-102845238D01*
X142550404Y-102845238D02*
X142598023Y-102869047D01*
X142598023Y-102869047D02*
X142669452Y-102869047D01*
X142669452Y-102869047D02*
X142717071Y-102845238D01*
X142717071Y-102845238D02*
X142740880Y-102821428D01*
X142740880Y-102821428D02*
X142764690Y-102773809D01*
X142764690Y-102773809D02*
X142764690Y-102583333D01*
X143002785Y-103083333D02*
X142669452Y-103083333D01*
X142764690Y-103083333D02*
X142717071Y-103107143D01*
X142717071Y-103107143D02*
X142693261Y-103130952D01*
X142693261Y-103130952D02*
X142669452Y-103178571D01*
X142669452Y-103178571D02*
X142669452Y-103226190D01*
X142669452Y-103321429D02*
X142669452Y-103511905D01*
X142502785Y-103392857D02*
X142931356Y-103392857D01*
X142931356Y-103392857D02*
X142978976Y-103416667D01*
X142978976Y-103416667D02*
X143002785Y-103464286D01*
X143002785Y-103464286D02*
X143002785Y-103511905D01*
X143002785Y-103940476D02*
X143002785Y-103654762D01*
X143002785Y-103797619D02*
X142502785Y-103797619D01*
X142502785Y-103797619D02*
X142574214Y-103750000D01*
X142574214Y-103750000D02*
X142621833Y-103702381D01*
X142621833Y-103702381D02*
X142645642Y-103654762D01*
X141202785Y-111997619D02*
X140964690Y-111830953D01*
X141202785Y-111711905D02*
X140702785Y-111711905D01*
X140702785Y-111711905D02*
X140702785Y-111902381D01*
X140702785Y-111902381D02*
X140726595Y-111950000D01*
X140726595Y-111950000D02*
X140750404Y-111973810D01*
X140750404Y-111973810D02*
X140798023Y-111997619D01*
X140798023Y-111997619D02*
X140869452Y-111997619D01*
X140869452Y-111997619D02*
X140917071Y-111973810D01*
X140917071Y-111973810D02*
X140940880Y-111950000D01*
X140940880Y-111950000D02*
X140964690Y-111902381D01*
X140964690Y-111902381D02*
X140964690Y-111711905D01*
X140869452Y-112140477D02*
X140869452Y-112330953D01*
X141202785Y-112211905D02*
X140774214Y-112211905D01*
X140774214Y-112211905D02*
X140726595Y-112235715D01*
X140726595Y-112235715D02*
X140702785Y-112283334D01*
X140702785Y-112283334D02*
X140702785Y-112330953D01*
X141202785Y-112497619D02*
X140702785Y-112497619D01*
X140893261Y-112497619D02*
X140869452Y-112545238D01*
X140869452Y-112545238D02*
X140869452Y-112640476D01*
X140869452Y-112640476D02*
X140893261Y-112688095D01*
X140893261Y-112688095D02*
X140917071Y-112711905D01*
X140917071Y-112711905D02*
X140964690Y-112735714D01*
X140964690Y-112735714D02*
X141107547Y-112735714D01*
X141107547Y-112735714D02*
X141155166Y-112711905D01*
X141155166Y-112711905D02*
X141178976Y-112688095D01*
X141178976Y-112688095D02*
X141202785Y-112640476D01*
X141202785Y-112640476D02*
X141202785Y-112545238D01*
X141202785Y-112545238D02*
X141178976Y-112497619D01*
X140750404Y-112926191D02*
X140726595Y-112950000D01*
X140726595Y-112950000D02*
X140702785Y-112997619D01*
X140702785Y-112997619D02*
X140702785Y-113116667D01*
X140702785Y-113116667D02*
X140726595Y-113164286D01*
X140726595Y-113164286D02*
X140750404Y-113188095D01*
X140750404Y-113188095D02*
X140798023Y-113211905D01*
X140798023Y-113211905D02*
X140845642Y-113211905D01*
X140845642Y-113211905D02*
X140917071Y-113188095D01*
X140917071Y-113188095D02*
X141202785Y-112902381D01*
X141202785Y-112902381D02*
X141202785Y-113211905D01*
X143558928Y-96825190D02*
X143392262Y-97063285D01*
X143273214Y-96825190D02*
X143273214Y-97325190D01*
X143273214Y-97325190D02*
X143463690Y-97325190D01*
X143463690Y-97325190D02*
X143511309Y-97301380D01*
X143511309Y-97301380D02*
X143535119Y-97277571D01*
X143535119Y-97277571D02*
X143558928Y-97229952D01*
X143558928Y-97229952D02*
X143558928Y-97158523D01*
X143558928Y-97158523D02*
X143535119Y-97110904D01*
X143535119Y-97110904D02*
X143511309Y-97087095D01*
X143511309Y-97087095D02*
X143463690Y-97063285D01*
X143463690Y-97063285D02*
X143273214Y-97063285D01*
X143725595Y-97158523D02*
X143844643Y-96825190D01*
X143844643Y-96825190D02*
X143963690Y-97158523D01*
X144154166Y-96825190D02*
X144154166Y-97158523D01*
X144154166Y-97325190D02*
X144130357Y-97301380D01*
X144130357Y-97301380D02*
X144154166Y-97277571D01*
X144154166Y-97277571D02*
X144177976Y-97301380D01*
X144177976Y-97301380D02*
X144154166Y-97325190D01*
X144154166Y-97325190D02*
X144154166Y-97277571D01*
X144392261Y-97158523D02*
X144392261Y-96825190D01*
X144392261Y-97110904D02*
X144416071Y-97134714D01*
X144416071Y-97134714D02*
X144463690Y-97158523D01*
X144463690Y-97158523D02*
X144535118Y-97158523D01*
X144535118Y-97158523D02*
X144582737Y-97134714D01*
X144582737Y-97134714D02*
X144606547Y-97087095D01*
X144606547Y-97087095D02*
X144606547Y-96825190D01*
X145106547Y-96825190D02*
X144820833Y-96825190D01*
X144963690Y-96825190D02*
X144963690Y-97325190D01*
X144963690Y-97325190D02*
X144916071Y-97253761D01*
X144916071Y-97253761D02*
X144868452Y-97206142D01*
X144868452Y-97206142D02*
X144820833Y-97182333D01*
X139502785Y-98669047D02*
X139907547Y-98669047D01*
X139907547Y-98669047D02*
X139955166Y-98692857D01*
X139955166Y-98692857D02*
X139978976Y-98716666D01*
X139978976Y-98716666D02*
X140002785Y-98764285D01*
X140002785Y-98764285D02*
X140002785Y-98859523D01*
X140002785Y-98859523D02*
X139978976Y-98907142D01*
X139978976Y-98907142D02*
X139955166Y-98930952D01*
X139955166Y-98930952D02*
X139907547Y-98954761D01*
X139907547Y-98954761D02*
X139502785Y-98954761D01*
X139669452Y-99407143D02*
X140002785Y-99407143D01*
X139478976Y-99288095D02*
X139836118Y-99169048D01*
X139836118Y-99169048D02*
X139836118Y-99478571D01*
X132202785Y-101235714D02*
X131964690Y-101069048D01*
X132202785Y-100950000D02*
X131702785Y-100950000D01*
X131702785Y-100950000D02*
X131702785Y-101140476D01*
X131702785Y-101140476D02*
X131726595Y-101188095D01*
X131726595Y-101188095D02*
X131750404Y-101211905D01*
X131750404Y-101211905D02*
X131798023Y-101235714D01*
X131798023Y-101235714D02*
X131869452Y-101235714D01*
X131869452Y-101235714D02*
X131917071Y-101211905D01*
X131917071Y-101211905D02*
X131940880Y-101188095D01*
X131940880Y-101188095D02*
X131964690Y-101140476D01*
X131964690Y-101140476D02*
X131964690Y-100950000D01*
X131869452Y-101450000D02*
X132369452Y-101450000D01*
X131893261Y-101450000D02*
X131869452Y-101497619D01*
X131869452Y-101497619D02*
X131869452Y-101592857D01*
X131869452Y-101592857D02*
X131893261Y-101640476D01*
X131893261Y-101640476D02*
X131917071Y-101664286D01*
X131917071Y-101664286D02*
X131964690Y-101688095D01*
X131964690Y-101688095D02*
X132107547Y-101688095D01*
X132107547Y-101688095D02*
X132155166Y-101664286D01*
X132155166Y-101664286D02*
X132178976Y-101640476D01*
X132178976Y-101640476D02*
X132202785Y-101592857D01*
X132202785Y-101592857D02*
X132202785Y-101497619D01*
X132202785Y-101497619D02*
X132178976Y-101450000D01*
X131869452Y-102116667D02*
X132274214Y-102116667D01*
X132274214Y-102116667D02*
X132321833Y-102092857D01*
X132321833Y-102092857D02*
X132345642Y-102069048D01*
X132345642Y-102069048D02*
X132369452Y-102021429D01*
X132369452Y-102021429D02*
X132369452Y-101950000D01*
X132369452Y-101950000D02*
X132345642Y-101902381D01*
X132178976Y-102116667D02*
X132202785Y-102069048D01*
X132202785Y-102069048D02*
X132202785Y-101973810D01*
X132202785Y-101973810D02*
X132178976Y-101926191D01*
X132178976Y-101926191D02*
X132155166Y-101902381D01*
X132155166Y-101902381D02*
X132107547Y-101878572D01*
X132107547Y-101878572D02*
X131964690Y-101878572D01*
X131964690Y-101878572D02*
X131917071Y-101902381D01*
X131917071Y-101902381D02*
X131893261Y-101926191D01*
X131893261Y-101926191D02*
X131869452Y-101973810D01*
X131869452Y-101973810D02*
X131869452Y-102069048D01*
X131869452Y-102069048D02*
X131893261Y-102116667D01*
X132202785Y-102426191D02*
X132178976Y-102378572D01*
X132178976Y-102378572D02*
X132155166Y-102354762D01*
X132155166Y-102354762D02*
X132107547Y-102330953D01*
X132107547Y-102330953D02*
X131964690Y-102330953D01*
X131964690Y-102330953D02*
X131917071Y-102354762D01*
X131917071Y-102354762D02*
X131893261Y-102378572D01*
X131893261Y-102378572D02*
X131869452Y-102426191D01*
X131869452Y-102426191D02*
X131869452Y-102497619D01*
X131869452Y-102497619D02*
X131893261Y-102545238D01*
X131893261Y-102545238D02*
X131917071Y-102569048D01*
X131917071Y-102569048D02*
X131964690Y-102592857D01*
X131964690Y-102592857D02*
X132107547Y-102592857D01*
X132107547Y-102592857D02*
X132155166Y-102569048D01*
X132155166Y-102569048D02*
X132178976Y-102545238D01*
X132178976Y-102545238D02*
X132202785Y-102497619D01*
X132202785Y-102497619D02*
X132202785Y-102426191D01*
X132202785Y-102878572D02*
X132178976Y-102830953D01*
X132178976Y-102830953D02*
X132155166Y-102807143D01*
X132155166Y-102807143D02*
X132107547Y-102783334D01*
X132107547Y-102783334D02*
X131964690Y-102783334D01*
X131964690Y-102783334D02*
X131917071Y-102807143D01*
X131917071Y-102807143D02*
X131893261Y-102830953D01*
X131893261Y-102830953D02*
X131869452Y-102878572D01*
X131869452Y-102878572D02*
X131869452Y-102950000D01*
X131869452Y-102950000D02*
X131893261Y-102997619D01*
X131893261Y-102997619D02*
X131917071Y-103021429D01*
X131917071Y-103021429D02*
X131964690Y-103045238D01*
X131964690Y-103045238D02*
X132107547Y-103045238D01*
X132107547Y-103045238D02*
X132155166Y-103021429D01*
X132155166Y-103021429D02*
X132178976Y-102997619D01*
X132178976Y-102997619D02*
X132202785Y-102950000D01*
X132202785Y-102950000D02*
X132202785Y-102878572D01*
X132202785Y-103473810D02*
X131702785Y-103473810D01*
X132178976Y-103473810D02*
X132202785Y-103426191D01*
X132202785Y-103426191D02*
X132202785Y-103330953D01*
X132202785Y-103330953D02*
X132178976Y-103283334D01*
X132178976Y-103283334D02*
X132155166Y-103259524D01*
X132155166Y-103259524D02*
X132107547Y-103235715D01*
X132107547Y-103235715D02*
X131964690Y-103235715D01*
X131964690Y-103235715D02*
X131917071Y-103259524D01*
X131917071Y-103259524D02*
X131893261Y-103283334D01*
X131893261Y-103283334D02*
X131869452Y-103330953D01*
X131869452Y-103330953D02*
X131869452Y-103426191D01*
X131869452Y-103426191D02*
X131893261Y-103473810D01*
X132202785Y-103973810D02*
X132202785Y-103688096D01*
X132202785Y-103830953D02*
X131702785Y-103830953D01*
X131702785Y-103830953D02*
X131774214Y-103783334D01*
X131774214Y-103783334D02*
X131821833Y-103735715D01*
X131821833Y-103735715D02*
X131845642Y-103688096D01*
X143592261Y-95225190D02*
X143425595Y-95463285D01*
X143306547Y-95225190D02*
X143306547Y-95725190D01*
X143306547Y-95725190D02*
X143497023Y-95725190D01*
X143497023Y-95725190D02*
X143544642Y-95701380D01*
X143544642Y-95701380D02*
X143568452Y-95677571D01*
X143568452Y-95677571D02*
X143592261Y-95629952D01*
X143592261Y-95629952D02*
X143592261Y-95558523D01*
X143592261Y-95558523D02*
X143568452Y-95510904D01*
X143568452Y-95510904D02*
X143544642Y-95487095D01*
X143544642Y-95487095D02*
X143497023Y-95463285D01*
X143497023Y-95463285D02*
X143306547Y-95463285D01*
X143806547Y-95225190D02*
X143806547Y-95558523D01*
X143806547Y-95725190D02*
X143782738Y-95701380D01*
X143782738Y-95701380D02*
X143806547Y-95677571D01*
X143806547Y-95677571D02*
X143830357Y-95701380D01*
X143830357Y-95701380D02*
X143806547Y-95725190D01*
X143806547Y-95725190D02*
X143806547Y-95677571D01*
X144116071Y-95225190D02*
X144068452Y-95249000D01*
X144068452Y-95249000D02*
X144044642Y-95296619D01*
X144044642Y-95296619D02*
X144044642Y-95725190D01*
X144306547Y-95225190D02*
X144306547Y-95558523D01*
X144306547Y-95725190D02*
X144282738Y-95701380D01*
X144282738Y-95701380D02*
X144306547Y-95677571D01*
X144306547Y-95677571D02*
X144330357Y-95701380D01*
X144330357Y-95701380D02*
X144306547Y-95725190D01*
X144306547Y-95725190D02*
X144306547Y-95677571D01*
X144544642Y-95225190D02*
X144544642Y-95558523D01*
X144544642Y-95510904D02*
X144568452Y-95534714D01*
X144568452Y-95534714D02*
X144616071Y-95558523D01*
X144616071Y-95558523D02*
X144687499Y-95558523D01*
X144687499Y-95558523D02*
X144735118Y-95534714D01*
X144735118Y-95534714D02*
X144758928Y-95487095D01*
X144758928Y-95487095D02*
X144758928Y-95225190D01*
X144758928Y-95487095D02*
X144782737Y-95534714D01*
X144782737Y-95534714D02*
X144830356Y-95558523D01*
X144830356Y-95558523D02*
X144901785Y-95558523D01*
X144901785Y-95558523D02*
X144949404Y-95534714D01*
X144949404Y-95534714D02*
X144973214Y-95487095D01*
X144973214Y-95487095D02*
X144973214Y-95225190D01*
X145473214Y-95225190D02*
X145187500Y-95225190D01*
X145330357Y-95225190D02*
X145330357Y-95725190D01*
X145330357Y-95725190D02*
X145282738Y-95653761D01*
X145282738Y-95653761D02*
X145235119Y-95606142D01*
X145235119Y-95606142D02*
X145187500Y-95582333D01*
X143802785Y-101550000D02*
X143564690Y-101383334D01*
X143802785Y-101264286D02*
X143302785Y-101264286D01*
X143302785Y-101264286D02*
X143302785Y-101454762D01*
X143302785Y-101454762D02*
X143326595Y-101502381D01*
X143326595Y-101502381D02*
X143350404Y-101526191D01*
X143350404Y-101526191D02*
X143398023Y-101550000D01*
X143398023Y-101550000D02*
X143469452Y-101550000D01*
X143469452Y-101550000D02*
X143517071Y-101526191D01*
X143517071Y-101526191D02*
X143540880Y-101502381D01*
X143540880Y-101502381D02*
X143564690Y-101454762D01*
X143564690Y-101454762D02*
X143564690Y-101264286D01*
X143469452Y-101978572D02*
X143802785Y-101978572D01*
X143469452Y-101764286D02*
X143731356Y-101764286D01*
X143731356Y-101764286D02*
X143778976Y-101788096D01*
X143778976Y-101788096D02*
X143802785Y-101835715D01*
X143802785Y-101835715D02*
X143802785Y-101907143D01*
X143802785Y-101907143D02*
X143778976Y-101954762D01*
X143778976Y-101954762D02*
X143755166Y-101978572D01*
X143469452Y-102169048D02*
X143802785Y-102288096D01*
X143802785Y-102288096D02*
X143469452Y-102407143D01*
X143350404Y-102573810D02*
X143326595Y-102597619D01*
X143326595Y-102597619D02*
X143302785Y-102645238D01*
X143302785Y-102645238D02*
X143302785Y-102764286D01*
X143302785Y-102764286D02*
X143326595Y-102811905D01*
X143326595Y-102811905D02*
X143350404Y-102835714D01*
X143350404Y-102835714D02*
X143398023Y-102859524D01*
X143398023Y-102859524D02*
X143445642Y-102859524D01*
X143445642Y-102859524D02*
X143517071Y-102835714D01*
X143517071Y-102835714D02*
X143802785Y-102550000D01*
X143802785Y-102550000D02*
X143802785Y-102859524D01*
X141355166Y-104761904D02*
X141378976Y-104738095D01*
X141378976Y-104738095D02*
X141402785Y-104666666D01*
X141402785Y-104666666D02*
X141402785Y-104619047D01*
X141402785Y-104619047D02*
X141378976Y-104547619D01*
X141378976Y-104547619D02*
X141331356Y-104500000D01*
X141331356Y-104500000D02*
X141283737Y-104476190D01*
X141283737Y-104476190D02*
X141188499Y-104452381D01*
X141188499Y-104452381D02*
X141117071Y-104452381D01*
X141117071Y-104452381D02*
X141021833Y-104476190D01*
X141021833Y-104476190D02*
X140974214Y-104500000D01*
X140974214Y-104500000D02*
X140926595Y-104547619D01*
X140926595Y-104547619D02*
X140902785Y-104619047D01*
X140902785Y-104619047D02*
X140902785Y-104666666D01*
X140902785Y-104666666D02*
X140926595Y-104738095D01*
X140926595Y-104738095D02*
X140950404Y-104761904D01*
X141378976Y-104952381D02*
X141402785Y-105000000D01*
X141402785Y-105000000D02*
X141402785Y-105095238D01*
X141402785Y-105095238D02*
X141378976Y-105142857D01*
X141378976Y-105142857D02*
X141331356Y-105166666D01*
X141331356Y-105166666D02*
X141307547Y-105166666D01*
X141307547Y-105166666D02*
X141259928Y-105142857D01*
X141259928Y-105142857D02*
X141236118Y-105095238D01*
X141236118Y-105095238D02*
X141236118Y-105023809D01*
X141236118Y-105023809D02*
X141212309Y-104976190D01*
X141212309Y-104976190D02*
X141164690Y-104952381D01*
X141164690Y-104952381D02*
X141140880Y-104952381D01*
X141140880Y-104952381D02*
X141093261Y-104976190D01*
X141093261Y-104976190D02*
X141069452Y-105023809D01*
X141069452Y-105023809D02*
X141069452Y-105095238D01*
X141069452Y-105095238D02*
X141093261Y-105142857D01*
X141378976Y-105357143D02*
X141402785Y-105404762D01*
X141402785Y-105404762D02*
X141402785Y-105500000D01*
X141402785Y-105500000D02*
X141378976Y-105547619D01*
X141378976Y-105547619D02*
X141331356Y-105571428D01*
X141331356Y-105571428D02*
X141307547Y-105571428D01*
X141307547Y-105571428D02*
X141259928Y-105547619D01*
X141259928Y-105547619D02*
X141236118Y-105500000D01*
X141236118Y-105500000D02*
X141236118Y-105428571D01*
X141236118Y-105428571D02*
X141212309Y-105380952D01*
X141212309Y-105380952D02*
X141164690Y-105357143D01*
X141164690Y-105357143D02*
X141140880Y-105357143D01*
X141140880Y-105357143D02*
X141093261Y-105380952D01*
X141093261Y-105380952D02*
X141069452Y-105428571D01*
X141069452Y-105428571D02*
X141069452Y-105500000D01*
X141069452Y-105500000D02*
X141093261Y-105547619D01*
X141402785Y-106047619D02*
X141402785Y-105761905D01*
X141402785Y-105904762D02*
X140902785Y-105904762D01*
X140902785Y-105904762D02*
X140974214Y-105857143D01*
X140974214Y-105857143D02*
X141021833Y-105809524D01*
X141021833Y-105809524D02*
X141045642Y-105761905D01*
X140613690Y-91825190D02*
X140447024Y-92063285D01*
X140327976Y-91825190D02*
X140327976Y-92325190D01*
X140327976Y-92325190D02*
X140518452Y-92325190D01*
X140518452Y-92325190D02*
X140566071Y-92301380D01*
X140566071Y-92301380D02*
X140589881Y-92277571D01*
X140589881Y-92277571D02*
X140613690Y-92229952D01*
X140613690Y-92229952D02*
X140613690Y-92158523D01*
X140613690Y-92158523D02*
X140589881Y-92110904D01*
X140589881Y-92110904D02*
X140566071Y-92087095D01*
X140566071Y-92087095D02*
X140518452Y-92063285D01*
X140518452Y-92063285D02*
X140327976Y-92063285D01*
X140804167Y-91849000D02*
X140851786Y-91825190D01*
X140851786Y-91825190D02*
X140947024Y-91825190D01*
X140947024Y-91825190D02*
X140994643Y-91849000D01*
X140994643Y-91849000D02*
X141018452Y-91896619D01*
X141018452Y-91896619D02*
X141018452Y-91920428D01*
X141018452Y-91920428D02*
X140994643Y-91968047D01*
X140994643Y-91968047D02*
X140947024Y-91991857D01*
X140947024Y-91991857D02*
X140875595Y-91991857D01*
X140875595Y-91991857D02*
X140827976Y-92015666D01*
X140827976Y-92015666D02*
X140804167Y-92063285D01*
X140804167Y-92063285D02*
X140804167Y-92087095D01*
X140804167Y-92087095D02*
X140827976Y-92134714D01*
X140827976Y-92134714D02*
X140875595Y-92158523D01*
X140875595Y-92158523D02*
X140947024Y-92158523D01*
X140947024Y-92158523D02*
X140994643Y-92134714D01*
X141232738Y-92158523D02*
X141232738Y-91825190D01*
X141232738Y-92110904D02*
X141256548Y-92134714D01*
X141256548Y-92134714D02*
X141304167Y-92158523D01*
X141304167Y-92158523D02*
X141375595Y-92158523D01*
X141375595Y-92158523D02*
X141423214Y-92134714D01*
X141423214Y-92134714D02*
X141447024Y-92087095D01*
X141447024Y-92087095D02*
X141447024Y-91825190D01*
X141899405Y-92158523D02*
X141899405Y-91825190D01*
X141685119Y-92158523D02*
X141685119Y-91896619D01*
X141685119Y-91896619D02*
X141708929Y-91849000D01*
X141708929Y-91849000D02*
X141756548Y-91825190D01*
X141756548Y-91825190D02*
X141827976Y-91825190D01*
X141827976Y-91825190D02*
X141875595Y-91849000D01*
X141875595Y-91849000D02*
X141899405Y-91872809D01*
X142137500Y-91825190D02*
X142137500Y-92325190D01*
X142137500Y-92134714D02*
X142185119Y-92158523D01*
X142185119Y-92158523D02*
X142280357Y-92158523D01*
X142280357Y-92158523D02*
X142327976Y-92134714D01*
X142327976Y-92134714D02*
X142351786Y-92110904D01*
X142351786Y-92110904D02*
X142375595Y-92063285D01*
X142375595Y-92063285D02*
X142375595Y-91920428D01*
X142375595Y-91920428D02*
X142351786Y-91872809D01*
X142351786Y-91872809D02*
X142327976Y-91849000D01*
X142327976Y-91849000D02*
X142280357Y-91825190D01*
X142280357Y-91825190D02*
X142185119Y-91825190D01*
X142185119Y-91825190D02*
X142137500Y-91849000D01*
X142851786Y-91825190D02*
X142566072Y-91825190D01*
X142708929Y-91825190D02*
X142708929Y-92325190D01*
X142708929Y-92325190D02*
X142661310Y-92253761D01*
X142661310Y-92253761D02*
X142613691Y-92206142D01*
X142613691Y-92206142D02*
X142566072Y-92182333D01*
X135125190Y-95654761D02*
X135363285Y-95821427D01*
X135125190Y-95940475D02*
X135625190Y-95940475D01*
X135625190Y-95940475D02*
X135625190Y-95749999D01*
X135625190Y-95749999D02*
X135601380Y-95702380D01*
X135601380Y-95702380D02*
X135577571Y-95678570D01*
X135577571Y-95678570D02*
X135529952Y-95654761D01*
X135529952Y-95654761D02*
X135458523Y-95654761D01*
X135458523Y-95654761D02*
X135410904Y-95678570D01*
X135410904Y-95678570D02*
X135387095Y-95702380D01*
X135387095Y-95702380D02*
X135363285Y-95749999D01*
X135363285Y-95749999D02*
X135363285Y-95940475D01*
X135125190Y-95440475D02*
X135625190Y-95440475D01*
X135434714Y-95440475D02*
X135458523Y-95392856D01*
X135458523Y-95392856D02*
X135458523Y-95297618D01*
X135458523Y-95297618D02*
X135434714Y-95249999D01*
X135434714Y-95249999D02*
X135410904Y-95226189D01*
X135410904Y-95226189D02*
X135363285Y-95202380D01*
X135363285Y-95202380D02*
X135220428Y-95202380D01*
X135220428Y-95202380D02*
X135172809Y-95226189D01*
X135172809Y-95226189D02*
X135149000Y-95249999D01*
X135149000Y-95249999D02*
X135125190Y-95297618D01*
X135125190Y-95297618D02*
X135125190Y-95392856D01*
X135125190Y-95392856D02*
X135149000Y-95440475D01*
X135149000Y-95011903D02*
X135125190Y-94964284D01*
X135125190Y-94964284D02*
X135125190Y-94869046D01*
X135125190Y-94869046D02*
X135149000Y-94821427D01*
X135149000Y-94821427D02*
X135196619Y-94797618D01*
X135196619Y-94797618D02*
X135220428Y-94797618D01*
X135220428Y-94797618D02*
X135268047Y-94821427D01*
X135268047Y-94821427D02*
X135291857Y-94869046D01*
X135291857Y-94869046D02*
X135291857Y-94940475D01*
X135291857Y-94940475D02*
X135315666Y-94988094D01*
X135315666Y-94988094D02*
X135363285Y-95011903D01*
X135363285Y-95011903D02*
X135387095Y-95011903D01*
X135387095Y-95011903D02*
X135434714Y-94988094D01*
X135434714Y-94988094D02*
X135458523Y-94940475D01*
X135458523Y-94940475D02*
X135458523Y-94869046D01*
X135458523Y-94869046D02*
X135434714Y-94821427D01*
X135458523Y-94654760D02*
X135458523Y-94464284D01*
X135625190Y-94583332D02*
X135196619Y-94583332D01*
X135196619Y-94583332D02*
X135149000Y-94559522D01*
X135149000Y-94559522D02*
X135125190Y-94511903D01*
X135125190Y-94511903D02*
X135125190Y-94464284D01*
X135125190Y-94035713D02*
X135125190Y-94321427D01*
X135125190Y-94178570D02*
X135625190Y-94178570D01*
X135625190Y-94178570D02*
X135553761Y-94226189D01*
X135553761Y-94226189D02*
X135506142Y-94273808D01*
X135506142Y-94273808D02*
X135482333Y-94321427D01*
X145355166Y-91885714D02*
X145378976Y-91861905D01*
X145378976Y-91861905D02*
X145402785Y-91790476D01*
X145402785Y-91790476D02*
X145402785Y-91742857D01*
X145402785Y-91742857D02*
X145378976Y-91671429D01*
X145378976Y-91671429D02*
X145331356Y-91623810D01*
X145331356Y-91623810D02*
X145283737Y-91600000D01*
X145283737Y-91600000D02*
X145188499Y-91576191D01*
X145188499Y-91576191D02*
X145117071Y-91576191D01*
X145117071Y-91576191D02*
X145021833Y-91600000D01*
X145021833Y-91600000D02*
X144974214Y-91623810D01*
X144974214Y-91623810D02*
X144926595Y-91671429D01*
X144926595Y-91671429D02*
X144902785Y-91742857D01*
X144902785Y-91742857D02*
X144902785Y-91790476D01*
X144902785Y-91790476D02*
X144926595Y-91861905D01*
X144926595Y-91861905D02*
X144950404Y-91885714D01*
X145378976Y-92076191D02*
X145402785Y-92123810D01*
X145402785Y-92123810D02*
X145402785Y-92219048D01*
X145402785Y-92219048D02*
X145378976Y-92266667D01*
X145378976Y-92266667D02*
X145331356Y-92290476D01*
X145331356Y-92290476D02*
X145307547Y-92290476D01*
X145307547Y-92290476D02*
X145259928Y-92266667D01*
X145259928Y-92266667D02*
X145236118Y-92219048D01*
X145236118Y-92219048D02*
X145236118Y-92147619D01*
X145236118Y-92147619D02*
X145212309Y-92100000D01*
X145212309Y-92100000D02*
X145164690Y-92076191D01*
X145164690Y-92076191D02*
X145140880Y-92076191D01*
X145140880Y-92076191D02*
X145093261Y-92100000D01*
X145093261Y-92100000D02*
X145069452Y-92147619D01*
X145069452Y-92147619D02*
X145069452Y-92219048D01*
X145069452Y-92219048D02*
X145093261Y-92266667D01*
X145069452Y-92504762D02*
X145402785Y-92504762D01*
X145117071Y-92504762D02*
X145093261Y-92528572D01*
X145093261Y-92528572D02*
X145069452Y-92576191D01*
X145069452Y-92576191D02*
X145069452Y-92647619D01*
X145069452Y-92647619D02*
X145093261Y-92695238D01*
X145093261Y-92695238D02*
X145140880Y-92719048D01*
X145140880Y-92719048D02*
X145402785Y-92719048D01*
X145069452Y-93171429D02*
X145402785Y-93171429D01*
X145069452Y-92957143D02*
X145331356Y-92957143D01*
X145331356Y-92957143D02*
X145378976Y-92980953D01*
X145378976Y-92980953D02*
X145402785Y-93028572D01*
X145402785Y-93028572D02*
X145402785Y-93100000D01*
X145402785Y-93100000D02*
X145378976Y-93147619D01*
X145378976Y-93147619D02*
X145355166Y-93171429D01*
X145402785Y-93409524D02*
X144902785Y-93409524D01*
X145093261Y-93409524D02*
X145069452Y-93457143D01*
X145069452Y-93457143D02*
X145069452Y-93552381D01*
X145069452Y-93552381D02*
X145093261Y-93600000D01*
X145093261Y-93600000D02*
X145117071Y-93623810D01*
X145117071Y-93623810D02*
X145164690Y-93647619D01*
X145164690Y-93647619D02*
X145307547Y-93647619D01*
X145307547Y-93647619D02*
X145355166Y-93623810D01*
X145355166Y-93623810D02*
X145378976Y-93600000D01*
X145378976Y-93600000D02*
X145402785Y-93552381D01*
X145402785Y-93552381D02*
X145402785Y-93457143D01*
X145402785Y-93457143D02*
X145378976Y-93409524D01*
X145402785Y-94123810D02*
X145402785Y-93838096D01*
X145402785Y-93980953D02*
X144902785Y-93980953D01*
X144902785Y-93980953D02*
X144974214Y-93933334D01*
X144974214Y-93933334D02*
X145021833Y-93885715D01*
X145021833Y-93885715D02*
X145045642Y-93838096D01*
D12*
%TO.C,Cbst1*%
X138177976Y-97340000D02*
G75*
G02*
X137867976Y-97030000I0J310000D01*
G01*
X137867976Y-94870000D02*
G75*
G02*
X138177976Y-94560000I310000J0D01*
G01*
X139287976Y-97030000D02*
G75*
G02*
X138977976Y-97340000I-310000J0D01*
G01*
X138977976Y-94560000D02*
G75*
G02*
X139287976Y-94870000I0J-310000D01*
G01*
X137867976Y-96230000D02*
X137867976Y-97030000D01*
X137867976Y-95670000D02*
X137867976Y-94870000D01*
X138177976Y-97340000D02*
X138977976Y-97340000D01*
X138977976Y-94560000D02*
X138177976Y-94560000D01*
X139287976Y-96230000D02*
X139287976Y-97030000D01*
X139287976Y-95670000D02*
X139287976Y-94870000D01*
%TO.C,Ruv1*%
X142287976Y-99550000D02*
X141577976Y-99550000D01*
X142287976Y-100550000D02*
X142287976Y-99550000D01*
X141577976Y-100550000D02*
X142287976Y-100550000D01*
X141117976Y-100550000D02*
X140407976Y-100550000D01*
X140407976Y-99550000D02*
X141117976Y-99550000D01*
X140407976Y-100550000D02*
X140407976Y-99550000D01*
%TO.C,Cvcc1*%
X133637976Y-97060000D02*
G75*
G02*
X133487976Y-96910000I0J150000D01*
G01*
X133487976Y-92090000D02*
G75*
G02*
X133637976Y-91940000I150000J0D01*
G01*
X135667976Y-96910000D02*
G75*
G02*
X135517976Y-97060000I-150000J0D01*
G01*
X135517976Y-91940000D02*
G75*
G02*
X135667976Y-92090000I0J-150000D01*
G01*
X133487976Y-95430000D02*
X133487976Y-96910000D01*
X133487976Y-93570000D02*
X133487976Y-92090000D01*
X133637976Y-97060000D02*
X135517976Y-97060000D01*
X133637976Y-91940000D02*
X135517976Y-91940000D01*
X135667976Y-96910000D02*
X135667976Y-95430000D01*
X135667976Y-92090000D02*
X135667976Y-93570000D01*
%TO.C,Cilim1*%
X131607976Y-100350000D02*
G75*
G02*
X131457976Y-100200000I0J150000D01*
G01*
X131457976Y-99500000D02*
G75*
G02*
X131607976Y-99350000I150000J0D01*
G01*
X133797976Y-100200000D02*
G75*
G02*
X133647976Y-100350000I-150000J0D01*
G01*
X133647976Y-99350000D02*
G75*
G02*
X133797976Y-99500000I0J-150000D01*
G01*
X131457976Y-100200000D02*
X131457976Y-99500000D01*
X131607976Y-99350000D02*
X132397976Y-99350000D01*
X132397976Y-100350000D02*
X131607976Y-100350000D01*
X132857976Y-100350000D02*
X133647976Y-100350000D01*
X133647976Y-99350000D02*
X132857976Y-99350000D01*
X133797976Y-100200000D02*
X133797976Y-99500000D01*
%TO.C,Ccomp2*%
X139527976Y-106530000D02*
G75*
G02*
X139677976Y-106680000I0J-150000D01*
G01*
X139677976Y-108720000D02*
G75*
G02*
X139527976Y-108870000I-150000J0D01*
G01*
X138677976Y-106680000D02*
G75*
G02*
X138827976Y-106530000I150000J0D01*
G01*
X138827976Y-108870000D02*
G75*
G02*
X138677976Y-108720000I0J150000D01*
G01*
X139677976Y-107470000D02*
X139677976Y-106680000D01*
X139677976Y-107930000D02*
X139677976Y-108720000D01*
X139527976Y-106530000D02*
X138827976Y-106530000D01*
X139527976Y-108870000D02*
X138827976Y-108870000D01*
X138677976Y-106680000D02*
X138677976Y-107470000D01*
X138677976Y-108720000D02*
X138677976Y-107930000D01*
%TO.C,Rcomp2*%
X135077976Y-110710000D02*
X135077976Y-111420000D01*
X136077976Y-110710000D02*
X135077976Y-110710000D01*
X136077976Y-111420000D02*
X136077976Y-110710000D01*
X136077976Y-111880000D02*
X136077976Y-112590000D01*
X135077976Y-112590000D02*
X135077976Y-111880000D01*
X136077976Y-112590000D02*
X135077976Y-112590000D01*
%TO.C,Ccomp3*%
X139067976Y-112650000D02*
G75*
G02*
X138757976Y-112960000I-310000J0D01*
G01*
X136597976Y-112960000D02*
G75*
G02*
X136287976Y-112650000I0J310000D01*
G01*
X138757976Y-111540000D02*
G75*
G02*
X139067976Y-111850000I0J-310000D01*
G01*
X136287976Y-111850000D02*
G75*
G02*
X136597976Y-111540000I310000J0D01*
G01*
X137957976Y-112960000D02*
X138757976Y-112960000D01*
X137397976Y-112960000D02*
X136597976Y-112960000D01*
X139067976Y-112650000D02*
X139067976Y-111850000D01*
X136287976Y-111850000D02*
X136287976Y-112650000D01*
X137957976Y-111540000D02*
X138757976Y-111540000D01*
X137397976Y-111540000D02*
X136597976Y-111540000D01*
%TO.C,Rcomp1*%
X139677976Y-110960000D02*
X139677976Y-110250000D01*
X138677976Y-110960000D02*
X139677976Y-110960000D01*
X138677976Y-110250000D02*
X138677976Y-110960000D01*
X138677976Y-109790000D02*
X138677976Y-109080000D01*
X139677976Y-109080000D02*
X139677976Y-109790000D01*
X138677976Y-109080000D02*
X139677976Y-109080000D01*
%TO.C,Rvcc1*%
X135817976Y-105310000D02*
X134857976Y-105310000D01*
X133037976Y-105310000D02*
X133997976Y-105310000D01*
X135817976Y-103990000D02*
X135817976Y-105310000D01*
X134857976Y-103990000D02*
X135817976Y-103990000D01*
X133997976Y-103990000D02*
X133037976Y-103990000D01*
X133037976Y-103990000D02*
X133037976Y-105310000D01*
%TO.C,Rfb1*%
X136317976Y-107610000D02*
X136317976Y-108570000D01*
X137637976Y-107610000D02*
X136317976Y-107610000D01*
X137637976Y-108570000D02*
X137637976Y-107610000D01*
X137637976Y-109430000D02*
X137637976Y-110390000D01*
X136317976Y-110390000D02*
X136317976Y-109430000D01*
X137637976Y-110390000D02*
X136317976Y-110390000D01*
%TO.C,Cvin1*%
X143067976Y-99050000D02*
X143067976Y-98250000D01*
X141957976Y-97940000D02*
X142757976Y-97940000D01*
X141957976Y-99360000D02*
X142757976Y-99360000D01*
X141397976Y-97940000D02*
X140597976Y-97940000D01*
X141397976Y-99360000D02*
X140597976Y-99360000D01*
X140287976Y-98250000D02*
X140287976Y-99050000D01*
X142757976Y-97940000D02*
G75*
G02*
X143067976Y-98250000I0J-310000D01*
G01*
X143067976Y-99050000D02*
G75*
G02*
X142757976Y-99360000I-310000J0D01*
G01*
X140287976Y-98250000D02*
G75*
G02*
X140597976Y-97940000I310000J0D01*
G01*
X140597976Y-99360000D02*
G75*
G02*
X140287976Y-99050000I0J310000D01*
G01*
%TO.C,Ccomp1*%
X137687976Y-107130000D02*
G75*
G02*
X137377976Y-107440000I-310000J0D01*
G01*
X136577976Y-107440000D02*
G75*
G02*
X136267976Y-107130000I0J310000D01*
G01*
X137377976Y-104660000D02*
G75*
G02*
X137687976Y-104970000I0J-310000D01*
G01*
X136267976Y-104970000D02*
G75*
G02*
X136577976Y-104660000I310000J0D01*
G01*
X136577976Y-107440000D02*
X137377976Y-107440000D01*
X137687976Y-106330000D02*
X137687976Y-107130000D01*
X136267976Y-106330000D02*
X136267976Y-107130000D01*
X137687976Y-105770000D02*
X137687976Y-104970000D01*
X136267976Y-105770000D02*
X136267976Y-104970000D01*
X137377976Y-104660000D02*
X136577976Y-104660000D01*
%TO.C,Rrt1*%
X142217976Y-103910000D02*
X141257976Y-103910000D01*
X139437976Y-103910000D02*
X140397976Y-103910000D01*
X142217976Y-102590000D02*
X142217976Y-103910000D01*
X141257976Y-102590000D02*
X142217976Y-102590000D01*
X140397976Y-102590000D02*
X139437976Y-102590000D01*
X139437976Y-102590000D02*
X139437976Y-103910000D01*
%TO.C,Rfb2*%
X139477976Y-111480000D02*
X139477976Y-112190000D01*
X140477976Y-111480000D02*
X139477976Y-111480000D01*
X140477976Y-112190000D02*
X140477976Y-111480000D01*
X140477976Y-112650000D02*
X140477976Y-113360000D01*
X139477976Y-113360000D02*
X139477976Y-112650000D01*
X140477976Y-113360000D02*
X139477976Y-113360000D01*
%TO.C,Rvin1*%
X140237976Y-97710000D02*
X140237976Y-96390000D01*
X140237976Y-96390000D02*
X141197976Y-96390000D01*
X141197976Y-97710000D02*
X140237976Y-97710000D01*
X142057976Y-97710000D02*
X143017976Y-97710000D01*
X143017976Y-97710000D02*
X143017976Y-96390000D01*
X143017976Y-96390000D02*
X142057976Y-96390000D01*
%TO.C,U4*%
X139827976Y-102170000D02*
G75*
G02*
X139567976Y-102170000I-130000J0D01*
G01*
X139567976Y-102170000D02*
G75*
G02*
X139827976Y-102170000I130000J0D01*
G01*
X134487976Y-102430000D02*
X134657976Y-102430000D01*
X139187976Y-101770000D02*
X139187976Y-102430000D01*
X134487976Y-101770000D02*
X134487976Y-102430000D01*
X139187976Y-100270000D02*
X139187976Y-101030000D01*
X134487976Y-100270000D02*
X134487976Y-101030000D01*
X139187976Y-98870000D02*
X139187976Y-99530000D01*
X139187976Y-98870000D02*
X138897976Y-98870000D01*
X134657976Y-98870000D02*
X134487976Y-98870000D01*
X134487976Y-98870000D02*
X134487976Y-99530000D01*
%TO.C,Rpgood1*%
X133837976Y-103690000D02*
X133837976Y-102730000D01*
X132517976Y-103690000D02*
X133837976Y-103690000D01*
X132517976Y-102730000D02*
X132517976Y-103690000D01*
X132517976Y-101870000D02*
X132517976Y-100910000D01*
X133837976Y-100910000D02*
X133837976Y-101870000D01*
X132517976Y-100910000D02*
X133837976Y-100910000D01*
%TO.C,Rilim1*%
X143017976Y-94790000D02*
X142057976Y-94790000D01*
X143017976Y-96110000D02*
X143017976Y-94790000D01*
X142057976Y-96110000D02*
X143017976Y-96110000D01*
X141197976Y-96110000D02*
X140237976Y-96110000D01*
X140237976Y-94790000D02*
X141197976Y-94790000D01*
X140237976Y-96110000D02*
X140237976Y-94790000D01*
%TO.C,Ruv2*%
X140337976Y-100790000D02*
X140337976Y-102110000D01*
X141297976Y-100790000D02*
X140337976Y-100790000D01*
X142157976Y-100790000D02*
X143117976Y-100790000D01*
X143117976Y-100790000D02*
X143117976Y-102110000D01*
X140337976Y-102110000D02*
X141297976Y-102110000D01*
X143117976Y-102110000D02*
X142157976Y-102110000D01*
%TO.C,Css1*%
X140667976Y-105450000D02*
G75*
G02*
X140357976Y-105760000I-310000J0D01*
G01*
X138197976Y-105760000D02*
G75*
G02*
X137887976Y-105450000I0J310000D01*
G01*
X140357976Y-104340000D02*
G75*
G02*
X140667976Y-104650000I0J-310000D01*
G01*
X137887976Y-104650000D02*
G75*
G02*
X138197976Y-104340000I310000J0D01*
G01*
X139557976Y-105760000D02*
X140357976Y-105760000D01*
X138997976Y-105760000D02*
X138197976Y-105760000D01*
X140667976Y-105450000D02*
X140667976Y-104650000D01*
X137887976Y-104650000D02*
X137887976Y-105450000D01*
X139557976Y-104340000D02*
X140357976Y-104340000D01*
X138997976Y-104340000D02*
X138197976Y-104340000D01*
%TO.C,Rsnub1*%
X141097976Y-94370000D02*
X139817976Y-94370000D01*
X139817976Y-94370000D02*
X139817976Y-92530000D01*
X139817976Y-92530000D02*
X141097976Y-92530000D01*
X142057976Y-94370000D02*
X143337976Y-94370000D01*
X143337976Y-94370000D02*
X143337976Y-92530000D01*
X143337976Y-92530000D02*
X142057976Y-92530000D01*
%TO.C,Rbst1*%
X135830000Y-94520000D02*
X135830000Y-93240000D01*
X135830000Y-93240000D02*
X137670000Y-93240000D01*
X137670000Y-93240000D02*
X137670000Y-94520000D01*
X135830000Y-95480000D02*
X135830000Y-96760000D01*
X135830000Y-96760000D02*
X137670000Y-96760000D01*
X137670000Y-96760000D02*
X137670000Y-95480000D01*
%TO.C,Csnub1*%
X144677976Y-91830000D02*
X144677976Y-92620000D01*
X143677976Y-92620000D02*
X143677976Y-91830000D01*
X143827976Y-91680000D02*
X144527976Y-91680000D01*
X144677976Y-93870000D02*
X144677976Y-93080000D01*
X143677976Y-93080000D02*
X143677976Y-93870000D01*
X143827976Y-94020000D02*
X144527976Y-94020000D01*
X143677976Y-91830000D02*
G75*
G02*
X143827976Y-91680000I150000J0D01*
G01*
X144527976Y-91680000D02*
G75*
G02*
X144677976Y-91830000I0J-150000D01*
G01*
X143827976Y-94020000D02*
G75*
G02*
X143677976Y-93870000I0J150000D01*
G01*
X144677976Y-93870000D02*
G75*
G02*
X144527976Y-94020000I-150000J0D01*
G01*
%TD*%
%LPC*%
G36*
X123010894Y-108793093D02*
G01*
X123344348Y-108869202D01*
X123667184Y-108982167D01*
X123975343Y-109130569D01*
X124264947Y-109312539D01*
X124532357Y-109525791D01*
X124774209Y-109767643D01*
X124987461Y-110035053D01*
X125169431Y-110324657D01*
X125317833Y-110632816D01*
X125430798Y-110955652D01*
X125506907Y-111289106D01*
X125545202Y-111628985D01*
X125545202Y-111971015D01*
X125506907Y-112310894D01*
X125430798Y-112644348D01*
X125317833Y-112967184D01*
X125169431Y-113275343D01*
X124987461Y-113564947D01*
X124774209Y-113832357D01*
X124532357Y-114074209D01*
X124264947Y-114287461D01*
X123975343Y-114469431D01*
X123667184Y-114617833D01*
X123344348Y-114730798D01*
X123010894Y-114806907D01*
X122671015Y-114845202D01*
X122328985Y-114845202D01*
X121989106Y-114806907D01*
X121655652Y-114730798D01*
X121332816Y-114617833D01*
X121024657Y-114469431D01*
X120735053Y-114287461D01*
X120467643Y-114074209D01*
X120225791Y-113832357D01*
X120012539Y-113564947D01*
X119830569Y-113275343D01*
X119682167Y-112967184D01*
X119569202Y-112644348D01*
X119493093Y-112310894D01*
X119454798Y-111971015D01*
X119454798Y-111628985D01*
X119493093Y-111289106D01*
X119569202Y-110955652D01*
X119682167Y-110632816D01*
X119830569Y-110324657D01*
X120012539Y-110035053D01*
X120225791Y-109767643D01*
X120467643Y-109525791D01*
X120735053Y-109312539D01*
X121024657Y-109130569D01*
X121332816Y-108982167D01*
X121655652Y-108869202D01*
X121989106Y-108793093D01*
X122328985Y-108754798D01*
X122671015Y-108754798D01*
X123010894Y-108793093D01*
G37*
G36*
X165010894Y-108793093D02*
G01*
X165344348Y-108869202D01*
X165667184Y-108982167D01*
X165975343Y-109130569D01*
X166264947Y-109312539D01*
X166532357Y-109525791D01*
X166774209Y-109767643D01*
X166987461Y-110035053D01*
X167169431Y-110324657D01*
X167317833Y-110632816D01*
X167430798Y-110955652D01*
X167506907Y-111289106D01*
X167545202Y-111628985D01*
X167545202Y-111971015D01*
X167506907Y-112310894D01*
X167430798Y-112644348D01*
X167317833Y-112967184D01*
X167169431Y-113275343D01*
X166987461Y-113564947D01*
X166774209Y-113832357D01*
X166532357Y-114074209D01*
X166264947Y-114287461D01*
X165975343Y-114469431D01*
X165667184Y-114617833D01*
X165344348Y-114730798D01*
X165010894Y-114806907D01*
X164671015Y-114845202D01*
X164328985Y-114845202D01*
X163989106Y-114806907D01*
X163655652Y-114730798D01*
X163332816Y-114617833D01*
X163024657Y-114469431D01*
X162735053Y-114287461D01*
X162467643Y-114074209D01*
X162225791Y-113832357D01*
X162012539Y-113564947D01*
X161830569Y-113275343D01*
X161682167Y-112967184D01*
X161569202Y-112644348D01*
X161493093Y-112310894D01*
X161454798Y-111971015D01*
X161454798Y-111628985D01*
X161493093Y-111289106D01*
X161569202Y-110955652D01*
X161682167Y-110632816D01*
X161830569Y-110324657D01*
X162012539Y-110035053D01*
X162225791Y-109767643D01*
X162467643Y-109525791D01*
X162735053Y-109312539D01*
X163024657Y-109130569D01*
X163332816Y-108982167D01*
X163655652Y-108869202D01*
X163989106Y-108793093D01*
X164328985Y-108754798D01*
X164671015Y-108754798D01*
X165010894Y-108793093D01*
G37*
G36*
X152326824Y-110638682D02*
G01*
X152535757Y-110706569D01*
X152731498Y-110806304D01*
X152909227Y-110935432D01*
X153064568Y-111090773D01*
X153193696Y-111268502D01*
X153293431Y-111464243D01*
X153361318Y-111673176D01*
X153395684Y-111890157D01*
X153395684Y-112109843D01*
X153361318Y-112326824D01*
X153293431Y-112535757D01*
X153193696Y-112731498D01*
X153064568Y-112909227D01*
X152909227Y-113064568D01*
X152731498Y-113193696D01*
X152535757Y-113293431D01*
X152326824Y-113361318D01*
X152109843Y-113395684D01*
X151890157Y-113395684D01*
X151673176Y-113361318D01*
X151464243Y-113293431D01*
X151268502Y-113193696D01*
X151090773Y-113064568D01*
X150935432Y-112909227D01*
X150806304Y-112731498D01*
X150706569Y-112535757D01*
X150638682Y-112326824D01*
X150604316Y-112109843D01*
X150604316Y-111890157D01*
X150638682Y-111673176D01*
X150706569Y-111464243D01*
X150806304Y-111268502D01*
X150935432Y-111090773D01*
X151090773Y-110935432D01*
X151268502Y-110806304D01*
X151464243Y-110706569D01*
X151673176Y-110638682D01*
X151890157Y-110604316D01*
X152109843Y-110604316D01*
X152326824Y-110638682D01*
G37*
G36*
X140267110Y-112518806D02*
G01*
X140283331Y-112529645D01*
X140294170Y-112545866D01*
X140297976Y-112565000D01*
X140297976Y-113135000D01*
X140294170Y-113154134D01*
X140283331Y-113170355D01*
X140267110Y-113181194D01*
X140247976Y-113185000D01*
X139707976Y-113185000D01*
X139688842Y-113181194D01*
X139672621Y-113170355D01*
X139661782Y-113154134D01*
X139657976Y-113135000D01*
X139657976Y-112565000D01*
X139661782Y-112545866D01*
X139672621Y-112529645D01*
X139688842Y-112518806D01*
X139707976Y-112515000D01*
X140247976Y-112515000D01*
X140267110Y-112518806D01*
G37*
G36*
X137397110Y-111753806D02*
G01*
X137413331Y-111764645D01*
X137424170Y-111780866D01*
X137427976Y-111800000D01*
X137427976Y-112700000D01*
X137424170Y-112719134D01*
X137413331Y-112735355D01*
X137397110Y-112746194D01*
X137377976Y-112750000D01*
X136577976Y-112750000D01*
X136558842Y-112746194D01*
X136542621Y-112735355D01*
X136531782Y-112719134D01*
X136527976Y-112700000D01*
X136527976Y-111800000D01*
X136531782Y-111780866D01*
X136542621Y-111764645D01*
X136558842Y-111753806D01*
X136577976Y-111750000D01*
X137377976Y-111750000D01*
X137397110Y-111753806D01*
G37*
G36*
X138797110Y-111753806D02*
G01*
X138813331Y-111764645D01*
X138824170Y-111780866D01*
X138827976Y-111800000D01*
X138827976Y-112700000D01*
X138824170Y-112719134D01*
X138813331Y-112735355D01*
X138797110Y-112746194D01*
X138777976Y-112750000D01*
X137977976Y-112750000D01*
X137958842Y-112746194D01*
X137942621Y-112735355D01*
X137931782Y-112719134D01*
X137927976Y-112700000D01*
X137927976Y-111800000D01*
X137931782Y-111780866D01*
X137942621Y-111764645D01*
X137958842Y-111753806D01*
X137977976Y-111750000D01*
X138777976Y-111750000D01*
X138797110Y-111753806D01*
G37*
G36*
X135867110Y-111748806D02*
G01*
X135883331Y-111759645D01*
X135894170Y-111775866D01*
X135897976Y-111795000D01*
X135897976Y-112365000D01*
X135894170Y-112384134D01*
X135883331Y-112400355D01*
X135867110Y-112411194D01*
X135847976Y-112415000D01*
X135307976Y-112415000D01*
X135288842Y-112411194D01*
X135272621Y-112400355D01*
X135261782Y-112384134D01*
X135257976Y-112365000D01*
X135257976Y-111795000D01*
X135261782Y-111775866D01*
X135272621Y-111759645D01*
X135288842Y-111748806D01*
X135307976Y-111745000D01*
X135847976Y-111745000D01*
X135867110Y-111748806D01*
G37*
G36*
X140267110Y-111658806D02*
G01*
X140283331Y-111669645D01*
X140294170Y-111685866D01*
X140297976Y-111705000D01*
X140297976Y-112275000D01*
X140294170Y-112294134D01*
X140283331Y-112310355D01*
X140267110Y-112321194D01*
X140247976Y-112325000D01*
X139707976Y-112325000D01*
X139688842Y-112321194D01*
X139672621Y-112310355D01*
X139661782Y-112294134D01*
X139657976Y-112275000D01*
X139657976Y-111705000D01*
X139661782Y-111685866D01*
X139672621Y-111669645D01*
X139688842Y-111658806D01*
X139707976Y-111655000D01*
X140247976Y-111655000D01*
X140267110Y-111658806D01*
G37*
G36*
X135867110Y-110888806D02*
G01*
X135883331Y-110899645D01*
X135894170Y-110915866D01*
X135897976Y-110935000D01*
X135897976Y-111505000D01*
X135894170Y-111524134D01*
X135883331Y-111540355D01*
X135867110Y-111551194D01*
X135847976Y-111555000D01*
X135307976Y-111555000D01*
X135288842Y-111551194D01*
X135272621Y-111540355D01*
X135261782Y-111524134D01*
X135257976Y-111505000D01*
X135257976Y-110935000D01*
X135261782Y-110915866D01*
X135272621Y-110899645D01*
X135288842Y-110888806D01*
X135307976Y-110885000D01*
X135847976Y-110885000D01*
X135867110Y-110888806D01*
G37*
G36*
X139467110Y-110118806D02*
G01*
X139483331Y-110129645D01*
X139494170Y-110145866D01*
X139497976Y-110165000D01*
X139497976Y-110735000D01*
X139494170Y-110754134D01*
X139483331Y-110770355D01*
X139467110Y-110781194D01*
X139447976Y-110785000D01*
X138907976Y-110785000D01*
X138888842Y-110781194D01*
X138872621Y-110770355D01*
X138861782Y-110754134D01*
X138857976Y-110735000D01*
X138857976Y-110165000D01*
X138861782Y-110145866D01*
X138872621Y-110129645D01*
X138888842Y-110118806D01*
X138907976Y-110115000D01*
X139447976Y-110115000D01*
X139467110Y-110118806D01*
G37*
G36*
X137427110Y-109298806D02*
G01*
X137443331Y-109309645D01*
X137454170Y-109325866D01*
X137457976Y-109345000D01*
X137457976Y-110155000D01*
X137454170Y-110174134D01*
X137443331Y-110190355D01*
X137427110Y-110201194D01*
X137407976Y-110205000D01*
X136547976Y-110205000D01*
X136528842Y-110201194D01*
X136512621Y-110190355D01*
X136501782Y-110174134D01*
X136497976Y-110155000D01*
X136497976Y-109345000D01*
X136501782Y-109325866D01*
X136512621Y-109309645D01*
X136528842Y-109298806D01*
X136547976Y-109295000D01*
X137407976Y-109295000D01*
X137427110Y-109298806D01*
G37*
G36*
X139467110Y-109258806D02*
G01*
X139483331Y-109269645D01*
X139494170Y-109285866D01*
X139497976Y-109305000D01*
X139497976Y-109875000D01*
X139494170Y-109894134D01*
X139483331Y-109910355D01*
X139467110Y-109921194D01*
X139447976Y-109925000D01*
X138907976Y-109925000D01*
X138888842Y-109921194D01*
X138872621Y-109910355D01*
X138861782Y-109894134D01*
X138857976Y-109875000D01*
X138857976Y-109305000D01*
X138861782Y-109285866D01*
X138872621Y-109269645D01*
X138888842Y-109258806D01*
X138907976Y-109255000D01*
X139447976Y-109255000D01*
X139467110Y-109258806D01*
G37*
G36*
X137427110Y-107798806D02*
G01*
X137443331Y-107809645D01*
X137454170Y-107825866D01*
X137457976Y-107845000D01*
X137457976Y-108655000D01*
X137454170Y-108674134D01*
X137443331Y-108690355D01*
X137427110Y-108701194D01*
X137407976Y-108705000D01*
X136547976Y-108705000D01*
X136528842Y-108701194D01*
X136512621Y-108690355D01*
X136501782Y-108674134D01*
X136497976Y-108655000D01*
X136497976Y-107845000D01*
X136501782Y-107825866D01*
X136512621Y-107809645D01*
X136528842Y-107798806D01*
X136547976Y-107795000D01*
X137407976Y-107795000D01*
X137427110Y-107798806D01*
G37*
G36*
X139467110Y-107808806D02*
G01*
X139483331Y-107819645D01*
X139494170Y-107835866D01*
X139497976Y-107855000D01*
X139497976Y-108645000D01*
X139494170Y-108664134D01*
X139483331Y-108680355D01*
X139467110Y-108691194D01*
X139447976Y-108695000D01*
X138907976Y-108695000D01*
X138888842Y-108691194D01*
X138872621Y-108680355D01*
X138861782Y-108664134D01*
X138857976Y-108645000D01*
X138857976Y-107855000D01*
X138861782Y-107835866D01*
X138872621Y-107819645D01*
X138888842Y-107808806D01*
X138907976Y-107805000D01*
X139447976Y-107805000D01*
X139467110Y-107808806D01*
G37*
G36*
X139467110Y-106708806D02*
G01*
X139483331Y-106719645D01*
X139494170Y-106735866D01*
X139497976Y-106755000D01*
X139497976Y-107545000D01*
X139494170Y-107564134D01*
X139483331Y-107580355D01*
X139467110Y-107591194D01*
X139447976Y-107595000D01*
X138907976Y-107595000D01*
X138888842Y-107591194D01*
X138872621Y-107580355D01*
X138861782Y-107564134D01*
X138857976Y-107545000D01*
X138857976Y-106755000D01*
X138861782Y-106735866D01*
X138872621Y-106719645D01*
X138888842Y-106708806D01*
X138907976Y-106705000D01*
X139447976Y-106705000D01*
X139467110Y-106708806D01*
G37*
G36*
X137447110Y-106303806D02*
G01*
X137463331Y-106314645D01*
X137474170Y-106330866D01*
X137477976Y-106350000D01*
X137477976Y-107150000D01*
X137474170Y-107169134D01*
X137463331Y-107185355D01*
X137447110Y-107196194D01*
X137427976Y-107200000D01*
X136527976Y-107200000D01*
X136508842Y-107196194D01*
X136492621Y-107185355D01*
X136481782Y-107169134D01*
X136477976Y-107150000D01*
X136477976Y-106350000D01*
X136481782Y-106330866D01*
X136492621Y-106314645D01*
X136508842Y-106303806D01*
X136527976Y-106300000D01*
X137427976Y-106300000D01*
X137447110Y-106303806D01*
G37*
G36*
X137447110Y-104903806D02*
G01*
X137463331Y-104914645D01*
X137474170Y-104930866D01*
X137477976Y-104950000D01*
X137477976Y-105750000D01*
X137474170Y-105769134D01*
X137463331Y-105785355D01*
X137447110Y-105796194D01*
X137427976Y-105800000D01*
X136527976Y-105800000D01*
X136508842Y-105796194D01*
X136492621Y-105785355D01*
X136481782Y-105769134D01*
X136477976Y-105750000D01*
X136477976Y-104950000D01*
X136481782Y-104930866D01*
X136492621Y-104914645D01*
X136508842Y-104903806D01*
X136527976Y-104900000D01*
X137427976Y-104900000D01*
X137447110Y-104903806D01*
G37*
G36*
X138997110Y-104553806D02*
G01*
X139013331Y-104564645D01*
X139024170Y-104580866D01*
X139027976Y-104600000D01*
X139027976Y-105500000D01*
X139024170Y-105519134D01*
X139013331Y-105535355D01*
X138997110Y-105546194D01*
X138977976Y-105550000D01*
X138177976Y-105550000D01*
X138158842Y-105546194D01*
X138142621Y-105535355D01*
X138131782Y-105519134D01*
X138127976Y-105500000D01*
X138127976Y-104600000D01*
X138131782Y-104580866D01*
X138142621Y-104564645D01*
X138158842Y-104553806D01*
X138177976Y-104550000D01*
X138977976Y-104550000D01*
X138997110Y-104553806D01*
G37*
G36*
X140397110Y-104553806D02*
G01*
X140413331Y-104564645D01*
X140424170Y-104580866D01*
X140427976Y-104600000D01*
X140427976Y-105500000D01*
X140424170Y-105519134D01*
X140413331Y-105535355D01*
X140397110Y-105546194D01*
X140377976Y-105550000D01*
X139577976Y-105550000D01*
X139558842Y-105546194D01*
X139542621Y-105535355D01*
X139531782Y-105519134D01*
X139527976Y-105500000D01*
X139527976Y-104600000D01*
X139531782Y-104580866D01*
X139542621Y-104564645D01*
X139558842Y-104553806D01*
X139577976Y-104550000D01*
X140377976Y-104550000D01*
X140397110Y-104553806D01*
G37*
G36*
X134102110Y-104173806D02*
G01*
X134118331Y-104184645D01*
X134129170Y-104200866D01*
X134132976Y-104220000D01*
X134132976Y-105080000D01*
X134129170Y-105099134D01*
X134118331Y-105115355D01*
X134102110Y-105126194D01*
X134082976Y-105130000D01*
X133272976Y-105130000D01*
X133253842Y-105126194D01*
X133237621Y-105115355D01*
X133226782Y-105099134D01*
X133222976Y-105080000D01*
X133222976Y-104220000D01*
X133226782Y-104200866D01*
X133237621Y-104184645D01*
X133253842Y-104173806D01*
X133272976Y-104170000D01*
X134082976Y-104170000D01*
X134102110Y-104173806D01*
G37*
G36*
X135602110Y-104173806D02*
G01*
X135618331Y-104184645D01*
X135629170Y-104200866D01*
X135632976Y-104220000D01*
X135632976Y-105080000D01*
X135629170Y-105099134D01*
X135618331Y-105115355D01*
X135602110Y-105126194D01*
X135582976Y-105130000D01*
X134772976Y-105130000D01*
X134753842Y-105126194D01*
X134737621Y-105115355D01*
X134726782Y-105099134D01*
X134722976Y-105080000D01*
X134722976Y-104220000D01*
X134726782Y-104200866D01*
X134737621Y-104184645D01*
X134753842Y-104173806D01*
X134772976Y-104170000D01*
X135582976Y-104170000D01*
X135602110Y-104173806D01*
G37*
G36*
X168669134Y-102303806D02*
G01*
X168685355Y-102314645D01*
X168696194Y-102330866D01*
X168700000Y-102350000D01*
X168700000Y-104650000D01*
X168696194Y-104669134D01*
X168685355Y-104685355D01*
X168669134Y-104696194D01*
X168650000Y-104700000D01*
X166350000Y-104700000D01*
X166330866Y-104696194D01*
X166314645Y-104685355D01*
X166303806Y-104669134D01*
X166300000Y-104650000D01*
X166300000Y-102350000D01*
X166303806Y-102330866D01*
X166314645Y-102314645D01*
X166330866Y-102303806D01*
X166350000Y-102300000D01*
X168650000Y-102300000D01*
X168669134Y-102303806D01*
G37*
G36*
X124240134Y-102293156D02*
G01*
X124419220Y-102351345D01*
X124586998Y-102436832D01*
X124739338Y-102547513D01*
X124872487Y-102680662D01*
X124983168Y-102833002D01*
X125068655Y-103000780D01*
X125126844Y-103179866D01*
X125156301Y-103365849D01*
X125156301Y-103554151D01*
X125126844Y-103740134D01*
X125068655Y-103919220D01*
X124983168Y-104086998D01*
X124872487Y-104239338D01*
X124739338Y-104372487D01*
X124586998Y-104483168D01*
X124419220Y-104568655D01*
X124240134Y-104626844D01*
X124054151Y-104656301D01*
X123865849Y-104656301D01*
X123679866Y-104626844D01*
X123500780Y-104568655D01*
X123333002Y-104483168D01*
X123180662Y-104372487D01*
X123047513Y-104239338D01*
X122936832Y-104086998D01*
X122851345Y-103919220D01*
X122793156Y-103740134D01*
X122763699Y-103554151D01*
X122763699Y-103365849D01*
X122793156Y-103179866D01*
X122851345Y-103000780D01*
X122936832Y-102833002D01*
X123047513Y-102680662D01*
X123180662Y-102547513D01*
X123333002Y-102436832D01*
X123500780Y-102351345D01*
X123679866Y-102293156D01*
X123865849Y-102263699D01*
X124054151Y-102263699D01*
X124240134Y-102293156D01*
G37*
G36*
X140502110Y-102773806D02*
G01*
X140518331Y-102784645D01*
X140529170Y-102800866D01*
X140532976Y-102820000D01*
X140532976Y-103680000D01*
X140529170Y-103699134D01*
X140518331Y-103715355D01*
X140502110Y-103726194D01*
X140482976Y-103730000D01*
X139672976Y-103730000D01*
X139653842Y-103726194D01*
X139637621Y-103715355D01*
X139626782Y-103699134D01*
X139622976Y-103680000D01*
X139622976Y-102820000D01*
X139626782Y-102800866D01*
X139637621Y-102784645D01*
X139653842Y-102773806D01*
X139672976Y-102770000D01*
X140482976Y-102770000D01*
X140502110Y-102773806D01*
G37*
G36*
X142002110Y-102773806D02*
G01*
X142018331Y-102784645D01*
X142029170Y-102800866D01*
X142032976Y-102820000D01*
X142032976Y-103680000D01*
X142029170Y-103699134D01*
X142018331Y-103715355D01*
X142002110Y-103726194D01*
X141982976Y-103730000D01*
X141172976Y-103730000D01*
X141153842Y-103726194D01*
X141137621Y-103715355D01*
X141126782Y-103699134D01*
X141122976Y-103680000D01*
X141122976Y-102820000D01*
X141126782Y-102800866D01*
X141137621Y-102784645D01*
X141153842Y-102773806D01*
X141172976Y-102770000D01*
X141982976Y-102770000D01*
X142002110Y-102773806D01*
G37*
G36*
X133627110Y-102598806D02*
G01*
X133643331Y-102609645D01*
X133654170Y-102625866D01*
X133657976Y-102645000D01*
X133657976Y-103455000D01*
X133654170Y-103474134D01*
X133643331Y-103490355D01*
X133627110Y-103501194D01*
X133607976Y-103505000D01*
X132747976Y-103505000D01*
X132728842Y-103501194D01*
X132712621Y-103490355D01*
X132701782Y-103474134D01*
X132697976Y-103455000D01*
X132697976Y-102645000D01*
X132701782Y-102625866D01*
X132712621Y-102609645D01*
X132728842Y-102598806D01*
X132747976Y-102595000D01*
X133607976Y-102595000D01*
X133627110Y-102598806D01*
G37*
G36*
X135187110Y-101928806D02*
G01*
X135203331Y-101939645D01*
X135214170Y-101955866D01*
X135217976Y-101975000D01*
X135217976Y-102825000D01*
X135214170Y-102844134D01*
X135203331Y-102860355D01*
X135187110Y-102871194D01*
X135167976Y-102875000D01*
X134887976Y-102875000D01*
X134868842Y-102871194D01*
X134852621Y-102860355D01*
X134841782Y-102844134D01*
X134837976Y-102825000D01*
X134837976Y-101975000D01*
X134841782Y-101955866D01*
X134852621Y-101939645D01*
X134868842Y-101928806D01*
X134887976Y-101925000D01*
X135167976Y-101925000D01*
X135187110Y-101928806D01*
G37*
G36*
X135687110Y-101928806D02*
G01*
X135703331Y-101939645D01*
X135714170Y-101955866D01*
X135717976Y-101975000D01*
X135717976Y-102825000D01*
X135714170Y-102844134D01*
X135703331Y-102860355D01*
X135687110Y-102871194D01*
X135667976Y-102875000D01*
X135387976Y-102875000D01*
X135368842Y-102871194D01*
X135352621Y-102860355D01*
X135341782Y-102844134D01*
X135337976Y-102825000D01*
X135337976Y-101975000D01*
X135341782Y-101955866D01*
X135352621Y-101939645D01*
X135368842Y-101928806D01*
X135387976Y-101925000D01*
X135667976Y-101925000D01*
X135687110Y-101928806D01*
G37*
G36*
X136187110Y-101928806D02*
G01*
X136203331Y-101939645D01*
X136214170Y-101955866D01*
X136217976Y-101975000D01*
X136217976Y-102825000D01*
X136214170Y-102844134D01*
X136203331Y-102860355D01*
X136187110Y-102871194D01*
X136167976Y-102875000D01*
X135887976Y-102875000D01*
X135868842Y-102871194D01*
X135852621Y-102860355D01*
X135841782Y-102844134D01*
X135837976Y-102825000D01*
X135837976Y-101975000D01*
X135841782Y-101955866D01*
X135852621Y-101939645D01*
X135868842Y-101928806D01*
X135887976Y-101925000D01*
X136167976Y-101925000D01*
X136187110Y-101928806D01*
G37*
G36*
X136687110Y-101928806D02*
G01*
X136703331Y-101939645D01*
X136714170Y-101955866D01*
X136717976Y-101975000D01*
X136717976Y-102825000D01*
X136714170Y-102844134D01*
X136703331Y-102860355D01*
X136687110Y-102871194D01*
X136667976Y-102875000D01*
X136387976Y-102875000D01*
X136368842Y-102871194D01*
X136352621Y-102860355D01*
X136341782Y-102844134D01*
X136337976Y-102825000D01*
X136337976Y-101975000D01*
X136341782Y-101955866D01*
X136352621Y-101939645D01*
X136368842Y-101928806D01*
X136387976Y-101925000D01*
X136667976Y-101925000D01*
X136687110Y-101928806D01*
G37*
G36*
X137187110Y-101928806D02*
G01*
X137203331Y-101939645D01*
X137214170Y-101955866D01*
X137217976Y-101975000D01*
X137217976Y-102825000D01*
X137214170Y-102844134D01*
X137203331Y-102860355D01*
X137187110Y-102871194D01*
X137167976Y-102875000D01*
X136887976Y-102875000D01*
X136868842Y-102871194D01*
X136852621Y-102860355D01*
X136841782Y-102844134D01*
X136837976Y-102825000D01*
X136837976Y-101975000D01*
X136841782Y-101955866D01*
X136852621Y-101939645D01*
X136868842Y-101928806D01*
X136887976Y-101925000D01*
X137167976Y-101925000D01*
X137187110Y-101928806D01*
G37*
G36*
X137687110Y-101928806D02*
G01*
X137703331Y-101939645D01*
X137714170Y-101955866D01*
X137717976Y-101975000D01*
X137717976Y-102825000D01*
X137714170Y-102844134D01*
X137703331Y-102860355D01*
X137687110Y-102871194D01*
X137667976Y-102875000D01*
X137387976Y-102875000D01*
X137368842Y-102871194D01*
X137352621Y-102860355D01*
X137341782Y-102844134D01*
X137337976Y-102825000D01*
X137337976Y-101975000D01*
X137341782Y-101955866D01*
X137352621Y-101939645D01*
X137368842Y-101928806D01*
X137387976Y-101925000D01*
X137667976Y-101925000D01*
X137687110Y-101928806D01*
G37*
G36*
X138187110Y-101928806D02*
G01*
X138203331Y-101939645D01*
X138214170Y-101955866D01*
X138217976Y-101975000D01*
X138217976Y-102825000D01*
X138214170Y-102844134D01*
X138203331Y-102860355D01*
X138187110Y-102871194D01*
X138167976Y-102875000D01*
X137887976Y-102875000D01*
X137868842Y-102871194D01*
X137852621Y-102860355D01*
X137841782Y-102844134D01*
X137837976Y-102825000D01*
X137837976Y-101975000D01*
X137841782Y-101955866D01*
X137852621Y-101939645D01*
X137868842Y-101928806D01*
X137887976Y-101925000D01*
X138167976Y-101925000D01*
X138187110Y-101928806D01*
G37*
G36*
X138687110Y-101928806D02*
G01*
X138703331Y-101939645D01*
X138714170Y-101955866D01*
X138717976Y-101975000D01*
X138717976Y-102825000D01*
X138714170Y-102844134D01*
X138703331Y-102860355D01*
X138687110Y-102871194D01*
X138667976Y-102875000D01*
X138387976Y-102875000D01*
X138368842Y-102871194D01*
X138352621Y-102860355D01*
X138341782Y-102844134D01*
X138337976Y-102825000D01*
X138337976Y-101975000D01*
X138341782Y-101955866D01*
X138352621Y-101939645D01*
X138368842Y-101928806D01*
X138387976Y-101925000D01*
X138667976Y-101925000D01*
X138687110Y-101928806D01*
G37*
G36*
X133627110Y-101098806D02*
G01*
X133643331Y-101109645D01*
X133654170Y-101125866D01*
X133657976Y-101145000D01*
X133657976Y-101955000D01*
X133654170Y-101974134D01*
X133643331Y-101990355D01*
X133627110Y-102001194D01*
X133607976Y-102005000D01*
X132747976Y-102005000D01*
X132728842Y-102001194D01*
X132712621Y-101990355D01*
X132701782Y-101974134D01*
X132697976Y-101955000D01*
X132697976Y-101145000D01*
X132701782Y-101125866D01*
X132712621Y-101109645D01*
X132728842Y-101098806D01*
X132747976Y-101095000D01*
X133607976Y-101095000D01*
X133627110Y-101098806D01*
G37*
G36*
X141402110Y-100973806D02*
G01*
X141418331Y-100984645D01*
X141429170Y-101000866D01*
X141432976Y-101020000D01*
X141432976Y-101880000D01*
X141429170Y-101899134D01*
X141418331Y-101915355D01*
X141402110Y-101926194D01*
X141382976Y-101930000D01*
X140572976Y-101930000D01*
X140553842Y-101926194D01*
X140537621Y-101915355D01*
X140526782Y-101899134D01*
X140522976Y-101880000D01*
X140522976Y-101020000D01*
X140526782Y-101000866D01*
X140537621Y-100984645D01*
X140553842Y-100973806D01*
X140572976Y-100970000D01*
X141382976Y-100970000D01*
X141402110Y-100973806D01*
G37*
G36*
X142902110Y-100973806D02*
G01*
X142918331Y-100984645D01*
X142929170Y-101000866D01*
X142932976Y-101020000D01*
X142932976Y-101880000D01*
X142929170Y-101899134D01*
X142918331Y-101915355D01*
X142902110Y-101926194D01*
X142882976Y-101930000D01*
X142072976Y-101930000D01*
X142053842Y-101926194D01*
X142037621Y-101915355D01*
X142026782Y-101899134D01*
X142022976Y-101880000D01*
X142022976Y-101020000D01*
X142026782Y-101000866D01*
X142037621Y-100984645D01*
X142053842Y-100973806D01*
X142072976Y-100970000D01*
X142882976Y-100970000D01*
X142902110Y-100973806D01*
G37*
G36*
X134972110Y-101213806D02*
G01*
X134988331Y-101224645D01*
X134999170Y-101240866D01*
X135002976Y-101260000D01*
X135002976Y-101540000D01*
X134999170Y-101559134D01*
X134988331Y-101575355D01*
X134972110Y-101586194D01*
X134952976Y-101590000D01*
X134102976Y-101590000D01*
X134083842Y-101586194D01*
X134067621Y-101575355D01*
X134056782Y-101559134D01*
X134052976Y-101540000D01*
X134052976Y-101260000D01*
X134056782Y-101240866D01*
X134067621Y-101224645D01*
X134083842Y-101213806D01*
X134102976Y-101210000D01*
X134952976Y-101210000D01*
X134972110Y-101213806D01*
G37*
G36*
X139472110Y-101213806D02*
G01*
X139488331Y-101224645D01*
X139499170Y-101240866D01*
X139502976Y-101260000D01*
X139502976Y-101540000D01*
X139499170Y-101559134D01*
X139488331Y-101575355D01*
X139472110Y-101586194D01*
X139452976Y-101590000D01*
X138602976Y-101590000D01*
X138583842Y-101586194D01*
X138567621Y-101575355D01*
X138556782Y-101559134D01*
X138552976Y-101540000D01*
X138552976Y-101260000D01*
X138556782Y-101240866D01*
X138567621Y-101224645D01*
X138583842Y-101213806D01*
X138602976Y-101210000D01*
X139452976Y-101210000D01*
X139472110Y-101213806D01*
G37*
G36*
X138147110Y-99753806D02*
G01*
X138163331Y-99764645D01*
X138174170Y-99780866D01*
X138177976Y-99800000D01*
X138177976Y-101500000D01*
X138174170Y-101519134D01*
X138163331Y-101535355D01*
X138147110Y-101546194D01*
X138127976Y-101550000D01*
X135427976Y-101550000D01*
X135408842Y-101546194D01*
X135392621Y-101535355D01*
X135381782Y-101519134D01*
X135377976Y-101500000D01*
X135377976Y-99800000D01*
X135381782Y-99780866D01*
X135392621Y-99764645D01*
X135408842Y-99753806D01*
X135427976Y-99750000D01*
X138127976Y-99750000D01*
X138147110Y-99753806D01*
G37*
G36*
X141222110Y-99733806D02*
G01*
X141238331Y-99744645D01*
X141249170Y-99760866D01*
X141252976Y-99780000D01*
X141252976Y-100320000D01*
X141249170Y-100339134D01*
X141238331Y-100355355D01*
X141222110Y-100366194D01*
X141202976Y-100370000D01*
X140632976Y-100370000D01*
X140613842Y-100366194D01*
X140597621Y-100355355D01*
X140586782Y-100339134D01*
X140582976Y-100320000D01*
X140582976Y-99780000D01*
X140586782Y-99760866D01*
X140597621Y-99744645D01*
X140613842Y-99733806D01*
X140632976Y-99730000D01*
X141202976Y-99730000D01*
X141222110Y-99733806D01*
G37*
G36*
X142082110Y-99733806D02*
G01*
X142098331Y-99744645D01*
X142109170Y-99760866D01*
X142112976Y-99780000D01*
X142112976Y-100320000D01*
X142109170Y-100339134D01*
X142098331Y-100355355D01*
X142082110Y-100366194D01*
X142062976Y-100370000D01*
X141492976Y-100370000D01*
X141473842Y-100366194D01*
X141457621Y-100355355D01*
X141446782Y-100339134D01*
X141442976Y-100320000D01*
X141442976Y-99780000D01*
X141446782Y-99760866D01*
X141457621Y-99744645D01*
X141473842Y-99733806D01*
X141492976Y-99730000D01*
X142062976Y-99730000D01*
X142082110Y-99733806D01*
G37*
G36*
X132492110Y-99533806D02*
G01*
X132508331Y-99544645D01*
X132519170Y-99560866D01*
X132522976Y-99580000D01*
X132522976Y-100120000D01*
X132519170Y-100139134D01*
X132508331Y-100155355D01*
X132492110Y-100166194D01*
X132472976Y-100170000D01*
X131682976Y-100170000D01*
X131663842Y-100166194D01*
X131647621Y-100155355D01*
X131636782Y-100139134D01*
X131632976Y-100120000D01*
X131632976Y-99580000D01*
X131636782Y-99560866D01*
X131647621Y-99544645D01*
X131663842Y-99533806D01*
X131682976Y-99530000D01*
X132472976Y-99530000D01*
X132492110Y-99533806D01*
G37*
G36*
X133592110Y-99533806D02*
G01*
X133608331Y-99544645D01*
X133619170Y-99560866D01*
X133622976Y-99580000D01*
X133622976Y-100120000D01*
X133619170Y-100139134D01*
X133608331Y-100155355D01*
X133592110Y-100166194D01*
X133572976Y-100170000D01*
X132782976Y-100170000D01*
X132763842Y-100166194D01*
X132747621Y-100155355D01*
X132736782Y-100139134D01*
X132732976Y-100120000D01*
X132732976Y-99580000D01*
X132736782Y-99560866D01*
X132747621Y-99544645D01*
X132763842Y-99533806D01*
X132782976Y-99530000D01*
X133572976Y-99530000D01*
X133592110Y-99533806D01*
G37*
G36*
X134972110Y-99713806D02*
G01*
X134988331Y-99724645D01*
X134999170Y-99740866D01*
X135002976Y-99760000D01*
X135002976Y-100040000D01*
X134999170Y-100059134D01*
X134988331Y-100075355D01*
X134972110Y-100086194D01*
X134952976Y-100090000D01*
X134102976Y-100090000D01*
X134083842Y-100086194D01*
X134067621Y-100075355D01*
X134056782Y-100059134D01*
X134052976Y-100040000D01*
X134052976Y-99760000D01*
X134056782Y-99740866D01*
X134067621Y-99724645D01*
X134083842Y-99713806D01*
X134102976Y-99710000D01*
X134952976Y-99710000D01*
X134972110Y-99713806D01*
G37*
G36*
X139472110Y-99713806D02*
G01*
X139488331Y-99724645D01*
X139499170Y-99740866D01*
X139502976Y-99760000D01*
X139502976Y-100040000D01*
X139499170Y-100059134D01*
X139488331Y-100075355D01*
X139472110Y-100086194D01*
X139452976Y-100090000D01*
X138602976Y-100090000D01*
X138583842Y-100086194D01*
X138567621Y-100075355D01*
X138556782Y-100059134D01*
X138552976Y-100040000D01*
X138552976Y-99760000D01*
X138556782Y-99740866D01*
X138567621Y-99724645D01*
X138583842Y-99713806D01*
X138602976Y-99710000D01*
X139452976Y-99710000D01*
X139472110Y-99713806D01*
G37*
G36*
X167780134Y-97253156D02*
G01*
X167959220Y-97311345D01*
X168126998Y-97396832D01*
X168279338Y-97507513D01*
X168412487Y-97640662D01*
X168523168Y-97793002D01*
X168608655Y-97960780D01*
X168666844Y-98139866D01*
X168696301Y-98325849D01*
X168696301Y-98514151D01*
X168666844Y-98700134D01*
X168608655Y-98879220D01*
X168523168Y-99046998D01*
X168412487Y-99199338D01*
X168279338Y-99332487D01*
X168126998Y-99443168D01*
X167959220Y-99528655D01*
X167780134Y-99586844D01*
X167594151Y-99616301D01*
X167405849Y-99616301D01*
X167219866Y-99586844D01*
X167040780Y-99528655D01*
X166873002Y-99443168D01*
X166720662Y-99332487D01*
X166587513Y-99199338D01*
X166476832Y-99046998D01*
X166391345Y-98879220D01*
X166333156Y-98700134D01*
X166303699Y-98514151D01*
X166303699Y-98325849D01*
X166333156Y-98139866D01*
X166391345Y-97960780D01*
X166476832Y-97793002D01*
X166587513Y-97640662D01*
X166720662Y-97507513D01*
X166873002Y-97396832D01*
X167040780Y-97311345D01*
X167219866Y-97253156D01*
X167405849Y-97223699D01*
X167594151Y-97223699D01*
X167780134Y-97253156D01*
G37*
G36*
X125129134Y-97183806D02*
G01*
X125145355Y-97194645D01*
X125156194Y-97210866D01*
X125160000Y-97230000D01*
X125160000Y-99530000D01*
X125156194Y-99549134D01*
X125145355Y-99565355D01*
X125129134Y-99576194D01*
X125110000Y-99580000D01*
X122810000Y-99580000D01*
X122790866Y-99576194D01*
X122774645Y-99565355D01*
X122763806Y-99549134D01*
X122760000Y-99530000D01*
X122760000Y-97230000D01*
X122763806Y-97210866D01*
X122774645Y-97194645D01*
X122790866Y-97183806D01*
X122810000Y-97180000D01*
X125110000Y-97180000D01*
X125129134Y-97183806D01*
G37*
G36*
X135187110Y-98428806D02*
G01*
X135203331Y-98439645D01*
X135214170Y-98455866D01*
X135217976Y-98475000D01*
X135217976Y-99325000D01*
X135214170Y-99344134D01*
X135203331Y-99360355D01*
X135187110Y-99371194D01*
X135167976Y-99375000D01*
X134887976Y-99375000D01*
X134868842Y-99371194D01*
X134852621Y-99360355D01*
X134841782Y-99344134D01*
X134837976Y-99325000D01*
X134837976Y-98475000D01*
X134841782Y-98455866D01*
X134852621Y-98439645D01*
X134868842Y-98428806D01*
X134887976Y-98425000D01*
X135167976Y-98425000D01*
X135187110Y-98428806D01*
G37*
G36*
X135687110Y-98428806D02*
G01*
X135703331Y-98439645D01*
X135714170Y-98455866D01*
X135717976Y-98475000D01*
X135717976Y-99325000D01*
X135714170Y-99344134D01*
X135703331Y-99360355D01*
X135687110Y-99371194D01*
X135667976Y-99375000D01*
X135387976Y-99375000D01*
X135368842Y-99371194D01*
X135352621Y-99360355D01*
X135341782Y-99344134D01*
X135337976Y-99325000D01*
X135337976Y-98475000D01*
X135341782Y-98455866D01*
X135352621Y-98439645D01*
X135368842Y-98428806D01*
X135387976Y-98425000D01*
X135667976Y-98425000D01*
X135687110Y-98428806D01*
G37*
G36*
X136187110Y-98428806D02*
G01*
X136203331Y-98439645D01*
X136214170Y-98455866D01*
X136217976Y-98475000D01*
X136217976Y-99325000D01*
X136214170Y-99344134D01*
X136203331Y-99360355D01*
X136187110Y-99371194D01*
X136167976Y-99375000D01*
X135887976Y-99375000D01*
X135868842Y-99371194D01*
X135852621Y-99360355D01*
X135841782Y-99344134D01*
X135837976Y-99325000D01*
X135837976Y-98475000D01*
X135841782Y-98455866D01*
X135852621Y-98439645D01*
X135868842Y-98428806D01*
X135887976Y-98425000D01*
X136167976Y-98425000D01*
X136187110Y-98428806D01*
G37*
G36*
X136687110Y-98428806D02*
G01*
X136703331Y-98439645D01*
X136714170Y-98455866D01*
X136717976Y-98475000D01*
X136717976Y-99325000D01*
X136714170Y-99344134D01*
X136703331Y-99360355D01*
X136687110Y-99371194D01*
X136667976Y-99375000D01*
X136387976Y-99375000D01*
X136368842Y-99371194D01*
X136352621Y-99360355D01*
X136341782Y-99344134D01*
X136337976Y-99325000D01*
X136337976Y-98475000D01*
X136341782Y-98455866D01*
X136352621Y-98439645D01*
X136368842Y-98428806D01*
X136387976Y-98425000D01*
X136667976Y-98425000D01*
X136687110Y-98428806D01*
G37*
G36*
X137187110Y-98428806D02*
G01*
X137203331Y-98439645D01*
X137214170Y-98455866D01*
X137217976Y-98475000D01*
X137217976Y-99325000D01*
X137214170Y-99344134D01*
X137203331Y-99360355D01*
X137187110Y-99371194D01*
X137167976Y-99375000D01*
X136887976Y-99375000D01*
X136868842Y-99371194D01*
X136852621Y-99360355D01*
X136841782Y-99344134D01*
X136837976Y-99325000D01*
X136837976Y-98475000D01*
X136841782Y-98455866D01*
X136852621Y-98439645D01*
X136868842Y-98428806D01*
X136887976Y-98425000D01*
X137167976Y-98425000D01*
X137187110Y-98428806D01*
G37*
G36*
X137687110Y-98428806D02*
G01*
X137703331Y-98439645D01*
X137714170Y-98455866D01*
X137717976Y-98475000D01*
X137717976Y-99325000D01*
X137714170Y-99344134D01*
X137703331Y-99360355D01*
X137687110Y-99371194D01*
X137667976Y-99375000D01*
X137387976Y-99375000D01*
X137368842Y-99371194D01*
X137352621Y-99360355D01*
X137341782Y-99344134D01*
X137337976Y-99325000D01*
X137337976Y-98475000D01*
X137341782Y-98455866D01*
X137352621Y-98439645D01*
X137368842Y-98428806D01*
X137387976Y-98425000D01*
X137667976Y-98425000D01*
X137687110Y-98428806D01*
G37*
G36*
X138187110Y-98428806D02*
G01*
X138203331Y-98439645D01*
X138214170Y-98455866D01*
X138217976Y-98475000D01*
X138217976Y-99325000D01*
X138214170Y-99344134D01*
X138203331Y-99360355D01*
X138187110Y-99371194D01*
X138167976Y-99375000D01*
X137887976Y-99375000D01*
X137868842Y-99371194D01*
X137852621Y-99360355D01*
X137841782Y-99344134D01*
X137837976Y-99325000D01*
X137837976Y-98475000D01*
X137841782Y-98455866D01*
X137852621Y-98439645D01*
X137868842Y-98428806D01*
X137887976Y-98425000D01*
X138167976Y-98425000D01*
X138187110Y-98428806D01*
G37*
G36*
X138687110Y-98428806D02*
G01*
X138703331Y-98439645D01*
X138714170Y-98455866D01*
X138717976Y-98475000D01*
X138717976Y-99325000D01*
X138714170Y-99344134D01*
X138703331Y-99360355D01*
X138687110Y-99371194D01*
X138667976Y-99375000D01*
X138387976Y-99375000D01*
X138368842Y-99371194D01*
X138352621Y-99360355D01*
X138341782Y-99344134D01*
X138337976Y-99325000D01*
X138337976Y-98475000D01*
X138341782Y-98455866D01*
X138352621Y-98439645D01*
X138368842Y-98428806D01*
X138387976Y-98425000D01*
X138667976Y-98425000D01*
X138687110Y-98428806D01*
G37*
G36*
X141397110Y-98153806D02*
G01*
X141413331Y-98164645D01*
X141424170Y-98180866D01*
X141427976Y-98200000D01*
X141427976Y-99100000D01*
X141424170Y-99119134D01*
X141413331Y-99135355D01*
X141397110Y-99146194D01*
X141377976Y-99150000D01*
X140577976Y-99150000D01*
X140558842Y-99146194D01*
X140542621Y-99135355D01*
X140531782Y-99119134D01*
X140527976Y-99100000D01*
X140527976Y-98200000D01*
X140531782Y-98180866D01*
X140542621Y-98164645D01*
X140558842Y-98153806D01*
X140577976Y-98150000D01*
X141377976Y-98150000D01*
X141397110Y-98153806D01*
G37*
G36*
X142797110Y-98153806D02*
G01*
X142813331Y-98164645D01*
X142824170Y-98180866D01*
X142827976Y-98200000D01*
X142827976Y-99100000D01*
X142824170Y-99119134D01*
X142813331Y-99135355D01*
X142797110Y-99146194D01*
X142777976Y-99150000D01*
X141977976Y-99150000D01*
X141958842Y-99146194D01*
X141942621Y-99135355D01*
X141931782Y-99119134D01*
X141927976Y-99100000D01*
X141927976Y-98200000D01*
X141931782Y-98180866D01*
X141942621Y-98164645D01*
X141958842Y-98153806D01*
X141977976Y-98150000D01*
X142777976Y-98150000D01*
X142797110Y-98153806D01*
G37*
G36*
X141302110Y-96573806D02*
G01*
X141318331Y-96584645D01*
X141329170Y-96600866D01*
X141332976Y-96620000D01*
X141332976Y-97480000D01*
X141329170Y-97499134D01*
X141318331Y-97515355D01*
X141302110Y-97526194D01*
X141282976Y-97530000D01*
X140472976Y-97530000D01*
X140453842Y-97526194D01*
X140437621Y-97515355D01*
X140426782Y-97499134D01*
X140422976Y-97480000D01*
X140422976Y-96620000D01*
X140426782Y-96600866D01*
X140437621Y-96584645D01*
X140453842Y-96573806D01*
X140472976Y-96570000D01*
X141282976Y-96570000D01*
X141302110Y-96573806D01*
G37*
G36*
X142802110Y-96573806D02*
G01*
X142818331Y-96584645D01*
X142829170Y-96600866D01*
X142832976Y-96620000D01*
X142832976Y-97480000D01*
X142829170Y-97499134D01*
X142818331Y-97515355D01*
X142802110Y-97526194D01*
X142782976Y-97530000D01*
X141972976Y-97530000D01*
X141953842Y-97526194D01*
X141937621Y-97515355D01*
X141926782Y-97499134D01*
X141922976Y-97480000D01*
X141922976Y-96620000D01*
X141926782Y-96600866D01*
X141937621Y-96584645D01*
X141953842Y-96573806D01*
X141972976Y-96570000D01*
X142782976Y-96570000D01*
X142802110Y-96573806D01*
G37*
G36*
X131826824Y-94638682D02*
G01*
X132035757Y-94706569D01*
X132231498Y-94806304D01*
X132409227Y-94935432D01*
X132564568Y-95090773D01*
X132693696Y-95268502D01*
X132793431Y-95464243D01*
X132861318Y-95673176D01*
X132895684Y-95890157D01*
X132895684Y-96109843D01*
X132861318Y-96326824D01*
X132793431Y-96535757D01*
X132693696Y-96731498D01*
X132564568Y-96909227D01*
X132409227Y-97064568D01*
X132231498Y-97193696D01*
X132035757Y-97293431D01*
X131826824Y-97361318D01*
X131609843Y-97395684D01*
X131390157Y-97395684D01*
X131173176Y-97361318D01*
X130964243Y-97293431D01*
X130768502Y-97193696D01*
X130590773Y-97064568D01*
X130435432Y-96909227D01*
X130306304Y-96731498D01*
X130206569Y-96535757D01*
X130138682Y-96326824D01*
X130104316Y-96109843D01*
X130104316Y-95890157D01*
X130138682Y-95673176D01*
X130206569Y-95464243D01*
X130306304Y-95268502D01*
X130435432Y-95090773D01*
X130590773Y-94935432D01*
X130768502Y-94806304D01*
X130964243Y-94706569D01*
X131173176Y-94638682D01*
X131390157Y-94604316D01*
X131609843Y-94604316D01*
X131826824Y-94638682D01*
G37*
G36*
X139047110Y-96203806D02*
G01*
X139063331Y-96214645D01*
X139074170Y-96230866D01*
X139077976Y-96250000D01*
X139077976Y-97050000D01*
X139074170Y-97069134D01*
X139063331Y-97085355D01*
X139047110Y-97096194D01*
X139027976Y-97100000D01*
X138127976Y-97100000D01*
X138108842Y-97096194D01*
X138092621Y-97085355D01*
X138081782Y-97069134D01*
X138077976Y-97050000D01*
X138077976Y-96250000D01*
X138081782Y-96230866D01*
X138092621Y-96214645D01*
X138108842Y-96203806D01*
X138127976Y-96200000D01*
X139027976Y-96200000D01*
X139047110Y-96203806D01*
G37*
G36*
X135462110Y-95298806D02*
G01*
X135478331Y-95309645D01*
X135489170Y-95325866D01*
X135492976Y-95345000D01*
X135492976Y-96835000D01*
X135489170Y-96854134D01*
X135478331Y-96870355D01*
X135462110Y-96881194D01*
X135442976Y-96885000D01*
X133712976Y-96885000D01*
X133693842Y-96881194D01*
X133677621Y-96870355D01*
X133666782Y-96854134D01*
X133662976Y-96835000D01*
X133662976Y-95345000D01*
X133666782Y-95325866D01*
X133677621Y-95309645D01*
X133693842Y-95298806D01*
X133712976Y-95295000D01*
X135442976Y-95295000D01*
X135462110Y-95298806D01*
G37*
G36*
X137459134Y-95388806D02*
G01*
X137475355Y-95399645D01*
X137486194Y-95415866D01*
X137490000Y-95435000D01*
X137490000Y-96565000D01*
X137486194Y-96584134D01*
X137475355Y-96600355D01*
X137459134Y-96611194D01*
X137440000Y-96615000D01*
X136060000Y-96615000D01*
X136040866Y-96611194D01*
X136024645Y-96600355D01*
X136013806Y-96584134D01*
X136010000Y-96565000D01*
X136010000Y-95435000D01*
X136013806Y-95415866D01*
X136024645Y-95399645D01*
X136040866Y-95388806D01*
X136060000Y-95385000D01*
X137440000Y-95385000D01*
X137459134Y-95388806D01*
G37*
G36*
X141302110Y-94973806D02*
G01*
X141318331Y-94984645D01*
X141329170Y-95000866D01*
X141332976Y-95020000D01*
X141332976Y-95880000D01*
X141329170Y-95899134D01*
X141318331Y-95915355D01*
X141302110Y-95926194D01*
X141282976Y-95930000D01*
X140472976Y-95930000D01*
X140453842Y-95926194D01*
X140437621Y-95915355D01*
X140426782Y-95899134D01*
X140422976Y-95880000D01*
X140422976Y-95020000D01*
X140426782Y-95000866D01*
X140437621Y-94984645D01*
X140453842Y-94973806D01*
X140472976Y-94970000D01*
X141282976Y-94970000D01*
X141302110Y-94973806D01*
G37*
G36*
X142802110Y-94973806D02*
G01*
X142818331Y-94984645D01*
X142829170Y-95000866D01*
X142832976Y-95020000D01*
X142832976Y-95880000D01*
X142829170Y-95899134D01*
X142818331Y-95915355D01*
X142802110Y-95926194D01*
X142782976Y-95930000D01*
X141972976Y-95930000D01*
X141953842Y-95926194D01*
X141937621Y-95915355D01*
X141926782Y-95899134D01*
X141922976Y-95880000D01*
X141922976Y-95020000D01*
X141926782Y-95000866D01*
X141937621Y-94984645D01*
X141953842Y-94973806D01*
X141972976Y-94970000D01*
X142782976Y-94970000D01*
X142802110Y-94973806D01*
G37*
G36*
X139047110Y-94803806D02*
G01*
X139063331Y-94814645D01*
X139074170Y-94830866D01*
X139077976Y-94850000D01*
X139077976Y-95650000D01*
X139074170Y-95669134D01*
X139063331Y-95685355D01*
X139047110Y-95696194D01*
X139027976Y-95700000D01*
X138127976Y-95700000D01*
X138108842Y-95696194D01*
X138092621Y-95685355D01*
X138081782Y-95669134D01*
X138077976Y-95650000D01*
X138077976Y-94850000D01*
X138081782Y-94830866D01*
X138092621Y-94814645D01*
X138108842Y-94803806D01*
X138127976Y-94800000D01*
X139027976Y-94800000D01*
X139047110Y-94803806D01*
G37*
G36*
X137459134Y-93388806D02*
G01*
X137475355Y-93399645D01*
X137486194Y-93415866D01*
X137490000Y-93435000D01*
X137490000Y-94565000D01*
X137486194Y-94584134D01*
X137475355Y-94600355D01*
X137459134Y-94611194D01*
X137440000Y-94615000D01*
X136060000Y-94615000D01*
X136040866Y-94611194D01*
X136024645Y-94600355D01*
X136013806Y-94584134D01*
X136010000Y-94565000D01*
X136010000Y-93435000D01*
X136013806Y-93415866D01*
X136024645Y-93399645D01*
X136040866Y-93388806D01*
X136060000Y-93385000D01*
X137440000Y-93385000D01*
X137459134Y-93388806D01*
G37*
G36*
X141162110Y-92713806D02*
G01*
X141178331Y-92724645D01*
X141189170Y-92740866D01*
X141192976Y-92760000D01*
X141192976Y-94140000D01*
X141189170Y-94159134D01*
X141178331Y-94175355D01*
X141162110Y-94186194D01*
X141142976Y-94190000D01*
X140012976Y-94190000D01*
X139993842Y-94186194D01*
X139977621Y-94175355D01*
X139966782Y-94159134D01*
X139962976Y-94140000D01*
X139962976Y-92760000D01*
X139966782Y-92740866D01*
X139977621Y-92724645D01*
X139993842Y-92713806D01*
X140012976Y-92710000D01*
X141142976Y-92710000D01*
X141162110Y-92713806D01*
G37*
G36*
X143162110Y-92713806D02*
G01*
X143178331Y-92724645D01*
X143189170Y-92740866D01*
X143192976Y-92760000D01*
X143192976Y-94140000D01*
X143189170Y-94159134D01*
X143178331Y-94175355D01*
X143162110Y-94186194D01*
X143142976Y-94190000D01*
X142012976Y-94190000D01*
X141993842Y-94186194D01*
X141977621Y-94175355D01*
X141966782Y-94159134D01*
X141962976Y-94140000D01*
X141962976Y-92760000D01*
X141966782Y-92740866D01*
X141977621Y-92724645D01*
X141993842Y-92713806D01*
X142012976Y-92710000D01*
X143142976Y-92710000D01*
X143162110Y-92713806D01*
G37*
G36*
X156116824Y-91388682D02*
G01*
X156325757Y-91456569D01*
X156521498Y-91556304D01*
X156699227Y-91685432D01*
X156854568Y-91840773D01*
X156983696Y-92018502D01*
X157083431Y-92214243D01*
X157151318Y-92423176D01*
X157185684Y-92640157D01*
X157185684Y-92859843D01*
X157151318Y-93076824D01*
X157083431Y-93285757D01*
X156983696Y-93481498D01*
X156854568Y-93659227D01*
X156699227Y-93814568D01*
X156521498Y-93943696D01*
X156325757Y-94043431D01*
X156116824Y-94111318D01*
X155899843Y-94145684D01*
X155680157Y-94145684D01*
X155463176Y-94111318D01*
X155254243Y-94043431D01*
X155058502Y-93943696D01*
X154880773Y-93814568D01*
X154725432Y-93659227D01*
X154596304Y-93481498D01*
X154496569Y-93285757D01*
X154428682Y-93076824D01*
X154394316Y-92859843D01*
X154394316Y-92640157D01*
X154428682Y-92423176D01*
X154496569Y-92214243D01*
X154596304Y-92018502D01*
X154725432Y-91840773D01*
X154880773Y-91685432D01*
X155058502Y-91556304D01*
X155254243Y-91456569D01*
X155463176Y-91388682D01*
X155680157Y-91354316D01*
X155899843Y-91354316D01*
X156116824Y-91388682D01*
G37*
G36*
X144467110Y-92958806D02*
G01*
X144483331Y-92969645D01*
X144494170Y-92985866D01*
X144497976Y-93005000D01*
X144497976Y-93795000D01*
X144494170Y-93814134D01*
X144483331Y-93830355D01*
X144467110Y-93841194D01*
X144447976Y-93845000D01*
X143907976Y-93845000D01*
X143888842Y-93841194D01*
X143872621Y-93830355D01*
X143861782Y-93814134D01*
X143857976Y-93795000D01*
X143857976Y-93005000D01*
X143861782Y-92985866D01*
X143872621Y-92969645D01*
X143888842Y-92958806D01*
X143907976Y-92955000D01*
X144447976Y-92955000D01*
X144467110Y-92958806D01*
G37*
G36*
X135462110Y-92118806D02*
G01*
X135478331Y-92129645D01*
X135489170Y-92145866D01*
X135492976Y-92165000D01*
X135492976Y-93655000D01*
X135489170Y-93674134D01*
X135478331Y-93690355D01*
X135462110Y-93701194D01*
X135442976Y-93705000D01*
X133712976Y-93705000D01*
X133693842Y-93701194D01*
X133677621Y-93690355D01*
X133666782Y-93674134D01*
X133662976Y-93655000D01*
X133662976Y-92165000D01*
X133666782Y-92145866D01*
X133677621Y-92129645D01*
X133693842Y-92118806D01*
X133712976Y-92115000D01*
X135442976Y-92115000D01*
X135462110Y-92118806D01*
G37*
G36*
X122760894Y-86743093D02*
G01*
X123094348Y-86819202D01*
X123417184Y-86932167D01*
X123725343Y-87080569D01*
X124014947Y-87262539D01*
X124282357Y-87475791D01*
X124524209Y-87717643D01*
X124737461Y-87985053D01*
X124919431Y-88274657D01*
X125067833Y-88582816D01*
X125180798Y-88905652D01*
X125256907Y-89239106D01*
X125295202Y-89578985D01*
X125295202Y-89921015D01*
X125256907Y-90260894D01*
X125180798Y-90594348D01*
X125067833Y-90917184D01*
X124919431Y-91225343D01*
X124737461Y-91514947D01*
X124524209Y-91782357D01*
X124282357Y-92024209D01*
X124014947Y-92237461D01*
X123725343Y-92419431D01*
X123417184Y-92567833D01*
X123094348Y-92680798D01*
X122760894Y-92756907D01*
X122421015Y-92795202D01*
X122078985Y-92795202D01*
X121739106Y-92756907D01*
X121405652Y-92680798D01*
X121082816Y-92567833D01*
X120774657Y-92419431D01*
X120485053Y-92237461D01*
X120217643Y-92024209D01*
X119975791Y-91782357D01*
X119762539Y-91514947D01*
X119580569Y-91225343D01*
X119432167Y-90917184D01*
X119319202Y-90594348D01*
X119243093Y-90260894D01*
X119204798Y-89921015D01*
X119204798Y-89578985D01*
X119243093Y-89239106D01*
X119319202Y-88905652D01*
X119432167Y-88582816D01*
X119580569Y-88274657D01*
X119762539Y-87985053D01*
X119975791Y-87717643D01*
X120217643Y-87475791D01*
X120485053Y-87262539D01*
X120774657Y-87080569D01*
X121082816Y-86932167D01*
X121405652Y-86819202D01*
X121739106Y-86743093D01*
X122078985Y-86704798D01*
X122421015Y-86704798D01*
X122760894Y-86743093D01*
G37*
G36*
X169760894Y-86743093D02*
G01*
X170094348Y-86819202D01*
X170417184Y-86932167D01*
X170725343Y-87080569D01*
X171014947Y-87262539D01*
X171282357Y-87475791D01*
X171524209Y-87717643D01*
X171737461Y-87985053D01*
X171919431Y-88274657D01*
X172067833Y-88582816D01*
X172180798Y-88905652D01*
X172256907Y-89239106D01*
X172295202Y-89578985D01*
X172295202Y-89921015D01*
X172256907Y-90260894D01*
X172180798Y-90594348D01*
X172067833Y-90917184D01*
X171919431Y-91225343D01*
X171737461Y-91514947D01*
X171524209Y-91782357D01*
X171282357Y-92024209D01*
X171014947Y-92237461D01*
X170725343Y-92419431D01*
X170417184Y-92567833D01*
X170094348Y-92680798D01*
X169760894Y-92756907D01*
X169421015Y-92795202D01*
X169078985Y-92795202D01*
X168739106Y-92756907D01*
X168405652Y-92680798D01*
X168082816Y-92567833D01*
X167774657Y-92419431D01*
X167485053Y-92237461D01*
X167217643Y-92024209D01*
X166975791Y-91782357D01*
X166762539Y-91514947D01*
X166580569Y-91225343D01*
X166432167Y-90917184D01*
X166319202Y-90594348D01*
X166243093Y-90260894D01*
X166204798Y-89921015D01*
X166204798Y-89578985D01*
X166243093Y-89239106D01*
X166319202Y-88905652D01*
X166432167Y-88582816D01*
X166580569Y-88274657D01*
X166762539Y-87985053D01*
X166975791Y-87717643D01*
X167217643Y-87475791D01*
X167485053Y-87262539D01*
X167774657Y-87080569D01*
X168082816Y-86932167D01*
X168405652Y-86819202D01*
X168739106Y-86743093D01*
X169078985Y-86704798D01*
X169421015Y-86704798D01*
X169760894Y-86743093D01*
G37*
G36*
X144467110Y-91858806D02*
G01*
X144483331Y-91869645D01*
X144494170Y-91885866D01*
X144497976Y-91905000D01*
X144497976Y-92695000D01*
X144494170Y-92714134D01*
X144483331Y-92730355D01*
X144467110Y-92741194D01*
X144447976Y-92745000D01*
X143907976Y-92745000D01*
X143888842Y-92741194D01*
X143872621Y-92730355D01*
X143861782Y-92714134D01*
X143857976Y-92695000D01*
X143857976Y-91905000D01*
X143861782Y-91885866D01*
X143872621Y-91869645D01*
X143888842Y-91858806D01*
X143907976Y-91855000D01*
X144447976Y-91855000D01*
X144467110Y-91858806D01*
G37*
%LPD*%
M02*
