%TF.GenerationSoftware,KiCad,Pcbnew,9.0.1*%
%TF.CreationDate,2025-05-12T16:56:18-05:00*%
%TF.ProjectId,Project-Star,50726f6a-6563-4742-9d53-7461722e6b69,rev?*%
%TF.SameCoordinates,Original*%
%TF.FileFunction,Legend,Top*%
%TF.FilePolarity,Positive*%
%FSLAX46Y46*%
G04 Gerber Fmt 4.6, Leading zero omitted, Abs format (unit mm)*
G04 Created by KiCad (PCBNEW 9.0.1) date 2025-05-12 16:56:18*
%MOMM*%
%LPD*%
G01*
G04 APERTURE LIST*
%ADD10C,0.150000*%
%ADD11C,0.250000*%
%ADD12C,0.100000*%
%ADD13C,6.000000*%
%ADD14C,2.700000*%
%ADD15R,2.300000X2.300000*%
%ADD16C,2.300000*%
%ADD17R,2.700000X1.700000*%
%ADD18R,0.850000X0.280000*%
%ADD19R,0.280000X0.850000*%
%ADD20R,0.570000X0.540000*%
%ADD21R,0.810000X0.860000*%
%ADD22R,0.450000X0.680000*%
%ADD23R,0.500000X0.600000*%
%ADD24R,2.650000X2.000000*%
%ADD25R,0.680000X0.450000*%
%ADD26R,0.600000X0.500000*%
%ADD27R,2.000000X2.650000*%
%ADD28R,2.920000X3.500000*%
%ADD29R,0.790000X0.540000*%
%ADD30R,0.800000X0.900000*%
%ADD31R,1.410000X1.350000*%
%ADD32R,1.490000X1.730000*%
G04 APERTURE END LIST*
D10*
X94954819Y-56761904D02*
X95764342Y-56761904D01*
X95764342Y-56761904D02*
X95859580Y-56714285D01*
X95859580Y-56714285D02*
X95907200Y-56666666D01*
X95907200Y-56666666D02*
X95954819Y-56571428D01*
X95954819Y-56571428D02*
X95954819Y-56380952D01*
X95954819Y-56380952D02*
X95907200Y-56285714D01*
X95907200Y-56285714D02*
X95859580Y-56238095D01*
X95859580Y-56238095D02*
X95764342Y-56190476D01*
X95764342Y-56190476D02*
X94954819Y-56190476D01*
X94954819Y-55285714D02*
X94954819Y-55476190D01*
X94954819Y-55476190D02*
X95002438Y-55571428D01*
X95002438Y-55571428D02*
X95050057Y-55619047D01*
X95050057Y-55619047D02*
X95192914Y-55714285D01*
X95192914Y-55714285D02*
X95383390Y-55761904D01*
X95383390Y-55761904D02*
X95764342Y-55761904D01*
X95764342Y-55761904D02*
X95859580Y-55714285D01*
X95859580Y-55714285D02*
X95907200Y-55666666D01*
X95907200Y-55666666D02*
X95954819Y-55571428D01*
X95954819Y-55571428D02*
X95954819Y-55380952D01*
X95954819Y-55380952D02*
X95907200Y-55285714D01*
X95907200Y-55285714D02*
X95859580Y-55238095D01*
X95859580Y-55238095D02*
X95764342Y-55190476D01*
X95764342Y-55190476D02*
X95526247Y-55190476D01*
X95526247Y-55190476D02*
X95431009Y-55238095D01*
X95431009Y-55238095D02*
X95383390Y-55285714D01*
X95383390Y-55285714D02*
X95335771Y-55380952D01*
X95335771Y-55380952D02*
X95335771Y-55571428D01*
X95335771Y-55571428D02*
X95383390Y-55666666D01*
X95383390Y-55666666D02*
X95431009Y-55714285D01*
X95431009Y-55714285D02*
X95526247Y-55761904D01*
X94954819Y-75761904D02*
X95764342Y-75761904D01*
X95764342Y-75761904D02*
X95859580Y-75714285D01*
X95859580Y-75714285D02*
X95907200Y-75666666D01*
X95907200Y-75666666D02*
X95954819Y-75571428D01*
X95954819Y-75571428D02*
X95954819Y-75380952D01*
X95954819Y-75380952D02*
X95907200Y-75285714D01*
X95907200Y-75285714D02*
X95859580Y-75238095D01*
X95859580Y-75238095D02*
X95764342Y-75190476D01*
X95764342Y-75190476D02*
X94954819Y-75190476D01*
X94954819Y-74238095D02*
X94954819Y-74714285D01*
X94954819Y-74714285D02*
X95431009Y-74761904D01*
X95431009Y-74761904D02*
X95383390Y-74714285D01*
X95383390Y-74714285D02*
X95335771Y-74619047D01*
X95335771Y-74619047D02*
X95335771Y-74380952D01*
X95335771Y-74380952D02*
X95383390Y-74285714D01*
X95383390Y-74285714D02*
X95431009Y-74238095D01*
X95431009Y-74238095D02*
X95526247Y-74190476D01*
X95526247Y-74190476D02*
X95764342Y-74190476D01*
X95764342Y-74190476D02*
X95859580Y-74238095D01*
X95859580Y-74238095D02*
X95907200Y-74285714D01*
X95907200Y-74285714D02*
X95954819Y-74380952D01*
X95954819Y-74380952D02*
X95954819Y-74619047D01*
X95954819Y-74619047D02*
X95907200Y-74714285D01*
X95907200Y-74714285D02*
X95859580Y-74761904D01*
X134954819Y-57761904D02*
X135764342Y-57761904D01*
X135764342Y-57761904D02*
X135859580Y-57714285D01*
X135859580Y-57714285D02*
X135907200Y-57666666D01*
X135907200Y-57666666D02*
X135954819Y-57571428D01*
X135954819Y-57571428D02*
X135954819Y-57380952D01*
X135954819Y-57380952D02*
X135907200Y-57285714D01*
X135907200Y-57285714D02*
X135859580Y-57238095D01*
X135859580Y-57238095D02*
X135764342Y-57190476D01*
X135764342Y-57190476D02*
X134954819Y-57190476D01*
X135288152Y-56285714D02*
X135954819Y-56285714D01*
X134907200Y-56523809D02*
X135621485Y-56761904D01*
X135621485Y-56761904D02*
X135621485Y-56142857D01*
X142859580Y-66650476D02*
X142907200Y-66698095D01*
X142907200Y-66698095D02*
X142954819Y-66840952D01*
X142954819Y-66840952D02*
X142954819Y-66936190D01*
X142954819Y-66936190D02*
X142907200Y-67079047D01*
X142907200Y-67079047D02*
X142811961Y-67174285D01*
X142811961Y-67174285D02*
X142716723Y-67221904D01*
X142716723Y-67221904D02*
X142526247Y-67269523D01*
X142526247Y-67269523D02*
X142383390Y-67269523D01*
X142383390Y-67269523D02*
X142192914Y-67221904D01*
X142192914Y-67221904D02*
X142097676Y-67174285D01*
X142097676Y-67174285D02*
X142002438Y-67079047D01*
X142002438Y-67079047D02*
X141954819Y-66936190D01*
X141954819Y-66936190D02*
X141954819Y-66840952D01*
X141954819Y-66840952D02*
X142002438Y-66698095D01*
X142002438Y-66698095D02*
X142050057Y-66650476D01*
X142954819Y-66221904D02*
X141954819Y-66221904D01*
X141954819Y-66221904D02*
X142954819Y-65650476D01*
X142954819Y-65650476D02*
X141954819Y-65650476D01*
X142050057Y-65221904D02*
X142002438Y-65174285D01*
X142002438Y-65174285D02*
X141954819Y-65079047D01*
X141954819Y-65079047D02*
X141954819Y-64840952D01*
X141954819Y-64840952D02*
X142002438Y-64745714D01*
X142002438Y-64745714D02*
X142050057Y-64698095D01*
X142050057Y-64698095D02*
X142145295Y-64650476D01*
X142145295Y-64650476D02*
X142240533Y-64650476D01*
X142240533Y-64650476D02*
X142383390Y-64698095D01*
X142383390Y-64698095D02*
X142954819Y-65269523D01*
X142954819Y-65269523D02*
X142954819Y-64650476D01*
X94859580Y-65650476D02*
X94907200Y-65698095D01*
X94907200Y-65698095D02*
X94954819Y-65840952D01*
X94954819Y-65840952D02*
X94954819Y-65936190D01*
X94954819Y-65936190D02*
X94907200Y-66079047D01*
X94907200Y-66079047D02*
X94811961Y-66174285D01*
X94811961Y-66174285D02*
X94716723Y-66221904D01*
X94716723Y-66221904D02*
X94526247Y-66269523D01*
X94526247Y-66269523D02*
X94383390Y-66269523D01*
X94383390Y-66269523D02*
X94192914Y-66221904D01*
X94192914Y-66221904D02*
X94097676Y-66174285D01*
X94097676Y-66174285D02*
X94002438Y-66079047D01*
X94002438Y-66079047D02*
X93954819Y-65936190D01*
X93954819Y-65936190D02*
X93954819Y-65840952D01*
X93954819Y-65840952D02*
X94002438Y-65698095D01*
X94002438Y-65698095D02*
X94050057Y-65650476D01*
X94954819Y-65221904D02*
X93954819Y-65221904D01*
X93954819Y-65221904D02*
X94954819Y-64650476D01*
X94954819Y-64650476D02*
X93954819Y-64650476D01*
X94954819Y-63650476D02*
X94954819Y-64221904D01*
X94954819Y-63936190D02*
X93954819Y-63936190D01*
X93954819Y-63936190D02*
X94097676Y-64031428D01*
X94097676Y-64031428D02*
X94192914Y-64126666D01*
X94192914Y-64126666D02*
X94240533Y-64221904D01*
X118988095Y-61454819D02*
X118988095Y-62264342D01*
X118988095Y-62264342D02*
X119035714Y-62359580D01*
X119035714Y-62359580D02*
X119083333Y-62407200D01*
X119083333Y-62407200D02*
X119178571Y-62454819D01*
X119178571Y-62454819D02*
X119369047Y-62454819D01*
X119369047Y-62454819D02*
X119464285Y-62407200D01*
X119464285Y-62407200D02*
X119511904Y-62359580D01*
X119511904Y-62359580D02*
X119559523Y-62264342D01*
X119559523Y-62264342D02*
X119559523Y-61454819D01*
X119940476Y-61454819D02*
X120559523Y-61454819D01*
X120559523Y-61454819D02*
X120226190Y-61835771D01*
X120226190Y-61835771D02*
X120369047Y-61835771D01*
X120369047Y-61835771D02*
X120464285Y-61883390D01*
X120464285Y-61883390D02*
X120511904Y-61931009D01*
X120511904Y-61931009D02*
X120559523Y-62026247D01*
X120559523Y-62026247D02*
X120559523Y-62264342D01*
X120559523Y-62264342D02*
X120511904Y-62359580D01*
X120511904Y-62359580D02*
X120464285Y-62407200D01*
X120464285Y-62407200D02*
X120369047Y-62454819D01*
X120369047Y-62454819D02*
X120083333Y-62454819D01*
X120083333Y-62454819D02*
X119988095Y-62407200D01*
X119988095Y-62407200D02*
X119940476Y-62359580D01*
X75282142Y-66679819D02*
X74948809Y-66203628D01*
X74710714Y-66679819D02*
X74710714Y-65679819D01*
X74710714Y-65679819D02*
X75091666Y-65679819D01*
X75091666Y-65679819D02*
X75186904Y-65727438D01*
X75186904Y-65727438D02*
X75234523Y-65775057D01*
X75234523Y-65775057D02*
X75282142Y-65870295D01*
X75282142Y-65870295D02*
X75282142Y-66013152D01*
X75282142Y-66013152D02*
X75234523Y-66108390D01*
X75234523Y-66108390D02*
X75186904Y-66156009D01*
X75186904Y-66156009D02*
X75091666Y-66203628D01*
X75091666Y-66203628D02*
X74710714Y-66203628D01*
X75615476Y-65679819D02*
X76234523Y-65679819D01*
X76234523Y-65679819D02*
X75901190Y-66060771D01*
X75901190Y-66060771D02*
X76044047Y-66060771D01*
X76044047Y-66060771D02*
X76139285Y-66108390D01*
X76139285Y-66108390D02*
X76186904Y-66156009D01*
X76186904Y-66156009D02*
X76234523Y-66251247D01*
X76234523Y-66251247D02*
X76234523Y-66489342D01*
X76234523Y-66489342D02*
X76186904Y-66584580D01*
X76186904Y-66584580D02*
X76139285Y-66632200D01*
X76139285Y-66632200D02*
X76044047Y-66679819D01*
X76044047Y-66679819D02*
X75758333Y-66679819D01*
X75758333Y-66679819D02*
X75663095Y-66632200D01*
X75663095Y-66632200D02*
X75615476Y-66584580D01*
X77186904Y-66679819D02*
X76615476Y-66679819D01*
X76901190Y-66679819D02*
X76901190Y-65679819D01*
X76901190Y-65679819D02*
X76805952Y-65822676D01*
X76805952Y-65822676D02*
X76710714Y-65917914D01*
X76710714Y-65917914D02*
X76615476Y-65965533D01*
X75282142Y-64529819D02*
X74948809Y-64053628D01*
X74710714Y-64529819D02*
X74710714Y-63529819D01*
X74710714Y-63529819D02*
X75091666Y-63529819D01*
X75091666Y-63529819D02*
X75186904Y-63577438D01*
X75186904Y-63577438D02*
X75234523Y-63625057D01*
X75234523Y-63625057D02*
X75282142Y-63720295D01*
X75282142Y-63720295D02*
X75282142Y-63863152D01*
X75282142Y-63863152D02*
X75234523Y-63958390D01*
X75234523Y-63958390D02*
X75186904Y-64006009D01*
X75186904Y-64006009D02*
X75091666Y-64053628D01*
X75091666Y-64053628D02*
X74710714Y-64053628D01*
X75615476Y-63529819D02*
X76234523Y-63529819D01*
X76234523Y-63529819D02*
X75901190Y-63910771D01*
X75901190Y-63910771D02*
X76044047Y-63910771D01*
X76044047Y-63910771D02*
X76139285Y-63958390D01*
X76139285Y-63958390D02*
X76186904Y-64006009D01*
X76186904Y-64006009D02*
X76234523Y-64101247D01*
X76234523Y-64101247D02*
X76234523Y-64339342D01*
X76234523Y-64339342D02*
X76186904Y-64434580D01*
X76186904Y-64434580D02*
X76139285Y-64482200D01*
X76139285Y-64482200D02*
X76044047Y-64529819D01*
X76044047Y-64529819D02*
X75758333Y-64529819D01*
X75758333Y-64529819D02*
X75663095Y-64482200D01*
X75663095Y-64482200D02*
X75615476Y-64434580D01*
X76853571Y-63529819D02*
X76948809Y-63529819D01*
X76948809Y-63529819D02*
X77044047Y-63577438D01*
X77044047Y-63577438D02*
X77091666Y-63625057D01*
X77091666Y-63625057D02*
X77139285Y-63720295D01*
X77139285Y-63720295D02*
X77186904Y-63910771D01*
X77186904Y-63910771D02*
X77186904Y-64148866D01*
X77186904Y-64148866D02*
X77139285Y-64339342D01*
X77139285Y-64339342D02*
X77091666Y-64434580D01*
X77091666Y-64434580D02*
X77044047Y-64482200D01*
X77044047Y-64482200D02*
X76948809Y-64529819D01*
X76948809Y-64529819D02*
X76853571Y-64529819D01*
X76853571Y-64529819D02*
X76758333Y-64482200D01*
X76758333Y-64482200D02*
X76710714Y-64434580D01*
X76710714Y-64434580D02*
X76663095Y-64339342D01*
X76663095Y-64339342D02*
X76615476Y-64148866D01*
X76615476Y-64148866D02*
X76615476Y-63910771D01*
X76615476Y-63910771D02*
X76663095Y-63720295D01*
X76663095Y-63720295D02*
X76710714Y-63625057D01*
X76710714Y-63625057D02*
X76758333Y-63577438D01*
X76758333Y-63577438D02*
X76853571Y-63529819D01*
X75282142Y-62379819D02*
X74948809Y-61903628D01*
X74710714Y-62379819D02*
X74710714Y-61379819D01*
X74710714Y-61379819D02*
X75091666Y-61379819D01*
X75091666Y-61379819D02*
X75186904Y-61427438D01*
X75186904Y-61427438D02*
X75234523Y-61475057D01*
X75234523Y-61475057D02*
X75282142Y-61570295D01*
X75282142Y-61570295D02*
X75282142Y-61713152D01*
X75282142Y-61713152D02*
X75234523Y-61808390D01*
X75234523Y-61808390D02*
X75186904Y-61856009D01*
X75186904Y-61856009D02*
X75091666Y-61903628D01*
X75091666Y-61903628D02*
X74710714Y-61903628D01*
X75663095Y-61475057D02*
X75710714Y-61427438D01*
X75710714Y-61427438D02*
X75805952Y-61379819D01*
X75805952Y-61379819D02*
X76044047Y-61379819D01*
X76044047Y-61379819D02*
X76139285Y-61427438D01*
X76139285Y-61427438D02*
X76186904Y-61475057D01*
X76186904Y-61475057D02*
X76234523Y-61570295D01*
X76234523Y-61570295D02*
X76234523Y-61665533D01*
X76234523Y-61665533D02*
X76186904Y-61808390D01*
X76186904Y-61808390D02*
X75615476Y-62379819D01*
X75615476Y-62379819D02*
X76234523Y-62379819D01*
X76710714Y-62379819D02*
X76901190Y-62379819D01*
X76901190Y-62379819D02*
X76996428Y-62332200D01*
X76996428Y-62332200D02*
X77044047Y-62284580D01*
X77044047Y-62284580D02*
X77139285Y-62141723D01*
X77139285Y-62141723D02*
X77186904Y-61951247D01*
X77186904Y-61951247D02*
X77186904Y-61570295D01*
X77186904Y-61570295D02*
X77139285Y-61475057D01*
X77139285Y-61475057D02*
X77091666Y-61427438D01*
X77091666Y-61427438D02*
X76996428Y-61379819D01*
X76996428Y-61379819D02*
X76805952Y-61379819D01*
X76805952Y-61379819D02*
X76710714Y-61427438D01*
X76710714Y-61427438D02*
X76663095Y-61475057D01*
X76663095Y-61475057D02*
X76615476Y-61570295D01*
X76615476Y-61570295D02*
X76615476Y-61808390D01*
X76615476Y-61808390D02*
X76663095Y-61903628D01*
X76663095Y-61903628D02*
X76710714Y-61951247D01*
X76710714Y-61951247D02*
X76805952Y-61998866D01*
X76805952Y-61998866D02*
X76996428Y-61998866D01*
X76996428Y-61998866D02*
X77091666Y-61951247D01*
X77091666Y-61951247D02*
X77139285Y-61903628D01*
X77139285Y-61903628D02*
X77186904Y-61808390D01*
X67772142Y-63909819D02*
X67438809Y-63433628D01*
X67200714Y-63909819D02*
X67200714Y-62909819D01*
X67200714Y-62909819D02*
X67581666Y-62909819D01*
X67581666Y-62909819D02*
X67676904Y-62957438D01*
X67676904Y-62957438D02*
X67724523Y-63005057D01*
X67724523Y-63005057D02*
X67772142Y-63100295D01*
X67772142Y-63100295D02*
X67772142Y-63243152D01*
X67772142Y-63243152D02*
X67724523Y-63338390D01*
X67724523Y-63338390D02*
X67676904Y-63386009D01*
X67676904Y-63386009D02*
X67581666Y-63433628D01*
X67581666Y-63433628D02*
X67200714Y-63433628D01*
X68153095Y-63005057D02*
X68200714Y-62957438D01*
X68200714Y-62957438D02*
X68295952Y-62909819D01*
X68295952Y-62909819D02*
X68534047Y-62909819D01*
X68534047Y-62909819D02*
X68629285Y-62957438D01*
X68629285Y-62957438D02*
X68676904Y-63005057D01*
X68676904Y-63005057D02*
X68724523Y-63100295D01*
X68724523Y-63100295D02*
X68724523Y-63195533D01*
X68724523Y-63195533D02*
X68676904Y-63338390D01*
X68676904Y-63338390D02*
X68105476Y-63909819D01*
X68105476Y-63909819D02*
X68724523Y-63909819D01*
X69295952Y-63338390D02*
X69200714Y-63290771D01*
X69200714Y-63290771D02*
X69153095Y-63243152D01*
X69153095Y-63243152D02*
X69105476Y-63147914D01*
X69105476Y-63147914D02*
X69105476Y-63100295D01*
X69105476Y-63100295D02*
X69153095Y-63005057D01*
X69153095Y-63005057D02*
X69200714Y-62957438D01*
X69200714Y-62957438D02*
X69295952Y-62909819D01*
X69295952Y-62909819D02*
X69486428Y-62909819D01*
X69486428Y-62909819D02*
X69581666Y-62957438D01*
X69581666Y-62957438D02*
X69629285Y-63005057D01*
X69629285Y-63005057D02*
X69676904Y-63100295D01*
X69676904Y-63100295D02*
X69676904Y-63147914D01*
X69676904Y-63147914D02*
X69629285Y-63243152D01*
X69629285Y-63243152D02*
X69581666Y-63290771D01*
X69581666Y-63290771D02*
X69486428Y-63338390D01*
X69486428Y-63338390D02*
X69295952Y-63338390D01*
X69295952Y-63338390D02*
X69200714Y-63386009D01*
X69200714Y-63386009D02*
X69153095Y-63433628D01*
X69153095Y-63433628D02*
X69105476Y-63528866D01*
X69105476Y-63528866D02*
X69105476Y-63719342D01*
X69105476Y-63719342D02*
X69153095Y-63814580D01*
X69153095Y-63814580D02*
X69200714Y-63862200D01*
X69200714Y-63862200D02*
X69295952Y-63909819D01*
X69295952Y-63909819D02*
X69486428Y-63909819D01*
X69486428Y-63909819D02*
X69581666Y-63862200D01*
X69581666Y-63862200D02*
X69629285Y-63814580D01*
X69629285Y-63814580D02*
X69676904Y-63719342D01*
X69676904Y-63719342D02*
X69676904Y-63528866D01*
X69676904Y-63528866D02*
X69629285Y-63433628D01*
X69629285Y-63433628D02*
X69581666Y-63386009D01*
X69581666Y-63386009D02*
X69486428Y-63338390D01*
X67772142Y-61439819D02*
X67438809Y-60963628D01*
X67200714Y-61439819D02*
X67200714Y-60439819D01*
X67200714Y-60439819D02*
X67581666Y-60439819D01*
X67581666Y-60439819D02*
X67676904Y-60487438D01*
X67676904Y-60487438D02*
X67724523Y-60535057D01*
X67724523Y-60535057D02*
X67772142Y-60630295D01*
X67772142Y-60630295D02*
X67772142Y-60773152D01*
X67772142Y-60773152D02*
X67724523Y-60868390D01*
X67724523Y-60868390D02*
X67676904Y-60916009D01*
X67676904Y-60916009D02*
X67581666Y-60963628D01*
X67581666Y-60963628D02*
X67200714Y-60963628D01*
X68153095Y-60535057D02*
X68200714Y-60487438D01*
X68200714Y-60487438D02*
X68295952Y-60439819D01*
X68295952Y-60439819D02*
X68534047Y-60439819D01*
X68534047Y-60439819D02*
X68629285Y-60487438D01*
X68629285Y-60487438D02*
X68676904Y-60535057D01*
X68676904Y-60535057D02*
X68724523Y-60630295D01*
X68724523Y-60630295D02*
X68724523Y-60725533D01*
X68724523Y-60725533D02*
X68676904Y-60868390D01*
X68676904Y-60868390D02*
X68105476Y-61439819D01*
X68105476Y-61439819D02*
X68724523Y-61439819D01*
X69057857Y-60439819D02*
X69724523Y-60439819D01*
X69724523Y-60439819D02*
X69295952Y-61439819D01*
X67772142Y-58969819D02*
X67438809Y-58493628D01*
X67200714Y-58969819D02*
X67200714Y-57969819D01*
X67200714Y-57969819D02*
X67581666Y-57969819D01*
X67581666Y-57969819D02*
X67676904Y-58017438D01*
X67676904Y-58017438D02*
X67724523Y-58065057D01*
X67724523Y-58065057D02*
X67772142Y-58160295D01*
X67772142Y-58160295D02*
X67772142Y-58303152D01*
X67772142Y-58303152D02*
X67724523Y-58398390D01*
X67724523Y-58398390D02*
X67676904Y-58446009D01*
X67676904Y-58446009D02*
X67581666Y-58493628D01*
X67581666Y-58493628D02*
X67200714Y-58493628D01*
X68153095Y-58065057D02*
X68200714Y-58017438D01*
X68200714Y-58017438D02*
X68295952Y-57969819D01*
X68295952Y-57969819D02*
X68534047Y-57969819D01*
X68534047Y-57969819D02*
X68629285Y-58017438D01*
X68629285Y-58017438D02*
X68676904Y-58065057D01*
X68676904Y-58065057D02*
X68724523Y-58160295D01*
X68724523Y-58160295D02*
X68724523Y-58255533D01*
X68724523Y-58255533D02*
X68676904Y-58398390D01*
X68676904Y-58398390D02*
X68105476Y-58969819D01*
X68105476Y-58969819D02*
X68724523Y-58969819D01*
X69581666Y-57969819D02*
X69391190Y-57969819D01*
X69391190Y-57969819D02*
X69295952Y-58017438D01*
X69295952Y-58017438D02*
X69248333Y-58065057D01*
X69248333Y-58065057D02*
X69153095Y-58207914D01*
X69153095Y-58207914D02*
X69105476Y-58398390D01*
X69105476Y-58398390D02*
X69105476Y-58779342D01*
X69105476Y-58779342D02*
X69153095Y-58874580D01*
X69153095Y-58874580D02*
X69200714Y-58922200D01*
X69200714Y-58922200D02*
X69295952Y-58969819D01*
X69295952Y-58969819D02*
X69486428Y-58969819D01*
X69486428Y-58969819D02*
X69581666Y-58922200D01*
X69581666Y-58922200D02*
X69629285Y-58874580D01*
X69629285Y-58874580D02*
X69676904Y-58779342D01*
X69676904Y-58779342D02*
X69676904Y-58541247D01*
X69676904Y-58541247D02*
X69629285Y-58446009D01*
X69629285Y-58446009D02*
X69581666Y-58398390D01*
X69581666Y-58398390D02*
X69486428Y-58350771D01*
X69486428Y-58350771D02*
X69295952Y-58350771D01*
X69295952Y-58350771D02*
X69200714Y-58398390D01*
X69200714Y-58398390D02*
X69153095Y-58446009D01*
X69153095Y-58446009D02*
X69105476Y-58541247D01*
X67772142Y-56499819D02*
X67438809Y-56023628D01*
X67200714Y-56499819D02*
X67200714Y-55499819D01*
X67200714Y-55499819D02*
X67581666Y-55499819D01*
X67581666Y-55499819D02*
X67676904Y-55547438D01*
X67676904Y-55547438D02*
X67724523Y-55595057D01*
X67724523Y-55595057D02*
X67772142Y-55690295D01*
X67772142Y-55690295D02*
X67772142Y-55833152D01*
X67772142Y-55833152D02*
X67724523Y-55928390D01*
X67724523Y-55928390D02*
X67676904Y-55976009D01*
X67676904Y-55976009D02*
X67581666Y-56023628D01*
X67581666Y-56023628D02*
X67200714Y-56023628D01*
X68153095Y-55595057D02*
X68200714Y-55547438D01*
X68200714Y-55547438D02*
X68295952Y-55499819D01*
X68295952Y-55499819D02*
X68534047Y-55499819D01*
X68534047Y-55499819D02*
X68629285Y-55547438D01*
X68629285Y-55547438D02*
X68676904Y-55595057D01*
X68676904Y-55595057D02*
X68724523Y-55690295D01*
X68724523Y-55690295D02*
X68724523Y-55785533D01*
X68724523Y-55785533D02*
X68676904Y-55928390D01*
X68676904Y-55928390D02*
X68105476Y-56499819D01*
X68105476Y-56499819D02*
X68724523Y-56499819D01*
X69629285Y-55499819D02*
X69153095Y-55499819D01*
X69153095Y-55499819D02*
X69105476Y-55976009D01*
X69105476Y-55976009D02*
X69153095Y-55928390D01*
X69153095Y-55928390D02*
X69248333Y-55880771D01*
X69248333Y-55880771D02*
X69486428Y-55880771D01*
X69486428Y-55880771D02*
X69581666Y-55928390D01*
X69581666Y-55928390D02*
X69629285Y-55976009D01*
X69629285Y-55976009D02*
X69676904Y-56071247D01*
X69676904Y-56071247D02*
X69676904Y-56309342D01*
X69676904Y-56309342D02*
X69629285Y-56404580D01*
X69629285Y-56404580D02*
X69581666Y-56452200D01*
X69581666Y-56452200D02*
X69486428Y-56499819D01*
X69486428Y-56499819D02*
X69248333Y-56499819D01*
X69248333Y-56499819D02*
X69153095Y-56452200D01*
X69153095Y-56452200D02*
X69105476Y-56404580D01*
X67772142Y-54029819D02*
X67438809Y-53553628D01*
X67200714Y-54029819D02*
X67200714Y-53029819D01*
X67200714Y-53029819D02*
X67581666Y-53029819D01*
X67581666Y-53029819D02*
X67676904Y-53077438D01*
X67676904Y-53077438D02*
X67724523Y-53125057D01*
X67724523Y-53125057D02*
X67772142Y-53220295D01*
X67772142Y-53220295D02*
X67772142Y-53363152D01*
X67772142Y-53363152D02*
X67724523Y-53458390D01*
X67724523Y-53458390D02*
X67676904Y-53506009D01*
X67676904Y-53506009D02*
X67581666Y-53553628D01*
X67581666Y-53553628D02*
X67200714Y-53553628D01*
X68153095Y-53125057D02*
X68200714Y-53077438D01*
X68200714Y-53077438D02*
X68295952Y-53029819D01*
X68295952Y-53029819D02*
X68534047Y-53029819D01*
X68534047Y-53029819D02*
X68629285Y-53077438D01*
X68629285Y-53077438D02*
X68676904Y-53125057D01*
X68676904Y-53125057D02*
X68724523Y-53220295D01*
X68724523Y-53220295D02*
X68724523Y-53315533D01*
X68724523Y-53315533D02*
X68676904Y-53458390D01*
X68676904Y-53458390D02*
X68105476Y-54029819D01*
X68105476Y-54029819D02*
X68724523Y-54029819D01*
X69581666Y-53363152D02*
X69581666Y-54029819D01*
X69343571Y-52982200D02*
X69105476Y-53696485D01*
X69105476Y-53696485D02*
X69724523Y-53696485D01*
X67772142Y-51559819D02*
X67438809Y-51083628D01*
X67200714Y-51559819D02*
X67200714Y-50559819D01*
X67200714Y-50559819D02*
X67581666Y-50559819D01*
X67581666Y-50559819D02*
X67676904Y-50607438D01*
X67676904Y-50607438D02*
X67724523Y-50655057D01*
X67724523Y-50655057D02*
X67772142Y-50750295D01*
X67772142Y-50750295D02*
X67772142Y-50893152D01*
X67772142Y-50893152D02*
X67724523Y-50988390D01*
X67724523Y-50988390D02*
X67676904Y-51036009D01*
X67676904Y-51036009D02*
X67581666Y-51083628D01*
X67581666Y-51083628D02*
X67200714Y-51083628D01*
X68153095Y-50655057D02*
X68200714Y-50607438D01*
X68200714Y-50607438D02*
X68295952Y-50559819D01*
X68295952Y-50559819D02*
X68534047Y-50559819D01*
X68534047Y-50559819D02*
X68629285Y-50607438D01*
X68629285Y-50607438D02*
X68676904Y-50655057D01*
X68676904Y-50655057D02*
X68724523Y-50750295D01*
X68724523Y-50750295D02*
X68724523Y-50845533D01*
X68724523Y-50845533D02*
X68676904Y-50988390D01*
X68676904Y-50988390D02*
X68105476Y-51559819D01*
X68105476Y-51559819D02*
X68724523Y-51559819D01*
X69057857Y-50559819D02*
X69676904Y-50559819D01*
X69676904Y-50559819D02*
X69343571Y-50940771D01*
X69343571Y-50940771D02*
X69486428Y-50940771D01*
X69486428Y-50940771D02*
X69581666Y-50988390D01*
X69581666Y-50988390D02*
X69629285Y-51036009D01*
X69629285Y-51036009D02*
X69676904Y-51131247D01*
X69676904Y-51131247D02*
X69676904Y-51369342D01*
X69676904Y-51369342D02*
X69629285Y-51464580D01*
X69629285Y-51464580D02*
X69581666Y-51512200D01*
X69581666Y-51512200D02*
X69486428Y-51559819D01*
X69486428Y-51559819D02*
X69200714Y-51559819D01*
X69200714Y-51559819D02*
X69105476Y-51512200D01*
X69105476Y-51512200D02*
X69057857Y-51464580D01*
X67772142Y-49089819D02*
X67438809Y-48613628D01*
X67200714Y-49089819D02*
X67200714Y-48089819D01*
X67200714Y-48089819D02*
X67581666Y-48089819D01*
X67581666Y-48089819D02*
X67676904Y-48137438D01*
X67676904Y-48137438D02*
X67724523Y-48185057D01*
X67724523Y-48185057D02*
X67772142Y-48280295D01*
X67772142Y-48280295D02*
X67772142Y-48423152D01*
X67772142Y-48423152D02*
X67724523Y-48518390D01*
X67724523Y-48518390D02*
X67676904Y-48566009D01*
X67676904Y-48566009D02*
X67581666Y-48613628D01*
X67581666Y-48613628D02*
X67200714Y-48613628D01*
X68153095Y-48185057D02*
X68200714Y-48137438D01*
X68200714Y-48137438D02*
X68295952Y-48089819D01*
X68295952Y-48089819D02*
X68534047Y-48089819D01*
X68534047Y-48089819D02*
X68629285Y-48137438D01*
X68629285Y-48137438D02*
X68676904Y-48185057D01*
X68676904Y-48185057D02*
X68724523Y-48280295D01*
X68724523Y-48280295D02*
X68724523Y-48375533D01*
X68724523Y-48375533D02*
X68676904Y-48518390D01*
X68676904Y-48518390D02*
X68105476Y-49089819D01*
X68105476Y-49089819D02*
X68724523Y-49089819D01*
X69105476Y-48185057D02*
X69153095Y-48137438D01*
X69153095Y-48137438D02*
X69248333Y-48089819D01*
X69248333Y-48089819D02*
X69486428Y-48089819D01*
X69486428Y-48089819D02*
X69581666Y-48137438D01*
X69581666Y-48137438D02*
X69629285Y-48185057D01*
X69629285Y-48185057D02*
X69676904Y-48280295D01*
X69676904Y-48280295D02*
X69676904Y-48375533D01*
X69676904Y-48375533D02*
X69629285Y-48518390D01*
X69629285Y-48518390D02*
X69057857Y-49089819D01*
X69057857Y-49089819D02*
X69676904Y-49089819D01*
X75282142Y-60229819D02*
X74948809Y-59753628D01*
X74710714Y-60229819D02*
X74710714Y-59229819D01*
X74710714Y-59229819D02*
X75091666Y-59229819D01*
X75091666Y-59229819D02*
X75186904Y-59277438D01*
X75186904Y-59277438D02*
X75234523Y-59325057D01*
X75234523Y-59325057D02*
X75282142Y-59420295D01*
X75282142Y-59420295D02*
X75282142Y-59563152D01*
X75282142Y-59563152D02*
X75234523Y-59658390D01*
X75234523Y-59658390D02*
X75186904Y-59706009D01*
X75186904Y-59706009D02*
X75091666Y-59753628D01*
X75091666Y-59753628D02*
X74710714Y-59753628D01*
X75663095Y-59325057D02*
X75710714Y-59277438D01*
X75710714Y-59277438D02*
X75805952Y-59229819D01*
X75805952Y-59229819D02*
X76044047Y-59229819D01*
X76044047Y-59229819D02*
X76139285Y-59277438D01*
X76139285Y-59277438D02*
X76186904Y-59325057D01*
X76186904Y-59325057D02*
X76234523Y-59420295D01*
X76234523Y-59420295D02*
X76234523Y-59515533D01*
X76234523Y-59515533D02*
X76186904Y-59658390D01*
X76186904Y-59658390D02*
X75615476Y-60229819D01*
X75615476Y-60229819D02*
X76234523Y-60229819D01*
X77186904Y-60229819D02*
X76615476Y-60229819D01*
X76901190Y-60229819D02*
X76901190Y-59229819D01*
X76901190Y-59229819D02*
X76805952Y-59372676D01*
X76805952Y-59372676D02*
X76710714Y-59467914D01*
X76710714Y-59467914D02*
X76615476Y-59515533D01*
X83644761Y-60050057D02*
X83549523Y-60002438D01*
X83549523Y-60002438D02*
X83454285Y-59907200D01*
X83454285Y-59907200D02*
X83311428Y-59764342D01*
X83311428Y-59764342D02*
X83216190Y-59716723D01*
X83216190Y-59716723D02*
X83120952Y-59716723D01*
X83168571Y-59954819D02*
X83073333Y-59907200D01*
X83073333Y-59907200D02*
X82978095Y-59811961D01*
X82978095Y-59811961D02*
X82930476Y-59621485D01*
X82930476Y-59621485D02*
X82930476Y-59288152D01*
X82930476Y-59288152D02*
X82978095Y-59097676D01*
X82978095Y-59097676D02*
X83073333Y-59002438D01*
X83073333Y-59002438D02*
X83168571Y-58954819D01*
X83168571Y-58954819D02*
X83359047Y-58954819D01*
X83359047Y-58954819D02*
X83454285Y-59002438D01*
X83454285Y-59002438D02*
X83549523Y-59097676D01*
X83549523Y-59097676D02*
X83597142Y-59288152D01*
X83597142Y-59288152D02*
X83597142Y-59621485D01*
X83597142Y-59621485D02*
X83549523Y-59811961D01*
X83549523Y-59811961D02*
X83454285Y-59907200D01*
X83454285Y-59907200D02*
X83359047Y-59954819D01*
X83359047Y-59954819D02*
X83168571Y-59954819D01*
X83978095Y-59050057D02*
X84025714Y-59002438D01*
X84025714Y-59002438D02*
X84120952Y-58954819D01*
X84120952Y-58954819D02*
X84359047Y-58954819D01*
X84359047Y-58954819D02*
X84454285Y-59002438D01*
X84454285Y-59002438D02*
X84501904Y-59050057D01*
X84501904Y-59050057D02*
X84549523Y-59145295D01*
X84549523Y-59145295D02*
X84549523Y-59240533D01*
X84549523Y-59240533D02*
X84501904Y-59383390D01*
X84501904Y-59383390D02*
X83930476Y-59954819D01*
X83930476Y-59954819D02*
X84549523Y-59954819D01*
X106050057Y-71095238D02*
X106002438Y-71190476D01*
X106002438Y-71190476D02*
X105907200Y-71285714D01*
X105907200Y-71285714D02*
X105764342Y-71428571D01*
X105764342Y-71428571D02*
X105716723Y-71523809D01*
X105716723Y-71523809D02*
X105716723Y-71619047D01*
X105954819Y-71571428D02*
X105907200Y-71666666D01*
X105907200Y-71666666D02*
X105811961Y-71761904D01*
X105811961Y-71761904D02*
X105621485Y-71809523D01*
X105621485Y-71809523D02*
X105288152Y-71809523D01*
X105288152Y-71809523D02*
X105097676Y-71761904D01*
X105097676Y-71761904D02*
X105002438Y-71666666D01*
X105002438Y-71666666D02*
X104954819Y-71571428D01*
X104954819Y-71571428D02*
X104954819Y-71380952D01*
X104954819Y-71380952D02*
X105002438Y-71285714D01*
X105002438Y-71285714D02*
X105097676Y-71190476D01*
X105097676Y-71190476D02*
X105288152Y-71142857D01*
X105288152Y-71142857D02*
X105621485Y-71142857D01*
X105621485Y-71142857D02*
X105811961Y-71190476D01*
X105811961Y-71190476D02*
X105907200Y-71285714D01*
X105907200Y-71285714D02*
X105954819Y-71380952D01*
X105954819Y-71380952D02*
X105954819Y-71571428D01*
X105954819Y-70190476D02*
X105954819Y-70761904D01*
X105954819Y-70476190D02*
X104954819Y-70476190D01*
X104954819Y-70476190D02*
X105097676Y-70571428D01*
X105097676Y-70571428D02*
X105192914Y-70666666D01*
X105192914Y-70666666D02*
X105240533Y-70761904D01*
X118153333Y-43454819D02*
X117677143Y-43454819D01*
X117677143Y-43454819D02*
X117677143Y-42454819D01*
X119010476Y-43454819D02*
X118439048Y-43454819D01*
X118724762Y-43454819D02*
X118724762Y-42454819D01*
X118724762Y-42454819D02*
X118629524Y-42597676D01*
X118629524Y-42597676D02*
X118534286Y-42692914D01*
X118534286Y-42692914D02*
X118439048Y-42740533D01*
X85762142Y-56884580D02*
X85714523Y-56932200D01*
X85714523Y-56932200D02*
X85571666Y-56979819D01*
X85571666Y-56979819D02*
X85476428Y-56979819D01*
X85476428Y-56979819D02*
X85333571Y-56932200D01*
X85333571Y-56932200D02*
X85238333Y-56836961D01*
X85238333Y-56836961D02*
X85190714Y-56741723D01*
X85190714Y-56741723D02*
X85143095Y-56551247D01*
X85143095Y-56551247D02*
X85143095Y-56408390D01*
X85143095Y-56408390D02*
X85190714Y-56217914D01*
X85190714Y-56217914D02*
X85238333Y-56122676D01*
X85238333Y-56122676D02*
X85333571Y-56027438D01*
X85333571Y-56027438D02*
X85476428Y-55979819D01*
X85476428Y-55979819D02*
X85571666Y-55979819D01*
X85571666Y-55979819D02*
X85714523Y-56027438D01*
X85714523Y-56027438D02*
X85762142Y-56075057D01*
X86619285Y-56313152D02*
X86619285Y-56979819D01*
X86381190Y-55932200D02*
X86143095Y-56646485D01*
X86143095Y-56646485D02*
X86762142Y-56646485D01*
X87619285Y-55979819D02*
X87143095Y-55979819D01*
X87143095Y-55979819D02*
X87095476Y-56456009D01*
X87095476Y-56456009D02*
X87143095Y-56408390D01*
X87143095Y-56408390D02*
X87238333Y-56360771D01*
X87238333Y-56360771D02*
X87476428Y-56360771D01*
X87476428Y-56360771D02*
X87571666Y-56408390D01*
X87571666Y-56408390D02*
X87619285Y-56456009D01*
X87619285Y-56456009D02*
X87666904Y-56551247D01*
X87666904Y-56551247D02*
X87666904Y-56789342D01*
X87666904Y-56789342D02*
X87619285Y-56884580D01*
X87619285Y-56884580D02*
X87571666Y-56932200D01*
X87571666Y-56932200D02*
X87476428Y-56979819D01*
X87476428Y-56979819D02*
X87238333Y-56979819D01*
X87238333Y-56979819D02*
X87143095Y-56932200D01*
X87143095Y-56932200D02*
X87095476Y-56884580D01*
X71752142Y-71074580D02*
X71704523Y-71122200D01*
X71704523Y-71122200D02*
X71561666Y-71169819D01*
X71561666Y-71169819D02*
X71466428Y-71169819D01*
X71466428Y-71169819D02*
X71323571Y-71122200D01*
X71323571Y-71122200D02*
X71228333Y-71026961D01*
X71228333Y-71026961D02*
X71180714Y-70931723D01*
X71180714Y-70931723D02*
X71133095Y-70741247D01*
X71133095Y-70741247D02*
X71133095Y-70598390D01*
X71133095Y-70598390D02*
X71180714Y-70407914D01*
X71180714Y-70407914D02*
X71228333Y-70312676D01*
X71228333Y-70312676D02*
X71323571Y-70217438D01*
X71323571Y-70217438D02*
X71466428Y-70169819D01*
X71466428Y-70169819D02*
X71561666Y-70169819D01*
X71561666Y-70169819D02*
X71704523Y-70217438D01*
X71704523Y-70217438D02*
X71752142Y-70265057D01*
X72609285Y-70503152D02*
X72609285Y-71169819D01*
X72371190Y-70122200D02*
X72133095Y-70836485D01*
X72133095Y-70836485D02*
X72752142Y-70836485D01*
X73561666Y-70503152D02*
X73561666Y-71169819D01*
X73323571Y-70122200D02*
X73085476Y-70836485D01*
X73085476Y-70836485D02*
X73704523Y-70836485D01*
X86552142Y-52184580D02*
X86504523Y-52232200D01*
X86504523Y-52232200D02*
X86361666Y-52279819D01*
X86361666Y-52279819D02*
X86266428Y-52279819D01*
X86266428Y-52279819D02*
X86123571Y-52232200D01*
X86123571Y-52232200D02*
X86028333Y-52136961D01*
X86028333Y-52136961D02*
X85980714Y-52041723D01*
X85980714Y-52041723D02*
X85933095Y-51851247D01*
X85933095Y-51851247D02*
X85933095Y-51708390D01*
X85933095Y-51708390D02*
X85980714Y-51517914D01*
X85980714Y-51517914D02*
X86028333Y-51422676D01*
X86028333Y-51422676D02*
X86123571Y-51327438D01*
X86123571Y-51327438D02*
X86266428Y-51279819D01*
X86266428Y-51279819D02*
X86361666Y-51279819D01*
X86361666Y-51279819D02*
X86504523Y-51327438D01*
X86504523Y-51327438D02*
X86552142Y-51375057D01*
X87409285Y-51613152D02*
X87409285Y-52279819D01*
X87171190Y-51232200D02*
X86933095Y-51946485D01*
X86933095Y-51946485D02*
X87552142Y-51946485D01*
X87837857Y-51279819D02*
X88456904Y-51279819D01*
X88456904Y-51279819D02*
X88123571Y-51660771D01*
X88123571Y-51660771D02*
X88266428Y-51660771D01*
X88266428Y-51660771D02*
X88361666Y-51708390D01*
X88361666Y-51708390D02*
X88409285Y-51756009D01*
X88409285Y-51756009D02*
X88456904Y-51851247D01*
X88456904Y-51851247D02*
X88456904Y-52089342D01*
X88456904Y-52089342D02*
X88409285Y-52184580D01*
X88409285Y-52184580D02*
X88361666Y-52232200D01*
X88361666Y-52232200D02*
X88266428Y-52279819D01*
X88266428Y-52279819D02*
X87980714Y-52279819D01*
X87980714Y-52279819D02*
X87885476Y-52232200D01*
X87885476Y-52232200D02*
X87837857Y-52184580D01*
X86552142Y-49234580D02*
X86504523Y-49282200D01*
X86504523Y-49282200D02*
X86361666Y-49329819D01*
X86361666Y-49329819D02*
X86266428Y-49329819D01*
X86266428Y-49329819D02*
X86123571Y-49282200D01*
X86123571Y-49282200D02*
X86028333Y-49186961D01*
X86028333Y-49186961D02*
X85980714Y-49091723D01*
X85980714Y-49091723D02*
X85933095Y-48901247D01*
X85933095Y-48901247D02*
X85933095Y-48758390D01*
X85933095Y-48758390D02*
X85980714Y-48567914D01*
X85980714Y-48567914D02*
X86028333Y-48472676D01*
X86028333Y-48472676D02*
X86123571Y-48377438D01*
X86123571Y-48377438D02*
X86266428Y-48329819D01*
X86266428Y-48329819D02*
X86361666Y-48329819D01*
X86361666Y-48329819D02*
X86504523Y-48377438D01*
X86504523Y-48377438D02*
X86552142Y-48425057D01*
X87409285Y-48663152D02*
X87409285Y-49329819D01*
X87171190Y-48282200D02*
X86933095Y-48996485D01*
X86933095Y-48996485D02*
X87552142Y-48996485D01*
X87885476Y-48425057D02*
X87933095Y-48377438D01*
X87933095Y-48377438D02*
X88028333Y-48329819D01*
X88028333Y-48329819D02*
X88266428Y-48329819D01*
X88266428Y-48329819D02*
X88361666Y-48377438D01*
X88361666Y-48377438D02*
X88409285Y-48425057D01*
X88409285Y-48425057D02*
X88456904Y-48520295D01*
X88456904Y-48520295D02*
X88456904Y-48615533D01*
X88456904Y-48615533D02*
X88409285Y-48758390D01*
X88409285Y-48758390D02*
X87837857Y-49329819D01*
X87837857Y-49329819D02*
X88456904Y-49329819D01*
X71752142Y-68404580D02*
X71704523Y-68452200D01*
X71704523Y-68452200D02*
X71561666Y-68499819D01*
X71561666Y-68499819D02*
X71466428Y-68499819D01*
X71466428Y-68499819D02*
X71323571Y-68452200D01*
X71323571Y-68452200D02*
X71228333Y-68356961D01*
X71228333Y-68356961D02*
X71180714Y-68261723D01*
X71180714Y-68261723D02*
X71133095Y-68071247D01*
X71133095Y-68071247D02*
X71133095Y-67928390D01*
X71133095Y-67928390D02*
X71180714Y-67737914D01*
X71180714Y-67737914D02*
X71228333Y-67642676D01*
X71228333Y-67642676D02*
X71323571Y-67547438D01*
X71323571Y-67547438D02*
X71466428Y-67499819D01*
X71466428Y-67499819D02*
X71561666Y-67499819D01*
X71561666Y-67499819D02*
X71704523Y-67547438D01*
X71704523Y-67547438D02*
X71752142Y-67595057D01*
X72609285Y-67833152D02*
X72609285Y-68499819D01*
X72371190Y-67452200D02*
X72133095Y-68166485D01*
X72133095Y-68166485D02*
X72752142Y-68166485D01*
X73656904Y-68499819D02*
X73085476Y-68499819D01*
X73371190Y-68499819D02*
X73371190Y-67499819D01*
X73371190Y-67499819D02*
X73275952Y-67642676D01*
X73275952Y-67642676D02*
X73180714Y-67737914D01*
X73180714Y-67737914D02*
X73085476Y-67785533D01*
X85762142Y-54734580D02*
X85714523Y-54782200D01*
X85714523Y-54782200D02*
X85571666Y-54829819D01*
X85571666Y-54829819D02*
X85476428Y-54829819D01*
X85476428Y-54829819D02*
X85333571Y-54782200D01*
X85333571Y-54782200D02*
X85238333Y-54686961D01*
X85238333Y-54686961D02*
X85190714Y-54591723D01*
X85190714Y-54591723D02*
X85143095Y-54401247D01*
X85143095Y-54401247D02*
X85143095Y-54258390D01*
X85143095Y-54258390D02*
X85190714Y-54067914D01*
X85190714Y-54067914D02*
X85238333Y-53972676D01*
X85238333Y-53972676D02*
X85333571Y-53877438D01*
X85333571Y-53877438D02*
X85476428Y-53829819D01*
X85476428Y-53829819D02*
X85571666Y-53829819D01*
X85571666Y-53829819D02*
X85714523Y-53877438D01*
X85714523Y-53877438D02*
X85762142Y-53925057D01*
X86619285Y-54163152D02*
X86619285Y-54829819D01*
X86381190Y-53782200D02*
X86143095Y-54496485D01*
X86143095Y-54496485D02*
X86762142Y-54496485D01*
X87333571Y-53829819D02*
X87428809Y-53829819D01*
X87428809Y-53829819D02*
X87524047Y-53877438D01*
X87524047Y-53877438D02*
X87571666Y-53925057D01*
X87571666Y-53925057D02*
X87619285Y-54020295D01*
X87619285Y-54020295D02*
X87666904Y-54210771D01*
X87666904Y-54210771D02*
X87666904Y-54448866D01*
X87666904Y-54448866D02*
X87619285Y-54639342D01*
X87619285Y-54639342D02*
X87571666Y-54734580D01*
X87571666Y-54734580D02*
X87524047Y-54782200D01*
X87524047Y-54782200D02*
X87428809Y-54829819D01*
X87428809Y-54829819D02*
X87333571Y-54829819D01*
X87333571Y-54829819D02*
X87238333Y-54782200D01*
X87238333Y-54782200D02*
X87190714Y-54734580D01*
X87190714Y-54734580D02*
X87143095Y-54639342D01*
X87143095Y-54639342D02*
X87095476Y-54448866D01*
X87095476Y-54448866D02*
X87095476Y-54210771D01*
X87095476Y-54210771D02*
X87143095Y-54020295D01*
X87143095Y-54020295D02*
X87190714Y-53925057D01*
X87190714Y-53925057D02*
X87238333Y-53877438D01*
X87238333Y-53877438D02*
X87333571Y-53829819D01*
X71752142Y-65734580D02*
X71704523Y-65782200D01*
X71704523Y-65782200D02*
X71561666Y-65829819D01*
X71561666Y-65829819D02*
X71466428Y-65829819D01*
X71466428Y-65829819D02*
X71323571Y-65782200D01*
X71323571Y-65782200D02*
X71228333Y-65686961D01*
X71228333Y-65686961D02*
X71180714Y-65591723D01*
X71180714Y-65591723D02*
X71133095Y-65401247D01*
X71133095Y-65401247D02*
X71133095Y-65258390D01*
X71133095Y-65258390D02*
X71180714Y-65067914D01*
X71180714Y-65067914D02*
X71228333Y-64972676D01*
X71228333Y-64972676D02*
X71323571Y-64877438D01*
X71323571Y-64877438D02*
X71466428Y-64829819D01*
X71466428Y-64829819D02*
X71561666Y-64829819D01*
X71561666Y-64829819D02*
X71704523Y-64877438D01*
X71704523Y-64877438D02*
X71752142Y-64925057D01*
X72085476Y-64829819D02*
X72704523Y-64829819D01*
X72704523Y-64829819D02*
X72371190Y-65210771D01*
X72371190Y-65210771D02*
X72514047Y-65210771D01*
X72514047Y-65210771D02*
X72609285Y-65258390D01*
X72609285Y-65258390D02*
X72656904Y-65306009D01*
X72656904Y-65306009D02*
X72704523Y-65401247D01*
X72704523Y-65401247D02*
X72704523Y-65639342D01*
X72704523Y-65639342D02*
X72656904Y-65734580D01*
X72656904Y-65734580D02*
X72609285Y-65782200D01*
X72609285Y-65782200D02*
X72514047Y-65829819D01*
X72514047Y-65829819D02*
X72228333Y-65829819D01*
X72228333Y-65829819D02*
X72133095Y-65782200D01*
X72133095Y-65782200D02*
X72085476Y-65734580D01*
X73180714Y-65829819D02*
X73371190Y-65829819D01*
X73371190Y-65829819D02*
X73466428Y-65782200D01*
X73466428Y-65782200D02*
X73514047Y-65734580D01*
X73514047Y-65734580D02*
X73609285Y-65591723D01*
X73609285Y-65591723D02*
X73656904Y-65401247D01*
X73656904Y-65401247D02*
X73656904Y-65020295D01*
X73656904Y-65020295D02*
X73609285Y-64925057D01*
X73609285Y-64925057D02*
X73561666Y-64877438D01*
X73561666Y-64877438D02*
X73466428Y-64829819D01*
X73466428Y-64829819D02*
X73275952Y-64829819D01*
X73275952Y-64829819D02*
X73180714Y-64877438D01*
X73180714Y-64877438D02*
X73133095Y-64925057D01*
X73133095Y-64925057D02*
X73085476Y-65020295D01*
X73085476Y-65020295D02*
X73085476Y-65258390D01*
X73085476Y-65258390D02*
X73133095Y-65353628D01*
X73133095Y-65353628D02*
X73180714Y-65401247D01*
X73180714Y-65401247D02*
X73275952Y-65448866D01*
X73275952Y-65448866D02*
X73466428Y-65448866D01*
X73466428Y-65448866D02*
X73561666Y-65401247D01*
X73561666Y-65401247D02*
X73609285Y-65353628D01*
X73609285Y-65353628D02*
X73656904Y-65258390D01*
X86782142Y-69394580D02*
X86734523Y-69442200D01*
X86734523Y-69442200D02*
X86591666Y-69489819D01*
X86591666Y-69489819D02*
X86496428Y-69489819D01*
X86496428Y-69489819D02*
X86353571Y-69442200D01*
X86353571Y-69442200D02*
X86258333Y-69346961D01*
X86258333Y-69346961D02*
X86210714Y-69251723D01*
X86210714Y-69251723D02*
X86163095Y-69061247D01*
X86163095Y-69061247D02*
X86163095Y-68918390D01*
X86163095Y-68918390D02*
X86210714Y-68727914D01*
X86210714Y-68727914D02*
X86258333Y-68632676D01*
X86258333Y-68632676D02*
X86353571Y-68537438D01*
X86353571Y-68537438D02*
X86496428Y-68489819D01*
X86496428Y-68489819D02*
X86591666Y-68489819D01*
X86591666Y-68489819D02*
X86734523Y-68537438D01*
X86734523Y-68537438D02*
X86782142Y-68585057D01*
X87115476Y-68489819D02*
X87734523Y-68489819D01*
X87734523Y-68489819D02*
X87401190Y-68870771D01*
X87401190Y-68870771D02*
X87544047Y-68870771D01*
X87544047Y-68870771D02*
X87639285Y-68918390D01*
X87639285Y-68918390D02*
X87686904Y-68966009D01*
X87686904Y-68966009D02*
X87734523Y-69061247D01*
X87734523Y-69061247D02*
X87734523Y-69299342D01*
X87734523Y-69299342D02*
X87686904Y-69394580D01*
X87686904Y-69394580D02*
X87639285Y-69442200D01*
X87639285Y-69442200D02*
X87544047Y-69489819D01*
X87544047Y-69489819D02*
X87258333Y-69489819D01*
X87258333Y-69489819D02*
X87163095Y-69442200D01*
X87163095Y-69442200D02*
X87115476Y-69394580D01*
X88305952Y-68918390D02*
X88210714Y-68870771D01*
X88210714Y-68870771D02*
X88163095Y-68823152D01*
X88163095Y-68823152D02*
X88115476Y-68727914D01*
X88115476Y-68727914D02*
X88115476Y-68680295D01*
X88115476Y-68680295D02*
X88163095Y-68585057D01*
X88163095Y-68585057D02*
X88210714Y-68537438D01*
X88210714Y-68537438D02*
X88305952Y-68489819D01*
X88305952Y-68489819D02*
X88496428Y-68489819D01*
X88496428Y-68489819D02*
X88591666Y-68537438D01*
X88591666Y-68537438D02*
X88639285Y-68585057D01*
X88639285Y-68585057D02*
X88686904Y-68680295D01*
X88686904Y-68680295D02*
X88686904Y-68727914D01*
X88686904Y-68727914D02*
X88639285Y-68823152D01*
X88639285Y-68823152D02*
X88591666Y-68870771D01*
X88591666Y-68870771D02*
X88496428Y-68918390D01*
X88496428Y-68918390D02*
X88305952Y-68918390D01*
X88305952Y-68918390D02*
X88210714Y-68966009D01*
X88210714Y-68966009D02*
X88163095Y-69013628D01*
X88163095Y-69013628D02*
X88115476Y-69108866D01*
X88115476Y-69108866D02*
X88115476Y-69299342D01*
X88115476Y-69299342D02*
X88163095Y-69394580D01*
X88163095Y-69394580D02*
X88210714Y-69442200D01*
X88210714Y-69442200D02*
X88305952Y-69489819D01*
X88305952Y-69489819D02*
X88496428Y-69489819D01*
X88496428Y-69489819D02*
X88591666Y-69442200D01*
X88591666Y-69442200D02*
X88639285Y-69394580D01*
X88639285Y-69394580D02*
X88686904Y-69299342D01*
X88686904Y-69299342D02*
X88686904Y-69108866D01*
X88686904Y-69108866D02*
X88639285Y-69013628D01*
X88639285Y-69013628D02*
X88591666Y-68966009D01*
X88591666Y-68966009D02*
X88496428Y-68918390D01*
X71752142Y-63064580D02*
X71704523Y-63112200D01*
X71704523Y-63112200D02*
X71561666Y-63159819D01*
X71561666Y-63159819D02*
X71466428Y-63159819D01*
X71466428Y-63159819D02*
X71323571Y-63112200D01*
X71323571Y-63112200D02*
X71228333Y-63016961D01*
X71228333Y-63016961D02*
X71180714Y-62921723D01*
X71180714Y-62921723D02*
X71133095Y-62731247D01*
X71133095Y-62731247D02*
X71133095Y-62588390D01*
X71133095Y-62588390D02*
X71180714Y-62397914D01*
X71180714Y-62397914D02*
X71228333Y-62302676D01*
X71228333Y-62302676D02*
X71323571Y-62207438D01*
X71323571Y-62207438D02*
X71466428Y-62159819D01*
X71466428Y-62159819D02*
X71561666Y-62159819D01*
X71561666Y-62159819D02*
X71704523Y-62207438D01*
X71704523Y-62207438D02*
X71752142Y-62255057D01*
X72085476Y-62159819D02*
X72704523Y-62159819D01*
X72704523Y-62159819D02*
X72371190Y-62540771D01*
X72371190Y-62540771D02*
X72514047Y-62540771D01*
X72514047Y-62540771D02*
X72609285Y-62588390D01*
X72609285Y-62588390D02*
X72656904Y-62636009D01*
X72656904Y-62636009D02*
X72704523Y-62731247D01*
X72704523Y-62731247D02*
X72704523Y-62969342D01*
X72704523Y-62969342D02*
X72656904Y-63064580D01*
X72656904Y-63064580D02*
X72609285Y-63112200D01*
X72609285Y-63112200D02*
X72514047Y-63159819D01*
X72514047Y-63159819D02*
X72228333Y-63159819D01*
X72228333Y-63159819D02*
X72133095Y-63112200D01*
X72133095Y-63112200D02*
X72085476Y-63064580D01*
X73037857Y-62159819D02*
X73704523Y-62159819D01*
X73704523Y-62159819D02*
X73275952Y-63159819D01*
X86782142Y-66064580D02*
X86734523Y-66112200D01*
X86734523Y-66112200D02*
X86591666Y-66159819D01*
X86591666Y-66159819D02*
X86496428Y-66159819D01*
X86496428Y-66159819D02*
X86353571Y-66112200D01*
X86353571Y-66112200D02*
X86258333Y-66016961D01*
X86258333Y-66016961D02*
X86210714Y-65921723D01*
X86210714Y-65921723D02*
X86163095Y-65731247D01*
X86163095Y-65731247D02*
X86163095Y-65588390D01*
X86163095Y-65588390D02*
X86210714Y-65397914D01*
X86210714Y-65397914D02*
X86258333Y-65302676D01*
X86258333Y-65302676D02*
X86353571Y-65207438D01*
X86353571Y-65207438D02*
X86496428Y-65159819D01*
X86496428Y-65159819D02*
X86591666Y-65159819D01*
X86591666Y-65159819D02*
X86734523Y-65207438D01*
X86734523Y-65207438D02*
X86782142Y-65255057D01*
X87115476Y-65159819D02*
X87734523Y-65159819D01*
X87734523Y-65159819D02*
X87401190Y-65540771D01*
X87401190Y-65540771D02*
X87544047Y-65540771D01*
X87544047Y-65540771D02*
X87639285Y-65588390D01*
X87639285Y-65588390D02*
X87686904Y-65636009D01*
X87686904Y-65636009D02*
X87734523Y-65731247D01*
X87734523Y-65731247D02*
X87734523Y-65969342D01*
X87734523Y-65969342D02*
X87686904Y-66064580D01*
X87686904Y-66064580D02*
X87639285Y-66112200D01*
X87639285Y-66112200D02*
X87544047Y-66159819D01*
X87544047Y-66159819D02*
X87258333Y-66159819D01*
X87258333Y-66159819D02*
X87163095Y-66112200D01*
X87163095Y-66112200D02*
X87115476Y-66064580D01*
X88591666Y-65159819D02*
X88401190Y-65159819D01*
X88401190Y-65159819D02*
X88305952Y-65207438D01*
X88305952Y-65207438D02*
X88258333Y-65255057D01*
X88258333Y-65255057D02*
X88163095Y-65397914D01*
X88163095Y-65397914D02*
X88115476Y-65588390D01*
X88115476Y-65588390D02*
X88115476Y-65969342D01*
X88115476Y-65969342D02*
X88163095Y-66064580D01*
X88163095Y-66064580D02*
X88210714Y-66112200D01*
X88210714Y-66112200D02*
X88305952Y-66159819D01*
X88305952Y-66159819D02*
X88496428Y-66159819D01*
X88496428Y-66159819D02*
X88591666Y-66112200D01*
X88591666Y-66112200D02*
X88639285Y-66064580D01*
X88639285Y-66064580D02*
X88686904Y-65969342D01*
X88686904Y-65969342D02*
X88686904Y-65731247D01*
X88686904Y-65731247D02*
X88639285Y-65636009D01*
X88639285Y-65636009D02*
X88591666Y-65588390D01*
X88591666Y-65588390D02*
X88496428Y-65540771D01*
X88496428Y-65540771D02*
X88305952Y-65540771D01*
X88305952Y-65540771D02*
X88210714Y-65588390D01*
X88210714Y-65588390D02*
X88163095Y-65636009D01*
X88163095Y-65636009D02*
X88115476Y-65731247D01*
X71752142Y-60394580D02*
X71704523Y-60442200D01*
X71704523Y-60442200D02*
X71561666Y-60489819D01*
X71561666Y-60489819D02*
X71466428Y-60489819D01*
X71466428Y-60489819D02*
X71323571Y-60442200D01*
X71323571Y-60442200D02*
X71228333Y-60346961D01*
X71228333Y-60346961D02*
X71180714Y-60251723D01*
X71180714Y-60251723D02*
X71133095Y-60061247D01*
X71133095Y-60061247D02*
X71133095Y-59918390D01*
X71133095Y-59918390D02*
X71180714Y-59727914D01*
X71180714Y-59727914D02*
X71228333Y-59632676D01*
X71228333Y-59632676D02*
X71323571Y-59537438D01*
X71323571Y-59537438D02*
X71466428Y-59489819D01*
X71466428Y-59489819D02*
X71561666Y-59489819D01*
X71561666Y-59489819D02*
X71704523Y-59537438D01*
X71704523Y-59537438D02*
X71752142Y-59585057D01*
X72085476Y-59489819D02*
X72704523Y-59489819D01*
X72704523Y-59489819D02*
X72371190Y-59870771D01*
X72371190Y-59870771D02*
X72514047Y-59870771D01*
X72514047Y-59870771D02*
X72609285Y-59918390D01*
X72609285Y-59918390D02*
X72656904Y-59966009D01*
X72656904Y-59966009D02*
X72704523Y-60061247D01*
X72704523Y-60061247D02*
X72704523Y-60299342D01*
X72704523Y-60299342D02*
X72656904Y-60394580D01*
X72656904Y-60394580D02*
X72609285Y-60442200D01*
X72609285Y-60442200D02*
X72514047Y-60489819D01*
X72514047Y-60489819D02*
X72228333Y-60489819D01*
X72228333Y-60489819D02*
X72133095Y-60442200D01*
X72133095Y-60442200D02*
X72085476Y-60394580D01*
X73609285Y-59489819D02*
X73133095Y-59489819D01*
X73133095Y-59489819D02*
X73085476Y-59966009D01*
X73085476Y-59966009D02*
X73133095Y-59918390D01*
X73133095Y-59918390D02*
X73228333Y-59870771D01*
X73228333Y-59870771D02*
X73466428Y-59870771D01*
X73466428Y-59870771D02*
X73561666Y-59918390D01*
X73561666Y-59918390D02*
X73609285Y-59966009D01*
X73609285Y-59966009D02*
X73656904Y-60061247D01*
X73656904Y-60061247D02*
X73656904Y-60299342D01*
X73656904Y-60299342D02*
X73609285Y-60394580D01*
X73609285Y-60394580D02*
X73561666Y-60442200D01*
X73561666Y-60442200D02*
X73466428Y-60489819D01*
X73466428Y-60489819D02*
X73228333Y-60489819D01*
X73228333Y-60489819D02*
X73133095Y-60442200D01*
X73133095Y-60442200D02*
X73085476Y-60394580D01*
D11*
%TO.C,U6*%
X100100000Y-56000000D02*
G75*
G02*
X96900000Y-56000000I-1600000J0D01*
G01*
X96900000Y-56000000D02*
G75*
G02*
X100100000Y-56000000I1600000J0D01*
G01*
%TO.C,U5*%
X100100000Y-75000000D02*
G75*
G02*
X96900000Y-75000000I-1600000J0D01*
G01*
X96900000Y-75000000D02*
G75*
G02*
X100100000Y-75000000I1600000J0D01*
G01*
%TO.C,U4*%
X140100000Y-57000000D02*
G75*
G02*
X136900000Y-57000000I-1600000J0D01*
G01*
X136900000Y-57000000D02*
G75*
G02*
X140100000Y-57000000I1600000J0D01*
G01*
%TO.C,CN2*%
X143500000Y-71040000D02*
X133300000Y-71040000D01*
X141220000Y-60880000D02*
X141210000Y-71040000D01*
X143500000Y-60880000D02*
X143500000Y-71040000D01*
X135460000Y-60880000D02*
X135460000Y-60570000D01*
X135460000Y-60570000D02*
X135600000Y-60420000D01*
X135600000Y-60420000D02*
X135600000Y-60320000D01*
X135600000Y-60320000D02*
X134800000Y-60320000D01*
X134800000Y-60320000D02*
X134800000Y-60520000D01*
X134800000Y-60520000D02*
X134900000Y-60620000D01*
X134900000Y-60620000D02*
X134900000Y-60880000D01*
X134900000Y-60880000D02*
X134900000Y-60820000D01*
X143500000Y-60880000D02*
X133300000Y-60880000D01*
X141750000Y-60880000D02*
X141750000Y-60570000D01*
X141750000Y-60570000D02*
X141900000Y-60420000D01*
X141900000Y-60420000D02*
X141900000Y-60320000D01*
X141900000Y-60320000D02*
X141100000Y-60320000D01*
X141100000Y-60320000D02*
X141100000Y-60520000D01*
X141100000Y-60520000D02*
X141200000Y-60620000D01*
X141200000Y-60620000D02*
X141200000Y-60880000D01*
X141200000Y-60880000D02*
X141200000Y-60920000D01*
X134530000Y-60880000D02*
X134530000Y-71040000D01*
X133920000Y-60880000D02*
X133920000Y-71040000D01*
X133300000Y-60880000D02*
X133300000Y-71040000D01*
X138830000Y-60250000D02*
G75*
G02*
X138350000Y-60250000I-240000J0D01*
G01*
X138350000Y-60250000D02*
G75*
G02*
X138830000Y-60250000I240000J0D01*
G01*
%TO.C,CN1*%
X93500000Y-59880000D02*
X103700000Y-59880000D01*
X95780000Y-70040000D02*
X95790000Y-59880000D01*
X93500000Y-70040000D02*
X93500000Y-59880000D01*
X101540000Y-70040000D02*
X101540000Y-70350000D01*
X101540000Y-70350000D02*
X101400000Y-70500000D01*
X101400000Y-70500000D02*
X101400000Y-70600000D01*
X101400000Y-70600000D02*
X102200000Y-70600000D01*
X102200000Y-70600000D02*
X102200000Y-70400000D01*
X102200000Y-70400000D02*
X102100000Y-70300000D01*
X102100000Y-70300000D02*
X102100000Y-70040000D01*
X102100000Y-70040000D02*
X102100000Y-70100000D01*
X93500000Y-70040000D02*
X103700000Y-70040000D01*
X95250000Y-70040000D02*
X95250000Y-70350000D01*
X95250000Y-70350000D02*
X95100000Y-70500000D01*
X95100000Y-70500000D02*
X95100000Y-70600000D01*
X95100000Y-70600000D02*
X95900000Y-70600000D01*
X95900000Y-70600000D02*
X95900000Y-70400000D01*
X95900000Y-70400000D02*
X95800000Y-70300000D01*
X95800000Y-70300000D02*
X95800000Y-70040000D01*
X95800000Y-70040000D02*
X95800000Y-70000000D01*
X102470000Y-70040000D02*
X102470000Y-59880000D01*
X103080000Y-70040000D02*
X103080000Y-59880000D01*
X103700000Y-70040000D02*
X103700000Y-59880000D01*
X98650000Y-70670000D02*
G75*
G02*
X98170000Y-70670000I-240000J0D01*
G01*
X98170000Y-70670000D02*
G75*
G02*
X98650000Y-70670000I240000J0D01*
G01*
%TO.C,U3*%
X117340000Y-63970000D02*
X117630000Y-63970000D01*
X121870000Y-63970000D02*
X122040000Y-63970000D01*
X122040000Y-63970000D02*
X122040000Y-64630000D01*
X122040000Y-65370000D02*
X122040000Y-66130000D01*
X122040000Y-66870000D02*
X122040000Y-67530000D01*
X122040000Y-67530000D02*
X121870000Y-67530000D01*
X117340000Y-63970000D02*
X117340000Y-64630000D01*
X117340000Y-65370000D02*
X117340000Y-66130000D01*
X117340000Y-66870000D02*
X117340000Y-67530000D01*
X116960000Y-67270000D02*
G75*
G02*
X116700000Y-67270000I-130000J0D01*
G01*
X116700000Y-67270000D02*
G75*
G02*
X116960000Y-67270000I130000J0D01*
G01*
D10*
%TO.C,R31*%
X75695000Y-70725000D02*
X74985000Y-70725000D01*
X74985000Y-70725000D02*
X74985000Y-69725000D01*
X74985000Y-69725000D02*
X75695000Y-69725000D01*
X76155000Y-70725000D02*
X76865000Y-70725000D01*
X76865000Y-70725000D02*
X76865000Y-69725000D01*
X76865000Y-69725000D02*
X76155000Y-69725000D01*
%TO.C,R30*%
X75695000Y-68575000D02*
X74985000Y-68575000D01*
X74985000Y-68575000D02*
X74985000Y-67575000D01*
X74985000Y-67575000D02*
X75695000Y-67575000D01*
X76155000Y-68575000D02*
X76865000Y-68575000D01*
X76865000Y-68575000D02*
X76865000Y-67575000D01*
X76865000Y-67575000D02*
X76155000Y-67575000D01*
%TO.C,R29*%
X75695000Y-66425000D02*
X74985000Y-66425000D01*
X74985000Y-66425000D02*
X74985000Y-65425000D01*
X74985000Y-65425000D02*
X75695000Y-65425000D01*
X76155000Y-66425000D02*
X76865000Y-66425000D01*
X76865000Y-66425000D02*
X76865000Y-65425000D01*
X76865000Y-65425000D02*
X76155000Y-65425000D01*
%TO.C,R28*%
X68845000Y-68115000D02*
X69805000Y-68115000D01*
X69805000Y-68115000D02*
X69805000Y-66795000D01*
X69805000Y-66795000D02*
X68845000Y-66795000D01*
X67985000Y-68115000D02*
X67025000Y-68115000D01*
X67025000Y-68115000D02*
X67025000Y-66795000D01*
X67025000Y-66795000D02*
X67985000Y-66795000D01*
%TO.C,R27*%
X68845000Y-65645000D02*
X69805000Y-65645000D01*
X69805000Y-65645000D02*
X69805000Y-64325000D01*
X69805000Y-64325000D02*
X68845000Y-64325000D01*
X67985000Y-65645000D02*
X67025000Y-65645000D01*
X67025000Y-65645000D02*
X67025000Y-64325000D01*
X67025000Y-64325000D02*
X67985000Y-64325000D01*
%TO.C,R26*%
X68845000Y-63175000D02*
X69805000Y-63175000D01*
X69805000Y-63175000D02*
X69805000Y-61855000D01*
X69805000Y-61855000D02*
X68845000Y-61855000D01*
X67985000Y-63175000D02*
X67025000Y-63175000D01*
X67025000Y-63175000D02*
X67025000Y-61855000D01*
X67025000Y-61855000D02*
X67985000Y-61855000D01*
%TO.C,R25*%
X68845000Y-60705000D02*
X69805000Y-60705000D01*
X69805000Y-60705000D02*
X69805000Y-59385000D01*
X69805000Y-59385000D02*
X68845000Y-59385000D01*
X67985000Y-60705000D02*
X67025000Y-60705000D01*
X67025000Y-60705000D02*
X67025000Y-59385000D01*
X67025000Y-59385000D02*
X67985000Y-59385000D01*
%TO.C,R24*%
X68845000Y-58235000D02*
X69805000Y-58235000D01*
X69805000Y-58235000D02*
X69805000Y-56915000D01*
X69805000Y-56915000D02*
X68845000Y-56915000D01*
X67985000Y-58235000D02*
X67025000Y-58235000D01*
X67025000Y-58235000D02*
X67025000Y-56915000D01*
X67025000Y-56915000D02*
X67985000Y-56915000D01*
%TO.C,R23*%
X68845000Y-55765000D02*
X69805000Y-55765000D01*
X69805000Y-55765000D02*
X69805000Y-54445000D01*
X69805000Y-54445000D02*
X68845000Y-54445000D01*
X67985000Y-55765000D02*
X67025000Y-55765000D01*
X67025000Y-55765000D02*
X67025000Y-54445000D01*
X67025000Y-54445000D02*
X67985000Y-54445000D01*
%TO.C,R22*%
X68845000Y-53295000D02*
X69805000Y-53295000D01*
X69805000Y-53295000D02*
X69805000Y-51975000D01*
X69805000Y-51975000D02*
X68845000Y-51975000D01*
X67985000Y-53295000D02*
X67025000Y-53295000D01*
X67025000Y-53295000D02*
X67025000Y-51975000D01*
X67025000Y-51975000D02*
X67985000Y-51975000D01*
%TO.C,R21*%
X75695000Y-64275000D02*
X74985000Y-64275000D01*
X74985000Y-64275000D02*
X74985000Y-63275000D01*
X74985000Y-63275000D02*
X75695000Y-63275000D01*
X76155000Y-64275000D02*
X76865000Y-64275000D01*
X76865000Y-64275000D02*
X76865000Y-63275000D01*
X76865000Y-63275000D02*
X76155000Y-63275000D01*
D12*
%TO.C,Q2*%
X82190000Y-66730000D02*
X82190000Y-63480000D01*
X85290000Y-66750000D02*
X85290000Y-63500000D01*
D11*
X82770000Y-67260000D02*
G75*
G02*
X82450000Y-67260000I-160000J0D01*
G01*
X82450000Y-67260000D02*
G75*
G02*
X82770000Y-67260000I160000J0D01*
G01*
D12*
%TO.C,Q1*%
X110230000Y-72550000D02*
X106980000Y-72550000D01*
X110250000Y-69450000D02*
X107000000Y-69450000D01*
D11*
X110920000Y-72130000D02*
G75*
G02*
X110600000Y-72130000I-160000J0D01*
G01*
X110600000Y-72130000D02*
G75*
G02*
X110920000Y-72130000I160000J0D01*
G01*
D10*
%TO.C,L1*%
X124060000Y-44900000D02*
X124050000Y-41920000D01*
X124050000Y-41920000D02*
X112600000Y-41920000D01*
X112600000Y-41920000D02*
X112580000Y-45020000D01*
X124080000Y-49050000D02*
X124050000Y-52070000D01*
X124050000Y-52070000D02*
X112600000Y-52070000D01*
X112600000Y-52070000D02*
X112610000Y-48990000D01*
%TO.C,C45*%
X87425000Y-60025000D02*
X86635000Y-60025000D01*
X86635000Y-61025000D02*
X87425000Y-61025000D01*
X87575000Y-60875000D02*
X87575000Y-60175000D01*
X85385000Y-60025000D02*
X86175000Y-60025000D01*
X86175000Y-61025000D02*
X85385000Y-61025000D01*
X85235000Y-60875000D02*
X85235000Y-60175000D01*
X87575000Y-60875000D02*
G75*
G02*
X87425000Y-61025000I-150000J0D01*
G01*
X87425000Y-60025000D02*
G75*
G02*
X87575000Y-60175000I0J-150000D01*
G01*
X85385000Y-61025000D02*
G75*
G02*
X85235000Y-60875000I0J150000D01*
G01*
X85235000Y-60175000D02*
G75*
G02*
X85385000Y-60025000I150000J0D01*
G01*
D11*
%TO.C,C44*%
X72115000Y-75425000D02*
X71315000Y-75425000D01*
X72675000Y-75425000D02*
X73475000Y-75425000D01*
X72115000Y-74005000D02*
X71315000Y-74005000D01*
X72675000Y-74005000D02*
X73475000Y-74005000D01*
X71005000Y-75115000D02*
X71005000Y-74315000D01*
X73785000Y-74315000D02*
X73785000Y-75115000D01*
X73475000Y-74005000D02*
G75*
G02*
X73785000Y-74315000I0J-310000D01*
G01*
X73785000Y-75115000D02*
G75*
G02*
X73475000Y-75425000I-310000J0D01*
G01*
X71315000Y-75425000D02*
G75*
G02*
X71005000Y-75115000I0J310000D01*
G01*
X71005000Y-74315000D02*
G75*
G02*
X71315000Y-74005000I310000J0D01*
G01*
D10*
%TO.C,C43*%
X89005000Y-54925000D02*
X87595000Y-54925000D01*
X87595000Y-56725000D02*
X89005000Y-56725000D01*
X89155000Y-56575000D02*
X89155000Y-55075000D01*
X85385000Y-54925000D02*
X86795000Y-54925000D01*
X86795000Y-56725000D02*
X85385000Y-56725000D01*
X85235000Y-56575000D02*
X85235000Y-55075000D01*
X89155000Y-56575000D02*
G75*
G02*
X89005000Y-56725000I-150000J0D01*
G01*
X89005000Y-54925000D02*
G75*
G02*
X89155000Y-55075000I0J-150000D01*
G01*
X85385000Y-56725000D02*
G75*
G02*
X85235000Y-56575000I0J150000D01*
G01*
X85235000Y-55075000D02*
G75*
G02*
X85385000Y-54925000I150000J0D01*
G01*
%TO.C,C42*%
X89005000Y-51975000D02*
X87595000Y-51975000D01*
X87595000Y-53775000D02*
X89005000Y-53775000D01*
X89155000Y-53625000D02*
X89155000Y-52125000D01*
X85385000Y-51975000D02*
X86795000Y-51975000D01*
X86795000Y-53775000D02*
X85385000Y-53775000D01*
X85235000Y-53625000D02*
X85235000Y-52125000D01*
X89155000Y-53625000D02*
G75*
G02*
X89005000Y-53775000I-150000J0D01*
G01*
X89005000Y-51975000D02*
G75*
G02*
X89155000Y-52125000I0J-150000D01*
G01*
X85385000Y-53775000D02*
G75*
G02*
X85235000Y-53625000I0J150000D01*
G01*
X85235000Y-52125000D02*
G75*
G02*
X85385000Y-51975000I150000J0D01*
G01*
D11*
%TO.C,C41*%
X72115000Y-72755000D02*
X71315000Y-72755000D01*
X72675000Y-72755000D02*
X73475000Y-72755000D01*
X72115000Y-71335000D02*
X71315000Y-71335000D01*
X72675000Y-71335000D02*
X73475000Y-71335000D01*
X71005000Y-72445000D02*
X71005000Y-71645000D01*
X73785000Y-71645000D02*
X73785000Y-72445000D01*
X73475000Y-71335000D02*
G75*
G02*
X73785000Y-71645000I0J-310000D01*
G01*
X73785000Y-72445000D02*
G75*
G02*
X73475000Y-72755000I-310000J0D01*
G01*
X71315000Y-72755000D02*
G75*
G02*
X71005000Y-72445000I0J310000D01*
G01*
X71005000Y-71645000D02*
G75*
G02*
X71315000Y-71335000I310000J0D01*
G01*
D10*
%TO.C,C40*%
X87425000Y-57875000D02*
X86635000Y-57875000D01*
X86635000Y-58875000D02*
X87425000Y-58875000D01*
X87575000Y-58725000D02*
X87575000Y-58025000D01*
X85385000Y-57875000D02*
X86175000Y-57875000D01*
X86175000Y-58875000D02*
X85385000Y-58875000D01*
X85235000Y-58725000D02*
X85235000Y-58025000D01*
X87575000Y-58725000D02*
G75*
G02*
X87425000Y-58875000I-150000J0D01*
G01*
X87425000Y-57875000D02*
G75*
G02*
X87575000Y-58025000I0J-150000D01*
G01*
X85385000Y-58875000D02*
G75*
G02*
X85235000Y-58725000I0J150000D01*
G01*
X85235000Y-58025000D02*
G75*
G02*
X85385000Y-57875000I150000J0D01*
G01*
D11*
%TO.C,C39*%
X72115000Y-70085000D02*
X71315000Y-70085000D01*
X72675000Y-70085000D02*
X73475000Y-70085000D01*
X72115000Y-68665000D02*
X71315000Y-68665000D01*
X72675000Y-68665000D02*
X73475000Y-68665000D01*
X71005000Y-69775000D02*
X71005000Y-68975000D01*
X73785000Y-68975000D02*
X73785000Y-69775000D01*
X73475000Y-68665000D02*
G75*
G02*
X73785000Y-68975000I0J-310000D01*
G01*
X73785000Y-69775000D02*
G75*
G02*
X73475000Y-70085000I-310000J0D01*
G01*
X71315000Y-70085000D02*
G75*
G02*
X71005000Y-69775000I0J310000D01*
G01*
X71005000Y-68975000D02*
G75*
G02*
X71315000Y-68665000I310000J0D01*
G01*
D10*
%TO.C,C38*%
X89835000Y-71945000D02*
X88355000Y-71945000D01*
X88355000Y-74125000D02*
X89835000Y-74125000D01*
X89985000Y-73975000D02*
X89985000Y-72095000D01*
X85015000Y-71945000D02*
X86495000Y-71945000D01*
X86495000Y-74125000D02*
X85015000Y-74125000D01*
X84865000Y-73975000D02*
X84865000Y-72095000D01*
X89985000Y-73975000D02*
G75*
G02*
X89835000Y-74125000I-150000J0D01*
G01*
X89835000Y-71945000D02*
G75*
G02*
X89985000Y-72095000I0J-150000D01*
G01*
X85015000Y-74125000D02*
G75*
G02*
X84865000Y-73975000I0J150000D01*
G01*
X84865000Y-72095000D02*
G75*
G02*
X85015000Y-71945000I150000J0D01*
G01*
D11*
%TO.C,C37*%
X72115000Y-67415000D02*
X71315000Y-67415000D01*
X72675000Y-67415000D02*
X73475000Y-67415000D01*
X72115000Y-65995000D02*
X71315000Y-65995000D01*
X72675000Y-65995000D02*
X73475000Y-65995000D01*
X71005000Y-67105000D02*
X71005000Y-66305000D01*
X73785000Y-66305000D02*
X73785000Y-67105000D01*
X73475000Y-65995000D02*
G75*
G02*
X73785000Y-66305000I0J-310000D01*
G01*
X73785000Y-67105000D02*
G75*
G02*
X73475000Y-67415000I-310000J0D01*
G01*
X71315000Y-67415000D02*
G75*
G02*
X71005000Y-67105000I0J310000D01*
G01*
X71005000Y-66305000D02*
G75*
G02*
X71315000Y-65995000I310000J0D01*
G01*
D10*
%TO.C,C36*%
X89835000Y-68615000D02*
X88355000Y-68615000D01*
X88355000Y-70795000D02*
X89835000Y-70795000D01*
X89985000Y-70645000D02*
X89985000Y-68765000D01*
X85015000Y-68615000D02*
X86495000Y-68615000D01*
X86495000Y-70795000D02*
X85015000Y-70795000D01*
X84865000Y-70645000D02*
X84865000Y-68765000D01*
X89985000Y-70645000D02*
G75*
G02*
X89835000Y-70795000I-150000J0D01*
G01*
X89835000Y-68615000D02*
G75*
G02*
X89985000Y-68765000I0J-150000D01*
G01*
X85015000Y-70795000D02*
G75*
G02*
X84865000Y-70645000I0J150000D01*
G01*
X84865000Y-68765000D02*
G75*
G02*
X85015000Y-68615000I150000J0D01*
G01*
D11*
%TO.C,C35*%
X72115000Y-64745000D02*
X71315000Y-64745000D01*
X72675000Y-64745000D02*
X73475000Y-64745000D01*
X72115000Y-63325000D02*
X71315000Y-63325000D01*
X72675000Y-63325000D02*
X73475000Y-63325000D01*
X71005000Y-64435000D02*
X71005000Y-63635000D01*
X73785000Y-63635000D02*
X73785000Y-64435000D01*
X73475000Y-63325000D02*
G75*
G02*
X73785000Y-63635000I0J-310000D01*
G01*
X73785000Y-64435000D02*
G75*
G02*
X73475000Y-64745000I-310000J0D01*
G01*
X71315000Y-64745000D02*
G75*
G02*
X71005000Y-64435000I0J310000D01*
G01*
X71005000Y-63635000D02*
G75*
G02*
X71315000Y-63325000I310000J0D01*
G01*
%TD*%
%LPC*%
D13*
%TO.C,H4*%
X97500000Y-87000000D03*
%TD*%
%TO.C,H3*%
X139500000Y-87000000D03*
%TD*%
%TO.C,H1*%
X97500000Y-45000000D03*
%TD*%
%TO.C,H2*%
X139500000Y-45000000D03*
%TD*%
D14*
%TO.C,U6*%
X98500000Y-56000000D03*
%TD*%
%TO.C,U5*%
X98500000Y-75000000D03*
%TD*%
%TO.C,U4*%
X138500000Y-57000000D03*
%TD*%
D15*
%TO.C,CN2*%
X138500000Y-63420000D03*
D16*
X138500000Y-68500000D03*
%TD*%
D15*
%TO.C,CN1*%
X98500000Y-67500000D03*
D16*
X98500000Y-62420000D03*
%TD*%
D17*
%TO.C,U3*%
X119750000Y-65750000D03*
D18*
X117500000Y-65000000D03*
D19*
X118000000Y-64000000D03*
X118500000Y-64000000D03*
X119000000Y-64000000D03*
X119500000Y-64000000D03*
X120000000Y-64000000D03*
X120500000Y-64000000D03*
X121000000Y-64000000D03*
X121500000Y-64000000D03*
D18*
X122000000Y-65000000D03*
X122000000Y-66500000D03*
D19*
X121500000Y-67500000D03*
X121000000Y-67500000D03*
X120500000Y-67500000D03*
X120000000Y-67500000D03*
X119500000Y-67500000D03*
X119000000Y-67500000D03*
X118500000Y-67500000D03*
X118000000Y-67500000D03*
D18*
X117500000Y-66500000D03*
%TD*%
D20*
%TO.C,R31*%
X76355000Y-70225000D03*
X75495000Y-70225000D03*
%TD*%
%TO.C,R30*%
X76355000Y-68075000D03*
X75495000Y-68075000D03*
%TD*%
%TO.C,R29*%
X76355000Y-65925000D03*
X75495000Y-65925000D03*
%TD*%
D21*
%TO.C,R28*%
X69165000Y-67455000D03*
X67665000Y-67455000D03*
%TD*%
%TO.C,R27*%
X69165000Y-64985000D03*
X67665000Y-64985000D03*
%TD*%
%TO.C,R26*%
X69165000Y-62515000D03*
X67665000Y-62515000D03*
%TD*%
%TO.C,R25*%
X69165000Y-60045000D03*
X67665000Y-60045000D03*
%TD*%
%TO.C,R24*%
X69165000Y-57575000D03*
X67665000Y-57575000D03*
%TD*%
%TO.C,R23*%
X69165000Y-55105000D03*
X67665000Y-55105000D03*
%TD*%
%TO.C,R22*%
X69165000Y-52635000D03*
X67665000Y-52635000D03*
%TD*%
D20*
%TO.C,R21*%
X76355000Y-63775000D03*
X75495000Y-63775000D03*
%TD*%
D22*
%TO.C,Q2*%
X82750000Y-66500000D03*
X83400000Y-66500000D03*
X84050000Y-66500000D03*
X84700000Y-66500000D03*
D23*
X82780000Y-63500000D03*
X83430000Y-63500000D03*
X84080000Y-63500000D03*
X84730000Y-63500000D03*
D24*
X83750000Y-64590000D03*
%TD*%
D25*
%TO.C,Q1*%
X110000000Y-71990000D03*
X110000000Y-71340000D03*
X110000000Y-70690000D03*
X110000000Y-70040000D03*
D26*
X107000000Y-71960000D03*
X107000000Y-71310000D03*
X107000000Y-70660000D03*
X107000000Y-70010000D03*
D27*
X108090000Y-70990000D03*
%TD*%
D28*
%TO.C,L1*%
X113140000Y-47000000D03*
X123500000Y-47000000D03*
%TD*%
D29*
%TO.C,C45*%
X86955000Y-60525000D03*
X85855000Y-60525000D03*
%TD*%
D30*
%TO.C,C44*%
X73095000Y-74715000D03*
X71695000Y-74715000D03*
%TD*%
D31*
%TO.C,C43*%
X88195000Y-55825000D03*
X86195000Y-55825000D03*
%TD*%
%TO.C,C42*%
X88195000Y-52875000D03*
X86195000Y-52875000D03*
%TD*%
D30*
%TO.C,C41*%
X73095000Y-72045000D03*
X71695000Y-72045000D03*
%TD*%
D29*
%TO.C,C40*%
X86955000Y-58375000D03*
X85855000Y-58375000D03*
%TD*%
D30*
%TO.C,C39*%
X73095000Y-69375000D03*
X71695000Y-69375000D03*
%TD*%
D32*
%TO.C,C38*%
X89015000Y-73035000D03*
X85835000Y-73035000D03*
%TD*%
D30*
%TO.C,C37*%
X73095000Y-66705000D03*
X71695000Y-66705000D03*
%TD*%
D32*
%TO.C,C36*%
X89015000Y-69705000D03*
X85835000Y-69705000D03*
%TD*%
D30*
%TO.C,C35*%
X73095000Y-64035000D03*
X71695000Y-64035000D03*
%TD*%
%LPD*%
M02*
