%TF.GenerationSoftware,KiCad,Pcbnew,9.0.1*%
%TF.CreationDate,2025-05-14T01:42:24-05:00*%
%TF.ProjectId,Project-Star,50726f6a-6563-4742-9d53-7461722e6b69,rev?*%
%TF.SameCoordinates,Original*%
%TF.FileFunction,Legend,Top*%
%TF.FilePolarity,Positive*%
%FSLAX46Y46*%
G04 Gerber Fmt 4.6, Leading zero omitted, Abs format (unit mm)*
G04 Created by KiCad (PCBNEW 9.0.1) date 2025-05-14 01:42:24*
%MOMM*%
%LPD*%
G01*
G04 APERTURE LIST*
%ADD10C,0.150000*%
%ADD11C,0.100000*%
G04 APERTURE END LIST*
D10*
X91698095Y-96019819D02*
X91698095Y-96829342D01*
X91698095Y-96829342D02*
X91745714Y-96924580D01*
X91745714Y-96924580D02*
X91793333Y-96972200D01*
X91793333Y-96972200D02*
X91888571Y-97019819D01*
X91888571Y-97019819D02*
X92079047Y-97019819D01*
X92079047Y-97019819D02*
X92174285Y-96972200D01*
X92174285Y-96972200D02*
X92221904Y-96924580D01*
X92221904Y-96924580D02*
X92269523Y-96829342D01*
X92269523Y-96829342D02*
X92269523Y-96019819D01*
X93174285Y-96019819D02*
X92983809Y-96019819D01*
X92983809Y-96019819D02*
X92888571Y-96067438D01*
X92888571Y-96067438D02*
X92840952Y-96115057D01*
X92840952Y-96115057D02*
X92745714Y-96257914D01*
X92745714Y-96257914D02*
X92698095Y-96448390D01*
X92698095Y-96448390D02*
X92698095Y-96829342D01*
X92698095Y-96829342D02*
X92745714Y-96924580D01*
X92745714Y-96924580D02*
X92793333Y-96972200D01*
X92793333Y-96972200D02*
X92888571Y-97019819D01*
X92888571Y-97019819D02*
X93079047Y-97019819D01*
X93079047Y-97019819D02*
X93174285Y-96972200D01*
X93174285Y-96972200D02*
X93221904Y-96924580D01*
X93221904Y-96924580D02*
X93269523Y-96829342D01*
X93269523Y-96829342D02*
X93269523Y-96591247D01*
X93269523Y-96591247D02*
X93221904Y-96496009D01*
X93221904Y-96496009D02*
X93174285Y-96448390D01*
X93174285Y-96448390D02*
X93079047Y-96400771D01*
X93079047Y-96400771D02*
X92888571Y-96400771D01*
X92888571Y-96400771D02*
X92793333Y-96448390D01*
X92793333Y-96448390D02*
X92745714Y-96496009D01*
X92745714Y-96496009D02*
X92698095Y-96591247D01*
X91698095Y-91559819D02*
X91698095Y-92369342D01*
X91698095Y-92369342D02*
X91745714Y-92464580D01*
X91745714Y-92464580D02*
X91793333Y-92512200D01*
X91793333Y-92512200D02*
X91888571Y-92559819D01*
X91888571Y-92559819D02*
X92079047Y-92559819D01*
X92079047Y-92559819D02*
X92174285Y-92512200D01*
X92174285Y-92512200D02*
X92221904Y-92464580D01*
X92221904Y-92464580D02*
X92269523Y-92369342D01*
X92269523Y-92369342D02*
X92269523Y-91559819D01*
X93221904Y-91559819D02*
X92745714Y-91559819D01*
X92745714Y-91559819D02*
X92698095Y-92036009D01*
X92698095Y-92036009D02*
X92745714Y-91988390D01*
X92745714Y-91988390D02*
X92840952Y-91940771D01*
X92840952Y-91940771D02*
X93079047Y-91940771D01*
X93079047Y-91940771D02*
X93174285Y-91988390D01*
X93174285Y-91988390D02*
X93221904Y-92036009D01*
X93221904Y-92036009D02*
X93269523Y-92131247D01*
X93269523Y-92131247D02*
X93269523Y-92369342D01*
X93269523Y-92369342D02*
X93221904Y-92464580D01*
X93221904Y-92464580D02*
X93174285Y-92512200D01*
X93174285Y-92512200D02*
X93079047Y-92559819D01*
X93079047Y-92559819D02*
X92840952Y-92559819D01*
X92840952Y-92559819D02*
X92745714Y-92512200D01*
X92745714Y-92512200D02*
X92698095Y-92464580D01*
X101488095Y-95554819D02*
X101488095Y-96364342D01*
X101488095Y-96364342D02*
X101535714Y-96459580D01*
X101535714Y-96459580D02*
X101583333Y-96507200D01*
X101583333Y-96507200D02*
X101678571Y-96554819D01*
X101678571Y-96554819D02*
X101869047Y-96554819D01*
X101869047Y-96554819D02*
X101964285Y-96507200D01*
X101964285Y-96507200D02*
X102011904Y-96459580D01*
X102011904Y-96459580D02*
X102059523Y-96364342D01*
X102059523Y-96364342D02*
X102059523Y-95554819D01*
X102964285Y-95888152D02*
X102964285Y-96554819D01*
X102726190Y-95507200D02*
X102488095Y-96221485D01*
X102488095Y-96221485D02*
X103107142Y-96221485D01*
X91698095Y-87099819D02*
X91698095Y-87909342D01*
X91698095Y-87909342D02*
X91745714Y-88004580D01*
X91745714Y-88004580D02*
X91793333Y-88052200D01*
X91793333Y-88052200D02*
X91888571Y-88099819D01*
X91888571Y-88099819D02*
X92079047Y-88099819D01*
X92079047Y-88099819D02*
X92174285Y-88052200D01*
X92174285Y-88052200D02*
X92221904Y-88004580D01*
X92221904Y-88004580D02*
X92269523Y-87909342D01*
X92269523Y-87909342D02*
X92269523Y-87099819D01*
X92650476Y-87099819D02*
X93269523Y-87099819D01*
X93269523Y-87099819D02*
X92936190Y-87480771D01*
X92936190Y-87480771D02*
X93079047Y-87480771D01*
X93079047Y-87480771D02*
X93174285Y-87528390D01*
X93174285Y-87528390D02*
X93221904Y-87576009D01*
X93221904Y-87576009D02*
X93269523Y-87671247D01*
X93269523Y-87671247D02*
X93269523Y-87909342D01*
X93269523Y-87909342D02*
X93221904Y-88004580D01*
X93221904Y-88004580D02*
X93174285Y-88052200D01*
X93174285Y-88052200D02*
X93079047Y-88099819D01*
X93079047Y-88099819D02*
X92793333Y-88099819D01*
X92793333Y-88099819D02*
X92698095Y-88052200D01*
X92698095Y-88052200D02*
X92650476Y-88004580D01*
X85991904Y-84579819D02*
X85658571Y-84103628D01*
X85420476Y-84579819D02*
X85420476Y-83579819D01*
X85420476Y-83579819D02*
X85801428Y-83579819D01*
X85801428Y-83579819D02*
X85896666Y-83627438D01*
X85896666Y-83627438D02*
X85944285Y-83675057D01*
X85944285Y-83675057D02*
X85991904Y-83770295D01*
X85991904Y-83770295D02*
X85991904Y-83913152D01*
X85991904Y-83913152D02*
X85944285Y-84008390D01*
X85944285Y-84008390D02*
X85896666Y-84056009D01*
X85896666Y-84056009D02*
X85801428Y-84103628D01*
X85801428Y-84103628D02*
X85420476Y-84103628D01*
X86325238Y-83913152D02*
X86563333Y-84579819D01*
X86563333Y-84579819D02*
X86801428Y-83913152D01*
X87182381Y-84579819D02*
X87182381Y-83913152D01*
X87182381Y-83579819D02*
X87134762Y-83627438D01*
X87134762Y-83627438D02*
X87182381Y-83675057D01*
X87182381Y-83675057D02*
X87230000Y-83627438D01*
X87230000Y-83627438D02*
X87182381Y-83579819D01*
X87182381Y-83579819D02*
X87182381Y-83675057D01*
X87658571Y-83913152D02*
X87658571Y-84579819D01*
X87658571Y-84008390D02*
X87706190Y-83960771D01*
X87706190Y-83960771D02*
X87801428Y-83913152D01*
X87801428Y-83913152D02*
X87944285Y-83913152D01*
X87944285Y-83913152D02*
X88039523Y-83960771D01*
X88039523Y-83960771D02*
X88087142Y-84056009D01*
X88087142Y-84056009D02*
X88087142Y-84579819D01*
X89087142Y-84579819D02*
X88515714Y-84579819D01*
X88801428Y-84579819D02*
X88801428Y-83579819D01*
X88801428Y-83579819D02*
X88706190Y-83722676D01*
X88706190Y-83722676D02*
X88610952Y-83817914D01*
X88610952Y-83817914D02*
X88515714Y-83865533D01*
X85825237Y-82159819D02*
X85491904Y-81683628D01*
X85253809Y-82159819D02*
X85253809Y-81159819D01*
X85253809Y-81159819D02*
X85634761Y-81159819D01*
X85634761Y-81159819D02*
X85729999Y-81207438D01*
X85729999Y-81207438D02*
X85777618Y-81255057D01*
X85777618Y-81255057D02*
X85825237Y-81350295D01*
X85825237Y-81350295D02*
X85825237Y-81493152D01*
X85825237Y-81493152D02*
X85777618Y-81588390D01*
X85777618Y-81588390D02*
X85729999Y-81636009D01*
X85729999Y-81636009D02*
X85634761Y-81683628D01*
X85634761Y-81683628D02*
X85253809Y-81683628D01*
X86158571Y-81493152D02*
X86396666Y-82159819D01*
X86396666Y-82159819D02*
X86634761Y-81493152D01*
X87444285Y-82112200D02*
X87349047Y-82159819D01*
X87349047Y-82159819D02*
X87158571Y-82159819D01*
X87158571Y-82159819D02*
X87063333Y-82112200D01*
X87063333Y-82112200D02*
X87015714Y-82064580D01*
X87015714Y-82064580D02*
X86968095Y-81969342D01*
X86968095Y-81969342D02*
X86968095Y-81683628D01*
X86968095Y-81683628D02*
X87015714Y-81588390D01*
X87015714Y-81588390D02*
X87063333Y-81540771D01*
X87063333Y-81540771D02*
X87158571Y-81493152D01*
X87158571Y-81493152D02*
X87349047Y-81493152D01*
X87349047Y-81493152D02*
X87444285Y-81540771D01*
X88301428Y-82112200D02*
X88206190Y-82159819D01*
X88206190Y-82159819D02*
X88015714Y-82159819D01*
X88015714Y-82159819D02*
X87920476Y-82112200D01*
X87920476Y-82112200D02*
X87872857Y-82064580D01*
X87872857Y-82064580D02*
X87825238Y-81969342D01*
X87825238Y-81969342D02*
X87825238Y-81683628D01*
X87825238Y-81683628D02*
X87872857Y-81588390D01*
X87872857Y-81588390D02*
X87920476Y-81540771D01*
X87920476Y-81540771D02*
X88015714Y-81493152D01*
X88015714Y-81493152D02*
X88206190Y-81493152D01*
X88206190Y-81493152D02*
X88301428Y-81540771D01*
X89253809Y-82159819D02*
X88682381Y-82159819D01*
X88968095Y-82159819D02*
X88968095Y-81159819D01*
X88968095Y-81159819D02*
X88872857Y-81302676D01*
X88872857Y-81302676D02*
X88777619Y-81397914D01*
X88777619Y-81397914D02*
X88682381Y-81445533D01*
X86229999Y-79739819D02*
X85896666Y-79263628D01*
X85658571Y-79739819D02*
X85658571Y-78739819D01*
X85658571Y-78739819D02*
X86039523Y-78739819D01*
X86039523Y-78739819D02*
X86134761Y-78787438D01*
X86134761Y-78787438D02*
X86182380Y-78835057D01*
X86182380Y-78835057D02*
X86229999Y-78930295D01*
X86229999Y-78930295D02*
X86229999Y-79073152D01*
X86229999Y-79073152D02*
X86182380Y-79168390D01*
X86182380Y-79168390D02*
X86134761Y-79216009D01*
X86134761Y-79216009D02*
X86039523Y-79263628D01*
X86039523Y-79263628D02*
X85658571Y-79263628D01*
X87087142Y-79073152D02*
X87087142Y-79739819D01*
X86658571Y-79073152D02*
X86658571Y-79596961D01*
X86658571Y-79596961D02*
X86706190Y-79692200D01*
X86706190Y-79692200D02*
X86801428Y-79739819D01*
X86801428Y-79739819D02*
X86944285Y-79739819D01*
X86944285Y-79739819D02*
X87039523Y-79692200D01*
X87039523Y-79692200D02*
X87087142Y-79644580D01*
X87468095Y-79073152D02*
X87706190Y-79739819D01*
X87706190Y-79739819D02*
X87944285Y-79073152D01*
X88277619Y-78835057D02*
X88325238Y-78787438D01*
X88325238Y-78787438D02*
X88420476Y-78739819D01*
X88420476Y-78739819D02*
X88658571Y-78739819D01*
X88658571Y-78739819D02*
X88753809Y-78787438D01*
X88753809Y-78787438D02*
X88801428Y-78835057D01*
X88801428Y-78835057D02*
X88849047Y-78930295D01*
X88849047Y-78930295D02*
X88849047Y-79025533D01*
X88849047Y-79025533D02*
X88801428Y-79168390D01*
X88801428Y-79168390D02*
X88230000Y-79739819D01*
X88230000Y-79739819D02*
X88849047Y-79739819D01*
X73649999Y-98859819D02*
X73316666Y-98383628D01*
X73078571Y-98859819D02*
X73078571Y-97859819D01*
X73078571Y-97859819D02*
X73459523Y-97859819D01*
X73459523Y-97859819D02*
X73554761Y-97907438D01*
X73554761Y-97907438D02*
X73602380Y-97955057D01*
X73602380Y-97955057D02*
X73649999Y-98050295D01*
X73649999Y-98050295D02*
X73649999Y-98193152D01*
X73649999Y-98193152D02*
X73602380Y-98288390D01*
X73602380Y-98288390D02*
X73554761Y-98336009D01*
X73554761Y-98336009D02*
X73459523Y-98383628D01*
X73459523Y-98383628D02*
X73078571Y-98383628D01*
X74507142Y-98193152D02*
X74507142Y-98859819D01*
X74078571Y-98193152D02*
X74078571Y-98716961D01*
X74078571Y-98716961D02*
X74126190Y-98812200D01*
X74126190Y-98812200D02*
X74221428Y-98859819D01*
X74221428Y-98859819D02*
X74364285Y-98859819D01*
X74364285Y-98859819D02*
X74459523Y-98812200D01*
X74459523Y-98812200D02*
X74507142Y-98764580D01*
X74888095Y-98193152D02*
X75126190Y-98859819D01*
X75126190Y-98859819D02*
X75364285Y-98193152D01*
X76269047Y-98859819D02*
X75697619Y-98859819D01*
X75983333Y-98859819D02*
X75983333Y-97859819D01*
X75983333Y-97859819D02*
X75888095Y-98002676D01*
X75888095Y-98002676D02*
X75792857Y-98097914D01*
X75792857Y-98097914D02*
X75697619Y-98145533D01*
X86777618Y-77319819D02*
X86444285Y-76843628D01*
X86206190Y-77319819D02*
X86206190Y-76319819D01*
X86206190Y-76319819D02*
X86587142Y-76319819D01*
X86587142Y-76319819D02*
X86682380Y-76367438D01*
X86682380Y-76367438D02*
X86729999Y-76415057D01*
X86729999Y-76415057D02*
X86777618Y-76510295D01*
X86777618Y-76510295D02*
X86777618Y-76653152D01*
X86777618Y-76653152D02*
X86729999Y-76748390D01*
X86729999Y-76748390D02*
X86682380Y-76796009D01*
X86682380Y-76796009D02*
X86587142Y-76843628D01*
X86587142Y-76843628D02*
X86206190Y-76843628D01*
X87063333Y-76653152D02*
X87444285Y-76653152D01*
X87206190Y-76319819D02*
X87206190Y-77176961D01*
X87206190Y-77176961D02*
X87253809Y-77272200D01*
X87253809Y-77272200D02*
X87349047Y-77319819D01*
X87349047Y-77319819D02*
X87444285Y-77319819D01*
X88301428Y-77319819D02*
X87730000Y-77319819D01*
X88015714Y-77319819D02*
X88015714Y-76319819D01*
X88015714Y-76319819D02*
X87920476Y-76462676D01*
X87920476Y-76462676D02*
X87825238Y-76557914D01*
X87825238Y-76557914D02*
X87730000Y-76605533D01*
X84801428Y-74899819D02*
X84468095Y-74423628D01*
X84230000Y-74899819D02*
X84230000Y-73899819D01*
X84230000Y-73899819D02*
X84610952Y-73899819D01*
X84610952Y-73899819D02*
X84706190Y-73947438D01*
X84706190Y-73947438D02*
X84753809Y-73995057D01*
X84753809Y-73995057D02*
X84801428Y-74090295D01*
X84801428Y-74090295D02*
X84801428Y-74233152D01*
X84801428Y-74233152D02*
X84753809Y-74328390D01*
X84753809Y-74328390D02*
X84706190Y-74376009D01*
X84706190Y-74376009D02*
X84610952Y-74423628D01*
X84610952Y-74423628D02*
X84230000Y-74423628D01*
X85230000Y-74233152D02*
X85230000Y-75233152D01*
X85230000Y-74280771D02*
X85325238Y-74233152D01*
X85325238Y-74233152D02*
X85515714Y-74233152D01*
X85515714Y-74233152D02*
X85610952Y-74280771D01*
X85610952Y-74280771D02*
X85658571Y-74328390D01*
X85658571Y-74328390D02*
X85706190Y-74423628D01*
X85706190Y-74423628D02*
X85706190Y-74709342D01*
X85706190Y-74709342D02*
X85658571Y-74804580D01*
X85658571Y-74804580D02*
X85610952Y-74852200D01*
X85610952Y-74852200D02*
X85515714Y-74899819D01*
X85515714Y-74899819D02*
X85325238Y-74899819D01*
X85325238Y-74899819D02*
X85230000Y-74852200D01*
X86563333Y-74233152D02*
X86563333Y-75042676D01*
X86563333Y-75042676D02*
X86515714Y-75137914D01*
X86515714Y-75137914D02*
X86468095Y-75185533D01*
X86468095Y-75185533D02*
X86372857Y-75233152D01*
X86372857Y-75233152D02*
X86230000Y-75233152D01*
X86230000Y-75233152D02*
X86134762Y-75185533D01*
X86563333Y-74852200D02*
X86468095Y-74899819D01*
X86468095Y-74899819D02*
X86277619Y-74899819D01*
X86277619Y-74899819D02*
X86182381Y-74852200D01*
X86182381Y-74852200D02*
X86134762Y-74804580D01*
X86134762Y-74804580D02*
X86087143Y-74709342D01*
X86087143Y-74709342D02*
X86087143Y-74423628D01*
X86087143Y-74423628D02*
X86134762Y-74328390D01*
X86134762Y-74328390D02*
X86182381Y-74280771D01*
X86182381Y-74280771D02*
X86277619Y-74233152D01*
X86277619Y-74233152D02*
X86468095Y-74233152D01*
X86468095Y-74233152D02*
X86563333Y-74280771D01*
X87182381Y-74899819D02*
X87087143Y-74852200D01*
X87087143Y-74852200D02*
X87039524Y-74804580D01*
X87039524Y-74804580D02*
X86991905Y-74709342D01*
X86991905Y-74709342D02*
X86991905Y-74423628D01*
X86991905Y-74423628D02*
X87039524Y-74328390D01*
X87039524Y-74328390D02*
X87087143Y-74280771D01*
X87087143Y-74280771D02*
X87182381Y-74233152D01*
X87182381Y-74233152D02*
X87325238Y-74233152D01*
X87325238Y-74233152D02*
X87420476Y-74280771D01*
X87420476Y-74280771D02*
X87468095Y-74328390D01*
X87468095Y-74328390D02*
X87515714Y-74423628D01*
X87515714Y-74423628D02*
X87515714Y-74709342D01*
X87515714Y-74709342D02*
X87468095Y-74804580D01*
X87468095Y-74804580D02*
X87420476Y-74852200D01*
X87420476Y-74852200D02*
X87325238Y-74899819D01*
X87325238Y-74899819D02*
X87182381Y-74899819D01*
X88087143Y-74899819D02*
X87991905Y-74852200D01*
X87991905Y-74852200D02*
X87944286Y-74804580D01*
X87944286Y-74804580D02*
X87896667Y-74709342D01*
X87896667Y-74709342D02*
X87896667Y-74423628D01*
X87896667Y-74423628D02*
X87944286Y-74328390D01*
X87944286Y-74328390D02*
X87991905Y-74280771D01*
X87991905Y-74280771D02*
X88087143Y-74233152D01*
X88087143Y-74233152D02*
X88230000Y-74233152D01*
X88230000Y-74233152D02*
X88325238Y-74280771D01*
X88325238Y-74280771D02*
X88372857Y-74328390D01*
X88372857Y-74328390D02*
X88420476Y-74423628D01*
X88420476Y-74423628D02*
X88420476Y-74709342D01*
X88420476Y-74709342D02*
X88372857Y-74804580D01*
X88372857Y-74804580D02*
X88325238Y-74852200D01*
X88325238Y-74852200D02*
X88230000Y-74899819D01*
X88230000Y-74899819D02*
X88087143Y-74899819D01*
X89277619Y-74899819D02*
X89277619Y-73899819D01*
X89277619Y-74852200D02*
X89182381Y-74899819D01*
X89182381Y-74899819D02*
X88991905Y-74899819D01*
X88991905Y-74899819D02*
X88896667Y-74852200D01*
X88896667Y-74852200D02*
X88849048Y-74804580D01*
X88849048Y-74804580D02*
X88801429Y-74709342D01*
X88801429Y-74709342D02*
X88801429Y-74423628D01*
X88801429Y-74423628D02*
X88849048Y-74328390D01*
X88849048Y-74328390D02*
X88896667Y-74280771D01*
X88896667Y-74280771D02*
X88991905Y-74233152D01*
X88991905Y-74233152D02*
X89182381Y-74233152D01*
X89182381Y-74233152D02*
X89277619Y-74280771D01*
X90277619Y-74899819D02*
X89706191Y-74899819D01*
X89991905Y-74899819D02*
X89991905Y-73899819D01*
X89991905Y-73899819D02*
X89896667Y-74042676D01*
X89896667Y-74042676D02*
X89801429Y-74137914D01*
X89801429Y-74137914D02*
X89706191Y-74185533D01*
X85658571Y-72479819D02*
X85325238Y-72003628D01*
X85087143Y-72479819D02*
X85087143Y-71479819D01*
X85087143Y-71479819D02*
X85468095Y-71479819D01*
X85468095Y-71479819D02*
X85563333Y-71527438D01*
X85563333Y-71527438D02*
X85610952Y-71575057D01*
X85610952Y-71575057D02*
X85658571Y-71670295D01*
X85658571Y-71670295D02*
X85658571Y-71813152D01*
X85658571Y-71813152D02*
X85610952Y-71908390D01*
X85610952Y-71908390D02*
X85563333Y-71956009D01*
X85563333Y-71956009D02*
X85468095Y-72003628D01*
X85468095Y-72003628D02*
X85087143Y-72003628D01*
X86087143Y-72479819D02*
X86087143Y-71813152D01*
X86087143Y-71479819D02*
X86039524Y-71527438D01*
X86039524Y-71527438D02*
X86087143Y-71575057D01*
X86087143Y-71575057D02*
X86134762Y-71527438D01*
X86134762Y-71527438D02*
X86087143Y-71479819D01*
X86087143Y-71479819D02*
X86087143Y-71575057D01*
X86706190Y-72479819D02*
X86610952Y-72432200D01*
X86610952Y-72432200D02*
X86563333Y-72336961D01*
X86563333Y-72336961D02*
X86563333Y-71479819D01*
X87087143Y-72479819D02*
X87087143Y-71813152D01*
X87087143Y-71479819D02*
X87039524Y-71527438D01*
X87039524Y-71527438D02*
X87087143Y-71575057D01*
X87087143Y-71575057D02*
X87134762Y-71527438D01*
X87134762Y-71527438D02*
X87087143Y-71479819D01*
X87087143Y-71479819D02*
X87087143Y-71575057D01*
X87563333Y-72479819D02*
X87563333Y-71813152D01*
X87563333Y-71908390D02*
X87610952Y-71860771D01*
X87610952Y-71860771D02*
X87706190Y-71813152D01*
X87706190Y-71813152D02*
X87849047Y-71813152D01*
X87849047Y-71813152D02*
X87944285Y-71860771D01*
X87944285Y-71860771D02*
X87991904Y-71956009D01*
X87991904Y-71956009D02*
X87991904Y-72479819D01*
X87991904Y-71956009D02*
X88039523Y-71860771D01*
X88039523Y-71860771D02*
X88134761Y-71813152D01*
X88134761Y-71813152D02*
X88277618Y-71813152D01*
X88277618Y-71813152D02*
X88372857Y-71860771D01*
X88372857Y-71860771D02*
X88420476Y-71956009D01*
X88420476Y-71956009D02*
X88420476Y-72479819D01*
X89420475Y-72479819D02*
X88849047Y-72479819D01*
X89134761Y-72479819D02*
X89134761Y-71479819D01*
X89134761Y-71479819D02*
X89039523Y-71622676D01*
X89039523Y-71622676D02*
X88944285Y-71717914D01*
X88944285Y-71717914D02*
X88849047Y-71765533D01*
X86039523Y-70059819D02*
X85706190Y-69583628D01*
X85468095Y-70059819D02*
X85468095Y-69059819D01*
X85468095Y-69059819D02*
X85849047Y-69059819D01*
X85849047Y-69059819D02*
X85944285Y-69107438D01*
X85944285Y-69107438D02*
X85991904Y-69155057D01*
X85991904Y-69155057D02*
X86039523Y-69250295D01*
X86039523Y-69250295D02*
X86039523Y-69393152D01*
X86039523Y-69393152D02*
X85991904Y-69488390D01*
X85991904Y-69488390D02*
X85944285Y-69536009D01*
X85944285Y-69536009D02*
X85849047Y-69583628D01*
X85849047Y-69583628D02*
X85468095Y-69583628D01*
X86325238Y-69393152D02*
X86706190Y-69393152D01*
X86468095Y-70059819D02*
X86468095Y-69202676D01*
X86468095Y-69202676D02*
X86515714Y-69107438D01*
X86515714Y-69107438D02*
X86610952Y-69059819D01*
X86610952Y-69059819D02*
X86706190Y-69059819D01*
X87039524Y-70059819D02*
X87039524Y-69059819D01*
X87039524Y-69440771D02*
X87134762Y-69393152D01*
X87134762Y-69393152D02*
X87325238Y-69393152D01*
X87325238Y-69393152D02*
X87420476Y-69440771D01*
X87420476Y-69440771D02*
X87468095Y-69488390D01*
X87468095Y-69488390D02*
X87515714Y-69583628D01*
X87515714Y-69583628D02*
X87515714Y-69869342D01*
X87515714Y-69869342D02*
X87468095Y-69964580D01*
X87468095Y-69964580D02*
X87420476Y-70012200D01*
X87420476Y-70012200D02*
X87325238Y-70059819D01*
X87325238Y-70059819D02*
X87134762Y-70059819D01*
X87134762Y-70059819D02*
X87039524Y-70012200D01*
X87801429Y-69393152D02*
X88182381Y-69393152D01*
X87944286Y-69059819D02*
X87944286Y-69916961D01*
X87944286Y-69916961D02*
X87991905Y-70012200D01*
X87991905Y-70012200D02*
X88087143Y-70059819D01*
X88087143Y-70059819D02*
X88182381Y-70059819D01*
X89039524Y-70059819D02*
X88468096Y-70059819D01*
X88753810Y-70059819D02*
X88753810Y-69059819D01*
X88753810Y-69059819D02*
X88658572Y-69202676D01*
X88658572Y-69202676D02*
X88563334Y-69297914D01*
X88563334Y-69297914D02*
X88468096Y-69345533D01*
X73292856Y-96759819D02*
X72959523Y-96283628D01*
X72721428Y-96759819D02*
X72721428Y-95759819D01*
X72721428Y-95759819D02*
X73102380Y-95759819D01*
X73102380Y-95759819D02*
X73197618Y-95807438D01*
X73197618Y-95807438D02*
X73245237Y-95855057D01*
X73245237Y-95855057D02*
X73292856Y-95950295D01*
X73292856Y-95950295D02*
X73292856Y-96093152D01*
X73292856Y-96093152D02*
X73245237Y-96188390D01*
X73245237Y-96188390D02*
X73197618Y-96236009D01*
X73197618Y-96236009D02*
X73102380Y-96283628D01*
X73102380Y-96283628D02*
X72721428Y-96283628D01*
X73578571Y-96093152D02*
X73959523Y-96093152D01*
X73721428Y-96759819D02*
X73721428Y-95902676D01*
X73721428Y-95902676D02*
X73769047Y-95807438D01*
X73769047Y-95807438D02*
X73864285Y-95759819D01*
X73864285Y-95759819D02*
X73959523Y-95759819D01*
X74292857Y-96759819D02*
X74292857Y-95759819D01*
X74292857Y-96140771D02*
X74388095Y-96093152D01*
X74388095Y-96093152D02*
X74578571Y-96093152D01*
X74578571Y-96093152D02*
X74673809Y-96140771D01*
X74673809Y-96140771D02*
X74721428Y-96188390D01*
X74721428Y-96188390D02*
X74769047Y-96283628D01*
X74769047Y-96283628D02*
X74769047Y-96569342D01*
X74769047Y-96569342D02*
X74721428Y-96664580D01*
X74721428Y-96664580D02*
X74673809Y-96712200D01*
X74673809Y-96712200D02*
X74578571Y-96759819D01*
X74578571Y-96759819D02*
X74388095Y-96759819D01*
X74388095Y-96759819D02*
X74292857Y-96712200D01*
X75197619Y-96759819D02*
X75197619Y-95759819D01*
X75197619Y-96140771D02*
X75292857Y-96093152D01*
X75292857Y-96093152D02*
X75483333Y-96093152D01*
X75483333Y-96093152D02*
X75578571Y-96140771D01*
X75578571Y-96140771D02*
X75626190Y-96188390D01*
X75626190Y-96188390D02*
X75673809Y-96283628D01*
X75673809Y-96283628D02*
X75673809Y-96569342D01*
X75673809Y-96569342D02*
X75626190Y-96664580D01*
X75626190Y-96664580D02*
X75578571Y-96712200D01*
X75578571Y-96712200D02*
X75483333Y-96759819D01*
X75483333Y-96759819D02*
X75292857Y-96759819D01*
X75292857Y-96759819D02*
X75197619Y-96712200D01*
X76626190Y-96759819D02*
X76054762Y-96759819D01*
X76340476Y-96759819D02*
X76340476Y-95759819D01*
X76340476Y-95759819D02*
X76245238Y-95902676D01*
X76245238Y-95902676D02*
X76150000Y-95997914D01*
X76150000Y-95997914D02*
X76054762Y-96045533D01*
X72483333Y-94659819D02*
X72150000Y-94183628D01*
X71911905Y-94659819D02*
X71911905Y-93659819D01*
X71911905Y-93659819D02*
X72292857Y-93659819D01*
X72292857Y-93659819D02*
X72388095Y-93707438D01*
X72388095Y-93707438D02*
X72435714Y-93755057D01*
X72435714Y-93755057D02*
X72483333Y-93850295D01*
X72483333Y-93850295D02*
X72483333Y-93993152D01*
X72483333Y-93993152D02*
X72435714Y-94088390D01*
X72435714Y-94088390D02*
X72388095Y-94136009D01*
X72388095Y-94136009D02*
X72292857Y-94183628D01*
X72292857Y-94183628D02*
X71911905Y-94183628D01*
X73340476Y-94612200D02*
X73245238Y-94659819D01*
X73245238Y-94659819D02*
X73054762Y-94659819D01*
X73054762Y-94659819D02*
X72959524Y-94612200D01*
X72959524Y-94612200D02*
X72911905Y-94564580D01*
X72911905Y-94564580D02*
X72864286Y-94469342D01*
X72864286Y-94469342D02*
X72864286Y-94183628D01*
X72864286Y-94183628D02*
X72911905Y-94088390D01*
X72911905Y-94088390D02*
X72959524Y-94040771D01*
X72959524Y-94040771D02*
X73054762Y-93993152D01*
X73054762Y-93993152D02*
X73245238Y-93993152D01*
X73245238Y-93993152D02*
X73340476Y-94040771D01*
X73911905Y-94659819D02*
X73816667Y-94612200D01*
X73816667Y-94612200D02*
X73769048Y-94564580D01*
X73769048Y-94564580D02*
X73721429Y-94469342D01*
X73721429Y-94469342D02*
X73721429Y-94183628D01*
X73721429Y-94183628D02*
X73769048Y-94088390D01*
X73769048Y-94088390D02*
X73816667Y-94040771D01*
X73816667Y-94040771D02*
X73911905Y-93993152D01*
X73911905Y-93993152D02*
X74054762Y-93993152D01*
X74054762Y-93993152D02*
X74150000Y-94040771D01*
X74150000Y-94040771D02*
X74197619Y-94088390D01*
X74197619Y-94088390D02*
X74245238Y-94183628D01*
X74245238Y-94183628D02*
X74245238Y-94469342D01*
X74245238Y-94469342D02*
X74197619Y-94564580D01*
X74197619Y-94564580D02*
X74150000Y-94612200D01*
X74150000Y-94612200D02*
X74054762Y-94659819D01*
X74054762Y-94659819D02*
X73911905Y-94659819D01*
X74673810Y-94659819D02*
X74673810Y-93993152D01*
X74673810Y-94088390D02*
X74721429Y-94040771D01*
X74721429Y-94040771D02*
X74816667Y-93993152D01*
X74816667Y-93993152D02*
X74959524Y-93993152D01*
X74959524Y-93993152D02*
X75054762Y-94040771D01*
X75054762Y-94040771D02*
X75102381Y-94136009D01*
X75102381Y-94136009D02*
X75102381Y-94659819D01*
X75102381Y-94136009D02*
X75150000Y-94040771D01*
X75150000Y-94040771D02*
X75245238Y-93993152D01*
X75245238Y-93993152D02*
X75388095Y-93993152D01*
X75388095Y-93993152D02*
X75483334Y-94040771D01*
X75483334Y-94040771D02*
X75530953Y-94136009D01*
X75530953Y-94136009D02*
X75530953Y-94659819D01*
X76007143Y-93993152D02*
X76007143Y-94993152D01*
X76007143Y-94040771D02*
X76102381Y-93993152D01*
X76102381Y-93993152D02*
X76292857Y-93993152D01*
X76292857Y-93993152D02*
X76388095Y-94040771D01*
X76388095Y-94040771D02*
X76435714Y-94088390D01*
X76435714Y-94088390D02*
X76483333Y-94183628D01*
X76483333Y-94183628D02*
X76483333Y-94469342D01*
X76483333Y-94469342D02*
X76435714Y-94564580D01*
X76435714Y-94564580D02*
X76388095Y-94612200D01*
X76388095Y-94612200D02*
X76292857Y-94659819D01*
X76292857Y-94659819D02*
X76102381Y-94659819D01*
X76102381Y-94659819D02*
X76007143Y-94612200D01*
X76864286Y-93755057D02*
X76911905Y-93707438D01*
X76911905Y-93707438D02*
X77007143Y-93659819D01*
X77007143Y-93659819D02*
X77245238Y-93659819D01*
X77245238Y-93659819D02*
X77340476Y-93707438D01*
X77340476Y-93707438D02*
X77388095Y-93755057D01*
X77388095Y-93755057D02*
X77435714Y-93850295D01*
X77435714Y-93850295D02*
X77435714Y-93945533D01*
X77435714Y-93945533D02*
X77388095Y-94088390D01*
X77388095Y-94088390D02*
X76816667Y-94659819D01*
X76816667Y-94659819D02*
X77435714Y-94659819D01*
X72483333Y-92559819D02*
X72150000Y-92083628D01*
X71911905Y-92559819D02*
X71911905Y-91559819D01*
X71911905Y-91559819D02*
X72292857Y-91559819D01*
X72292857Y-91559819D02*
X72388095Y-91607438D01*
X72388095Y-91607438D02*
X72435714Y-91655057D01*
X72435714Y-91655057D02*
X72483333Y-91750295D01*
X72483333Y-91750295D02*
X72483333Y-91893152D01*
X72483333Y-91893152D02*
X72435714Y-91988390D01*
X72435714Y-91988390D02*
X72388095Y-92036009D01*
X72388095Y-92036009D02*
X72292857Y-92083628D01*
X72292857Y-92083628D02*
X71911905Y-92083628D01*
X73340476Y-92512200D02*
X73245238Y-92559819D01*
X73245238Y-92559819D02*
X73054762Y-92559819D01*
X73054762Y-92559819D02*
X72959524Y-92512200D01*
X72959524Y-92512200D02*
X72911905Y-92464580D01*
X72911905Y-92464580D02*
X72864286Y-92369342D01*
X72864286Y-92369342D02*
X72864286Y-92083628D01*
X72864286Y-92083628D02*
X72911905Y-91988390D01*
X72911905Y-91988390D02*
X72959524Y-91940771D01*
X72959524Y-91940771D02*
X73054762Y-91893152D01*
X73054762Y-91893152D02*
X73245238Y-91893152D01*
X73245238Y-91893152D02*
X73340476Y-91940771D01*
X73911905Y-92559819D02*
X73816667Y-92512200D01*
X73816667Y-92512200D02*
X73769048Y-92464580D01*
X73769048Y-92464580D02*
X73721429Y-92369342D01*
X73721429Y-92369342D02*
X73721429Y-92083628D01*
X73721429Y-92083628D02*
X73769048Y-91988390D01*
X73769048Y-91988390D02*
X73816667Y-91940771D01*
X73816667Y-91940771D02*
X73911905Y-91893152D01*
X73911905Y-91893152D02*
X74054762Y-91893152D01*
X74054762Y-91893152D02*
X74150000Y-91940771D01*
X74150000Y-91940771D02*
X74197619Y-91988390D01*
X74197619Y-91988390D02*
X74245238Y-92083628D01*
X74245238Y-92083628D02*
X74245238Y-92369342D01*
X74245238Y-92369342D02*
X74197619Y-92464580D01*
X74197619Y-92464580D02*
X74150000Y-92512200D01*
X74150000Y-92512200D02*
X74054762Y-92559819D01*
X74054762Y-92559819D02*
X73911905Y-92559819D01*
X74673810Y-92559819D02*
X74673810Y-91893152D01*
X74673810Y-91988390D02*
X74721429Y-91940771D01*
X74721429Y-91940771D02*
X74816667Y-91893152D01*
X74816667Y-91893152D02*
X74959524Y-91893152D01*
X74959524Y-91893152D02*
X75054762Y-91940771D01*
X75054762Y-91940771D02*
X75102381Y-92036009D01*
X75102381Y-92036009D02*
X75102381Y-92559819D01*
X75102381Y-92036009D02*
X75150000Y-91940771D01*
X75150000Y-91940771D02*
X75245238Y-91893152D01*
X75245238Y-91893152D02*
X75388095Y-91893152D01*
X75388095Y-91893152D02*
X75483334Y-91940771D01*
X75483334Y-91940771D02*
X75530953Y-92036009D01*
X75530953Y-92036009D02*
X75530953Y-92559819D01*
X76007143Y-91893152D02*
X76007143Y-92893152D01*
X76007143Y-91940771D02*
X76102381Y-91893152D01*
X76102381Y-91893152D02*
X76292857Y-91893152D01*
X76292857Y-91893152D02*
X76388095Y-91940771D01*
X76388095Y-91940771D02*
X76435714Y-91988390D01*
X76435714Y-91988390D02*
X76483333Y-92083628D01*
X76483333Y-92083628D02*
X76483333Y-92369342D01*
X76483333Y-92369342D02*
X76435714Y-92464580D01*
X76435714Y-92464580D02*
X76388095Y-92512200D01*
X76388095Y-92512200D02*
X76292857Y-92559819D01*
X76292857Y-92559819D02*
X76102381Y-92559819D01*
X76102381Y-92559819D02*
X76007143Y-92512200D01*
X77435714Y-92559819D02*
X76864286Y-92559819D01*
X77150000Y-92559819D02*
X77150000Y-91559819D01*
X77150000Y-91559819D02*
X77054762Y-91702676D01*
X77054762Y-91702676D02*
X76959524Y-91797914D01*
X76959524Y-91797914D02*
X76864286Y-91845533D01*
X82344761Y-92405057D02*
X82249523Y-92357438D01*
X82249523Y-92357438D02*
X82154285Y-92262200D01*
X82154285Y-92262200D02*
X82011428Y-92119342D01*
X82011428Y-92119342D02*
X81916190Y-92071723D01*
X81916190Y-92071723D02*
X81820952Y-92071723D01*
X81868571Y-92309819D02*
X81773333Y-92262200D01*
X81773333Y-92262200D02*
X81678095Y-92166961D01*
X81678095Y-92166961D02*
X81630476Y-91976485D01*
X81630476Y-91976485D02*
X81630476Y-91643152D01*
X81630476Y-91643152D02*
X81678095Y-91452676D01*
X81678095Y-91452676D02*
X81773333Y-91357438D01*
X81773333Y-91357438D02*
X81868571Y-91309819D01*
X81868571Y-91309819D02*
X82059047Y-91309819D01*
X82059047Y-91309819D02*
X82154285Y-91357438D01*
X82154285Y-91357438D02*
X82249523Y-91452676D01*
X82249523Y-91452676D02*
X82297142Y-91643152D01*
X82297142Y-91643152D02*
X82297142Y-91976485D01*
X82297142Y-91976485D02*
X82249523Y-92166961D01*
X82249523Y-92166961D02*
X82154285Y-92262200D01*
X82154285Y-92262200D02*
X82059047Y-92309819D01*
X82059047Y-92309819D02*
X81868571Y-92309819D01*
X82678095Y-91405057D02*
X82725714Y-91357438D01*
X82725714Y-91357438D02*
X82820952Y-91309819D01*
X82820952Y-91309819D02*
X83059047Y-91309819D01*
X83059047Y-91309819D02*
X83154285Y-91357438D01*
X83154285Y-91357438D02*
X83201904Y-91405057D01*
X83201904Y-91405057D02*
X83249523Y-91500295D01*
X83249523Y-91500295D02*
X83249523Y-91595533D01*
X83249523Y-91595533D02*
X83201904Y-91738390D01*
X83201904Y-91738390D02*
X82630476Y-92309819D01*
X82630476Y-92309819D02*
X83249523Y-92309819D01*
X78144761Y-92405057D02*
X78049523Y-92357438D01*
X78049523Y-92357438D02*
X77954285Y-92262200D01*
X77954285Y-92262200D02*
X77811428Y-92119342D01*
X77811428Y-92119342D02*
X77716190Y-92071723D01*
X77716190Y-92071723D02*
X77620952Y-92071723D01*
X77668571Y-92309819D02*
X77573333Y-92262200D01*
X77573333Y-92262200D02*
X77478095Y-92166961D01*
X77478095Y-92166961D02*
X77430476Y-91976485D01*
X77430476Y-91976485D02*
X77430476Y-91643152D01*
X77430476Y-91643152D02*
X77478095Y-91452676D01*
X77478095Y-91452676D02*
X77573333Y-91357438D01*
X77573333Y-91357438D02*
X77668571Y-91309819D01*
X77668571Y-91309819D02*
X77859047Y-91309819D01*
X77859047Y-91309819D02*
X77954285Y-91357438D01*
X77954285Y-91357438D02*
X78049523Y-91452676D01*
X78049523Y-91452676D02*
X78097142Y-91643152D01*
X78097142Y-91643152D02*
X78097142Y-91976485D01*
X78097142Y-91976485D02*
X78049523Y-92166961D01*
X78049523Y-92166961D02*
X77954285Y-92262200D01*
X77954285Y-92262200D02*
X77859047Y-92309819D01*
X77859047Y-92309819D02*
X77668571Y-92309819D01*
X79049523Y-92309819D02*
X78478095Y-92309819D01*
X78763809Y-92309819D02*
X78763809Y-91309819D01*
X78763809Y-91309819D02*
X78668571Y-91452676D01*
X78668571Y-91452676D02*
X78573333Y-91547914D01*
X78573333Y-91547914D02*
X78478095Y-91595533D01*
X96709761Y-75999819D02*
X96233571Y-75999819D01*
X96233571Y-75999819D02*
X96233571Y-74999819D01*
X97376428Y-75476009D02*
X97043095Y-75476009D01*
X97043095Y-75999819D02*
X97043095Y-74999819D01*
X97043095Y-74999819D02*
X97519285Y-74999819D01*
X98424047Y-75999819D02*
X97852619Y-75999819D01*
X98138333Y-75999819D02*
X98138333Y-74999819D01*
X98138333Y-74999819D02*
X98043095Y-75142676D01*
X98043095Y-75142676D02*
X97947857Y-75237914D01*
X97947857Y-75237914D02*
X97852619Y-75285533D01*
X95471904Y-97034580D02*
X95424285Y-97082200D01*
X95424285Y-97082200D02*
X95281428Y-97129819D01*
X95281428Y-97129819D02*
X95186190Y-97129819D01*
X95186190Y-97129819D02*
X95043333Y-97082200D01*
X95043333Y-97082200D02*
X94948095Y-96986961D01*
X94948095Y-96986961D02*
X94900476Y-96891723D01*
X94900476Y-96891723D02*
X94852857Y-96701247D01*
X94852857Y-96701247D02*
X94852857Y-96558390D01*
X94852857Y-96558390D02*
X94900476Y-96367914D01*
X94900476Y-96367914D02*
X94948095Y-96272676D01*
X94948095Y-96272676D02*
X95043333Y-96177438D01*
X95043333Y-96177438D02*
X95186190Y-96129819D01*
X95186190Y-96129819D02*
X95281428Y-96129819D01*
X95281428Y-96129819D02*
X95424285Y-96177438D01*
X95424285Y-96177438D02*
X95471904Y-96225057D01*
X95805238Y-96463152D02*
X96043333Y-97129819D01*
X96043333Y-97129819D02*
X96281428Y-96463152D01*
X96662381Y-97129819D02*
X96662381Y-96463152D01*
X96662381Y-96129819D02*
X96614762Y-96177438D01*
X96614762Y-96177438D02*
X96662381Y-96225057D01*
X96662381Y-96225057D02*
X96710000Y-96177438D01*
X96710000Y-96177438D02*
X96662381Y-96129819D01*
X96662381Y-96129819D02*
X96662381Y-96225057D01*
X97138571Y-96463152D02*
X97138571Y-97129819D01*
X97138571Y-96558390D02*
X97186190Y-96510771D01*
X97186190Y-96510771D02*
X97281428Y-96463152D01*
X97281428Y-96463152D02*
X97424285Y-96463152D01*
X97424285Y-96463152D02*
X97519523Y-96510771D01*
X97519523Y-96510771D02*
X97567142Y-96606009D01*
X97567142Y-96606009D02*
X97567142Y-97129819D01*
X98567142Y-97129819D02*
X97995714Y-97129819D01*
X98281428Y-97129819D02*
X98281428Y-96129819D01*
X98281428Y-96129819D02*
X98186190Y-96272676D01*
X98186190Y-96272676D02*
X98090952Y-96367914D01*
X98090952Y-96367914D02*
X97995714Y-96415533D01*
X100355237Y-93894580D02*
X100307618Y-93942200D01*
X100307618Y-93942200D02*
X100164761Y-93989819D01*
X100164761Y-93989819D02*
X100069523Y-93989819D01*
X100069523Y-93989819D02*
X99926666Y-93942200D01*
X99926666Y-93942200D02*
X99831428Y-93846961D01*
X99831428Y-93846961D02*
X99783809Y-93751723D01*
X99783809Y-93751723D02*
X99736190Y-93561247D01*
X99736190Y-93561247D02*
X99736190Y-93418390D01*
X99736190Y-93418390D02*
X99783809Y-93227914D01*
X99783809Y-93227914D02*
X99831428Y-93132676D01*
X99831428Y-93132676D02*
X99926666Y-93037438D01*
X99926666Y-93037438D02*
X100069523Y-92989819D01*
X100069523Y-92989819D02*
X100164761Y-92989819D01*
X100164761Y-92989819D02*
X100307618Y-93037438D01*
X100307618Y-93037438D02*
X100355237Y-93085057D01*
X100688571Y-93323152D02*
X100926666Y-93989819D01*
X100926666Y-93989819D02*
X101164761Y-93323152D01*
X101974285Y-93942200D02*
X101879047Y-93989819D01*
X101879047Y-93989819D02*
X101688571Y-93989819D01*
X101688571Y-93989819D02*
X101593333Y-93942200D01*
X101593333Y-93942200D02*
X101545714Y-93894580D01*
X101545714Y-93894580D02*
X101498095Y-93799342D01*
X101498095Y-93799342D02*
X101498095Y-93513628D01*
X101498095Y-93513628D02*
X101545714Y-93418390D01*
X101545714Y-93418390D02*
X101593333Y-93370771D01*
X101593333Y-93370771D02*
X101688571Y-93323152D01*
X101688571Y-93323152D02*
X101879047Y-93323152D01*
X101879047Y-93323152D02*
X101974285Y-93370771D01*
X102831428Y-93942200D02*
X102736190Y-93989819D01*
X102736190Y-93989819D02*
X102545714Y-93989819D01*
X102545714Y-93989819D02*
X102450476Y-93942200D01*
X102450476Y-93942200D02*
X102402857Y-93894580D01*
X102402857Y-93894580D02*
X102355238Y-93799342D01*
X102355238Y-93799342D02*
X102355238Y-93513628D01*
X102355238Y-93513628D02*
X102402857Y-93418390D01*
X102402857Y-93418390D02*
X102450476Y-93370771D01*
X102450476Y-93370771D02*
X102545714Y-93323152D01*
X102545714Y-93323152D02*
X102736190Y-93323152D01*
X102736190Y-93323152D02*
X102831428Y-93370771D01*
X103783809Y-93989819D02*
X103212381Y-93989819D01*
X103498095Y-93989819D02*
X103498095Y-92989819D01*
X103498095Y-92989819D02*
X103402857Y-93132676D01*
X103402857Y-93132676D02*
X103307619Y-93227914D01*
X103307619Y-93227914D02*
X103212381Y-93275533D01*
X95733809Y-94514580D02*
X95686190Y-94562200D01*
X95686190Y-94562200D02*
X95543333Y-94609819D01*
X95543333Y-94609819D02*
X95448095Y-94609819D01*
X95448095Y-94609819D02*
X95305238Y-94562200D01*
X95305238Y-94562200D02*
X95210000Y-94466961D01*
X95210000Y-94466961D02*
X95162381Y-94371723D01*
X95162381Y-94371723D02*
X95114762Y-94181247D01*
X95114762Y-94181247D02*
X95114762Y-94038390D01*
X95114762Y-94038390D02*
X95162381Y-93847914D01*
X95162381Y-93847914D02*
X95210000Y-93752676D01*
X95210000Y-93752676D02*
X95305238Y-93657438D01*
X95305238Y-93657438D02*
X95448095Y-93609819D01*
X95448095Y-93609819D02*
X95543333Y-93609819D01*
X95543333Y-93609819D02*
X95686190Y-93657438D01*
X95686190Y-93657438D02*
X95733809Y-93705057D01*
X96114762Y-94562200D02*
X96210000Y-94609819D01*
X96210000Y-94609819D02*
X96400476Y-94609819D01*
X96400476Y-94609819D02*
X96495714Y-94562200D01*
X96495714Y-94562200D02*
X96543333Y-94466961D01*
X96543333Y-94466961D02*
X96543333Y-94419342D01*
X96543333Y-94419342D02*
X96495714Y-94324104D01*
X96495714Y-94324104D02*
X96400476Y-94276485D01*
X96400476Y-94276485D02*
X96257619Y-94276485D01*
X96257619Y-94276485D02*
X96162381Y-94228866D01*
X96162381Y-94228866D02*
X96114762Y-94133628D01*
X96114762Y-94133628D02*
X96114762Y-94086009D01*
X96114762Y-94086009D02*
X96162381Y-93990771D01*
X96162381Y-93990771D02*
X96257619Y-93943152D01*
X96257619Y-93943152D02*
X96400476Y-93943152D01*
X96400476Y-93943152D02*
X96495714Y-93990771D01*
X96924286Y-94562200D02*
X97019524Y-94609819D01*
X97019524Y-94609819D02*
X97210000Y-94609819D01*
X97210000Y-94609819D02*
X97305238Y-94562200D01*
X97305238Y-94562200D02*
X97352857Y-94466961D01*
X97352857Y-94466961D02*
X97352857Y-94419342D01*
X97352857Y-94419342D02*
X97305238Y-94324104D01*
X97305238Y-94324104D02*
X97210000Y-94276485D01*
X97210000Y-94276485D02*
X97067143Y-94276485D01*
X97067143Y-94276485D02*
X96971905Y-94228866D01*
X96971905Y-94228866D02*
X96924286Y-94133628D01*
X96924286Y-94133628D02*
X96924286Y-94086009D01*
X96924286Y-94086009D02*
X96971905Y-93990771D01*
X96971905Y-93990771D02*
X97067143Y-93943152D01*
X97067143Y-93943152D02*
X97210000Y-93943152D01*
X97210000Y-93943152D02*
X97305238Y-93990771D01*
X98305238Y-94609819D02*
X97733810Y-94609819D01*
X98019524Y-94609819D02*
X98019524Y-93609819D01*
X98019524Y-93609819D02*
X97924286Y-93752676D01*
X97924286Y-93752676D02*
X97829048Y-93847914D01*
X97829048Y-93847914D02*
X97733810Y-93895533D01*
X86442856Y-98744580D02*
X86395237Y-98792200D01*
X86395237Y-98792200D02*
X86252380Y-98839819D01*
X86252380Y-98839819D02*
X86157142Y-98839819D01*
X86157142Y-98839819D02*
X86014285Y-98792200D01*
X86014285Y-98792200D02*
X85919047Y-98696961D01*
X85919047Y-98696961D02*
X85871428Y-98601723D01*
X85871428Y-98601723D02*
X85823809Y-98411247D01*
X85823809Y-98411247D02*
X85823809Y-98268390D01*
X85823809Y-98268390D02*
X85871428Y-98077914D01*
X85871428Y-98077914D02*
X85919047Y-97982676D01*
X85919047Y-97982676D02*
X86014285Y-97887438D01*
X86014285Y-97887438D02*
X86157142Y-97839819D01*
X86157142Y-97839819D02*
X86252380Y-97839819D01*
X86252380Y-97839819D02*
X86395237Y-97887438D01*
X86395237Y-97887438D02*
X86442856Y-97935057D01*
X87014285Y-98839819D02*
X86919047Y-98792200D01*
X86919047Y-98792200D02*
X86871428Y-98744580D01*
X86871428Y-98744580D02*
X86823809Y-98649342D01*
X86823809Y-98649342D02*
X86823809Y-98363628D01*
X86823809Y-98363628D02*
X86871428Y-98268390D01*
X86871428Y-98268390D02*
X86919047Y-98220771D01*
X86919047Y-98220771D02*
X87014285Y-98173152D01*
X87014285Y-98173152D02*
X87157142Y-98173152D01*
X87157142Y-98173152D02*
X87252380Y-98220771D01*
X87252380Y-98220771D02*
X87299999Y-98268390D01*
X87299999Y-98268390D02*
X87347618Y-98363628D01*
X87347618Y-98363628D02*
X87347618Y-98649342D01*
X87347618Y-98649342D02*
X87299999Y-98744580D01*
X87299999Y-98744580D02*
X87252380Y-98792200D01*
X87252380Y-98792200D02*
X87157142Y-98839819D01*
X87157142Y-98839819D02*
X87014285Y-98839819D01*
X88204761Y-98173152D02*
X88204761Y-98839819D01*
X87776190Y-98173152D02*
X87776190Y-98696961D01*
X87776190Y-98696961D02*
X87823809Y-98792200D01*
X87823809Y-98792200D02*
X87919047Y-98839819D01*
X87919047Y-98839819D02*
X88061904Y-98839819D01*
X88061904Y-98839819D02*
X88157142Y-98792200D01*
X88157142Y-98792200D02*
X88204761Y-98744580D01*
X88538095Y-98173152D02*
X88919047Y-98173152D01*
X88680952Y-97839819D02*
X88680952Y-98696961D01*
X88680952Y-98696961D02*
X88728571Y-98792200D01*
X88728571Y-98792200D02*
X88823809Y-98839819D01*
X88823809Y-98839819D02*
X88919047Y-98839819D01*
X89680952Y-98173152D02*
X89680952Y-98839819D01*
X89442857Y-97792200D02*
X89204762Y-98506485D01*
X89204762Y-98506485D02*
X89823809Y-98506485D01*
X86442856Y-95844580D02*
X86395237Y-95892200D01*
X86395237Y-95892200D02*
X86252380Y-95939819D01*
X86252380Y-95939819D02*
X86157142Y-95939819D01*
X86157142Y-95939819D02*
X86014285Y-95892200D01*
X86014285Y-95892200D02*
X85919047Y-95796961D01*
X85919047Y-95796961D02*
X85871428Y-95701723D01*
X85871428Y-95701723D02*
X85823809Y-95511247D01*
X85823809Y-95511247D02*
X85823809Y-95368390D01*
X85823809Y-95368390D02*
X85871428Y-95177914D01*
X85871428Y-95177914D02*
X85919047Y-95082676D01*
X85919047Y-95082676D02*
X86014285Y-94987438D01*
X86014285Y-94987438D02*
X86157142Y-94939819D01*
X86157142Y-94939819D02*
X86252380Y-94939819D01*
X86252380Y-94939819D02*
X86395237Y-94987438D01*
X86395237Y-94987438D02*
X86442856Y-95035057D01*
X87014285Y-95939819D02*
X86919047Y-95892200D01*
X86919047Y-95892200D02*
X86871428Y-95844580D01*
X86871428Y-95844580D02*
X86823809Y-95749342D01*
X86823809Y-95749342D02*
X86823809Y-95463628D01*
X86823809Y-95463628D02*
X86871428Y-95368390D01*
X86871428Y-95368390D02*
X86919047Y-95320771D01*
X86919047Y-95320771D02*
X87014285Y-95273152D01*
X87014285Y-95273152D02*
X87157142Y-95273152D01*
X87157142Y-95273152D02*
X87252380Y-95320771D01*
X87252380Y-95320771D02*
X87299999Y-95368390D01*
X87299999Y-95368390D02*
X87347618Y-95463628D01*
X87347618Y-95463628D02*
X87347618Y-95749342D01*
X87347618Y-95749342D02*
X87299999Y-95844580D01*
X87299999Y-95844580D02*
X87252380Y-95892200D01*
X87252380Y-95892200D02*
X87157142Y-95939819D01*
X87157142Y-95939819D02*
X87014285Y-95939819D01*
X88204761Y-95273152D02*
X88204761Y-95939819D01*
X87776190Y-95273152D02*
X87776190Y-95796961D01*
X87776190Y-95796961D02*
X87823809Y-95892200D01*
X87823809Y-95892200D02*
X87919047Y-95939819D01*
X87919047Y-95939819D02*
X88061904Y-95939819D01*
X88061904Y-95939819D02*
X88157142Y-95892200D01*
X88157142Y-95892200D02*
X88204761Y-95844580D01*
X88538095Y-95273152D02*
X88919047Y-95273152D01*
X88680952Y-94939819D02*
X88680952Y-95796961D01*
X88680952Y-95796961D02*
X88728571Y-95892200D01*
X88728571Y-95892200D02*
X88823809Y-95939819D01*
X88823809Y-95939819D02*
X88919047Y-95939819D01*
X89157143Y-94939819D02*
X89776190Y-94939819D01*
X89776190Y-94939819D02*
X89442857Y-95320771D01*
X89442857Y-95320771D02*
X89585714Y-95320771D01*
X89585714Y-95320771D02*
X89680952Y-95368390D01*
X89680952Y-95368390D02*
X89728571Y-95416009D01*
X89728571Y-95416009D02*
X89776190Y-95511247D01*
X89776190Y-95511247D02*
X89776190Y-95749342D01*
X89776190Y-95749342D02*
X89728571Y-95844580D01*
X89728571Y-95844580D02*
X89680952Y-95892200D01*
X89680952Y-95892200D02*
X89585714Y-95939819D01*
X89585714Y-95939819D02*
X89300000Y-95939819D01*
X89300000Y-95939819D02*
X89204762Y-95892200D01*
X89204762Y-95892200D02*
X89157143Y-95844580D01*
X86442856Y-92944580D02*
X86395237Y-92992200D01*
X86395237Y-92992200D02*
X86252380Y-93039819D01*
X86252380Y-93039819D02*
X86157142Y-93039819D01*
X86157142Y-93039819D02*
X86014285Y-92992200D01*
X86014285Y-92992200D02*
X85919047Y-92896961D01*
X85919047Y-92896961D02*
X85871428Y-92801723D01*
X85871428Y-92801723D02*
X85823809Y-92611247D01*
X85823809Y-92611247D02*
X85823809Y-92468390D01*
X85823809Y-92468390D02*
X85871428Y-92277914D01*
X85871428Y-92277914D02*
X85919047Y-92182676D01*
X85919047Y-92182676D02*
X86014285Y-92087438D01*
X86014285Y-92087438D02*
X86157142Y-92039819D01*
X86157142Y-92039819D02*
X86252380Y-92039819D01*
X86252380Y-92039819D02*
X86395237Y-92087438D01*
X86395237Y-92087438D02*
X86442856Y-92135057D01*
X87014285Y-93039819D02*
X86919047Y-92992200D01*
X86919047Y-92992200D02*
X86871428Y-92944580D01*
X86871428Y-92944580D02*
X86823809Y-92849342D01*
X86823809Y-92849342D02*
X86823809Y-92563628D01*
X86823809Y-92563628D02*
X86871428Y-92468390D01*
X86871428Y-92468390D02*
X86919047Y-92420771D01*
X86919047Y-92420771D02*
X87014285Y-92373152D01*
X87014285Y-92373152D02*
X87157142Y-92373152D01*
X87157142Y-92373152D02*
X87252380Y-92420771D01*
X87252380Y-92420771D02*
X87299999Y-92468390D01*
X87299999Y-92468390D02*
X87347618Y-92563628D01*
X87347618Y-92563628D02*
X87347618Y-92849342D01*
X87347618Y-92849342D02*
X87299999Y-92944580D01*
X87299999Y-92944580D02*
X87252380Y-92992200D01*
X87252380Y-92992200D02*
X87157142Y-93039819D01*
X87157142Y-93039819D02*
X87014285Y-93039819D01*
X88204761Y-92373152D02*
X88204761Y-93039819D01*
X87776190Y-92373152D02*
X87776190Y-92896961D01*
X87776190Y-92896961D02*
X87823809Y-92992200D01*
X87823809Y-92992200D02*
X87919047Y-93039819D01*
X87919047Y-93039819D02*
X88061904Y-93039819D01*
X88061904Y-93039819D02*
X88157142Y-92992200D01*
X88157142Y-92992200D02*
X88204761Y-92944580D01*
X88538095Y-92373152D02*
X88919047Y-92373152D01*
X88680952Y-92039819D02*
X88680952Y-92896961D01*
X88680952Y-92896961D02*
X88728571Y-92992200D01*
X88728571Y-92992200D02*
X88823809Y-93039819D01*
X88823809Y-93039819D02*
X88919047Y-93039819D01*
X89204762Y-92135057D02*
X89252381Y-92087438D01*
X89252381Y-92087438D02*
X89347619Y-92039819D01*
X89347619Y-92039819D02*
X89585714Y-92039819D01*
X89585714Y-92039819D02*
X89680952Y-92087438D01*
X89680952Y-92087438D02*
X89728571Y-92135057D01*
X89728571Y-92135057D02*
X89776190Y-92230295D01*
X89776190Y-92230295D02*
X89776190Y-92325533D01*
X89776190Y-92325533D02*
X89728571Y-92468390D01*
X89728571Y-92468390D02*
X89157143Y-93039819D01*
X89157143Y-93039819D02*
X89776190Y-93039819D01*
X86442856Y-90044580D02*
X86395237Y-90092200D01*
X86395237Y-90092200D02*
X86252380Y-90139819D01*
X86252380Y-90139819D02*
X86157142Y-90139819D01*
X86157142Y-90139819D02*
X86014285Y-90092200D01*
X86014285Y-90092200D02*
X85919047Y-89996961D01*
X85919047Y-89996961D02*
X85871428Y-89901723D01*
X85871428Y-89901723D02*
X85823809Y-89711247D01*
X85823809Y-89711247D02*
X85823809Y-89568390D01*
X85823809Y-89568390D02*
X85871428Y-89377914D01*
X85871428Y-89377914D02*
X85919047Y-89282676D01*
X85919047Y-89282676D02*
X86014285Y-89187438D01*
X86014285Y-89187438D02*
X86157142Y-89139819D01*
X86157142Y-89139819D02*
X86252380Y-89139819D01*
X86252380Y-89139819D02*
X86395237Y-89187438D01*
X86395237Y-89187438D02*
X86442856Y-89235057D01*
X87014285Y-90139819D02*
X86919047Y-90092200D01*
X86919047Y-90092200D02*
X86871428Y-90044580D01*
X86871428Y-90044580D02*
X86823809Y-89949342D01*
X86823809Y-89949342D02*
X86823809Y-89663628D01*
X86823809Y-89663628D02*
X86871428Y-89568390D01*
X86871428Y-89568390D02*
X86919047Y-89520771D01*
X86919047Y-89520771D02*
X87014285Y-89473152D01*
X87014285Y-89473152D02*
X87157142Y-89473152D01*
X87157142Y-89473152D02*
X87252380Y-89520771D01*
X87252380Y-89520771D02*
X87299999Y-89568390D01*
X87299999Y-89568390D02*
X87347618Y-89663628D01*
X87347618Y-89663628D02*
X87347618Y-89949342D01*
X87347618Y-89949342D02*
X87299999Y-90044580D01*
X87299999Y-90044580D02*
X87252380Y-90092200D01*
X87252380Y-90092200D02*
X87157142Y-90139819D01*
X87157142Y-90139819D02*
X87014285Y-90139819D01*
X88204761Y-89473152D02*
X88204761Y-90139819D01*
X87776190Y-89473152D02*
X87776190Y-89996961D01*
X87776190Y-89996961D02*
X87823809Y-90092200D01*
X87823809Y-90092200D02*
X87919047Y-90139819D01*
X87919047Y-90139819D02*
X88061904Y-90139819D01*
X88061904Y-90139819D02*
X88157142Y-90092200D01*
X88157142Y-90092200D02*
X88204761Y-90044580D01*
X88538095Y-89473152D02*
X88919047Y-89473152D01*
X88680952Y-89139819D02*
X88680952Y-89996961D01*
X88680952Y-89996961D02*
X88728571Y-90092200D01*
X88728571Y-90092200D02*
X88823809Y-90139819D01*
X88823809Y-90139819D02*
X88919047Y-90139819D01*
X89776190Y-90139819D02*
X89204762Y-90139819D01*
X89490476Y-90139819D02*
X89490476Y-89139819D01*
X89490476Y-89139819D02*
X89395238Y-89282676D01*
X89395238Y-89282676D02*
X89300000Y-89377914D01*
X89300000Y-89377914D02*
X89204762Y-89425533D01*
X78969523Y-85634580D02*
X78921904Y-85682200D01*
X78921904Y-85682200D02*
X78779047Y-85729819D01*
X78779047Y-85729819D02*
X78683809Y-85729819D01*
X78683809Y-85729819D02*
X78540952Y-85682200D01*
X78540952Y-85682200D02*
X78445714Y-85586961D01*
X78445714Y-85586961D02*
X78398095Y-85491723D01*
X78398095Y-85491723D02*
X78350476Y-85301247D01*
X78350476Y-85301247D02*
X78350476Y-85158390D01*
X78350476Y-85158390D02*
X78398095Y-84967914D01*
X78398095Y-84967914D02*
X78445714Y-84872676D01*
X78445714Y-84872676D02*
X78540952Y-84777438D01*
X78540952Y-84777438D02*
X78683809Y-84729819D01*
X78683809Y-84729819D02*
X78779047Y-84729819D01*
X78779047Y-84729819D02*
X78921904Y-84777438D01*
X78921904Y-84777438D02*
X78969523Y-84825057D01*
X79398095Y-85729819D02*
X79398095Y-84729819D01*
X79398095Y-84729819D02*
X79969523Y-85729819D01*
X79969523Y-85729819D02*
X79969523Y-84729819D01*
X80398095Y-84825057D02*
X80445714Y-84777438D01*
X80445714Y-84777438D02*
X80540952Y-84729819D01*
X80540952Y-84729819D02*
X80779047Y-84729819D01*
X80779047Y-84729819D02*
X80874285Y-84777438D01*
X80874285Y-84777438D02*
X80921904Y-84825057D01*
X80921904Y-84825057D02*
X80969523Y-84920295D01*
X80969523Y-84920295D02*
X80969523Y-85015533D01*
X80969523Y-85015533D02*
X80921904Y-85158390D01*
X80921904Y-85158390D02*
X80350476Y-85729819D01*
X80350476Y-85729819D02*
X80969523Y-85729819D01*
X78969523Y-74304580D02*
X78921904Y-74352200D01*
X78921904Y-74352200D02*
X78779047Y-74399819D01*
X78779047Y-74399819D02*
X78683809Y-74399819D01*
X78683809Y-74399819D02*
X78540952Y-74352200D01*
X78540952Y-74352200D02*
X78445714Y-74256961D01*
X78445714Y-74256961D02*
X78398095Y-74161723D01*
X78398095Y-74161723D02*
X78350476Y-73971247D01*
X78350476Y-73971247D02*
X78350476Y-73828390D01*
X78350476Y-73828390D02*
X78398095Y-73637914D01*
X78398095Y-73637914D02*
X78445714Y-73542676D01*
X78445714Y-73542676D02*
X78540952Y-73447438D01*
X78540952Y-73447438D02*
X78683809Y-73399819D01*
X78683809Y-73399819D02*
X78779047Y-73399819D01*
X78779047Y-73399819D02*
X78921904Y-73447438D01*
X78921904Y-73447438D02*
X78969523Y-73495057D01*
X79398095Y-74399819D02*
X79398095Y-73399819D01*
X79398095Y-73399819D02*
X79969523Y-74399819D01*
X79969523Y-74399819D02*
X79969523Y-73399819D01*
X80969523Y-74399819D02*
X80398095Y-74399819D01*
X80683809Y-74399819D02*
X80683809Y-73399819D01*
X80683809Y-73399819D02*
X80588571Y-73542676D01*
X80588571Y-73542676D02*
X80493333Y-73637914D01*
X80493333Y-73637914D02*
X80398095Y-73685533D01*
X86942857Y-87144580D02*
X86895238Y-87192200D01*
X86895238Y-87192200D02*
X86752381Y-87239819D01*
X86752381Y-87239819D02*
X86657143Y-87239819D01*
X86657143Y-87239819D02*
X86514286Y-87192200D01*
X86514286Y-87192200D02*
X86419048Y-87096961D01*
X86419048Y-87096961D02*
X86371429Y-87001723D01*
X86371429Y-87001723D02*
X86323810Y-86811247D01*
X86323810Y-86811247D02*
X86323810Y-86668390D01*
X86323810Y-86668390D02*
X86371429Y-86477914D01*
X86371429Y-86477914D02*
X86419048Y-86382676D01*
X86419048Y-86382676D02*
X86514286Y-86287438D01*
X86514286Y-86287438D02*
X86657143Y-86239819D01*
X86657143Y-86239819D02*
X86752381Y-86239819D01*
X86752381Y-86239819D02*
X86895238Y-86287438D01*
X86895238Y-86287438D02*
X86942857Y-86335057D01*
X87371429Y-87239819D02*
X87371429Y-86573152D01*
X87371429Y-86239819D02*
X87323810Y-86287438D01*
X87323810Y-86287438D02*
X87371429Y-86335057D01*
X87371429Y-86335057D02*
X87419048Y-86287438D01*
X87419048Y-86287438D02*
X87371429Y-86239819D01*
X87371429Y-86239819D02*
X87371429Y-86335057D01*
X87847619Y-86573152D02*
X87847619Y-87239819D01*
X87847619Y-86668390D02*
X87895238Y-86620771D01*
X87895238Y-86620771D02*
X87990476Y-86573152D01*
X87990476Y-86573152D02*
X88133333Y-86573152D01*
X88133333Y-86573152D02*
X88228571Y-86620771D01*
X88228571Y-86620771D02*
X88276190Y-86716009D01*
X88276190Y-86716009D02*
X88276190Y-87239819D01*
X88657143Y-86239819D02*
X89276190Y-86239819D01*
X89276190Y-86239819D02*
X88942857Y-86620771D01*
X88942857Y-86620771D02*
X89085714Y-86620771D01*
X89085714Y-86620771D02*
X89180952Y-86668390D01*
X89180952Y-86668390D02*
X89228571Y-86716009D01*
X89228571Y-86716009D02*
X89276190Y-86811247D01*
X89276190Y-86811247D02*
X89276190Y-87049342D01*
X89276190Y-87049342D02*
X89228571Y-87144580D01*
X89228571Y-87144580D02*
X89180952Y-87192200D01*
X89180952Y-87192200D02*
X89085714Y-87239819D01*
X89085714Y-87239819D02*
X88800000Y-87239819D01*
X88800000Y-87239819D02*
X88704762Y-87192200D01*
X88704762Y-87192200D02*
X88657143Y-87144580D01*
X100902857Y-90614580D02*
X100855238Y-90662200D01*
X100855238Y-90662200D02*
X100712381Y-90709819D01*
X100712381Y-90709819D02*
X100617143Y-90709819D01*
X100617143Y-90709819D02*
X100474286Y-90662200D01*
X100474286Y-90662200D02*
X100379048Y-90566961D01*
X100379048Y-90566961D02*
X100331429Y-90471723D01*
X100331429Y-90471723D02*
X100283810Y-90281247D01*
X100283810Y-90281247D02*
X100283810Y-90138390D01*
X100283810Y-90138390D02*
X100331429Y-89947914D01*
X100331429Y-89947914D02*
X100379048Y-89852676D01*
X100379048Y-89852676D02*
X100474286Y-89757438D01*
X100474286Y-89757438D02*
X100617143Y-89709819D01*
X100617143Y-89709819D02*
X100712381Y-89709819D01*
X100712381Y-89709819D02*
X100855238Y-89757438D01*
X100855238Y-89757438D02*
X100902857Y-89805057D01*
X101331429Y-90709819D02*
X101331429Y-90043152D01*
X101331429Y-89709819D02*
X101283810Y-89757438D01*
X101283810Y-89757438D02*
X101331429Y-89805057D01*
X101331429Y-89805057D02*
X101379048Y-89757438D01*
X101379048Y-89757438D02*
X101331429Y-89709819D01*
X101331429Y-89709819D02*
X101331429Y-89805057D01*
X101807619Y-90043152D02*
X101807619Y-90709819D01*
X101807619Y-90138390D02*
X101855238Y-90090771D01*
X101855238Y-90090771D02*
X101950476Y-90043152D01*
X101950476Y-90043152D02*
X102093333Y-90043152D01*
X102093333Y-90043152D02*
X102188571Y-90090771D01*
X102188571Y-90090771D02*
X102236190Y-90186009D01*
X102236190Y-90186009D02*
X102236190Y-90709819D01*
X102664762Y-89805057D02*
X102712381Y-89757438D01*
X102712381Y-89757438D02*
X102807619Y-89709819D01*
X102807619Y-89709819D02*
X103045714Y-89709819D01*
X103045714Y-89709819D02*
X103140952Y-89757438D01*
X103140952Y-89757438D02*
X103188571Y-89805057D01*
X103188571Y-89805057D02*
X103236190Y-89900295D01*
X103236190Y-89900295D02*
X103236190Y-89995533D01*
X103236190Y-89995533D02*
X103188571Y-90138390D01*
X103188571Y-90138390D02*
X102617143Y-90709819D01*
X102617143Y-90709819D02*
X103236190Y-90709819D01*
X100902857Y-87334580D02*
X100855238Y-87382200D01*
X100855238Y-87382200D02*
X100712381Y-87429819D01*
X100712381Y-87429819D02*
X100617143Y-87429819D01*
X100617143Y-87429819D02*
X100474286Y-87382200D01*
X100474286Y-87382200D02*
X100379048Y-87286961D01*
X100379048Y-87286961D02*
X100331429Y-87191723D01*
X100331429Y-87191723D02*
X100283810Y-87001247D01*
X100283810Y-87001247D02*
X100283810Y-86858390D01*
X100283810Y-86858390D02*
X100331429Y-86667914D01*
X100331429Y-86667914D02*
X100379048Y-86572676D01*
X100379048Y-86572676D02*
X100474286Y-86477438D01*
X100474286Y-86477438D02*
X100617143Y-86429819D01*
X100617143Y-86429819D02*
X100712381Y-86429819D01*
X100712381Y-86429819D02*
X100855238Y-86477438D01*
X100855238Y-86477438D02*
X100902857Y-86525057D01*
X101331429Y-87429819D02*
X101331429Y-86763152D01*
X101331429Y-86429819D02*
X101283810Y-86477438D01*
X101283810Y-86477438D02*
X101331429Y-86525057D01*
X101331429Y-86525057D02*
X101379048Y-86477438D01*
X101379048Y-86477438D02*
X101331429Y-86429819D01*
X101331429Y-86429819D02*
X101331429Y-86525057D01*
X101807619Y-86763152D02*
X101807619Y-87429819D01*
X101807619Y-86858390D02*
X101855238Y-86810771D01*
X101855238Y-86810771D02*
X101950476Y-86763152D01*
X101950476Y-86763152D02*
X102093333Y-86763152D01*
X102093333Y-86763152D02*
X102188571Y-86810771D01*
X102188571Y-86810771D02*
X102236190Y-86906009D01*
X102236190Y-86906009D02*
X102236190Y-87429819D01*
X103236190Y-87429819D02*
X102664762Y-87429819D01*
X102950476Y-87429819D02*
X102950476Y-86429819D01*
X102950476Y-86429819D02*
X102855238Y-86572676D01*
X102855238Y-86572676D02*
X102760000Y-86667914D01*
X102760000Y-86667914D02*
X102664762Y-86715533D01*
X76288571Y-99834580D02*
X76240952Y-99882200D01*
X76240952Y-99882200D02*
X76098095Y-99929819D01*
X76098095Y-99929819D02*
X76002857Y-99929819D01*
X76002857Y-99929819D02*
X75860000Y-99882200D01*
X75860000Y-99882200D02*
X75764762Y-99786961D01*
X75764762Y-99786961D02*
X75717143Y-99691723D01*
X75717143Y-99691723D02*
X75669524Y-99501247D01*
X75669524Y-99501247D02*
X75669524Y-99358390D01*
X75669524Y-99358390D02*
X75717143Y-99167914D01*
X75717143Y-99167914D02*
X75764762Y-99072676D01*
X75764762Y-99072676D02*
X75860000Y-98977438D01*
X75860000Y-98977438D02*
X76002857Y-98929819D01*
X76002857Y-98929819D02*
X76098095Y-98929819D01*
X76098095Y-98929819D02*
X76240952Y-98977438D01*
X76240952Y-98977438D02*
X76288571Y-99025057D01*
X76717143Y-99929819D02*
X76717143Y-99263152D01*
X76717143Y-98929819D02*
X76669524Y-98977438D01*
X76669524Y-98977438D02*
X76717143Y-99025057D01*
X76717143Y-99025057D02*
X76764762Y-98977438D01*
X76764762Y-98977438D02*
X76717143Y-98929819D01*
X76717143Y-98929819D02*
X76717143Y-99025057D01*
X77336190Y-99929819D02*
X77240952Y-99882200D01*
X77240952Y-99882200D02*
X77193333Y-99786961D01*
X77193333Y-99786961D02*
X77193333Y-98929819D01*
X77717143Y-99929819D02*
X77717143Y-99263152D01*
X77717143Y-98929819D02*
X77669524Y-98977438D01*
X77669524Y-98977438D02*
X77717143Y-99025057D01*
X77717143Y-99025057D02*
X77764762Y-98977438D01*
X77764762Y-98977438D02*
X77717143Y-98929819D01*
X77717143Y-98929819D02*
X77717143Y-99025057D01*
X78193333Y-99929819D02*
X78193333Y-99263152D01*
X78193333Y-99358390D02*
X78240952Y-99310771D01*
X78240952Y-99310771D02*
X78336190Y-99263152D01*
X78336190Y-99263152D02*
X78479047Y-99263152D01*
X78479047Y-99263152D02*
X78574285Y-99310771D01*
X78574285Y-99310771D02*
X78621904Y-99406009D01*
X78621904Y-99406009D02*
X78621904Y-99929819D01*
X78621904Y-99406009D02*
X78669523Y-99310771D01*
X78669523Y-99310771D02*
X78764761Y-99263152D01*
X78764761Y-99263152D02*
X78907618Y-99263152D01*
X78907618Y-99263152D02*
X79002857Y-99310771D01*
X79002857Y-99310771D02*
X79050476Y-99406009D01*
X79050476Y-99406009D02*
X79050476Y-99929819D01*
X80050475Y-99929819D02*
X79479047Y-99929819D01*
X79764761Y-99929819D02*
X79764761Y-98929819D01*
X79764761Y-98929819D02*
X79669523Y-99072676D01*
X79669523Y-99072676D02*
X79574285Y-99167914D01*
X79574285Y-99167914D02*
X79479047Y-99215533D01*
X94543333Y-91994580D02*
X94495714Y-92042200D01*
X94495714Y-92042200D02*
X94352857Y-92089819D01*
X94352857Y-92089819D02*
X94257619Y-92089819D01*
X94257619Y-92089819D02*
X94114762Y-92042200D01*
X94114762Y-92042200D02*
X94019524Y-91946961D01*
X94019524Y-91946961D02*
X93971905Y-91851723D01*
X93971905Y-91851723D02*
X93924286Y-91661247D01*
X93924286Y-91661247D02*
X93924286Y-91518390D01*
X93924286Y-91518390D02*
X93971905Y-91327914D01*
X93971905Y-91327914D02*
X94019524Y-91232676D01*
X94019524Y-91232676D02*
X94114762Y-91137438D01*
X94114762Y-91137438D02*
X94257619Y-91089819D01*
X94257619Y-91089819D02*
X94352857Y-91089819D01*
X94352857Y-91089819D02*
X94495714Y-91137438D01*
X94495714Y-91137438D02*
X94543333Y-91185057D01*
X95400476Y-92042200D02*
X95305238Y-92089819D01*
X95305238Y-92089819D02*
X95114762Y-92089819D01*
X95114762Y-92089819D02*
X95019524Y-92042200D01*
X95019524Y-92042200D02*
X94971905Y-91994580D01*
X94971905Y-91994580D02*
X94924286Y-91899342D01*
X94924286Y-91899342D02*
X94924286Y-91613628D01*
X94924286Y-91613628D02*
X94971905Y-91518390D01*
X94971905Y-91518390D02*
X95019524Y-91470771D01*
X95019524Y-91470771D02*
X95114762Y-91423152D01*
X95114762Y-91423152D02*
X95305238Y-91423152D01*
X95305238Y-91423152D02*
X95400476Y-91470771D01*
X95971905Y-92089819D02*
X95876667Y-92042200D01*
X95876667Y-92042200D02*
X95829048Y-91994580D01*
X95829048Y-91994580D02*
X95781429Y-91899342D01*
X95781429Y-91899342D02*
X95781429Y-91613628D01*
X95781429Y-91613628D02*
X95829048Y-91518390D01*
X95829048Y-91518390D02*
X95876667Y-91470771D01*
X95876667Y-91470771D02*
X95971905Y-91423152D01*
X95971905Y-91423152D02*
X96114762Y-91423152D01*
X96114762Y-91423152D02*
X96210000Y-91470771D01*
X96210000Y-91470771D02*
X96257619Y-91518390D01*
X96257619Y-91518390D02*
X96305238Y-91613628D01*
X96305238Y-91613628D02*
X96305238Y-91899342D01*
X96305238Y-91899342D02*
X96257619Y-91994580D01*
X96257619Y-91994580D02*
X96210000Y-92042200D01*
X96210000Y-92042200D02*
X96114762Y-92089819D01*
X96114762Y-92089819D02*
X95971905Y-92089819D01*
X96733810Y-92089819D02*
X96733810Y-91423152D01*
X96733810Y-91518390D02*
X96781429Y-91470771D01*
X96781429Y-91470771D02*
X96876667Y-91423152D01*
X96876667Y-91423152D02*
X97019524Y-91423152D01*
X97019524Y-91423152D02*
X97114762Y-91470771D01*
X97114762Y-91470771D02*
X97162381Y-91566009D01*
X97162381Y-91566009D02*
X97162381Y-92089819D01*
X97162381Y-91566009D02*
X97210000Y-91470771D01*
X97210000Y-91470771D02*
X97305238Y-91423152D01*
X97305238Y-91423152D02*
X97448095Y-91423152D01*
X97448095Y-91423152D02*
X97543334Y-91470771D01*
X97543334Y-91470771D02*
X97590953Y-91566009D01*
X97590953Y-91566009D02*
X97590953Y-92089819D01*
X98067143Y-91423152D02*
X98067143Y-92423152D01*
X98067143Y-91470771D02*
X98162381Y-91423152D01*
X98162381Y-91423152D02*
X98352857Y-91423152D01*
X98352857Y-91423152D02*
X98448095Y-91470771D01*
X98448095Y-91470771D02*
X98495714Y-91518390D01*
X98495714Y-91518390D02*
X98543333Y-91613628D01*
X98543333Y-91613628D02*
X98543333Y-91899342D01*
X98543333Y-91899342D02*
X98495714Y-91994580D01*
X98495714Y-91994580D02*
X98448095Y-92042200D01*
X98448095Y-92042200D02*
X98352857Y-92089819D01*
X98352857Y-92089819D02*
X98162381Y-92089819D01*
X98162381Y-92089819D02*
X98067143Y-92042200D01*
X98876667Y-91089819D02*
X99495714Y-91089819D01*
X99495714Y-91089819D02*
X99162381Y-91470771D01*
X99162381Y-91470771D02*
X99305238Y-91470771D01*
X99305238Y-91470771D02*
X99400476Y-91518390D01*
X99400476Y-91518390D02*
X99448095Y-91566009D01*
X99448095Y-91566009D02*
X99495714Y-91661247D01*
X99495714Y-91661247D02*
X99495714Y-91899342D01*
X99495714Y-91899342D02*
X99448095Y-91994580D01*
X99448095Y-91994580D02*
X99400476Y-92042200D01*
X99400476Y-92042200D02*
X99305238Y-92089819D01*
X99305238Y-92089819D02*
X99019524Y-92089819D01*
X99019524Y-92089819D02*
X98924286Y-92042200D01*
X98924286Y-92042200D02*
X98876667Y-91994580D01*
X75693333Y-97734580D02*
X75645714Y-97782200D01*
X75645714Y-97782200D02*
X75502857Y-97829819D01*
X75502857Y-97829819D02*
X75407619Y-97829819D01*
X75407619Y-97829819D02*
X75264762Y-97782200D01*
X75264762Y-97782200D02*
X75169524Y-97686961D01*
X75169524Y-97686961D02*
X75121905Y-97591723D01*
X75121905Y-97591723D02*
X75074286Y-97401247D01*
X75074286Y-97401247D02*
X75074286Y-97258390D01*
X75074286Y-97258390D02*
X75121905Y-97067914D01*
X75121905Y-97067914D02*
X75169524Y-96972676D01*
X75169524Y-96972676D02*
X75264762Y-96877438D01*
X75264762Y-96877438D02*
X75407619Y-96829819D01*
X75407619Y-96829819D02*
X75502857Y-96829819D01*
X75502857Y-96829819D02*
X75645714Y-96877438D01*
X75645714Y-96877438D02*
X75693333Y-96925057D01*
X76550476Y-97782200D02*
X76455238Y-97829819D01*
X76455238Y-97829819D02*
X76264762Y-97829819D01*
X76264762Y-97829819D02*
X76169524Y-97782200D01*
X76169524Y-97782200D02*
X76121905Y-97734580D01*
X76121905Y-97734580D02*
X76074286Y-97639342D01*
X76074286Y-97639342D02*
X76074286Y-97353628D01*
X76074286Y-97353628D02*
X76121905Y-97258390D01*
X76121905Y-97258390D02*
X76169524Y-97210771D01*
X76169524Y-97210771D02*
X76264762Y-97163152D01*
X76264762Y-97163152D02*
X76455238Y-97163152D01*
X76455238Y-97163152D02*
X76550476Y-97210771D01*
X77121905Y-97829819D02*
X77026667Y-97782200D01*
X77026667Y-97782200D02*
X76979048Y-97734580D01*
X76979048Y-97734580D02*
X76931429Y-97639342D01*
X76931429Y-97639342D02*
X76931429Y-97353628D01*
X76931429Y-97353628D02*
X76979048Y-97258390D01*
X76979048Y-97258390D02*
X77026667Y-97210771D01*
X77026667Y-97210771D02*
X77121905Y-97163152D01*
X77121905Y-97163152D02*
X77264762Y-97163152D01*
X77264762Y-97163152D02*
X77360000Y-97210771D01*
X77360000Y-97210771D02*
X77407619Y-97258390D01*
X77407619Y-97258390D02*
X77455238Y-97353628D01*
X77455238Y-97353628D02*
X77455238Y-97639342D01*
X77455238Y-97639342D02*
X77407619Y-97734580D01*
X77407619Y-97734580D02*
X77360000Y-97782200D01*
X77360000Y-97782200D02*
X77264762Y-97829819D01*
X77264762Y-97829819D02*
X77121905Y-97829819D01*
X77883810Y-97829819D02*
X77883810Y-97163152D01*
X77883810Y-97258390D02*
X77931429Y-97210771D01*
X77931429Y-97210771D02*
X78026667Y-97163152D01*
X78026667Y-97163152D02*
X78169524Y-97163152D01*
X78169524Y-97163152D02*
X78264762Y-97210771D01*
X78264762Y-97210771D02*
X78312381Y-97306009D01*
X78312381Y-97306009D02*
X78312381Y-97829819D01*
X78312381Y-97306009D02*
X78360000Y-97210771D01*
X78360000Y-97210771D02*
X78455238Y-97163152D01*
X78455238Y-97163152D02*
X78598095Y-97163152D01*
X78598095Y-97163152D02*
X78693334Y-97210771D01*
X78693334Y-97210771D02*
X78740953Y-97306009D01*
X78740953Y-97306009D02*
X78740953Y-97829819D01*
X79217143Y-97163152D02*
X79217143Y-98163152D01*
X79217143Y-97210771D02*
X79312381Y-97163152D01*
X79312381Y-97163152D02*
X79502857Y-97163152D01*
X79502857Y-97163152D02*
X79598095Y-97210771D01*
X79598095Y-97210771D02*
X79645714Y-97258390D01*
X79645714Y-97258390D02*
X79693333Y-97353628D01*
X79693333Y-97353628D02*
X79693333Y-97639342D01*
X79693333Y-97639342D02*
X79645714Y-97734580D01*
X79645714Y-97734580D02*
X79598095Y-97782200D01*
X79598095Y-97782200D02*
X79502857Y-97829819D01*
X79502857Y-97829819D02*
X79312381Y-97829819D01*
X79312381Y-97829819D02*
X79217143Y-97782200D01*
X80074286Y-96925057D02*
X80121905Y-96877438D01*
X80121905Y-96877438D02*
X80217143Y-96829819D01*
X80217143Y-96829819D02*
X80455238Y-96829819D01*
X80455238Y-96829819D02*
X80550476Y-96877438D01*
X80550476Y-96877438D02*
X80598095Y-96925057D01*
X80598095Y-96925057D02*
X80645714Y-97020295D01*
X80645714Y-97020295D02*
X80645714Y-97115533D01*
X80645714Y-97115533D02*
X80598095Y-97258390D01*
X80598095Y-97258390D02*
X80026667Y-97829819D01*
X80026667Y-97829819D02*
X80645714Y-97829819D01*
X94543333Y-89474580D02*
X94495714Y-89522200D01*
X94495714Y-89522200D02*
X94352857Y-89569819D01*
X94352857Y-89569819D02*
X94257619Y-89569819D01*
X94257619Y-89569819D02*
X94114762Y-89522200D01*
X94114762Y-89522200D02*
X94019524Y-89426961D01*
X94019524Y-89426961D02*
X93971905Y-89331723D01*
X93971905Y-89331723D02*
X93924286Y-89141247D01*
X93924286Y-89141247D02*
X93924286Y-88998390D01*
X93924286Y-88998390D02*
X93971905Y-88807914D01*
X93971905Y-88807914D02*
X94019524Y-88712676D01*
X94019524Y-88712676D02*
X94114762Y-88617438D01*
X94114762Y-88617438D02*
X94257619Y-88569819D01*
X94257619Y-88569819D02*
X94352857Y-88569819D01*
X94352857Y-88569819D02*
X94495714Y-88617438D01*
X94495714Y-88617438D02*
X94543333Y-88665057D01*
X95400476Y-89522200D02*
X95305238Y-89569819D01*
X95305238Y-89569819D02*
X95114762Y-89569819D01*
X95114762Y-89569819D02*
X95019524Y-89522200D01*
X95019524Y-89522200D02*
X94971905Y-89474580D01*
X94971905Y-89474580D02*
X94924286Y-89379342D01*
X94924286Y-89379342D02*
X94924286Y-89093628D01*
X94924286Y-89093628D02*
X94971905Y-88998390D01*
X94971905Y-88998390D02*
X95019524Y-88950771D01*
X95019524Y-88950771D02*
X95114762Y-88903152D01*
X95114762Y-88903152D02*
X95305238Y-88903152D01*
X95305238Y-88903152D02*
X95400476Y-88950771D01*
X95971905Y-89569819D02*
X95876667Y-89522200D01*
X95876667Y-89522200D02*
X95829048Y-89474580D01*
X95829048Y-89474580D02*
X95781429Y-89379342D01*
X95781429Y-89379342D02*
X95781429Y-89093628D01*
X95781429Y-89093628D02*
X95829048Y-88998390D01*
X95829048Y-88998390D02*
X95876667Y-88950771D01*
X95876667Y-88950771D02*
X95971905Y-88903152D01*
X95971905Y-88903152D02*
X96114762Y-88903152D01*
X96114762Y-88903152D02*
X96210000Y-88950771D01*
X96210000Y-88950771D02*
X96257619Y-88998390D01*
X96257619Y-88998390D02*
X96305238Y-89093628D01*
X96305238Y-89093628D02*
X96305238Y-89379342D01*
X96305238Y-89379342D02*
X96257619Y-89474580D01*
X96257619Y-89474580D02*
X96210000Y-89522200D01*
X96210000Y-89522200D02*
X96114762Y-89569819D01*
X96114762Y-89569819D02*
X95971905Y-89569819D01*
X96733810Y-89569819D02*
X96733810Y-88903152D01*
X96733810Y-88998390D02*
X96781429Y-88950771D01*
X96781429Y-88950771D02*
X96876667Y-88903152D01*
X96876667Y-88903152D02*
X97019524Y-88903152D01*
X97019524Y-88903152D02*
X97114762Y-88950771D01*
X97114762Y-88950771D02*
X97162381Y-89046009D01*
X97162381Y-89046009D02*
X97162381Y-89569819D01*
X97162381Y-89046009D02*
X97210000Y-88950771D01*
X97210000Y-88950771D02*
X97305238Y-88903152D01*
X97305238Y-88903152D02*
X97448095Y-88903152D01*
X97448095Y-88903152D02*
X97543334Y-88950771D01*
X97543334Y-88950771D02*
X97590953Y-89046009D01*
X97590953Y-89046009D02*
X97590953Y-89569819D01*
X98067143Y-88903152D02*
X98067143Y-89903152D01*
X98067143Y-88950771D02*
X98162381Y-88903152D01*
X98162381Y-88903152D02*
X98352857Y-88903152D01*
X98352857Y-88903152D02*
X98448095Y-88950771D01*
X98448095Y-88950771D02*
X98495714Y-88998390D01*
X98495714Y-88998390D02*
X98543333Y-89093628D01*
X98543333Y-89093628D02*
X98543333Y-89379342D01*
X98543333Y-89379342D02*
X98495714Y-89474580D01*
X98495714Y-89474580D02*
X98448095Y-89522200D01*
X98448095Y-89522200D02*
X98352857Y-89569819D01*
X98352857Y-89569819D02*
X98162381Y-89569819D01*
X98162381Y-89569819D02*
X98067143Y-89522200D01*
X99495714Y-89569819D02*
X98924286Y-89569819D01*
X99210000Y-89569819D02*
X99210000Y-88569819D01*
X99210000Y-88569819D02*
X99114762Y-88712676D01*
X99114762Y-88712676D02*
X99019524Y-88807914D01*
X99019524Y-88807914D02*
X98924286Y-88855533D01*
X95400475Y-86954580D02*
X95352856Y-87002200D01*
X95352856Y-87002200D02*
X95209999Y-87049819D01*
X95209999Y-87049819D02*
X95114761Y-87049819D01*
X95114761Y-87049819D02*
X94971904Y-87002200D01*
X94971904Y-87002200D02*
X94876666Y-86906961D01*
X94876666Y-86906961D02*
X94829047Y-86811723D01*
X94829047Y-86811723D02*
X94781428Y-86621247D01*
X94781428Y-86621247D02*
X94781428Y-86478390D01*
X94781428Y-86478390D02*
X94829047Y-86287914D01*
X94829047Y-86287914D02*
X94876666Y-86192676D01*
X94876666Y-86192676D02*
X94971904Y-86097438D01*
X94971904Y-86097438D02*
X95114761Y-86049819D01*
X95114761Y-86049819D02*
X95209999Y-86049819D01*
X95209999Y-86049819D02*
X95352856Y-86097438D01*
X95352856Y-86097438D02*
X95400475Y-86145057D01*
X95829047Y-87049819D02*
X95829047Y-86049819D01*
X95829047Y-86430771D02*
X95924285Y-86383152D01*
X95924285Y-86383152D02*
X96114761Y-86383152D01*
X96114761Y-86383152D02*
X96209999Y-86430771D01*
X96209999Y-86430771D02*
X96257618Y-86478390D01*
X96257618Y-86478390D02*
X96305237Y-86573628D01*
X96305237Y-86573628D02*
X96305237Y-86859342D01*
X96305237Y-86859342D02*
X96257618Y-86954580D01*
X96257618Y-86954580D02*
X96209999Y-87002200D01*
X96209999Y-87002200D02*
X96114761Y-87049819D01*
X96114761Y-87049819D02*
X95924285Y-87049819D01*
X95924285Y-87049819D02*
X95829047Y-87002200D01*
X96686190Y-87002200D02*
X96781428Y-87049819D01*
X96781428Y-87049819D02*
X96971904Y-87049819D01*
X96971904Y-87049819D02*
X97067142Y-87002200D01*
X97067142Y-87002200D02*
X97114761Y-86906961D01*
X97114761Y-86906961D02*
X97114761Y-86859342D01*
X97114761Y-86859342D02*
X97067142Y-86764104D01*
X97067142Y-86764104D02*
X96971904Y-86716485D01*
X96971904Y-86716485D02*
X96829047Y-86716485D01*
X96829047Y-86716485D02*
X96733809Y-86668866D01*
X96733809Y-86668866D02*
X96686190Y-86573628D01*
X96686190Y-86573628D02*
X96686190Y-86526009D01*
X96686190Y-86526009D02*
X96733809Y-86430771D01*
X96733809Y-86430771D02*
X96829047Y-86383152D01*
X96829047Y-86383152D02*
X96971904Y-86383152D01*
X96971904Y-86383152D02*
X97067142Y-86430771D01*
X97400476Y-86383152D02*
X97781428Y-86383152D01*
X97543333Y-86049819D02*
X97543333Y-86906961D01*
X97543333Y-86906961D02*
X97590952Y-87002200D01*
X97590952Y-87002200D02*
X97686190Y-87049819D01*
X97686190Y-87049819D02*
X97781428Y-87049819D01*
X98638571Y-87049819D02*
X98067143Y-87049819D01*
X98352857Y-87049819D02*
X98352857Y-86049819D01*
X98352857Y-86049819D02*
X98257619Y-86192676D01*
X98257619Y-86192676D02*
X98162381Y-86287914D01*
X98162381Y-86287914D02*
X98067143Y-86335533D01*
D11*
%TO.C,U6*%
X94060000Y-100565000D02*
G75*
G02*
X90860000Y-100565000I-1600000J0D01*
G01*
X90860000Y-100565000D02*
G75*
G02*
X94060000Y-100565000I1600000J0D01*
G01*
%TO.C,U5*%
X94060000Y-96105000D02*
G75*
G02*
X90860000Y-96105000I-1600000J0D01*
G01*
X90860000Y-96105000D02*
G75*
G02*
X94060000Y-96105000I1600000J0D01*
G01*
%TO.C,U4*%
X99840000Y-100070000D02*
X100130000Y-100070000D01*
X104370000Y-100070000D02*
X104540000Y-100070000D01*
X104540000Y-100070000D02*
X104540000Y-100730000D01*
X104540000Y-101470000D02*
X104540000Y-102230000D01*
X104540000Y-102970000D02*
X104540000Y-103630000D01*
X104540000Y-103630000D02*
X104370000Y-103630000D01*
X99840000Y-100070000D02*
X99840000Y-100730000D01*
X99840000Y-101470000D02*
X99840000Y-102230000D01*
X99840000Y-102970000D02*
X99840000Y-103630000D01*
X99460000Y-103370000D02*
G75*
G02*
X99200000Y-103370000I-130000J0D01*
G01*
X99200000Y-103370000D02*
G75*
G02*
X99460000Y-103370000I130000J0D01*
G01*
%TO.C,U3*%
X94060000Y-91645000D02*
G75*
G02*
X90860000Y-91645000I-1600000J0D01*
G01*
X90860000Y-91645000D02*
G75*
G02*
X94060000Y-91645000I1600000J0D01*
G01*
%TO.C,Rvin1*%
X87660000Y-88785000D02*
X88620000Y-88785000D01*
X88620000Y-88785000D02*
X88620000Y-87465000D01*
X88620000Y-87465000D02*
X87660000Y-87465000D01*
X86800000Y-88785000D02*
X85840000Y-88785000D01*
X85840000Y-88785000D02*
X85840000Y-87465000D01*
X85840000Y-87465000D02*
X86800000Y-87465000D01*
%TO.C,Rvcc1*%
X87660000Y-86365000D02*
X88620000Y-86365000D01*
X88620000Y-86365000D02*
X88620000Y-85045000D01*
X88620000Y-85045000D02*
X87660000Y-85045000D01*
X86800000Y-86365000D02*
X85840000Y-86365000D01*
X85840000Y-86365000D02*
X85840000Y-85045000D01*
X85840000Y-85045000D02*
X86800000Y-85045000D01*
%TO.C,Ruv2*%
X87660000Y-83945000D02*
X88620000Y-83945000D01*
X88620000Y-83945000D02*
X88620000Y-82625000D01*
X88620000Y-82625000D02*
X87660000Y-82625000D01*
X86800000Y-83945000D02*
X85840000Y-83945000D01*
X85840000Y-83945000D02*
X85840000Y-82625000D01*
X85840000Y-82625000D02*
X86800000Y-82625000D01*
%TO.C,Ruv1*%
X74420000Y-102905000D02*
X73710000Y-102905000D01*
X73710000Y-102905000D02*
X73710000Y-101905000D01*
X73710000Y-101905000D02*
X74420000Y-101905000D01*
X74880000Y-102905000D02*
X75590000Y-102905000D01*
X75590000Y-102905000D02*
X75590000Y-101905000D01*
X75590000Y-101905000D02*
X74880000Y-101905000D01*
%TO.C,Rt1*%
X87660000Y-81525000D02*
X88620000Y-81525000D01*
X88620000Y-81525000D02*
X88620000Y-80205000D01*
X88620000Y-80205000D02*
X87660000Y-80205000D01*
X86800000Y-81525000D02*
X85840000Y-81525000D01*
X85840000Y-81525000D02*
X85840000Y-80205000D01*
X85840000Y-80205000D02*
X86800000Y-80205000D01*
%TO.C,Rpgood1*%
X87660000Y-79105000D02*
X88620000Y-79105000D01*
X88620000Y-79105000D02*
X88620000Y-77785000D01*
X88620000Y-77785000D02*
X87660000Y-77785000D01*
X86800000Y-79105000D02*
X85840000Y-79105000D01*
X85840000Y-79105000D02*
X85840000Y-77785000D01*
X85840000Y-77785000D02*
X86800000Y-77785000D01*
%TO.C,Rilim1*%
X87660000Y-76685000D02*
X88620000Y-76685000D01*
X88620000Y-76685000D02*
X88620000Y-75365000D01*
X88620000Y-75365000D02*
X87660000Y-75365000D01*
X86800000Y-76685000D02*
X85840000Y-76685000D01*
X85840000Y-76685000D02*
X85840000Y-75365000D01*
X85840000Y-75365000D02*
X86800000Y-75365000D01*
%TO.C,Rfbt1*%
X87660000Y-74265000D02*
X88620000Y-74265000D01*
X88620000Y-74265000D02*
X88620000Y-72945000D01*
X88620000Y-72945000D02*
X87660000Y-72945000D01*
X86800000Y-74265000D02*
X85840000Y-74265000D01*
X85840000Y-74265000D02*
X85840000Y-72945000D01*
X85840000Y-72945000D02*
X86800000Y-72945000D01*
%TO.C,Rfbb1*%
X74420000Y-100805000D02*
X73710000Y-100805000D01*
X73710000Y-100805000D02*
X73710000Y-99805000D01*
X73710000Y-99805000D02*
X74420000Y-99805000D01*
X74880000Y-100805000D02*
X75590000Y-100805000D01*
X75590000Y-100805000D02*
X75590000Y-99805000D01*
X75590000Y-99805000D02*
X74880000Y-99805000D01*
%TO.C,Rcomp2*%
X74420000Y-98705000D02*
X73710000Y-98705000D01*
X73710000Y-98705000D02*
X73710000Y-97705000D01*
X73710000Y-97705000D02*
X74420000Y-97705000D01*
X74880000Y-98705000D02*
X75590000Y-98705000D01*
X75590000Y-98705000D02*
X75590000Y-97705000D01*
X75590000Y-97705000D02*
X74880000Y-97705000D01*
%TO.C,Rcomp1*%
X74420000Y-96605000D02*
X73710000Y-96605000D01*
X73710000Y-96605000D02*
X73710000Y-95605000D01*
X73710000Y-95605000D02*
X74420000Y-95605000D01*
X74880000Y-96605000D02*
X75590000Y-96605000D01*
X75590000Y-96605000D02*
X75590000Y-95605000D01*
X75590000Y-95605000D02*
X74880000Y-95605000D01*
%TO.C,Q2*%
X80890000Y-99085000D02*
X80890000Y-95835000D01*
X83990000Y-99105000D02*
X83990000Y-95855000D01*
X81470000Y-99615000D02*
G75*
G02*
X81150000Y-99615000I-160000J0D01*
G01*
X81150000Y-99615000D02*
G75*
G02*
X81470000Y-99615000I160000J0D01*
G01*
%TO.C,Q1*%
X76690000Y-99085000D02*
X76690000Y-95835000D01*
X79790000Y-99105000D02*
X79790000Y-95855000D01*
X77270000Y-99615000D02*
G75*
G02*
X76950000Y-99615000I-160000J0D01*
G01*
X76950000Y-99615000D02*
G75*
G02*
X77270000Y-99615000I160000J0D01*
G01*
%TO.C,LF1*%
X104165000Y-82335000D02*
X104165000Y-86145000D01*
X104165000Y-86145000D02*
X90445000Y-86145000D01*
X90445000Y-86145000D02*
X90445000Y-82335000D01*
X90445000Y-76755000D02*
X90445000Y-72945000D01*
X90445000Y-72945000D02*
X104165000Y-72945000D01*
X104165000Y-72945000D02*
X104165000Y-76755000D01*
%TO.C,Cvin1*%
X96430000Y-101385000D02*
X95630000Y-101385000D01*
X96990000Y-101385000D02*
X97790000Y-101385000D01*
X96430000Y-99965000D02*
X95630000Y-99965000D01*
X96990000Y-99965000D02*
X97790000Y-99965000D01*
X95320000Y-101075000D02*
X95320000Y-100275000D01*
X98100000Y-100275000D02*
X98100000Y-101075000D01*
X97790000Y-99965000D02*
G75*
G02*
X98100000Y-100275000I0J-310000D01*
G01*
X98100000Y-101075000D02*
G75*
G02*
X97790000Y-101385000I-310000J0D01*
G01*
X95630000Y-101385000D02*
G75*
G02*
X95320000Y-101075000I0J310000D01*
G01*
X95320000Y-100275000D02*
G75*
G02*
X95630000Y-99965000I310000J0D01*
G01*
%TO.C,Cvcc1*%
X104170000Y-96445000D02*
X102690000Y-96445000D01*
X102690000Y-98625000D02*
X104170000Y-98625000D01*
X104320000Y-98475000D02*
X104320000Y-96595000D01*
X99350000Y-96445000D02*
X100830000Y-96445000D01*
X100830000Y-98625000D02*
X99350000Y-98625000D01*
X99200000Y-98475000D02*
X99200000Y-96595000D01*
X104320000Y-98475000D02*
G75*
G02*
X104170000Y-98625000I-150000J0D01*
G01*
X104170000Y-96445000D02*
G75*
G02*
X104320000Y-96595000I0J-150000D01*
G01*
X99350000Y-98625000D02*
G75*
G02*
X99200000Y-98475000I0J150000D01*
G01*
X99200000Y-96595000D02*
G75*
G02*
X99350000Y-96445000I150000J0D01*
G01*
%TO.C,Css1*%
X96430000Y-98865000D02*
X95630000Y-98865000D01*
X96990000Y-98865000D02*
X97790000Y-98865000D01*
X96430000Y-97445000D02*
X95630000Y-97445000D01*
X96990000Y-97445000D02*
X97790000Y-97445000D01*
X95320000Y-98555000D02*
X95320000Y-97755000D01*
X98100000Y-97755000D02*
X98100000Y-98555000D01*
X97790000Y-97445000D02*
G75*
G02*
X98100000Y-97755000I0J-310000D01*
G01*
X98100000Y-98555000D02*
G75*
G02*
X97790000Y-98865000I-310000J0D01*
G01*
X95630000Y-98865000D02*
G75*
G02*
X95320000Y-98555000I0J310000D01*
G01*
X95320000Y-97755000D02*
G75*
G02*
X95630000Y-97445000I310000J0D01*
G01*
%TO.C,Cout4*%
X89610000Y-101485000D02*
X88200000Y-101485000D01*
X88200000Y-103285000D02*
X89610000Y-103285000D01*
X89760000Y-103135000D02*
X89760000Y-101635000D01*
X85990000Y-101485000D02*
X87400000Y-101485000D01*
X87400000Y-103285000D02*
X85990000Y-103285000D01*
X85840000Y-103135000D02*
X85840000Y-101635000D01*
X89760000Y-103135000D02*
G75*
G02*
X89610000Y-103285000I-150000J0D01*
G01*
X89610000Y-101485000D02*
G75*
G02*
X89760000Y-101635000I0J-150000D01*
G01*
X85990000Y-103285000D02*
G75*
G02*
X85840000Y-103135000I0J150000D01*
G01*
X85840000Y-101635000D02*
G75*
G02*
X85990000Y-101485000I150000J0D01*
G01*
%TO.C,Cout3*%
X89610000Y-98585000D02*
X88200000Y-98585000D01*
X88200000Y-100385000D02*
X89610000Y-100385000D01*
X89760000Y-100235000D02*
X89760000Y-98735000D01*
X85990000Y-98585000D02*
X87400000Y-98585000D01*
X87400000Y-100385000D02*
X85990000Y-100385000D01*
X85840000Y-100235000D02*
X85840000Y-98735000D01*
X89760000Y-100235000D02*
G75*
G02*
X89610000Y-100385000I-150000J0D01*
G01*
X89610000Y-98585000D02*
G75*
G02*
X89760000Y-98735000I0J-150000D01*
G01*
X85990000Y-100385000D02*
G75*
G02*
X85840000Y-100235000I0J150000D01*
G01*
X85840000Y-98735000D02*
G75*
G02*
X85990000Y-98585000I150000J0D01*
G01*
%TO.C,Cout2*%
X89610000Y-95685000D02*
X88200000Y-95685000D01*
X88200000Y-97485000D02*
X89610000Y-97485000D01*
X89760000Y-97335000D02*
X89760000Y-95835000D01*
X85990000Y-95685000D02*
X87400000Y-95685000D01*
X87400000Y-97485000D02*
X85990000Y-97485000D01*
X85840000Y-97335000D02*
X85840000Y-95835000D01*
X89760000Y-97335000D02*
G75*
G02*
X89610000Y-97485000I-150000J0D01*
G01*
X89610000Y-95685000D02*
G75*
G02*
X89760000Y-95835000I0J-150000D01*
G01*
X85990000Y-97485000D02*
G75*
G02*
X85840000Y-97335000I0J150000D01*
G01*
X85840000Y-95835000D02*
G75*
G02*
X85990000Y-95685000I150000J0D01*
G01*
%TO.C,Cout1*%
X89610000Y-92785000D02*
X88200000Y-92785000D01*
X88200000Y-94585000D02*
X89610000Y-94585000D01*
X89760000Y-94435000D02*
X89760000Y-92935000D01*
X85990000Y-92785000D02*
X87400000Y-92785000D01*
X87400000Y-94585000D02*
X85990000Y-94585000D01*
X85840000Y-94435000D02*
X85840000Y-92935000D01*
X89760000Y-94435000D02*
G75*
G02*
X89610000Y-94585000I-150000J0D01*
G01*
X89610000Y-92785000D02*
G75*
G02*
X89760000Y-92935000I0J-150000D01*
G01*
X85990000Y-94585000D02*
G75*
G02*
X85840000Y-94435000I0J150000D01*
G01*
X85840000Y-92935000D02*
G75*
G02*
X85990000Y-92785000I150000J0D01*
G01*
%TO.C,CN2*%
X84740000Y-84275000D02*
X84740000Y-94475000D01*
X74580000Y-86555000D02*
X84740000Y-86565000D01*
X74580000Y-84275000D02*
X84740000Y-84275000D01*
X74580000Y-92315000D02*
X74270000Y-92315000D01*
X74270000Y-92315000D02*
X74120000Y-92175000D01*
X74120000Y-92175000D02*
X74020000Y-92175000D01*
X74020000Y-92175000D02*
X74020000Y-92975000D01*
X74020000Y-92975000D02*
X74220000Y-92975000D01*
X74220000Y-92975000D02*
X74320000Y-92875000D01*
X74320000Y-92875000D02*
X74580000Y-92875000D01*
X74580000Y-92875000D02*
X74520000Y-92875000D01*
X74580000Y-84275000D02*
X74580000Y-94475000D01*
X74580000Y-86025000D02*
X74270000Y-86025000D01*
X74270000Y-86025000D02*
X74120000Y-85875000D01*
X74120000Y-85875000D02*
X74020000Y-85875000D01*
X74020000Y-85875000D02*
X74020000Y-86675000D01*
X74020000Y-86675000D02*
X74220000Y-86675000D01*
X74220000Y-86675000D02*
X74320000Y-86575000D01*
X74320000Y-86575000D02*
X74580000Y-86575000D01*
X74580000Y-86575000D02*
X74620000Y-86575000D01*
X74580000Y-93245000D02*
X84740000Y-93245000D01*
X74580000Y-93855000D02*
X84740000Y-93855000D01*
X74580000Y-94475000D02*
X84740000Y-94475000D01*
X74190000Y-89185000D02*
G75*
G02*
X73710000Y-89185000I-240000J0D01*
G01*
X73710000Y-89185000D02*
G75*
G02*
X74190000Y-89185000I240000J0D01*
G01*
%TO.C,CN1*%
X84740000Y-72945000D02*
X84740000Y-83145000D01*
X74580000Y-75225000D02*
X84740000Y-75235000D01*
X74580000Y-72945000D02*
X84740000Y-72945000D01*
X74580000Y-80985000D02*
X74270000Y-80985000D01*
X74270000Y-80985000D02*
X74120000Y-80845000D01*
X74120000Y-80845000D02*
X74020000Y-80845000D01*
X74020000Y-80845000D02*
X74020000Y-81645000D01*
X74020000Y-81645000D02*
X74220000Y-81645000D01*
X74220000Y-81645000D02*
X74320000Y-81545000D01*
X74320000Y-81545000D02*
X74580000Y-81545000D01*
X74580000Y-81545000D02*
X74520000Y-81545000D01*
X74580000Y-72945000D02*
X74580000Y-83145000D01*
X74580000Y-74695000D02*
X74270000Y-74695000D01*
X74270000Y-74695000D02*
X74120000Y-74545000D01*
X74120000Y-74545000D02*
X74020000Y-74545000D01*
X74020000Y-74545000D02*
X74020000Y-75345000D01*
X74020000Y-75345000D02*
X74220000Y-75345000D01*
X74220000Y-75345000D02*
X74320000Y-75245000D01*
X74320000Y-75245000D02*
X74580000Y-75245000D01*
X74580000Y-75245000D02*
X74620000Y-75245000D01*
X74580000Y-81915000D02*
X84740000Y-81915000D01*
X74580000Y-82525000D02*
X84740000Y-82525000D01*
X74580000Y-83145000D02*
X84740000Y-83145000D01*
X74190000Y-77855000D02*
G75*
G02*
X73710000Y-77855000I-240000J0D01*
G01*
X73710000Y-77855000D02*
G75*
G02*
X74190000Y-77855000I240000J0D01*
G01*
%TO.C,Cin3*%
X89610000Y-89885000D02*
X88200000Y-89885000D01*
X88200000Y-91685000D02*
X89610000Y-91685000D01*
X89760000Y-91535000D02*
X89760000Y-90035000D01*
X85990000Y-89885000D02*
X87400000Y-89885000D01*
X87400000Y-91685000D02*
X85990000Y-91685000D01*
X85840000Y-91535000D02*
X85840000Y-90035000D01*
X89760000Y-91535000D02*
G75*
G02*
X89610000Y-91685000I-150000J0D01*
G01*
X89610000Y-89885000D02*
G75*
G02*
X89760000Y-90035000I0J-150000D01*
G01*
X85990000Y-91685000D02*
G75*
G02*
X85840000Y-91535000I0J150000D01*
G01*
X85840000Y-90035000D02*
G75*
G02*
X85990000Y-89885000I150000J0D01*
G01*
%TO.C,Cin2*%
X104170000Y-93165000D02*
X102690000Y-93165000D01*
X102690000Y-95345000D02*
X104170000Y-95345000D01*
X104320000Y-95195000D02*
X104320000Y-93315000D01*
X99350000Y-93165000D02*
X100830000Y-93165000D01*
X100830000Y-95345000D02*
X99350000Y-95345000D01*
X99200000Y-95195000D02*
X99200000Y-93315000D01*
X104320000Y-95195000D02*
G75*
G02*
X104170000Y-95345000I-150000J0D01*
G01*
X104170000Y-93165000D02*
G75*
G02*
X104320000Y-93315000I0J-150000D01*
G01*
X99350000Y-95345000D02*
G75*
G02*
X99200000Y-95195000I0J150000D01*
G01*
X99200000Y-93315000D02*
G75*
G02*
X99350000Y-93165000I150000J0D01*
G01*
%TO.C,Cin1*%
X104170000Y-89885000D02*
X102690000Y-89885000D01*
X102690000Y-92065000D02*
X104170000Y-92065000D01*
X104320000Y-91915000D02*
X104320000Y-90035000D01*
X99350000Y-89885000D02*
X100830000Y-89885000D01*
X100830000Y-92065000D02*
X99350000Y-92065000D01*
X99200000Y-91915000D02*
X99200000Y-90035000D01*
X104320000Y-91915000D02*
G75*
G02*
X104170000Y-92065000I-150000J0D01*
G01*
X104170000Y-89885000D02*
G75*
G02*
X104320000Y-90035000I0J-150000D01*
G01*
X99350000Y-92065000D02*
G75*
G02*
X99200000Y-91915000I0J150000D01*
G01*
X99200000Y-90035000D02*
G75*
G02*
X99350000Y-89885000I150000J0D01*
G01*
%TO.C,Cilim1*%
X78880000Y-102975000D02*
X78090000Y-102975000D01*
X78090000Y-103975000D02*
X78880000Y-103975000D01*
X79030000Y-103825000D02*
X79030000Y-103125000D01*
X76840000Y-102975000D02*
X77630000Y-102975000D01*
X77630000Y-103975000D02*
X76840000Y-103975000D01*
X76690000Y-103825000D02*
X76690000Y-103125000D01*
X79030000Y-103825000D02*
G75*
G02*
X78880000Y-103975000I-150000J0D01*
G01*
X78880000Y-102975000D02*
G75*
G02*
X79030000Y-103125000I0J-150000D01*
G01*
X76840000Y-103975000D02*
G75*
G02*
X76690000Y-103825000I0J150000D01*
G01*
X76690000Y-103125000D02*
G75*
G02*
X76840000Y-102975000I150000J0D01*
G01*
%TO.C,Ccomp3*%
X96430000Y-96345000D02*
X95630000Y-96345000D01*
X96990000Y-96345000D02*
X97790000Y-96345000D01*
X96430000Y-94925000D02*
X95630000Y-94925000D01*
X96990000Y-94925000D02*
X97790000Y-94925000D01*
X95320000Y-96035000D02*
X95320000Y-95235000D01*
X98100000Y-95235000D02*
X98100000Y-96035000D01*
X97790000Y-94925000D02*
G75*
G02*
X98100000Y-95235000I0J-310000D01*
G01*
X98100000Y-96035000D02*
G75*
G02*
X97790000Y-96345000I-310000J0D01*
G01*
X95630000Y-96345000D02*
G75*
G02*
X95320000Y-96035000I0J310000D01*
G01*
X95320000Y-95235000D02*
G75*
G02*
X95630000Y-94925000I310000J0D01*
G01*
%TO.C,Ccomp2*%
X78880000Y-100875000D02*
X78090000Y-100875000D01*
X78090000Y-101875000D02*
X78880000Y-101875000D01*
X79030000Y-101725000D02*
X79030000Y-101025000D01*
X76840000Y-100875000D02*
X77630000Y-100875000D01*
X77630000Y-101875000D02*
X76840000Y-101875000D01*
X76690000Y-101725000D02*
X76690000Y-101025000D01*
X79030000Y-101725000D02*
G75*
G02*
X78880000Y-101875000I-150000J0D01*
G01*
X78880000Y-100875000D02*
G75*
G02*
X79030000Y-101025000I0J-150000D01*
G01*
X76840000Y-101875000D02*
G75*
G02*
X76690000Y-101725000I0J150000D01*
G01*
X76690000Y-101025000D02*
G75*
G02*
X76840000Y-100875000I150000J0D01*
G01*
%TO.C,Ccomp1*%
X96430000Y-93825000D02*
X95630000Y-93825000D01*
X96990000Y-93825000D02*
X97790000Y-93825000D01*
X96430000Y-92405000D02*
X95630000Y-92405000D01*
X96990000Y-92405000D02*
X97790000Y-92405000D01*
X95320000Y-93515000D02*
X95320000Y-92715000D01*
X98100000Y-92715000D02*
X98100000Y-93515000D01*
X97790000Y-92405000D02*
G75*
G02*
X98100000Y-92715000I0J-310000D01*
G01*
X98100000Y-93515000D02*
G75*
G02*
X97790000Y-93825000I-310000J0D01*
G01*
X95630000Y-93825000D02*
G75*
G02*
X95320000Y-93515000I0J310000D01*
G01*
X95320000Y-92715000D02*
G75*
G02*
X95630000Y-92405000I310000J0D01*
G01*
%TO.C,Cbst1*%
X96430000Y-91305000D02*
X95630000Y-91305000D01*
X96990000Y-91305000D02*
X97790000Y-91305000D01*
X96430000Y-89885000D02*
X95630000Y-89885000D01*
X96990000Y-89885000D02*
X97790000Y-89885000D01*
X95320000Y-90995000D02*
X95320000Y-90195000D01*
X98100000Y-90195000D02*
X98100000Y-90995000D01*
X97790000Y-89885000D02*
G75*
G02*
X98100000Y-90195000I0J-310000D01*
G01*
X98100000Y-90995000D02*
G75*
G02*
X97790000Y-91305000I-310000J0D01*
G01*
X95630000Y-91305000D02*
G75*
G02*
X95320000Y-90995000I0J310000D01*
G01*
X95320000Y-90195000D02*
G75*
G02*
X95630000Y-89885000I310000J0D01*
G01*
%TD*%
%LPC*%
G36*
X123110894Y-108993093D02*
G01*
X123444348Y-109069202D01*
X123767184Y-109182167D01*
X124075343Y-109330569D01*
X124364947Y-109512539D01*
X124632357Y-109725791D01*
X124874209Y-109967643D01*
X125087461Y-110235053D01*
X125269431Y-110524657D01*
X125417833Y-110832816D01*
X125530798Y-111155652D01*
X125606907Y-111489106D01*
X125645202Y-111828985D01*
X125645202Y-112171015D01*
X125606907Y-112510894D01*
X125530798Y-112844348D01*
X125417833Y-113167184D01*
X125269431Y-113475343D01*
X125087461Y-113764947D01*
X124874209Y-114032357D01*
X124632357Y-114274209D01*
X124364947Y-114487461D01*
X124075343Y-114669431D01*
X123767184Y-114817833D01*
X123444348Y-114930798D01*
X123110894Y-115006907D01*
X122771015Y-115045202D01*
X122428985Y-115045202D01*
X122089106Y-115006907D01*
X121755652Y-114930798D01*
X121432816Y-114817833D01*
X121124657Y-114669431D01*
X120835053Y-114487461D01*
X120567643Y-114274209D01*
X120325791Y-114032357D01*
X120112539Y-113764947D01*
X119930569Y-113475343D01*
X119782167Y-113167184D01*
X119669202Y-112844348D01*
X119593093Y-112510894D01*
X119554798Y-112171015D01*
X119554798Y-111828985D01*
X119593093Y-111489106D01*
X119669202Y-111155652D01*
X119782167Y-110832816D01*
X119930569Y-110524657D01*
X120112539Y-110235053D01*
X120325791Y-109967643D01*
X120567643Y-109725791D01*
X120835053Y-109512539D01*
X121124657Y-109330569D01*
X121432816Y-109182167D01*
X121755652Y-109069202D01*
X122089106Y-108993093D01*
X122428985Y-108954798D01*
X122771015Y-108954798D01*
X123110894Y-108993093D01*
G37*
G36*
X165110894Y-108993093D02*
G01*
X165444348Y-109069202D01*
X165767184Y-109182167D01*
X166075343Y-109330569D01*
X166364947Y-109512539D01*
X166632357Y-109725791D01*
X166874209Y-109967643D01*
X167087461Y-110235053D01*
X167269431Y-110524657D01*
X167417833Y-110832816D01*
X167530798Y-111155652D01*
X167606907Y-111489106D01*
X167645202Y-111828985D01*
X167645202Y-112171015D01*
X167606907Y-112510894D01*
X167530798Y-112844348D01*
X167417833Y-113167184D01*
X167269431Y-113475343D01*
X167087461Y-113764947D01*
X166874209Y-114032357D01*
X166632357Y-114274209D01*
X166364947Y-114487461D01*
X166075343Y-114669431D01*
X165767184Y-114817833D01*
X165444348Y-114930798D01*
X165110894Y-115006907D01*
X164771015Y-115045202D01*
X164428985Y-115045202D01*
X164089106Y-115006907D01*
X163755652Y-114930798D01*
X163432816Y-114817833D01*
X163124657Y-114669431D01*
X162835053Y-114487461D01*
X162567643Y-114274209D01*
X162325791Y-114032357D01*
X162112539Y-113764947D01*
X161930569Y-113475343D01*
X161782167Y-113167184D01*
X161669202Y-112844348D01*
X161593093Y-112510894D01*
X161554798Y-112171015D01*
X161554798Y-111828985D01*
X161593093Y-111489106D01*
X161669202Y-111155652D01*
X161782167Y-110832816D01*
X161930569Y-110524657D01*
X162112539Y-110235053D01*
X162325791Y-109967643D01*
X162567643Y-109725791D01*
X162835053Y-109512539D01*
X163124657Y-109330569D01*
X163432816Y-109182167D01*
X163755652Y-109069202D01*
X164089106Y-108993093D01*
X164428985Y-108954798D01*
X164771015Y-108954798D01*
X165110894Y-108993093D01*
G37*
G36*
X100659134Y-103128806D02*
G01*
X100675355Y-103139645D01*
X100686194Y-103155866D01*
X100690000Y-103175000D01*
X100690000Y-104025000D01*
X100686194Y-104044134D01*
X100675355Y-104060355D01*
X100659134Y-104071194D01*
X100640000Y-104075000D01*
X100360000Y-104075000D01*
X100340866Y-104071194D01*
X100324645Y-104060355D01*
X100313806Y-104044134D01*
X100310000Y-104025000D01*
X100310000Y-103175000D01*
X100313806Y-103155866D01*
X100324645Y-103139645D01*
X100340866Y-103128806D01*
X100360000Y-103125000D01*
X100640000Y-103125000D01*
X100659134Y-103128806D01*
G37*
G36*
X101159134Y-103128806D02*
G01*
X101175355Y-103139645D01*
X101186194Y-103155866D01*
X101190000Y-103175000D01*
X101190000Y-104025000D01*
X101186194Y-104044134D01*
X101175355Y-104060355D01*
X101159134Y-104071194D01*
X101140000Y-104075000D01*
X100860000Y-104075000D01*
X100840866Y-104071194D01*
X100824645Y-104060355D01*
X100813806Y-104044134D01*
X100810000Y-104025000D01*
X100810000Y-103175000D01*
X100813806Y-103155866D01*
X100824645Y-103139645D01*
X100840866Y-103128806D01*
X100860000Y-103125000D01*
X101140000Y-103125000D01*
X101159134Y-103128806D01*
G37*
G36*
X101659134Y-103128806D02*
G01*
X101675355Y-103139645D01*
X101686194Y-103155866D01*
X101690000Y-103175000D01*
X101690000Y-104025000D01*
X101686194Y-104044134D01*
X101675355Y-104060355D01*
X101659134Y-104071194D01*
X101640000Y-104075000D01*
X101360000Y-104075000D01*
X101340866Y-104071194D01*
X101324645Y-104060355D01*
X101313806Y-104044134D01*
X101310000Y-104025000D01*
X101310000Y-103175000D01*
X101313806Y-103155866D01*
X101324645Y-103139645D01*
X101340866Y-103128806D01*
X101360000Y-103125000D01*
X101640000Y-103125000D01*
X101659134Y-103128806D01*
G37*
G36*
X102159134Y-103128806D02*
G01*
X102175355Y-103139645D01*
X102186194Y-103155866D01*
X102190000Y-103175000D01*
X102190000Y-104025000D01*
X102186194Y-104044134D01*
X102175355Y-104060355D01*
X102159134Y-104071194D01*
X102140000Y-104075000D01*
X101860000Y-104075000D01*
X101840866Y-104071194D01*
X101824645Y-104060355D01*
X101813806Y-104044134D01*
X101810000Y-104025000D01*
X101810000Y-103175000D01*
X101813806Y-103155866D01*
X101824645Y-103139645D01*
X101840866Y-103128806D01*
X101860000Y-103125000D01*
X102140000Y-103125000D01*
X102159134Y-103128806D01*
G37*
G36*
X102659134Y-103128806D02*
G01*
X102675355Y-103139645D01*
X102686194Y-103155866D01*
X102690000Y-103175000D01*
X102690000Y-104025000D01*
X102686194Y-104044134D01*
X102675355Y-104060355D01*
X102659134Y-104071194D01*
X102640000Y-104075000D01*
X102360000Y-104075000D01*
X102340866Y-104071194D01*
X102324645Y-104060355D01*
X102313806Y-104044134D01*
X102310000Y-104025000D01*
X102310000Y-103175000D01*
X102313806Y-103155866D01*
X102324645Y-103139645D01*
X102340866Y-103128806D01*
X102360000Y-103125000D01*
X102640000Y-103125000D01*
X102659134Y-103128806D01*
G37*
G36*
X103159134Y-103128806D02*
G01*
X103175355Y-103139645D01*
X103186194Y-103155866D01*
X103190000Y-103175000D01*
X103190000Y-104025000D01*
X103186194Y-104044134D01*
X103175355Y-104060355D01*
X103159134Y-104071194D01*
X103140000Y-104075000D01*
X102860000Y-104075000D01*
X102840866Y-104071194D01*
X102824645Y-104060355D01*
X102813806Y-104044134D01*
X102810000Y-104025000D01*
X102810000Y-103175000D01*
X102813806Y-103155866D01*
X102824645Y-103139645D01*
X102840866Y-103128806D01*
X102860000Y-103125000D01*
X103140000Y-103125000D01*
X103159134Y-103128806D01*
G37*
G36*
X103659134Y-103128806D02*
G01*
X103675355Y-103139645D01*
X103686194Y-103155866D01*
X103690000Y-103175000D01*
X103690000Y-104025000D01*
X103686194Y-104044134D01*
X103675355Y-104060355D01*
X103659134Y-104071194D01*
X103640000Y-104075000D01*
X103360000Y-104075000D01*
X103340866Y-104071194D01*
X103324645Y-104060355D01*
X103313806Y-104044134D01*
X103310000Y-104025000D01*
X103310000Y-103175000D01*
X103313806Y-103155866D01*
X103324645Y-103139645D01*
X103340866Y-103128806D01*
X103360000Y-103125000D01*
X103640000Y-103125000D01*
X103659134Y-103128806D01*
G37*
G36*
X104159134Y-103128806D02*
G01*
X104175355Y-103139645D01*
X104186194Y-103155866D01*
X104190000Y-103175000D01*
X104190000Y-104025000D01*
X104186194Y-104044134D01*
X104175355Y-104060355D01*
X104159134Y-104071194D01*
X104140000Y-104075000D01*
X103860000Y-104075000D01*
X103840866Y-104071194D01*
X103824645Y-104060355D01*
X103813806Y-104044134D01*
X103810000Y-104025000D01*
X103810000Y-103175000D01*
X103813806Y-103155866D01*
X103824645Y-103139645D01*
X103840866Y-103128806D01*
X103860000Y-103125000D01*
X104140000Y-103125000D01*
X104159134Y-103128806D01*
G37*
G36*
X77724134Y-103158806D02*
G01*
X77740355Y-103169645D01*
X77751194Y-103185866D01*
X77755000Y-103205000D01*
X77755000Y-103745000D01*
X77751194Y-103764134D01*
X77740355Y-103780355D01*
X77724134Y-103791194D01*
X77705000Y-103795000D01*
X76915000Y-103795000D01*
X76895866Y-103791194D01*
X76879645Y-103780355D01*
X76868806Y-103764134D01*
X76865000Y-103745000D01*
X76865000Y-103205000D01*
X76868806Y-103185866D01*
X76879645Y-103169645D01*
X76895866Y-103158806D01*
X76915000Y-103155000D01*
X77705000Y-103155000D01*
X77724134Y-103158806D01*
G37*
G36*
X78824134Y-103158806D02*
G01*
X78840355Y-103169645D01*
X78851194Y-103185866D01*
X78855000Y-103205000D01*
X78855000Y-103745000D01*
X78851194Y-103764134D01*
X78840355Y-103780355D01*
X78824134Y-103791194D01*
X78805000Y-103795000D01*
X78015000Y-103795000D01*
X77995866Y-103791194D01*
X77979645Y-103780355D01*
X77968806Y-103764134D01*
X77965000Y-103745000D01*
X77965000Y-103205000D01*
X77968806Y-103185866D01*
X77979645Y-103169645D01*
X77995866Y-103158806D01*
X78015000Y-103155000D01*
X78805000Y-103155000D01*
X78824134Y-103158806D01*
G37*
G36*
X87524134Y-101663806D02*
G01*
X87540355Y-101674645D01*
X87551194Y-101690866D01*
X87555000Y-101710000D01*
X87555000Y-103060000D01*
X87551194Y-103079134D01*
X87540355Y-103095355D01*
X87524134Y-103106194D01*
X87505000Y-103110000D01*
X86095000Y-103110000D01*
X86075866Y-103106194D01*
X86059645Y-103095355D01*
X86048806Y-103079134D01*
X86045000Y-103060000D01*
X86045000Y-101710000D01*
X86048806Y-101690866D01*
X86059645Y-101674645D01*
X86075866Y-101663806D01*
X86095000Y-101660000D01*
X87505000Y-101660000D01*
X87524134Y-101663806D01*
G37*
G36*
X89524134Y-101663806D02*
G01*
X89540355Y-101674645D01*
X89551194Y-101690866D01*
X89555000Y-101710000D01*
X89555000Y-103060000D01*
X89551194Y-103079134D01*
X89540355Y-103095355D01*
X89524134Y-103106194D01*
X89505000Y-103110000D01*
X88095000Y-103110000D01*
X88075866Y-103106194D01*
X88059645Y-103095355D01*
X88048806Y-103079134D01*
X88045000Y-103060000D01*
X88045000Y-101710000D01*
X88048806Y-101690866D01*
X88059645Y-101674645D01*
X88075866Y-101663806D01*
X88095000Y-101660000D01*
X89505000Y-101660000D01*
X89524134Y-101663806D01*
G37*
G36*
X100444134Y-102413806D02*
G01*
X100460355Y-102424645D01*
X100471194Y-102440866D01*
X100475000Y-102460000D01*
X100475000Y-102740000D01*
X100471194Y-102759134D01*
X100460355Y-102775355D01*
X100444134Y-102786194D01*
X100425000Y-102790000D01*
X99575000Y-102790000D01*
X99555866Y-102786194D01*
X99539645Y-102775355D01*
X99528806Y-102759134D01*
X99525000Y-102740000D01*
X99525000Y-102460000D01*
X99528806Y-102440866D01*
X99539645Y-102424645D01*
X99555866Y-102413806D01*
X99575000Y-102410000D01*
X100425000Y-102410000D01*
X100444134Y-102413806D01*
G37*
G36*
X104944134Y-102413806D02*
G01*
X104960355Y-102424645D01*
X104971194Y-102440866D01*
X104975000Y-102460000D01*
X104975000Y-102740000D01*
X104971194Y-102759134D01*
X104960355Y-102775355D01*
X104944134Y-102786194D01*
X104925000Y-102790000D01*
X104075000Y-102790000D01*
X104055866Y-102786194D01*
X104039645Y-102775355D01*
X104028806Y-102759134D01*
X104025000Y-102740000D01*
X104025000Y-102460000D01*
X104028806Y-102440866D01*
X104039645Y-102424645D01*
X104055866Y-102413806D01*
X104075000Y-102410000D01*
X104925000Y-102410000D01*
X104944134Y-102413806D01*
G37*
G36*
X103619134Y-100953806D02*
G01*
X103635355Y-100964645D01*
X103646194Y-100980866D01*
X103650000Y-101000000D01*
X103650000Y-102700000D01*
X103646194Y-102719134D01*
X103635355Y-102735355D01*
X103619134Y-102746194D01*
X103600000Y-102750000D01*
X100900000Y-102750000D01*
X100880866Y-102746194D01*
X100864645Y-102735355D01*
X100853806Y-102719134D01*
X100850000Y-102700000D01*
X100850000Y-101000000D01*
X100853806Y-100980866D01*
X100864645Y-100964645D01*
X100880866Y-100953806D01*
X100900000Y-100950000D01*
X103600000Y-100950000D01*
X103619134Y-100953806D01*
G37*
G36*
X74524134Y-102088806D02*
G01*
X74540355Y-102099645D01*
X74551194Y-102115866D01*
X74555000Y-102135000D01*
X74555000Y-102675000D01*
X74551194Y-102694134D01*
X74540355Y-102710355D01*
X74524134Y-102721194D01*
X74505000Y-102725000D01*
X73935000Y-102725000D01*
X73915866Y-102721194D01*
X73899645Y-102710355D01*
X73888806Y-102694134D01*
X73885000Y-102675000D01*
X73885000Y-102135000D01*
X73888806Y-102115866D01*
X73899645Y-102099645D01*
X73915866Y-102088806D01*
X73935000Y-102085000D01*
X74505000Y-102085000D01*
X74524134Y-102088806D01*
G37*
G36*
X75384134Y-102088806D02*
G01*
X75400355Y-102099645D01*
X75411194Y-102115866D01*
X75415000Y-102135000D01*
X75415000Y-102675000D01*
X75411194Y-102694134D01*
X75400355Y-102710355D01*
X75384134Y-102721194D01*
X75365000Y-102725000D01*
X74795000Y-102725000D01*
X74775866Y-102721194D01*
X74759645Y-102710355D01*
X74748806Y-102694134D01*
X74745000Y-102675000D01*
X74745000Y-102135000D01*
X74748806Y-102115866D01*
X74759645Y-102099645D01*
X74775866Y-102088806D01*
X74795000Y-102085000D01*
X75365000Y-102085000D01*
X75384134Y-102088806D01*
G37*
G36*
X92786824Y-99203682D02*
G01*
X92995757Y-99271569D01*
X93191498Y-99371304D01*
X93369227Y-99500432D01*
X93524568Y-99655773D01*
X93653696Y-99833502D01*
X93753431Y-100029243D01*
X93821318Y-100238176D01*
X93855684Y-100455157D01*
X93855684Y-100674843D01*
X93821318Y-100891824D01*
X93753431Y-101100757D01*
X93653696Y-101296498D01*
X93524568Y-101474227D01*
X93369227Y-101629568D01*
X93191498Y-101758696D01*
X92995757Y-101858431D01*
X92786824Y-101926318D01*
X92569843Y-101960684D01*
X92350157Y-101960684D01*
X92133176Y-101926318D01*
X91924243Y-101858431D01*
X91728502Y-101758696D01*
X91550773Y-101629568D01*
X91395432Y-101474227D01*
X91266304Y-101296498D01*
X91166569Y-101100757D01*
X91098682Y-100891824D01*
X91064316Y-100674843D01*
X91064316Y-100455157D01*
X91098682Y-100238176D01*
X91166569Y-100029243D01*
X91266304Y-99833502D01*
X91395432Y-99655773D01*
X91550773Y-99500432D01*
X91728502Y-99371304D01*
X91924243Y-99271569D01*
X92133176Y-99203682D01*
X92350157Y-99169316D01*
X92569843Y-99169316D01*
X92786824Y-99203682D01*
G37*
G36*
X77724134Y-101058806D02*
G01*
X77740355Y-101069645D01*
X77751194Y-101085866D01*
X77755000Y-101105000D01*
X77755000Y-101645000D01*
X77751194Y-101664134D01*
X77740355Y-101680355D01*
X77724134Y-101691194D01*
X77705000Y-101695000D01*
X76915000Y-101695000D01*
X76895866Y-101691194D01*
X76879645Y-101680355D01*
X76868806Y-101664134D01*
X76865000Y-101645000D01*
X76865000Y-101105000D01*
X76868806Y-101085866D01*
X76879645Y-101069645D01*
X76895866Y-101058806D01*
X76915000Y-101055000D01*
X77705000Y-101055000D01*
X77724134Y-101058806D01*
G37*
G36*
X78824134Y-101058806D02*
G01*
X78840355Y-101069645D01*
X78851194Y-101085866D01*
X78855000Y-101105000D01*
X78855000Y-101645000D01*
X78851194Y-101664134D01*
X78840355Y-101680355D01*
X78824134Y-101691194D01*
X78805000Y-101695000D01*
X78015000Y-101695000D01*
X77995866Y-101691194D01*
X77979645Y-101680355D01*
X77968806Y-101664134D01*
X77965000Y-101645000D01*
X77965000Y-101105000D01*
X77968806Y-101085866D01*
X77979645Y-101069645D01*
X77995866Y-101058806D01*
X78015000Y-101055000D01*
X78805000Y-101055000D01*
X78824134Y-101058806D01*
G37*
G36*
X100444134Y-100913806D02*
G01*
X100460355Y-100924645D01*
X100471194Y-100940866D01*
X100475000Y-100960000D01*
X100475000Y-101240000D01*
X100471194Y-101259134D01*
X100460355Y-101275355D01*
X100444134Y-101286194D01*
X100425000Y-101290000D01*
X99575000Y-101290000D01*
X99555866Y-101286194D01*
X99539645Y-101275355D01*
X99528806Y-101259134D01*
X99525000Y-101240000D01*
X99525000Y-100960000D01*
X99528806Y-100940866D01*
X99539645Y-100924645D01*
X99555866Y-100913806D01*
X99575000Y-100910000D01*
X100425000Y-100910000D01*
X100444134Y-100913806D01*
G37*
G36*
X104944134Y-100913806D02*
G01*
X104960355Y-100924645D01*
X104971194Y-100940866D01*
X104975000Y-100960000D01*
X104975000Y-101240000D01*
X104971194Y-101259134D01*
X104960355Y-101275355D01*
X104944134Y-101286194D01*
X104925000Y-101290000D01*
X104075000Y-101290000D01*
X104055866Y-101286194D01*
X104039645Y-101275355D01*
X104028806Y-101259134D01*
X104025000Y-101240000D01*
X104025000Y-100960000D01*
X104028806Y-100940866D01*
X104039645Y-100924645D01*
X104055866Y-100913806D01*
X104075000Y-100910000D01*
X104925000Y-100910000D01*
X104944134Y-100913806D01*
G37*
G36*
X96429134Y-100178806D02*
G01*
X96445355Y-100189645D01*
X96456194Y-100205866D01*
X96460000Y-100225000D01*
X96460000Y-101125000D01*
X96456194Y-101144134D01*
X96445355Y-101160355D01*
X96429134Y-101171194D01*
X96410000Y-101175000D01*
X95610000Y-101175000D01*
X95590866Y-101171194D01*
X95574645Y-101160355D01*
X95563806Y-101144134D01*
X95560000Y-101125000D01*
X95560000Y-100225000D01*
X95563806Y-100205866D01*
X95574645Y-100189645D01*
X95590866Y-100178806D01*
X95610000Y-100175000D01*
X96410000Y-100175000D01*
X96429134Y-100178806D01*
G37*
G36*
X97829134Y-100178806D02*
G01*
X97845355Y-100189645D01*
X97856194Y-100205866D01*
X97860000Y-100225000D01*
X97860000Y-101125000D01*
X97856194Y-101144134D01*
X97845355Y-101160355D01*
X97829134Y-101171194D01*
X97810000Y-101175000D01*
X97010000Y-101175000D01*
X96990866Y-101171194D01*
X96974645Y-101160355D01*
X96963806Y-101144134D01*
X96960000Y-101125000D01*
X96960000Y-100225000D01*
X96963806Y-100205866D01*
X96974645Y-100189645D01*
X96990866Y-100178806D01*
X97010000Y-100175000D01*
X97810000Y-100175000D01*
X97829134Y-100178806D01*
G37*
G36*
X74524134Y-99988806D02*
G01*
X74540355Y-99999645D01*
X74551194Y-100015866D01*
X74555000Y-100035000D01*
X74555000Y-100575000D01*
X74551194Y-100594134D01*
X74540355Y-100610355D01*
X74524134Y-100621194D01*
X74505000Y-100625000D01*
X73935000Y-100625000D01*
X73915866Y-100621194D01*
X73899645Y-100610355D01*
X73888806Y-100594134D01*
X73885000Y-100575000D01*
X73885000Y-100035000D01*
X73888806Y-100015866D01*
X73899645Y-99999645D01*
X73915866Y-99988806D01*
X73935000Y-99985000D01*
X74505000Y-99985000D01*
X74524134Y-99988806D01*
G37*
G36*
X75384134Y-99988806D02*
G01*
X75400355Y-99999645D01*
X75411194Y-100015866D01*
X75415000Y-100035000D01*
X75415000Y-100575000D01*
X75411194Y-100594134D01*
X75400355Y-100610355D01*
X75384134Y-100621194D01*
X75365000Y-100625000D01*
X74795000Y-100625000D01*
X74775866Y-100621194D01*
X74759645Y-100610355D01*
X74748806Y-100594134D01*
X74745000Y-100575000D01*
X74745000Y-100035000D01*
X74748806Y-100015866D01*
X74759645Y-99999645D01*
X74775866Y-99988806D01*
X74795000Y-99985000D01*
X75365000Y-99985000D01*
X75384134Y-99988806D01*
G37*
G36*
X100659134Y-99628806D02*
G01*
X100675355Y-99639645D01*
X100686194Y-99655866D01*
X100690000Y-99675000D01*
X100690000Y-100525000D01*
X100686194Y-100544134D01*
X100675355Y-100560355D01*
X100659134Y-100571194D01*
X100640000Y-100575000D01*
X100360000Y-100575000D01*
X100340866Y-100571194D01*
X100324645Y-100560355D01*
X100313806Y-100544134D01*
X100310000Y-100525000D01*
X100310000Y-99675000D01*
X100313806Y-99655866D01*
X100324645Y-99639645D01*
X100340866Y-99628806D01*
X100360000Y-99625000D01*
X100640000Y-99625000D01*
X100659134Y-99628806D01*
G37*
G36*
X101159134Y-99628806D02*
G01*
X101175355Y-99639645D01*
X101186194Y-99655866D01*
X101190000Y-99675000D01*
X101190000Y-100525000D01*
X101186194Y-100544134D01*
X101175355Y-100560355D01*
X101159134Y-100571194D01*
X101140000Y-100575000D01*
X100860000Y-100575000D01*
X100840866Y-100571194D01*
X100824645Y-100560355D01*
X100813806Y-100544134D01*
X100810000Y-100525000D01*
X100810000Y-99675000D01*
X100813806Y-99655866D01*
X100824645Y-99639645D01*
X100840866Y-99628806D01*
X100860000Y-99625000D01*
X101140000Y-99625000D01*
X101159134Y-99628806D01*
G37*
G36*
X101659134Y-99628806D02*
G01*
X101675355Y-99639645D01*
X101686194Y-99655866D01*
X101690000Y-99675000D01*
X101690000Y-100525000D01*
X101686194Y-100544134D01*
X101675355Y-100560355D01*
X101659134Y-100571194D01*
X101640000Y-100575000D01*
X101360000Y-100575000D01*
X101340866Y-100571194D01*
X101324645Y-100560355D01*
X101313806Y-100544134D01*
X101310000Y-100525000D01*
X101310000Y-99675000D01*
X101313806Y-99655866D01*
X101324645Y-99639645D01*
X101340866Y-99628806D01*
X101360000Y-99625000D01*
X101640000Y-99625000D01*
X101659134Y-99628806D01*
G37*
G36*
X102159134Y-99628806D02*
G01*
X102175355Y-99639645D01*
X102186194Y-99655866D01*
X102190000Y-99675000D01*
X102190000Y-100525000D01*
X102186194Y-100544134D01*
X102175355Y-100560355D01*
X102159134Y-100571194D01*
X102140000Y-100575000D01*
X101860000Y-100575000D01*
X101840866Y-100571194D01*
X101824645Y-100560355D01*
X101813806Y-100544134D01*
X101810000Y-100525000D01*
X101810000Y-99675000D01*
X101813806Y-99655866D01*
X101824645Y-99639645D01*
X101840866Y-99628806D01*
X101860000Y-99625000D01*
X102140000Y-99625000D01*
X102159134Y-99628806D01*
G37*
G36*
X102659134Y-99628806D02*
G01*
X102675355Y-99639645D01*
X102686194Y-99655866D01*
X102690000Y-99675000D01*
X102690000Y-100525000D01*
X102686194Y-100544134D01*
X102675355Y-100560355D01*
X102659134Y-100571194D01*
X102640000Y-100575000D01*
X102360000Y-100575000D01*
X102340866Y-100571194D01*
X102324645Y-100560355D01*
X102313806Y-100544134D01*
X102310000Y-100525000D01*
X102310000Y-99675000D01*
X102313806Y-99655866D01*
X102324645Y-99639645D01*
X102340866Y-99628806D01*
X102360000Y-99625000D01*
X102640000Y-99625000D01*
X102659134Y-99628806D01*
G37*
G36*
X103159134Y-99628806D02*
G01*
X103175355Y-99639645D01*
X103186194Y-99655866D01*
X103190000Y-99675000D01*
X103190000Y-100525000D01*
X103186194Y-100544134D01*
X103175355Y-100560355D01*
X103159134Y-100571194D01*
X103140000Y-100575000D01*
X102860000Y-100575000D01*
X102840866Y-100571194D01*
X102824645Y-100560355D01*
X102813806Y-100544134D01*
X102810000Y-100525000D01*
X102810000Y-99675000D01*
X102813806Y-99655866D01*
X102824645Y-99639645D01*
X102840866Y-99628806D01*
X102860000Y-99625000D01*
X103140000Y-99625000D01*
X103159134Y-99628806D01*
G37*
G36*
X103659134Y-99628806D02*
G01*
X103675355Y-99639645D01*
X103686194Y-99655866D01*
X103690000Y-99675000D01*
X103690000Y-100525000D01*
X103686194Y-100544134D01*
X103675355Y-100560355D01*
X103659134Y-100571194D01*
X103640000Y-100575000D01*
X103360000Y-100575000D01*
X103340866Y-100571194D01*
X103324645Y-100560355D01*
X103313806Y-100544134D01*
X103310000Y-100525000D01*
X103310000Y-99675000D01*
X103313806Y-99655866D01*
X103324645Y-99639645D01*
X103340866Y-99628806D01*
X103360000Y-99625000D01*
X103640000Y-99625000D01*
X103659134Y-99628806D01*
G37*
G36*
X104159134Y-99628806D02*
G01*
X104175355Y-99639645D01*
X104186194Y-99655866D01*
X104190000Y-99675000D01*
X104190000Y-100525000D01*
X104186194Y-100544134D01*
X104175355Y-100560355D01*
X104159134Y-100571194D01*
X104140000Y-100575000D01*
X103860000Y-100575000D01*
X103840866Y-100571194D01*
X103824645Y-100560355D01*
X103813806Y-100544134D01*
X103810000Y-100525000D01*
X103810000Y-99675000D01*
X103813806Y-99655866D01*
X103824645Y-99639645D01*
X103840866Y-99628806D01*
X103860000Y-99625000D01*
X104140000Y-99625000D01*
X104159134Y-99628806D01*
G37*
G36*
X87524134Y-98763806D02*
G01*
X87540355Y-98774645D01*
X87551194Y-98790866D01*
X87555000Y-98810000D01*
X87555000Y-100160000D01*
X87551194Y-100179134D01*
X87540355Y-100195355D01*
X87524134Y-100206194D01*
X87505000Y-100210000D01*
X86095000Y-100210000D01*
X86075866Y-100206194D01*
X86059645Y-100195355D01*
X86048806Y-100179134D01*
X86045000Y-100160000D01*
X86045000Y-98810000D01*
X86048806Y-98790866D01*
X86059645Y-98774645D01*
X86075866Y-98763806D01*
X86095000Y-98760000D01*
X87505000Y-98760000D01*
X87524134Y-98763806D01*
G37*
G36*
X89524134Y-98763806D02*
G01*
X89540355Y-98774645D01*
X89551194Y-98790866D01*
X89555000Y-98810000D01*
X89555000Y-100160000D01*
X89551194Y-100179134D01*
X89540355Y-100195355D01*
X89524134Y-100206194D01*
X89505000Y-100210000D01*
X88095000Y-100210000D01*
X88075866Y-100206194D01*
X88059645Y-100195355D01*
X88048806Y-100179134D01*
X88045000Y-100160000D01*
X88045000Y-98810000D01*
X88048806Y-98790866D01*
X88059645Y-98774645D01*
X88075866Y-98763806D01*
X88095000Y-98760000D01*
X89505000Y-98760000D01*
X89524134Y-98763806D01*
G37*
G36*
X77494134Y-98468806D02*
G01*
X77510355Y-98479645D01*
X77521194Y-98495866D01*
X77525000Y-98515000D01*
X77525000Y-99195000D01*
X77521194Y-99214134D01*
X77510355Y-99230355D01*
X77494134Y-99241194D01*
X77475000Y-99245000D01*
X77025000Y-99245000D01*
X77005866Y-99241194D01*
X76989645Y-99230355D01*
X76978806Y-99214134D01*
X76975000Y-99195000D01*
X76975000Y-98515000D01*
X76978806Y-98495866D01*
X76989645Y-98479645D01*
X77005866Y-98468806D01*
X77025000Y-98465000D01*
X77475000Y-98465000D01*
X77494134Y-98468806D01*
G37*
G36*
X78144134Y-98468806D02*
G01*
X78160355Y-98479645D01*
X78171194Y-98495866D01*
X78175000Y-98515000D01*
X78175000Y-99195000D01*
X78171194Y-99214134D01*
X78160355Y-99230355D01*
X78144134Y-99241194D01*
X78125000Y-99245000D01*
X77675000Y-99245000D01*
X77655866Y-99241194D01*
X77639645Y-99230355D01*
X77628806Y-99214134D01*
X77625000Y-99195000D01*
X77625000Y-98515000D01*
X77628806Y-98495866D01*
X77639645Y-98479645D01*
X77655866Y-98468806D01*
X77675000Y-98465000D01*
X78125000Y-98465000D01*
X78144134Y-98468806D01*
G37*
G36*
X78794134Y-98468806D02*
G01*
X78810355Y-98479645D01*
X78821194Y-98495866D01*
X78825000Y-98515000D01*
X78825000Y-99195000D01*
X78821194Y-99214134D01*
X78810355Y-99230355D01*
X78794134Y-99241194D01*
X78775000Y-99245000D01*
X78325000Y-99245000D01*
X78305866Y-99241194D01*
X78289645Y-99230355D01*
X78278806Y-99214134D01*
X78275000Y-99195000D01*
X78275000Y-98515000D01*
X78278806Y-98495866D01*
X78289645Y-98479645D01*
X78305866Y-98468806D01*
X78325000Y-98465000D01*
X78775000Y-98465000D01*
X78794134Y-98468806D01*
G37*
G36*
X79444134Y-98468806D02*
G01*
X79460355Y-98479645D01*
X79471194Y-98495866D01*
X79475000Y-98515000D01*
X79475000Y-99195000D01*
X79471194Y-99214134D01*
X79460355Y-99230355D01*
X79444134Y-99241194D01*
X79425000Y-99245000D01*
X78975000Y-99245000D01*
X78955866Y-99241194D01*
X78939645Y-99230355D01*
X78928806Y-99214134D01*
X78925000Y-99195000D01*
X78925000Y-98515000D01*
X78928806Y-98495866D01*
X78939645Y-98479645D01*
X78955866Y-98468806D01*
X78975000Y-98465000D01*
X79425000Y-98465000D01*
X79444134Y-98468806D01*
G37*
G36*
X81694134Y-98468806D02*
G01*
X81710355Y-98479645D01*
X81721194Y-98495866D01*
X81725000Y-98515000D01*
X81725000Y-99195000D01*
X81721194Y-99214134D01*
X81710355Y-99230355D01*
X81694134Y-99241194D01*
X81675000Y-99245000D01*
X81225000Y-99245000D01*
X81205866Y-99241194D01*
X81189645Y-99230355D01*
X81178806Y-99214134D01*
X81175000Y-99195000D01*
X81175000Y-98515000D01*
X81178806Y-98495866D01*
X81189645Y-98479645D01*
X81205866Y-98468806D01*
X81225000Y-98465000D01*
X81675000Y-98465000D01*
X81694134Y-98468806D01*
G37*
G36*
X82344134Y-98468806D02*
G01*
X82360355Y-98479645D01*
X82371194Y-98495866D01*
X82375000Y-98515000D01*
X82375000Y-99195000D01*
X82371194Y-99214134D01*
X82360355Y-99230355D01*
X82344134Y-99241194D01*
X82325000Y-99245000D01*
X81875000Y-99245000D01*
X81855866Y-99241194D01*
X81839645Y-99230355D01*
X81828806Y-99214134D01*
X81825000Y-99195000D01*
X81825000Y-98515000D01*
X81828806Y-98495866D01*
X81839645Y-98479645D01*
X81855866Y-98468806D01*
X81875000Y-98465000D01*
X82325000Y-98465000D01*
X82344134Y-98468806D01*
G37*
G36*
X82994134Y-98468806D02*
G01*
X83010355Y-98479645D01*
X83021194Y-98495866D01*
X83025000Y-98515000D01*
X83025000Y-99195000D01*
X83021194Y-99214134D01*
X83010355Y-99230355D01*
X82994134Y-99241194D01*
X82975000Y-99245000D01*
X82525000Y-99245000D01*
X82505866Y-99241194D01*
X82489645Y-99230355D01*
X82478806Y-99214134D01*
X82475000Y-99195000D01*
X82475000Y-98515000D01*
X82478806Y-98495866D01*
X82489645Y-98479645D01*
X82505866Y-98468806D01*
X82525000Y-98465000D01*
X82975000Y-98465000D01*
X82994134Y-98468806D01*
G37*
G36*
X83644134Y-98468806D02*
G01*
X83660355Y-98479645D01*
X83671194Y-98495866D01*
X83675000Y-98515000D01*
X83675000Y-99195000D01*
X83671194Y-99214134D01*
X83660355Y-99230355D01*
X83644134Y-99241194D01*
X83625000Y-99245000D01*
X83175000Y-99245000D01*
X83155866Y-99241194D01*
X83139645Y-99230355D01*
X83128806Y-99214134D01*
X83125000Y-99195000D01*
X83125000Y-98515000D01*
X83128806Y-98495866D01*
X83139645Y-98479645D01*
X83155866Y-98468806D01*
X83175000Y-98465000D01*
X83625000Y-98465000D01*
X83644134Y-98468806D01*
G37*
G36*
X96429134Y-97658806D02*
G01*
X96445355Y-97669645D01*
X96456194Y-97685866D01*
X96460000Y-97705000D01*
X96460000Y-98605000D01*
X96456194Y-98624134D01*
X96445355Y-98640355D01*
X96429134Y-98651194D01*
X96410000Y-98655000D01*
X95610000Y-98655000D01*
X95590866Y-98651194D01*
X95574645Y-98640355D01*
X95563806Y-98624134D01*
X95560000Y-98605000D01*
X95560000Y-97705000D01*
X95563806Y-97685866D01*
X95574645Y-97669645D01*
X95590866Y-97658806D01*
X95610000Y-97655000D01*
X96410000Y-97655000D01*
X96429134Y-97658806D01*
G37*
G36*
X97829134Y-97658806D02*
G01*
X97845355Y-97669645D01*
X97856194Y-97685866D01*
X97860000Y-97705000D01*
X97860000Y-98605000D01*
X97856194Y-98624134D01*
X97845355Y-98640355D01*
X97829134Y-98651194D01*
X97810000Y-98655000D01*
X97010000Y-98655000D01*
X96990866Y-98651194D01*
X96974645Y-98640355D01*
X96963806Y-98624134D01*
X96960000Y-98605000D01*
X96960000Y-97705000D01*
X96963806Y-97685866D01*
X96974645Y-97669645D01*
X96990866Y-97658806D01*
X97010000Y-97655000D01*
X97810000Y-97655000D01*
X97829134Y-97658806D01*
G37*
G36*
X74524134Y-97888806D02*
G01*
X74540355Y-97899645D01*
X74551194Y-97915866D01*
X74555000Y-97935000D01*
X74555000Y-98475000D01*
X74551194Y-98494134D01*
X74540355Y-98510355D01*
X74524134Y-98521194D01*
X74505000Y-98525000D01*
X73935000Y-98525000D01*
X73915866Y-98521194D01*
X73899645Y-98510355D01*
X73888806Y-98494134D01*
X73885000Y-98475000D01*
X73885000Y-97935000D01*
X73888806Y-97915866D01*
X73899645Y-97899645D01*
X73915866Y-97888806D01*
X73935000Y-97885000D01*
X74505000Y-97885000D01*
X74524134Y-97888806D01*
G37*
G36*
X75384134Y-97888806D02*
G01*
X75400355Y-97899645D01*
X75411194Y-97915866D01*
X75415000Y-97935000D01*
X75415000Y-98475000D01*
X75411194Y-98494134D01*
X75400355Y-98510355D01*
X75384134Y-98521194D01*
X75365000Y-98525000D01*
X74795000Y-98525000D01*
X74775866Y-98521194D01*
X74759645Y-98510355D01*
X74748806Y-98494134D01*
X74745000Y-98475000D01*
X74745000Y-97935000D01*
X74748806Y-97915866D01*
X74759645Y-97899645D01*
X74775866Y-97888806D01*
X74795000Y-97885000D01*
X75365000Y-97885000D01*
X75384134Y-97888806D01*
G37*
G36*
X100934134Y-96623806D02*
G01*
X100950355Y-96634645D01*
X100961194Y-96650866D01*
X100965000Y-96670000D01*
X100965000Y-98400000D01*
X100961194Y-98419134D01*
X100950355Y-98435355D01*
X100934134Y-98446194D01*
X100915000Y-98450000D01*
X99425000Y-98450000D01*
X99405866Y-98446194D01*
X99389645Y-98435355D01*
X99378806Y-98419134D01*
X99375000Y-98400000D01*
X99375000Y-96670000D01*
X99378806Y-96650866D01*
X99389645Y-96634645D01*
X99405866Y-96623806D01*
X99425000Y-96620000D01*
X100915000Y-96620000D01*
X100934134Y-96623806D01*
G37*
G36*
X104114134Y-96623806D02*
G01*
X104130355Y-96634645D01*
X104141194Y-96650866D01*
X104145000Y-96670000D01*
X104145000Y-98400000D01*
X104141194Y-98419134D01*
X104130355Y-98435355D01*
X104114134Y-98446194D01*
X104095000Y-98450000D01*
X102605000Y-98450000D01*
X102585866Y-98446194D01*
X102569645Y-98435355D01*
X102558806Y-98419134D01*
X102555000Y-98400000D01*
X102555000Y-96670000D01*
X102558806Y-96650866D01*
X102569645Y-96634645D01*
X102585866Y-96623806D01*
X102605000Y-96620000D01*
X104095000Y-96620000D01*
X104114134Y-96623806D01*
G37*
G36*
X77549134Y-95508806D02*
G01*
X77565355Y-95519645D01*
X77576194Y-95535866D01*
X77576561Y-95537711D01*
X77584957Y-95550276D01*
X77625043Y-95550276D01*
X77633439Y-95537710D01*
X77633806Y-95535866D01*
X77644645Y-95519645D01*
X77660866Y-95508806D01*
X77680000Y-95505000D01*
X78180000Y-95505000D01*
X78199134Y-95508806D01*
X78215355Y-95519645D01*
X78226194Y-95535866D01*
X78226561Y-95537711D01*
X78234957Y-95550276D01*
X78275043Y-95550276D01*
X78283439Y-95537710D01*
X78283806Y-95535866D01*
X78294645Y-95519645D01*
X78310866Y-95508806D01*
X78330000Y-95505000D01*
X78830000Y-95505000D01*
X78849134Y-95508806D01*
X78865355Y-95519645D01*
X78876194Y-95535866D01*
X78876561Y-95537711D01*
X78884957Y-95550276D01*
X78925043Y-95550276D01*
X78933439Y-95537710D01*
X78933806Y-95535866D01*
X78944645Y-95519645D01*
X78960866Y-95508806D01*
X78980000Y-95505000D01*
X79480000Y-95505000D01*
X79499134Y-95508806D01*
X79515355Y-95519645D01*
X79526194Y-95535866D01*
X79530000Y-95555000D01*
X79530000Y-95873035D01*
X79551965Y-95895000D01*
X79575000Y-95895000D01*
X79594134Y-95898806D01*
X79610355Y-95909645D01*
X79621194Y-95925866D01*
X79625000Y-95945000D01*
X79625000Y-97945000D01*
X79621194Y-97964134D01*
X79610355Y-97980355D01*
X79594134Y-97991194D01*
X79575000Y-97995000D01*
X76925000Y-97995000D01*
X76905866Y-97991194D01*
X76889645Y-97980355D01*
X76878806Y-97964134D01*
X76875000Y-97945000D01*
X76875000Y-95945000D01*
X76878806Y-95925866D01*
X76889645Y-95909645D01*
X76905866Y-95898806D01*
X76925000Y-95895000D01*
X76928695Y-95895000D01*
X76958035Y-95894999D01*
X76980000Y-95873033D01*
X76980000Y-95558695D01*
X76980000Y-95558694D01*
X76980000Y-95555000D01*
X76983806Y-95535866D01*
X76994645Y-95519645D01*
X77010866Y-95508806D01*
X77030000Y-95505000D01*
X77530000Y-95505000D01*
X77549134Y-95508806D01*
G37*
G36*
X81749134Y-95508806D02*
G01*
X81765355Y-95519645D01*
X81776194Y-95535866D01*
X81776561Y-95537711D01*
X81784957Y-95550276D01*
X81825043Y-95550276D01*
X81833439Y-95537710D01*
X81833806Y-95535866D01*
X81844645Y-95519645D01*
X81860866Y-95508806D01*
X81880000Y-95505000D01*
X82380000Y-95505000D01*
X82399134Y-95508806D01*
X82415355Y-95519645D01*
X82426194Y-95535866D01*
X82426561Y-95537711D01*
X82434957Y-95550276D01*
X82475043Y-95550276D01*
X82483439Y-95537710D01*
X82483806Y-95535866D01*
X82494645Y-95519645D01*
X82510866Y-95508806D01*
X82530000Y-95505000D01*
X83030000Y-95505000D01*
X83049134Y-95508806D01*
X83065355Y-95519645D01*
X83076194Y-95535866D01*
X83076561Y-95537711D01*
X83084957Y-95550276D01*
X83125043Y-95550276D01*
X83133439Y-95537710D01*
X83133806Y-95535866D01*
X83144645Y-95519645D01*
X83160866Y-95508806D01*
X83180000Y-95505000D01*
X83680000Y-95505000D01*
X83699134Y-95508806D01*
X83715355Y-95519645D01*
X83726194Y-95535866D01*
X83730000Y-95555000D01*
X83730000Y-95873035D01*
X83751965Y-95895000D01*
X83775000Y-95895000D01*
X83794134Y-95898806D01*
X83810355Y-95909645D01*
X83821194Y-95925866D01*
X83825000Y-95945000D01*
X83825000Y-97945000D01*
X83821194Y-97964134D01*
X83810355Y-97980355D01*
X83794134Y-97991194D01*
X83775000Y-97995000D01*
X81125000Y-97995000D01*
X81105866Y-97991194D01*
X81089645Y-97980355D01*
X81078806Y-97964134D01*
X81075000Y-97945000D01*
X81075000Y-95945000D01*
X81078806Y-95925866D01*
X81089645Y-95909645D01*
X81105866Y-95898806D01*
X81125000Y-95895000D01*
X81128695Y-95895000D01*
X81158035Y-95894999D01*
X81180000Y-95873033D01*
X81180000Y-95558695D01*
X81180000Y-95558694D01*
X81180000Y-95555000D01*
X81183806Y-95535866D01*
X81194645Y-95519645D01*
X81210866Y-95508806D01*
X81230000Y-95505000D01*
X81730000Y-95505000D01*
X81749134Y-95508806D01*
G37*
G36*
X92786824Y-94743682D02*
G01*
X92995757Y-94811569D01*
X93191498Y-94911304D01*
X93369227Y-95040432D01*
X93524568Y-95195773D01*
X93653696Y-95373502D01*
X93753431Y-95569243D01*
X93821318Y-95778176D01*
X93855684Y-95995157D01*
X93855684Y-96214843D01*
X93821318Y-96431824D01*
X93753431Y-96640757D01*
X93653696Y-96836498D01*
X93524568Y-97014227D01*
X93369227Y-97169568D01*
X93191498Y-97298696D01*
X92995757Y-97398431D01*
X92786824Y-97466318D01*
X92569843Y-97500684D01*
X92350157Y-97500684D01*
X92133176Y-97466318D01*
X91924243Y-97398431D01*
X91728502Y-97298696D01*
X91550773Y-97169568D01*
X91395432Y-97014227D01*
X91266304Y-96836498D01*
X91166569Y-96640757D01*
X91098682Y-96431824D01*
X91064316Y-96214843D01*
X91064316Y-95995157D01*
X91098682Y-95778176D01*
X91166569Y-95569243D01*
X91266304Y-95373502D01*
X91395432Y-95195773D01*
X91550773Y-95040432D01*
X91728502Y-94911304D01*
X91924243Y-94811569D01*
X92133176Y-94743682D01*
X92350157Y-94709316D01*
X92569843Y-94709316D01*
X92786824Y-94743682D01*
G37*
G36*
X87524134Y-95863806D02*
G01*
X87540355Y-95874645D01*
X87551194Y-95890866D01*
X87555000Y-95910000D01*
X87555000Y-97260000D01*
X87551194Y-97279134D01*
X87540355Y-97295355D01*
X87524134Y-97306194D01*
X87505000Y-97310000D01*
X86095000Y-97310000D01*
X86075866Y-97306194D01*
X86059645Y-97295355D01*
X86048806Y-97279134D01*
X86045000Y-97260000D01*
X86045000Y-95910000D01*
X86048806Y-95890866D01*
X86059645Y-95874645D01*
X86075866Y-95863806D01*
X86095000Y-95860000D01*
X87505000Y-95860000D01*
X87524134Y-95863806D01*
G37*
G36*
X89524134Y-95863806D02*
G01*
X89540355Y-95874645D01*
X89551194Y-95890866D01*
X89555000Y-95910000D01*
X89555000Y-97260000D01*
X89551194Y-97279134D01*
X89540355Y-97295355D01*
X89524134Y-97306194D01*
X89505000Y-97310000D01*
X88095000Y-97310000D01*
X88075866Y-97306194D01*
X88059645Y-97295355D01*
X88048806Y-97279134D01*
X88045000Y-97260000D01*
X88045000Y-95910000D01*
X88048806Y-95890866D01*
X88059645Y-95874645D01*
X88075866Y-95863806D01*
X88095000Y-95860000D01*
X89505000Y-95860000D01*
X89524134Y-95863806D01*
G37*
G36*
X74524134Y-95788806D02*
G01*
X74540355Y-95799645D01*
X74551194Y-95815866D01*
X74555000Y-95835000D01*
X74555000Y-96375000D01*
X74551194Y-96394134D01*
X74540355Y-96410355D01*
X74524134Y-96421194D01*
X74505000Y-96425000D01*
X73935000Y-96425000D01*
X73915866Y-96421194D01*
X73899645Y-96410355D01*
X73888806Y-96394134D01*
X73885000Y-96375000D01*
X73885000Y-95835000D01*
X73888806Y-95815866D01*
X73899645Y-95799645D01*
X73915866Y-95788806D01*
X73935000Y-95785000D01*
X74505000Y-95785000D01*
X74524134Y-95788806D01*
G37*
G36*
X75384134Y-95788806D02*
G01*
X75400355Y-95799645D01*
X75411194Y-95815866D01*
X75415000Y-95835000D01*
X75415000Y-96375000D01*
X75411194Y-96394134D01*
X75400355Y-96410355D01*
X75384134Y-96421194D01*
X75365000Y-96425000D01*
X74795000Y-96425000D01*
X74775866Y-96421194D01*
X74759645Y-96410355D01*
X74748806Y-96394134D01*
X74745000Y-96375000D01*
X74745000Y-95835000D01*
X74748806Y-95815866D01*
X74759645Y-95799645D01*
X74775866Y-95788806D01*
X74795000Y-95785000D01*
X75365000Y-95785000D01*
X75384134Y-95788806D01*
G37*
G36*
X96429134Y-95138806D02*
G01*
X96445355Y-95149645D01*
X96456194Y-95165866D01*
X96460000Y-95185000D01*
X96460000Y-96085000D01*
X96456194Y-96104134D01*
X96445355Y-96120355D01*
X96429134Y-96131194D01*
X96410000Y-96135000D01*
X95610000Y-96135000D01*
X95590866Y-96131194D01*
X95574645Y-96120355D01*
X95563806Y-96104134D01*
X95560000Y-96085000D01*
X95560000Y-95185000D01*
X95563806Y-95165866D01*
X95574645Y-95149645D01*
X95590866Y-95138806D01*
X95610000Y-95135000D01*
X96410000Y-95135000D01*
X96429134Y-95138806D01*
G37*
G36*
X97829134Y-95138806D02*
G01*
X97845355Y-95149645D01*
X97856194Y-95165866D01*
X97860000Y-95185000D01*
X97860000Y-96085000D01*
X97856194Y-96104134D01*
X97845355Y-96120355D01*
X97829134Y-96131194D01*
X97810000Y-96135000D01*
X97010000Y-96135000D01*
X96990866Y-96131194D01*
X96974645Y-96120355D01*
X96963806Y-96104134D01*
X96960000Y-96085000D01*
X96960000Y-95185000D01*
X96963806Y-95165866D01*
X96974645Y-95149645D01*
X96990866Y-95138806D01*
X97010000Y-95135000D01*
X97810000Y-95135000D01*
X97829134Y-95138806D01*
G37*
G36*
X100934134Y-93343806D02*
G01*
X100950355Y-93354645D01*
X100961194Y-93370866D01*
X100965000Y-93390000D01*
X100965000Y-95120000D01*
X100961194Y-95139134D01*
X100950355Y-95155355D01*
X100934134Y-95166194D01*
X100915000Y-95170000D01*
X99425000Y-95170000D01*
X99405866Y-95166194D01*
X99389645Y-95155355D01*
X99378806Y-95139134D01*
X99375000Y-95120000D01*
X99375000Y-93390000D01*
X99378806Y-93370866D01*
X99389645Y-93354645D01*
X99405866Y-93343806D01*
X99425000Y-93340000D01*
X100915000Y-93340000D01*
X100934134Y-93343806D01*
G37*
G36*
X104114134Y-93343806D02*
G01*
X104130355Y-93354645D01*
X104141194Y-93370866D01*
X104145000Y-93390000D01*
X104145000Y-95120000D01*
X104141194Y-95139134D01*
X104130355Y-95155355D01*
X104114134Y-95166194D01*
X104095000Y-95170000D01*
X102605000Y-95170000D01*
X102585866Y-95166194D01*
X102569645Y-95155355D01*
X102558806Y-95139134D01*
X102555000Y-95120000D01*
X102555000Y-93390000D01*
X102558806Y-93370866D01*
X102569645Y-93354645D01*
X102585866Y-93343806D01*
X102605000Y-93340000D01*
X104095000Y-93340000D01*
X104114134Y-93343806D01*
G37*
G36*
X87524134Y-92963806D02*
G01*
X87540355Y-92974645D01*
X87551194Y-92990866D01*
X87555000Y-93010000D01*
X87555000Y-94360000D01*
X87551194Y-94379134D01*
X87540355Y-94395355D01*
X87524134Y-94406194D01*
X87505000Y-94410000D01*
X86095000Y-94410000D01*
X86075866Y-94406194D01*
X86059645Y-94395355D01*
X86048806Y-94379134D01*
X86045000Y-94360000D01*
X86045000Y-93010000D01*
X86048806Y-92990866D01*
X86059645Y-92974645D01*
X86075866Y-92963806D01*
X86095000Y-92960000D01*
X87505000Y-92960000D01*
X87524134Y-92963806D01*
G37*
G36*
X89524134Y-92963806D02*
G01*
X89540355Y-92974645D01*
X89551194Y-92990866D01*
X89555000Y-93010000D01*
X89555000Y-94360000D01*
X89551194Y-94379134D01*
X89540355Y-94395355D01*
X89524134Y-94406194D01*
X89505000Y-94410000D01*
X88095000Y-94410000D01*
X88075866Y-94406194D01*
X88059645Y-94395355D01*
X88048806Y-94379134D01*
X88045000Y-94360000D01*
X88045000Y-93010000D01*
X88048806Y-92990866D01*
X88059645Y-92974645D01*
X88075866Y-92963806D01*
X88095000Y-92960000D01*
X89505000Y-92960000D01*
X89524134Y-92963806D01*
G37*
G36*
X96429134Y-92618806D02*
G01*
X96445355Y-92629645D01*
X96456194Y-92645866D01*
X96460000Y-92665000D01*
X96460000Y-93565000D01*
X96456194Y-93584134D01*
X96445355Y-93600355D01*
X96429134Y-93611194D01*
X96410000Y-93615000D01*
X95610000Y-93615000D01*
X95590866Y-93611194D01*
X95574645Y-93600355D01*
X95563806Y-93584134D01*
X95560000Y-93565000D01*
X95560000Y-92665000D01*
X95563806Y-92645866D01*
X95574645Y-92629645D01*
X95590866Y-92618806D01*
X95610000Y-92615000D01*
X96410000Y-92615000D01*
X96429134Y-92618806D01*
G37*
G36*
X97829134Y-92618806D02*
G01*
X97845355Y-92629645D01*
X97856194Y-92645866D01*
X97860000Y-92665000D01*
X97860000Y-93565000D01*
X97856194Y-93584134D01*
X97845355Y-93600355D01*
X97829134Y-93611194D01*
X97810000Y-93615000D01*
X97010000Y-93615000D01*
X96990866Y-93611194D01*
X96974645Y-93600355D01*
X96963806Y-93584134D01*
X96960000Y-93565000D01*
X96960000Y-92665000D01*
X96963806Y-92645866D01*
X96974645Y-92629645D01*
X96990866Y-92618806D01*
X97010000Y-92615000D01*
X97810000Y-92615000D01*
X97829134Y-92618806D01*
G37*
G36*
X92786824Y-90283682D02*
G01*
X92995757Y-90351569D01*
X93191498Y-90451304D01*
X93369227Y-90580432D01*
X93524568Y-90735773D01*
X93653696Y-90913502D01*
X93753431Y-91109243D01*
X93821318Y-91318176D01*
X93855684Y-91535157D01*
X93855684Y-91754843D01*
X93821318Y-91971824D01*
X93753431Y-92180757D01*
X93653696Y-92376498D01*
X93524568Y-92554227D01*
X93369227Y-92709568D01*
X93191498Y-92838696D01*
X92995757Y-92938431D01*
X92786824Y-93006318D01*
X92569843Y-93040684D01*
X92350157Y-93040684D01*
X92133176Y-93006318D01*
X91924243Y-92938431D01*
X91728502Y-92838696D01*
X91550773Y-92709568D01*
X91395432Y-92554227D01*
X91266304Y-92376498D01*
X91166569Y-92180757D01*
X91098682Y-91971824D01*
X91064316Y-91754843D01*
X91064316Y-91535157D01*
X91098682Y-91318176D01*
X91166569Y-91109243D01*
X91266304Y-90913502D01*
X91395432Y-90735773D01*
X91550773Y-90580432D01*
X91728502Y-90451304D01*
X91924243Y-90351569D01*
X92133176Y-90283682D01*
X92350157Y-90249316D01*
X92569843Y-90249316D01*
X92786824Y-90283682D01*
G37*
G36*
X100934134Y-90063806D02*
G01*
X100950355Y-90074645D01*
X100961194Y-90090866D01*
X100965000Y-90110000D01*
X100965000Y-91840000D01*
X100961194Y-91859134D01*
X100950355Y-91875355D01*
X100934134Y-91886194D01*
X100915000Y-91890000D01*
X99425000Y-91890000D01*
X99405866Y-91886194D01*
X99389645Y-91875355D01*
X99378806Y-91859134D01*
X99375000Y-91840000D01*
X99375000Y-90110000D01*
X99378806Y-90090866D01*
X99389645Y-90074645D01*
X99405866Y-90063806D01*
X99425000Y-90060000D01*
X100915000Y-90060000D01*
X100934134Y-90063806D01*
G37*
G36*
X104114134Y-90063806D02*
G01*
X104130355Y-90074645D01*
X104141194Y-90090866D01*
X104145000Y-90110000D01*
X104145000Y-91840000D01*
X104141194Y-91859134D01*
X104130355Y-91875355D01*
X104114134Y-91886194D01*
X104095000Y-91890000D01*
X102605000Y-91890000D01*
X102585866Y-91886194D01*
X102569645Y-91875355D01*
X102558806Y-91859134D01*
X102555000Y-91840000D01*
X102555000Y-90110000D01*
X102558806Y-90090866D01*
X102569645Y-90074645D01*
X102585866Y-90063806D01*
X102605000Y-90060000D01*
X104095000Y-90060000D01*
X104114134Y-90063806D01*
G37*
G36*
X87524134Y-90063806D02*
G01*
X87540355Y-90074645D01*
X87551194Y-90090866D01*
X87555000Y-90110000D01*
X87555000Y-91460000D01*
X87551194Y-91479134D01*
X87540355Y-91495355D01*
X87524134Y-91506194D01*
X87505000Y-91510000D01*
X86095000Y-91510000D01*
X86075866Y-91506194D01*
X86059645Y-91495355D01*
X86048806Y-91479134D01*
X86045000Y-91460000D01*
X86045000Y-90110000D01*
X86048806Y-90090866D01*
X86059645Y-90074645D01*
X86075866Y-90063806D01*
X86095000Y-90060000D01*
X87505000Y-90060000D01*
X87524134Y-90063806D01*
G37*
G36*
X89524134Y-90063806D02*
G01*
X89540355Y-90074645D01*
X89551194Y-90090866D01*
X89555000Y-90110000D01*
X89555000Y-91460000D01*
X89551194Y-91479134D01*
X89540355Y-91495355D01*
X89524134Y-91506194D01*
X89505000Y-91510000D01*
X88095000Y-91510000D01*
X88075866Y-91506194D01*
X88059645Y-91495355D01*
X88048806Y-91479134D01*
X88045000Y-91460000D01*
X88045000Y-90110000D01*
X88048806Y-90090866D01*
X88059645Y-90074645D01*
X88075866Y-90063806D01*
X88095000Y-90060000D01*
X89505000Y-90060000D01*
X89524134Y-90063806D01*
G37*
G36*
X96429134Y-90098806D02*
G01*
X96445355Y-90109645D01*
X96456194Y-90125866D01*
X96460000Y-90145000D01*
X96460000Y-91045000D01*
X96456194Y-91064134D01*
X96445355Y-91080355D01*
X96429134Y-91091194D01*
X96410000Y-91095000D01*
X95610000Y-91095000D01*
X95590866Y-91091194D01*
X95574645Y-91080355D01*
X95563806Y-91064134D01*
X95560000Y-91045000D01*
X95560000Y-90145000D01*
X95563806Y-90125866D01*
X95574645Y-90109645D01*
X95590866Y-90098806D01*
X95610000Y-90095000D01*
X96410000Y-90095000D01*
X96429134Y-90098806D01*
G37*
G36*
X97829134Y-90098806D02*
G01*
X97845355Y-90109645D01*
X97856194Y-90125866D01*
X97860000Y-90145000D01*
X97860000Y-91045000D01*
X97856194Y-91064134D01*
X97845355Y-91080355D01*
X97829134Y-91091194D01*
X97810000Y-91095000D01*
X97010000Y-91095000D01*
X96990866Y-91091194D01*
X96974645Y-91080355D01*
X96963806Y-91064134D01*
X96960000Y-91045000D01*
X96960000Y-90145000D01*
X96963806Y-90125866D01*
X96974645Y-90109645D01*
X96990866Y-90098806D01*
X97010000Y-90095000D01*
X97810000Y-90095000D01*
X97829134Y-90098806D01*
G37*
G36*
X78289134Y-88078806D02*
G01*
X78305355Y-88089645D01*
X78316194Y-88105866D01*
X78320000Y-88125000D01*
X78320000Y-90425000D01*
X78316194Y-90444134D01*
X78305355Y-90460355D01*
X78289134Y-90471194D01*
X78270000Y-90475000D01*
X75970000Y-90475000D01*
X75950866Y-90471194D01*
X75934645Y-90460355D01*
X75923806Y-90444134D01*
X75920000Y-90425000D01*
X75920000Y-88125000D01*
X75923806Y-88105866D01*
X75934645Y-88089645D01*
X75950866Y-88078806D01*
X75970000Y-88075000D01*
X78270000Y-88075000D01*
X78289134Y-88078806D01*
G37*
G36*
X82480134Y-88108156D02*
G01*
X82659220Y-88166345D01*
X82826998Y-88251832D01*
X82979338Y-88362513D01*
X83112487Y-88495662D01*
X83223168Y-88648002D01*
X83308655Y-88815780D01*
X83366844Y-88994866D01*
X83396301Y-89180849D01*
X83396301Y-89369151D01*
X83366844Y-89555134D01*
X83308655Y-89734220D01*
X83223168Y-89901998D01*
X83112487Y-90054338D01*
X82979338Y-90187487D01*
X82826998Y-90298168D01*
X82659220Y-90383655D01*
X82480134Y-90441844D01*
X82294151Y-90471301D01*
X82105849Y-90471301D01*
X81919866Y-90441844D01*
X81740780Y-90383655D01*
X81573002Y-90298168D01*
X81420662Y-90187487D01*
X81287513Y-90054338D01*
X81176832Y-89901998D01*
X81091345Y-89734220D01*
X81033156Y-89555134D01*
X81003699Y-89369151D01*
X81003699Y-89180849D01*
X81033156Y-88994866D01*
X81091345Y-88815780D01*
X81176832Y-88648002D01*
X81287513Y-88495662D01*
X81420662Y-88362513D01*
X81573002Y-88251832D01*
X81740780Y-88166345D01*
X81919866Y-88108156D01*
X82105849Y-88078699D01*
X82294151Y-88078699D01*
X82480134Y-88108156D01*
G37*
G36*
X86904134Y-87648806D02*
G01*
X86920355Y-87659645D01*
X86931194Y-87675866D01*
X86935000Y-87695000D01*
X86935000Y-88555000D01*
X86931194Y-88574134D01*
X86920355Y-88590355D01*
X86904134Y-88601194D01*
X86885000Y-88605000D01*
X86075000Y-88605000D01*
X86055866Y-88601194D01*
X86039645Y-88590355D01*
X86028806Y-88574134D01*
X86025000Y-88555000D01*
X86025000Y-87695000D01*
X86028806Y-87675866D01*
X86039645Y-87659645D01*
X86055866Y-87648806D01*
X86075000Y-87645000D01*
X86885000Y-87645000D01*
X86904134Y-87648806D01*
G37*
G36*
X88404134Y-87648806D02*
G01*
X88420355Y-87659645D01*
X88431194Y-87675866D01*
X88435000Y-87695000D01*
X88435000Y-88555000D01*
X88431194Y-88574134D01*
X88420355Y-88590355D01*
X88404134Y-88601194D01*
X88385000Y-88605000D01*
X87575000Y-88605000D01*
X87555866Y-88601194D01*
X87539645Y-88590355D01*
X87528806Y-88574134D01*
X87525000Y-88555000D01*
X87525000Y-87695000D01*
X87528806Y-87675866D01*
X87539645Y-87659645D01*
X87555866Y-87648806D01*
X87575000Y-87645000D01*
X88385000Y-87645000D01*
X88404134Y-87648806D01*
G37*
G36*
X86904134Y-85228806D02*
G01*
X86920355Y-85239645D01*
X86931194Y-85255866D01*
X86935000Y-85275000D01*
X86935000Y-86135000D01*
X86931194Y-86154134D01*
X86920355Y-86170355D01*
X86904134Y-86181194D01*
X86885000Y-86185000D01*
X86075000Y-86185000D01*
X86055866Y-86181194D01*
X86039645Y-86170355D01*
X86028806Y-86154134D01*
X86025000Y-86135000D01*
X86025000Y-85275000D01*
X86028806Y-85255866D01*
X86039645Y-85239645D01*
X86055866Y-85228806D01*
X86075000Y-85225000D01*
X86885000Y-85225000D01*
X86904134Y-85228806D01*
G37*
G36*
X88404134Y-85228806D02*
G01*
X88420355Y-85239645D01*
X88431194Y-85255866D01*
X88435000Y-85275000D01*
X88435000Y-86135000D01*
X88431194Y-86154134D01*
X88420355Y-86170355D01*
X88404134Y-86181194D01*
X88385000Y-86185000D01*
X87575000Y-86185000D01*
X87555866Y-86181194D01*
X87539645Y-86170355D01*
X87528806Y-86154134D01*
X87525000Y-86135000D01*
X87525000Y-85275000D01*
X87528806Y-85255866D01*
X87539645Y-85239645D01*
X87555866Y-85228806D01*
X87575000Y-85225000D01*
X88385000Y-85225000D01*
X88404134Y-85228806D01*
G37*
G36*
X86904134Y-82808806D02*
G01*
X86920355Y-82819645D01*
X86931194Y-82835866D01*
X86935000Y-82855000D01*
X86935000Y-83715000D01*
X86931194Y-83734134D01*
X86920355Y-83750355D01*
X86904134Y-83761194D01*
X86885000Y-83765000D01*
X86075000Y-83765000D01*
X86055866Y-83761194D01*
X86039645Y-83750355D01*
X86028806Y-83734134D01*
X86025000Y-83715000D01*
X86025000Y-82855000D01*
X86028806Y-82835866D01*
X86039645Y-82819645D01*
X86055866Y-82808806D01*
X86075000Y-82805000D01*
X86885000Y-82805000D01*
X86904134Y-82808806D01*
G37*
G36*
X88404134Y-82808806D02*
G01*
X88420355Y-82819645D01*
X88431194Y-82835866D01*
X88435000Y-82855000D01*
X88435000Y-83715000D01*
X88431194Y-83734134D01*
X88420355Y-83750355D01*
X88404134Y-83761194D01*
X88385000Y-83765000D01*
X87575000Y-83765000D01*
X87555866Y-83761194D01*
X87539645Y-83750355D01*
X87528806Y-83734134D01*
X87525000Y-83715000D01*
X87525000Y-82855000D01*
X87528806Y-82835866D01*
X87539645Y-82819645D01*
X87555866Y-82808806D01*
X87575000Y-82805000D01*
X88385000Y-82805000D01*
X88404134Y-82808806D01*
G37*
G36*
X93419134Y-76998806D02*
G01*
X93435355Y-77009645D01*
X93446194Y-77025866D01*
X93450000Y-77045000D01*
X93450000Y-82045000D01*
X93446194Y-82064134D01*
X93435355Y-82080355D01*
X93419134Y-82091194D01*
X93400000Y-82095000D01*
X89670000Y-82095000D01*
X89650866Y-82091194D01*
X89634645Y-82080355D01*
X89623806Y-82064134D01*
X89620000Y-82045000D01*
X89620000Y-77045000D01*
X89623806Y-77025866D01*
X89634645Y-77009645D01*
X89650866Y-76998806D01*
X89670000Y-76995000D01*
X93400000Y-76995000D01*
X93419134Y-76998806D01*
G37*
G36*
X104959134Y-76998806D02*
G01*
X104975355Y-77009645D01*
X104986194Y-77025866D01*
X104990000Y-77045000D01*
X104990000Y-82045000D01*
X104986194Y-82064134D01*
X104975355Y-82080355D01*
X104959134Y-82091194D01*
X104940000Y-82095000D01*
X101210000Y-82095000D01*
X101190866Y-82091194D01*
X101174645Y-82080355D01*
X101163806Y-82064134D01*
X101160000Y-82045000D01*
X101160000Y-77045000D01*
X101163806Y-77025866D01*
X101174645Y-77009645D01*
X101190866Y-76998806D01*
X101210000Y-76995000D01*
X104940000Y-76995000D01*
X104959134Y-76998806D01*
G37*
G36*
X86904134Y-80388806D02*
G01*
X86920355Y-80399645D01*
X86931194Y-80415866D01*
X86935000Y-80435000D01*
X86935000Y-81295000D01*
X86931194Y-81314134D01*
X86920355Y-81330355D01*
X86904134Y-81341194D01*
X86885000Y-81345000D01*
X86075000Y-81345000D01*
X86055866Y-81341194D01*
X86039645Y-81330355D01*
X86028806Y-81314134D01*
X86025000Y-81295000D01*
X86025000Y-80435000D01*
X86028806Y-80415866D01*
X86039645Y-80399645D01*
X86055866Y-80388806D01*
X86075000Y-80385000D01*
X86885000Y-80385000D01*
X86904134Y-80388806D01*
G37*
G36*
X88404134Y-80388806D02*
G01*
X88420355Y-80399645D01*
X88431194Y-80415866D01*
X88435000Y-80435000D01*
X88435000Y-81295000D01*
X88431194Y-81314134D01*
X88420355Y-81330355D01*
X88404134Y-81341194D01*
X88385000Y-81345000D01*
X87575000Y-81345000D01*
X87555866Y-81341194D01*
X87539645Y-81330355D01*
X87528806Y-81314134D01*
X87525000Y-81295000D01*
X87525000Y-80435000D01*
X87528806Y-80415866D01*
X87539645Y-80399645D01*
X87555866Y-80388806D01*
X87575000Y-80385000D01*
X88385000Y-80385000D01*
X88404134Y-80388806D01*
G37*
G36*
X78289134Y-76748806D02*
G01*
X78305355Y-76759645D01*
X78316194Y-76775866D01*
X78320000Y-76795000D01*
X78320000Y-79095000D01*
X78316194Y-79114134D01*
X78305355Y-79130355D01*
X78289134Y-79141194D01*
X78270000Y-79145000D01*
X75970000Y-79145000D01*
X75950866Y-79141194D01*
X75934645Y-79130355D01*
X75923806Y-79114134D01*
X75920000Y-79095000D01*
X75920000Y-76795000D01*
X75923806Y-76775866D01*
X75934645Y-76759645D01*
X75950866Y-76748806D01*
X75970000Y-76745000D01*
X78270000Y-76745000D01*
X78289134Y-76748806D01*
G37*
G36*
X82480134Y-76778156D02*
G01*
X82659220Y-76836345D01*
X82826998Y-76921832D01*
X82979338Y-77032513D01*
X83112487Y-77165662D01*
X83223168Y-77318002D01*
X83308655Y-77485780D01*
X83366844Y-77664866D01*
X83396301Y-77850849D01*
X83396301Y-78039151D01*
X83366844Y-78225134D01*
X83308655Y-78404220D01*
X83223168Y-78571998D01*
X83112487Y-78724338D01*
X82979338Y-78857487D01*
X82826998Y-78968168D01*
X82659220Y-79053655D01*
X82480134Y-79111844D01*
X82294151Y-79141301D01*
X82105849Y-79141301D01*
X81919866Y-79111844D01*
X81740780Y-79053655D01*
X81573002Y-78968168D01*
X81420662Y-78857487D01*
X81287513Y-78724338D01*
X81176832Y-78571998D01*
X81091345Y-78404220D01*
X81033156Y-78225134D01*
X81003699Y-78039151D01*
X81003699Y-77850849D01*
X81033156Y-77664866D01*
X81091345Y-77485780D01*
X81176832Y-77318002D01*
X81287513Y-77165662D01*
X81420662Y-77032513D01*
X81573002Y-76921832D01*
X81740780Y-76836345D01*
X81919866Y-76778156D01*
X82105849Y-76748699D01*
X82294151Y-76748699D01*
X82480134Y-76778156D01*
G37*
G36*
X123010894Y-72993093D02*
G01*
X123344348Y-73069202D01*
X123667184Y-73182167D01*
X123975343Y-73330569D01*
X124264947Y-73512539D01*
X124532357Y-73725791D01*
X124774209Y-73967643D01*
X124987461Y-74235053D01*
X125169431Y-74524657D01*
X125317833Y-74832816D01*
X125430798Y-75155652D01*
X125506907Y-75489106D01*
X125545202Y-75828985D01*
X125545202Y-76171015D01*
X125506907Y-76510894D01*
X125430798Y-76844348D01*
X125317833Y-77167184D01*
X125169431Y-77475343D01*
X124987461Y-77764947D01*
X124774209Y-78032357D01*
X124532357Y-78274209D01*
X124264947Y-78487461D01*
X123975343Y-78669431D01*
X123667184Y-78817833D01*
X123344348Y-78930798D01*
X123010894Y-79006907D01*
X122671015Y-79045202D01*
X122328985Y-79045202D01*
X121989106Y-79006907D01*
X121655652Y-78930798D01*
X121332816Y-78817833D01*
X121024657Y-78669431D01*
X120735053Y-78487461D01*
X120467643Y-78274209D01*
X120225791Y-78032357D01*
X120012539Y-77764947D01*
X119830569Y-77475343D01*
X119682167Y-77167184D01*
X119569202Y-76844348D01*
X119493093Y-76510894D01*
X119454798Y-76171015D01*
X119454798Y-75828985D01*
X119493093Y-75489106D01*
X119569202Y-75155652D01*
X119682167Y-74832816D01*
X119830569Y-74524657D01*
X120012539Y-74235053D01*
X120225791Y-73967643D01*
X120467643Y-73725791D01*
X120735053Y-73512539D01*
X121024657Y-73330569D01*
X121332816Y-73182167D01*
X121655652Y-73069202D01*
X121989106Y-72993093D01*
X122328985Y-72954798D01*
X122671015Y-72954798D01*
X123010894Y-72993093D01*
G37*
G36*
X165010894Y-72993093D02*
G01*
X165344348Y-73069202D01*
X165667184Y-73182167D01*
X165975343Y-73330569D01*
X166264947Y-73512539D01*
X166532357Y-73725791D01*
X166774209Y-73967643D01*
X166987461Y-74235053D01*
X167169431Y-74524657D01*
X167317833Y-74832816D01*
X167430798Y-75155652D01*
X167506907Y-75489106D01*
X167545202Y-75828985D01*
X167545202Y-76171015D01*
X167506907Y-76510894D01*
X167430798Y-76844348D01*
X167317833Y-77167184D01*
X167169431Y-77475343D01*
X166987461Y-77764947D01*
X166774209Y-78032357D01*
X166532357Y-78274209D01*
X166264947Y-78487461D01*
X165975343Y-78669431D01*
X165667184Y-78817833D01*
X165344348Y-78930798D01*
X165010894Y-79006907D01*
X164671015Y-79045202D01*
X164328985Y-79045202D01*
X163989106Y-79006907D01*
X163655652Y-78930798D01*
X163332816Y-78817833D01*
X163024657Y-78669431D01*
X162735053Y-78487461D01*
X162467643Y-78274209D01*
X162225791Y-78032357D01*
X162012539Y-77764947D01*
X161830569Y-77475343D01*
X161682167Y-77167184D01*
X161569202Y-76844348D01*
X161493093Y-76510894D01*
X161454798Y-76171015D01*
X161454798Y-75828985D01*
X161493093Y-75489106D01*
X161569202Y-75155652D01*
X161682167Y-74832816D01*
X161830569Y-74524657D01*
X162012539Y-74235053D01*
X162225791Y-73967643D01*
X162467643Y-73725791D01*
X162735053Y-73512539D01*
X163024657Y-73330569D01*
X163332816Y-73182167D01*
X163655652Y-73069202D01*
X163989106Y-72993093D01*
X164328985Y-72954798D01*
X164671015Y-72954798D01*
X165010894Y-72993093D01*
G37*
G36*
X86904134Y-77968806D02*
G01*
X86920355Y-77979645D01*
X86931194Y-77995866D01*
X86935000Y-78015000D01*
X86935000Y-78875000D01*
X86931194Y-78894134D01*
X86920355Y-78910355D01*
X86904134Y-78921194D01*
X86885000Y-78925000D01*
X86075000Y-78925000D01*
X86055866Y-78921194D01*
X86039645Y-78910355D01*
X86028806Y-78894134D01*
X86025000Y-78875000D01*
X86025000Y-78015000D01*
X86028806Y-77995866D01*
X86039645Y-77979645D01*
X86055866Y-77968806D01*
X86075000Y-77965000D01*
X86885000Y-77965000D01*
X86904134Y-77968806D01*
G37*
G36*
X88404134Y-77968806D02*
G01*
X88420355Y-77979645D01*
X88431194Y-77995866D01*
X88435000Y-78015000D01*
X88435000Y-78875000D01*
X88431194Y-78894134D01*
X88420355Y-78910355D01*
X88404134Y-78921194D01*
X88385000Y-78925000D01*
X87575000Y-78925000D01*
X87555866Y-78921194D01*
X87539645Y-78910355D01*
X87528806Y-78894134D01*
X87525000Y-78875000D01*
X87525000Y-78015000D01*
X87528806Y-77995866D01*
X87539645Y-77979645D01*
X87555866Y-77968806D01*
X87575000Y-77965000D01*
X88385000Y-77965000D01*
X88404134Y-77968806D01*
G37*
G36*
X86904134Y-75548806D02*
G01*
X86920355Y-75559645D01*
X86931194Y-75575866D01*
X86935000Y-75595000D01*
X86935000Y-76455000D01*
X86931194Y-76474134D01*
X86920355Y-76490355D01*
X86904134Y-76501194D01*
X86885000Y-76505000D01*
X86075000Y-76505000D01*
X86055866Y-76501194D01*
X86039645Y-76490355D01*
X86028806Y-76474134D01*
X86025000Y-76455000D01*
X86025000Y-75595000D01*
X86028806Y-75575866D01*
X86039645Y-75559645D01*
X86055866Y-75548806D01*
X86075000Y-75545000D01*
X86885000Y-75545000D01*
X86904134Y-75548806D01*
G37*
G36*
X88404134Y-75548806D02*
G01*
X88420355Y-75559645D01*
X88431194Y-75575866D01*
X88435000Y-75595000D01*
X88435000Y-76455000D01*
X88431194Y-76474134D01*
X88420355Y-76490355D01*
X88404134Y-76501194D01*
X88385000Y-76505000D01*
X87575000Y-76505000D01*
X87555866Y-76501194D01*
X87539645Y-76490355D01*
X87528806Y-76474134D01*
X87525000Y-76455000D01*
X87525000Y-75595000D01*
X87528806Y-75575866D01*
X87539645Y-75559645D01*
X87555866Y-75548806D01*
X87575000Y-75545000D01*
X88385000Y-75545000D01*
X88404134Y-75548806D01*
G37*
G36*
X86904134Y-73128806D02*
G01*
X86920355Y-73139645D01*
X86931194Y-73155866D01*
X86935000Y-73175000D01*
X86935000Y-74035000D01*
X86931194Y-74054134D01*
X86920355Y-74070355D01*
X86904134Y-74081194D01*
X86885000Y-74085000D01*
X86075000Y-74085000D01*
X86055866Y-74081194D01*
X86039645Y-74070355D01*
X86028806Y-74054134D01*
X86025000Y-74035000D01*
X86025000Y-73175000D01*
X86028806Y-73155866D01*
X86039645Y-73139645D01*
X86055866Y-73128806D01*
X86075000Y-73125000D01*
X86885000Y-73125000D01*
X86904134Y-73128806D01*
G37*
G36*
X88404134Y-73128806D02*
G01*
X88420355Y-73139645D01*
X88431194Y-73155866D01*
X88435000Y-73175000D01*
X88435000Y-74035000D01*
X88431194Y-74054134D01*
X88420355Y-74070355D01*
X88404134Y-74081194D01*
X88385000Y-74085000D01*
X87575000Y-74085000D01*
X87555866Y-74081194D01*
X87539645Y-74070355D01*
X87528806Y-74054134D01*
X87525000Y-74035000D01*
X87525000Y-73175000D01*
X87528806Y-73155866D01*
X87539645Y-73139645D01*
X87555866Y-73128806D01*
X87575000Y-73125000D01*
X88385000Y-73125000D01*
X88404134Y-73128806D01*
G37*
%LPD*%
M02*
