%TF.GenerationSoftware,KiCad,Pcbnew,9.0.1*%
%TF.CreationDate,2025-05-14T23:35:05-05:00*%
%TF.ProjectId,Project-Star,50726f6a-6563-4742-9d53-7461722e6b69,rev?*%
%TF.SameCoordinates,Original*%
%TF.FileFunction,Legend,Top*%
%TF.FilePolarity,Positive*%
%FSLAX46Y46*%
G04 Gerber Fmt 4.6, Leading zero omitted, Abs format (unit mm)*
G04 Created by KiCad (PCBNEW 9.0.1) date 2025-05-14 23:35:05*
%MOMM*%
%LPD*%
G01*
G04 APERTURE LIST*
%ADD10C,0.300000*%
%ADD11C,0.150000*%
%ADD12C,0.100000*%
G04 APERTURE END LIST*
D10*
X122340225Y-93050828D02*
X122840225Y-94550828D01*
X122840225Y-94550828D02*
X123340225Y-93050828D01*
X123840224Y-94550828D02*
X123840224Y-93050828D01*
X124554510Y-94550828D02*
X124554510Y-93050828D01*
X124554510Y-93050828D02*
X125411653Y-94550828D01*
X125411653Y-94550828D02*
X125411653Y-93050828D01*
X165340225Y-107300828D02*
X165840225Y-108800828D01*
X165840225Y-108800828D02*
X166340225Y-107300828D01*
X167125939Y-107300828D02*
X167411653Y-107300828D01*
X167411653Y-107300828D02*
X167554510Y-107372257D01*
X167554510Y-107372257D02*
X167697367Y-107515114D01*
X167697367Y-107515114D02*
X167768796Y-107800828D01*
X167768796Y-107800828D02*
X167768796Y-108300828D01*
X167768796Y-108300828D02*
X167697367Y-108586542D01*
X167697367Y-108586542D02*
X167554510Y-108729400D01*
X167554510Y-108729400D02*
X167411653Y-108800828D01*
X167411653Y-108800828D02*
X167125939Y-108800828D01*
X167125939Y-108800828D02*
X166983082Y-108729400D01*
X166983082Y-108729400D02*
X166840224Y-108586542D01*
X166840224Y-108586542D02*
X166768796Y-108300828D01*
X166768796Y-108300828D02*
X166768796Y-107800828D01*
X166768796Y-107800828D02*
X166840224Y-107515114D01*
X166840224Y-107515114D02*
X166983082Y-107372257D01*
X166983082Y-107372257D02*
X167125939Y-107300828D01*
X168411653Y-107300828D02*
X168411653Y-108515114D01*
X168411653Y-108515114D02*
X168483082Y-108657971D01*
X168483082Y-108657971D02*
X168554511Y-108729400D01*
X168554511Y-108729400D02*
X168697368Y-108800828D01*
X168697368Y-108800828D02*
X168983082Y-108800828D01*
X168983082Y-108800828D02*
X169125939Y-108729400D01*
X169125939Y-108729400D02*
X169197368Y-108657971D01*
X169197368Y-108657971D02*
X169268796Y-108515114D01*
X169268796Y-108515114D02*
X169268796Y-107300828D01*
X169768797Y-107300828D02*
X170625940Y-107300828D01*
X170197368Y-108800828D02*
X170197368Y-107300828D01*
X167090225Y-93872257D02*
X166947368Y-93800828D01*
X166947368Y-93800828D02*
X166733082Y-93800828D01*
X166733082Y-93800828D02*
X166518796Y-93872257D01*
X166518796Y-93872257D02*
X166375939Y-94015114D01*
X166375939Y-94015114D02*
X166304510Y-94157971D01*
X166304510Y-94157971D02*
X166233082Y-94443685D01*
X166233082Y-94443685D02*
X166233082Y-94657971D01*
X166233082Y-94657971D02*
X166304510Y-94943685D01*
X166304510Y-94943685D02*
X166375939Y-95086542D01*
X166375939Y-95086542D02*
X166518796Y-95229400D01*
X166518796Y-95229400D02*
X166733082Y-95300828D01*
X166733082Y-95300828D02*
X166875939Y-95300828D01*
X166875939Y-95300828D02*
X167090225Y-95229400D01*
X167090225Y-95229400D02*
X167161653Y-95157971D01*
X167161653Y-95157971D02*
X167161653Y-94657971D01*
X167161653Y-94657971D02*
X166875939Y-94657971D01*
X167804510Y-95300828D02*
X167804510Y-93800828D01*
X167804510Y-93800828D02*
X168661653Y-95300828D01*
X168661653Y-95300828D02*
X168661653Y-93800828D01*
X169375939Y-95300828D02*
X169375939Y-93800828D01*
X169375939Y-93800828D02*
X169733082Y-93800828D01*
X169733082Y-93800828D02*
X169947368Y-93872257D01*
X169947368Y-93872257D02*
X170090225Y-94015114D01*
X170090225Y-94015114D02*
X170161654Y-94157971D01*
X170161654Y-94157971D02*
X170233082Y-94443685D01*
X170233082Y-94443685D02*
X170233082Y-94657971D01*
X170233082Y-94657971D02*
X170161654Y-94943685D01*
X170161654Y-94943685D02*
X170090225Y-95086542D01*
X170090225Y-95086542D02*
X169947368Y-95229400D01*
X169947368Y-95229400D02*
X169733082Y-95300828D01*
X169733082Y-95300828D02*
X169375939Y-95300828D01*
X123090225Y-106372257D02*
X122947368Y-106300828D01*
X122947368Y-106300828D02*
X122733082Y-106300828D01*
X122733082Y-106300828D02*
X122518796Y-106372257D01*
X122518796Y-106372257D02*
X122375939Y-106515114D01*
X122375939Y-106515114D02*
X122304510Y-106657971D01*
X122304510Y-106657971D02*
X122233082Y-106943685D01*
X122233082Y-106943685D02*
X122233082Y-107157971D01*
X122233082Y-107157971D02*
X122304510Y-107443685D01*
X122304510Y-107443685D02*
X122375939Y-107586542D01*
X122375939Y-107586542D02*
X122518796Y-107729400D01*
X122518796Y-107729400D02*
X122733082Y-107800828D01*
X122733082Y-107800828D02*
X122875939Y-107800828D01*
X122875939Y-107800828D02*
X123090225Y-107729400D01*
X123090225Y-107729400D02*
X123161653Y-107657971D01*
X123161653Y-107657971D02*
X123161653Y-107157971D01*
X123161653Y-107157971D02*
X122875939Y-107157971D01*
X123804510Y-107800828D02*
X123804510Y-106300828D01*
X123804510Y-106300828D02*
X124661653Y-107800828D01*
X124661653Y-107800828D02*
X124661653Y-106300828D01*
X125375939Y-107800828D02*
X125375939Y-106300828D01*
X125375939Y-106300828D02*
X125733082Y-106300828D01*
X125733082Y-106300828D02*
X125947368Y-106372257D01*
X125947368Y-106372257D02*
X126090225Y-106515114D01*
X126090225Y-106515114D02*
X126161654Y-106657971D01*
X126161654Y-106657971D02*
X126233082Y-106943685D01*
X126233082Y-106943685D02*
X126233082Y-107157971D01*
X126233082Y-107157971D02*
X126161654Y-107443685D01*
X126161654Y-107443685D02*
X126090225Y-107586542D01*
X126090225Y-107586542D02*
X125947368Y-107729400D01*
X125947368Y-107729400D02*
X125733082Y-107800828D01*
X125733082Y-107800828D02*
X125375939Y-107800828D01*
D11*
X129654762Y-92954819D02*
X129988095Y-93954819D01*
X129988095Y-93954819D02*
X130321428Y-92954819D01*
X130654762Y-93954819D02*
X130654762Y-92954819D01*
X131130952Y-93954819D02*
X131130952Y-92954819D01*
X131130952Y-92954819D02*
X131702380Y-93954819D01*
X131702380Y-93954819D02*
X131702380Y-92954819D01*
X138504761Y-104400057D02*
X138409523Y-104352438D01*
X138409523Y-104352438D02*
X138314285Y-104257200D01*
X138314285Y-104257200D02*
X138171428Y-104114342D01*
X138171428Y-104114342D02*
X138076190Y-104066723D01*
X138076190Y-104066723D02*
X137980952Y-104066723D01*
X138028571Y-104304819D02*
X137933333Y-104257200D01*
X137933333Y-104257200D02*
X137838095Y-104161961D01*
X137838095Y-104161961D02*
X137790476Y-103971485D01*
X137790476Y-103971485D02*
X137790476Y-103638152D01*
X137790476Y-103638152D02*
X137838095Y-103447676D01*
X137838095Y-103447676D02*
X137933333Y-103352438D01*
X137933333Y-103352438D02*
X138028571Y-103304819D01*
X138028571Y-103304819D02*
X138219047Y-103304819D01*
X138219047Y-103304819D02*
X138314285Y-103352438D01*
X138314285Y-103352438D02*
X138409523Y-103447676D01*
X138409523Y-103447676D02*
X138457142Y-103638152D01*
X138457142Y-103638152D02*
X138457142Y-103971485D01*
X138457142Y-103971485D02*
X138409523Y-104161961D01*
X138409523Y-104161961D02*
X138314285Y-104257200D01*
X138314285Y-104257200D02*
X138219047Y-104304819D01*
X138219047Y-104304819D02*
X138028571Y-104304819D01*
X138838095Y-103400057D02*
X138885714Y-103352438D01*
X138885714Y-103352438D02*
X138980952Y-103304819D01*
X138980952Y-103304819D02*
X139219047Y-103304819D01*
X139219047Y-103304819D02*
X139314285Y-103352438D01*
X139314285Y-103352438D02*
X139361904Y-103400057D01*
X139361904Y-103400057D02*
X139409523Y-103495295D01*
X139409523Y-103495295D02*
X139409523Y-103590533D01*
X139409523Y-103590533D02*
X139361904Y-103733390D01*
X139361904Y-103733390D02*
X138790476Y-104304819D01*
X138790476Y-104304819D02*
X139409523Y-104304819D01*
X150238095Y-113954819D02*
X150571428Y-114954819D01*
X150571428Y-114954819D02*
X150904761Y-113954819D01*
X151428571Y-113954819D02*
X151619047Y-113954819D01*
X151619047Y-113954819D02*
X151714285Y-114002438D01*
X151714285Y-114002438D02*
X151809523Y-114097676D01*
X151809523Y-114097676D02*
X151857142Y-114288152D01*
X151857142Y-114288152D02*
X151857142Y-114621485D01*
X151857142Y-114621485D02*
X151809523Y-114811961D01*
X151809523Y-114811961D02*
X151714285Y-114907200D01*
X151714285Y-114907200D02*
X151619047Y-114954819D01*
X151619047Y-114954819D02*
X151428571Y-114954819D01*
X151428571Y-114954819D02*
X151333333Y-114907200D01*
X151333333Y-114907200D02*
X151238095Y-114811961D01*
X151238095Y-114811961D02*
X151190476Y-114621485D01*
X151190476Y-114621485D02*
X151190476Y-114288152D01*
X151190476Y-114288152D02*
X151238095Y-114097676D01*
X151238095Y-114097676D02*
X151333333Y-114002438D01*
X151333333Y-114002438D02*
X151428571Y-113954819D01*
X152285714Y-113954819D02*
X152285714Y-114764342D01*
X152285714Y-114764342D02*
X152333333Y-114859580D01*
X152333333Y-114859580D02*
X152380952Y-114907200D01*
X152380952Y-114907200D02*
X152476190Y-114954819D01*
X152476190Y-114954819D02*
X152666666Y-114954819D01*
X152666666Y-114954819D02*
X152761904Y-114907200D01*
X152761904Y-114907200D02*
X152809523Y-114859580D01*
X152809523Y-114859580D02*
X152857142Y-114764342D01*
X152857142Y-114764342D02*
X152857142Y-113954819D01*
X153190476Y-113954819D02*
X153761904Y-113954819D01*
X153476190Y-114954819D02*
X153476190Y-113954819D01*
X152752438Y-93511904D02*
X152704819Y-93607142D01*
X152704819Y-93607142D02*
X152704819Y-93749999D01*
X152704819Y-93749999D02*
X152752438Y-93892856D01*
X152752438Y-93892856D02*
X152847676Y-93988094D01*
X152847676Y-93988094D02*
X152942914Y-94035713D01*
X152942914Y-94035713D02*
X153133390Y-94083332D01*
X153133390Y-94083332D02*
X153276247Y-94083332D01*
X153276247Y-94083332D02*
X153466723Y-94035713D01*
X153466723Y-94035713D02*
X153561961Y-93988094D01*
X153561961Y-93988094D02*
X153657200Y-93892856D01*
X153657200Y-93892856D02*
X153704819Y-93749999D01*
X153704819Y-93749999D02*
X153704819Y-93654761D01*
X153704819Y-93654761D02*
X153657200Y-93511904D01*
X153657200Y-93511904D02*
X153609580Y-93464285D01*
X153609580Y-93464285D02*
X153276247Y-93464285D01*
X153276247Y-93464285D02*
X153276247Y-93654761D01*
X153704819Y-93035713D02*
X152704819Y-93035713D01*
X152704819Y-93035713D02*
X153704819Y-92464285D01*
X153704819Y-92464285D02*
X152704819Y-92464285D01*
X153704819Y-91988094D02*
X152704819Y-91988094D01*
X152704819Y-91988094D02*
X152704819Y-91749999D01*
X152704819Y-91749999D02*
X152752438Y-91607142D01*
X152752438Y-91607142D02*
X152847676Y-91511904D01*
X152847676Y-91511904D02*
X152942914Y-91464285D01*
X152942914Y-91464285D02*
X153133390Y-91416666D01*
X153133390Y-91416666D02*
X153276247Y-91416666D01*
X153276247Y-91416666D02*
X153466723Y-91464285D01*
X153466723Y-91464285D02*
X153561961Y-91511904D01*
X153561961Y-91511904D02*
X153657200Y-91607142D01*
X153657200Y-91607142D02*
X153704819Y-91749999D01*
X153704819Y-91749999D02*
X153704819Y-91988094D01*
X141904761Y-96950057D02*
X141809523Y-96902438D01*
X141809523Y-96902438D02*
X141714285Y-96807200D01*
X141714285Y-96807200D02*
X141571428Y-96664342D01*
X141571428Y-96664342D02*
X141476190Y-96616723D01*
X141476190Y-96616723D02*
X141380952Y-96616723D01*
X141428571Y-96854819D02*
X141333333Y-96807200D01*
X141333333Y-96807200D02*
X141238095Y-96711961D01*
X141238095Y-96711961D02*
X141190476Y-96521485D01*
X141190476Y-96521485D02*
X141190476Y-96188152D01*
X141190476Y-96188152D02*
X141238095Y-95997676D01*
X141238095Y-95997676D02*
X141333333Y-95902438D01*
X141333333Y-95902438D02*
X141428571Y-95854819D01*
X141428571Y-95854819D02*
X141619047Y-95854819D01*
X141619047Y-95854819D02*
X141714285Y-95902438D01*
X141714285Y-95902438D02*
X141809523Y-95997676D01*
X141809523Y-95997676D02*
X141857142Y-96188152D01*
X141857142Y-96188152D02*
X141857142Y-96521485D01*
X141857142Y-96521485D02*
X141809523Y-96711961D01*
X141809523Y-96711961D02*
X141714285Y-96807200D01*
X141714285Y-96807200D02*
X141619047Y-96854819D01*
X141619047Y-96854819D02*
X141428571Y-96854819D01*
X142809523Y-96854819D02*
X142238095Y-96854819D01*
X142523809Y-96854819D02*
X142523809Y-95854819D01*
X142523809Y-95854819D02*
X142428571Y-95997676D01*
X142428571Y-95997676D02*
X142333333Y-96092914D01*
X142333333Y-96092914D02*
X142238095Y-96140533D01*
X151374761Y-99854819D02*
X150898571Y-99854819D01*
X150898571Y-99854819D02*
X150898571Y-98854819D01*
X152041428Y-99331009D02*
X151708095Y-99331009D01*
X151708095Y-99854819D02*
X151708095Y-98854819D01*
X151708095Y-98854819D02*
X152184285Y-98854819D01*
X153089047Y-99854819D02*
X152517619Y-99854819D01*
X152803333Y-99854819D02*
X152803333Y-98854819D01*
X152803333Y-98854819D02*
X152708095Y-98997676D01*
X152708095Y-98997676D02*
X152612857Y-99092914D01*
X152612857Y-99092914D02*
X152517619Y-99140533D01*
X136159580Y-113157143D02*
X136207200Y-113204762D01*
X136207200Y-113204762D02*
X136254819Y-113347619D01*
X136254819Y-113347619D02*
X136254819Y-113442857D01*
X136254819Y-113442857D02*
X136207200Y-113585714D01*
X136207200Y-113585714D02*
X136111961Y-113680952D01*
X136111961Y-113680952D02*
X136016723Y-113728571D01*
X136016723Y-113728571D02*
X135826247Y-113776190D01*
X135826247Y-113776190D02*
X135683390Y-113776190D01*
X135683390Y-113776190D02*
X135492914Y-113728571D01*
X135492914Y-113728571D02*
X135397676Y-113680952D01*
X135397676Y-113680952D02*
X135302438Y-113585714D01*
X135302438Y-113585714D02*
X135254819Y-113442857D01*
X135254819Y-113442857D02*
X135254819Y-113347619D01*
X135254819Y-113347619D02*
X135302438Y-113204762D01*
X135302438Y-113204762D02*
X135350057Y-113157143D01*
X136254819Y-112585714D02*
X136207200Y-112680952D01*
X136207200Y-112680952D02*
X136159580Y-112728571D01*
X136159580Y-112728571D02*
X136064342Y-112776190D01*
X136064342Y-112776190D02*
X135778628Y-112776190D01*
X135778628Y-112776190D02*
X135683390Y-112728571D01*
X135683390Y-112728571D02*
X135635771Y-112680952D01*
X135635771Y-112680952D02*
X135588152Y-112585714D01*
X135588152Y-112585714D02*
X135588152Y-112442857D01*
X135588152Y-112442857D02*
X135635771Y-112347619D01*
X135635771Y-112347619D02*
X135683390Y-112300000D01*
X135683390Y-112300000D02*
X135778628Y-112252381D01*
X135778628Y-112252381D02*
X136064342Y-112252381D01*
X136064342Y-112252381D02*
X136159580Y-112300000D01*
X136159580Y-112300000D02*
X136207200Y-112347619D01*
X136207200Y-112347619D02*
X136254819Y-112442857D01*
X136254819Y-112442857D02*
X136254819Y-112585714D01*
X135588152Y-111395238D02*
X136254819Y-111395238D01*
X135588152Y-111823809D02*
X136111961Y-111823809D01*
X136111961Y-111823809D02*
X136207200Y-111776190D01*
X136207200Y-111776190D02*
X136254819Y-111680952D01*
X136254819Y-111680952D02*
X136254819Y-111538095D01*
X136254819Y-111538095D02*
X136207200Y-111442857D01*
X136207200Y-111442857D02*
X136159580Y-111395238D01*
X135588152Y-111061904D02*
X135588152Y-110680952D01*
X135254819Y-110919047D02*
X136111961Y-110919047D01*
X136111961Y-110919047D02*
X136207200Y-110871428D01*
X136207200Y-110871428D02*
X136254819Y-110776190D01*
X136254819Y-110776190D02*
X136254819Y-110680952D01*
X135588152Y-109919047D02*
X136254819Y-109919047D01*
X135207200Y-110157142D02*
X135921485Y-110395237D01*
X135921485Y-110395237D02*
X135921485Y-109776190D01*
X138359580Y-113157143D02*
X138407200Y-113204762D01*
X138407200Y-113204762D02*
X138454819Y-113347619D01*
X138454819Y-113347619D02*
X138454819Y-113442857D01*
X138454819Y-113442857D02*
X138407200Y-113585714D01*
X138407200Y-113585714D02*
X138311961Y-113680952D01*
X138311961Y-113680952D02*
X138216723Y-113728571D01*
X138216723Y-113728571D02*
X138026247Y-113776190D01*
X138026247Y-113776190D02*
X137883390Y-113776190D01*
X137883390Y-113776190D02*
X137692914Y-113728571D01*
X137692914Y-113728571D02*
X137597676Y-113680952D01*
X137597676Y-113680952D02*
X137502438Y-113585714D01*
X137502438Y-113585714D02*
X137454819Y-113442857D01*
X137454819Y-113442857D02*
X137454819Y-113347619D01*
X137454819Y-113347619D02*
X137502438Y-113204762D01*
X137502438Y-113204762D02*
X137550057Y-113157143D01*
X138454819Y-112585714D02*
X138407200Y-112680952D01*
X138407200Y-112680952D02*
X138359580Y-112728571D01*
X138359580Y-112728571D02*
X138264342Y-112776190D01*
X138264342Y-112776190D02*
X137978628Y-112776190D01*
X137978628Y-112776190D02*
X137883390Y-112728571D01*
X137883390Y-112728571D02*
X137835771Y-112680952D01*
X137835771Y-112680952D02*
X137788152Y-112585714D01*
X137788152Y-112585714D02*
X137788152Y-112442857D01*
X137788152Y-112442857D02*
X137835771Y-112347619D01*
X137835771Y-112347619D02*
X137883390Y-112300000D01*
X137883390Y-112300000D02*
X137978628Y-112252381D01*
X137978628Y-112252381D02*
X138264342Y-112252381D01*
X138264342Y-112252381D02*
X138359580Y-112300000D01*
X138359580Y-112300000D02*
X138407200Y-112347619D01*
X138407200Y-112347619D02*
X138454819Y-112442857D01*
X138454819Y-112442857D02*
X138454819Y-112585714D01*
X137788152Y-111395238D02*
X138454819Y-111395238D01*
X137788152Y-111823809D02*
X138311961Y-111823809D01*
X138311961Y-111823809D02*
X138407200Y-111776190D01*
X138407200Y-111776190D02*
X138454819Y-111680952D01*
X138454819Y-111680952D02*
X138454819Y-111538095D01*
X138454819Y-111538095D02*
X138407200Y-111442857D01*
X138407200Y-111442857D02*
X138359580Y-111395238D01*
X137788152Y-111061904D02*
X137788152Y-110680952D01*
X137454819Y-110919047D02*
X138311961Y-110919047D01*
X138311961Y-110919047D02*
X138407200Y-110871428D01*
X138407200Y-110871428D02*
X138454819Y-110776190D01*
X138454819Y-110776190D02*
X138454819Y-110680952D01*
X137454819Y-110442856D02*
X137454819Y-109823809D01*
X137454819Y-109823809D02*
X137835771Y-110157142D01*
X137835771Y-110157142D02*
X137835771Y-110014285D01*
X137835771Y-110014285D02*
X137883390Y-109919047D01*
X137883390Y-109919047D02*
X137931009Y-109871428D01*
X137931009Y-109871428D02*
X138026247Y-109823809D01*
X138026247Y-109823809D02*
X138264342Y-109823809D01*
X138264342Y-109823809D02*
X138359580Y-109871428D01*
X138359580Y-109871428D02*
X138407200Y-109919047D01*
X138407200Y-109919047D02*
X138454819Y-110014285D01*
X138454819Y-110014285D02*
X138454819Y-110299999D01*
X138454819Y-110299999D02*
X138407200Y-110395237D01*
X138407200Y-110395237D02*
X138359580Y-110442856D01*
X140559580Y-113157143D02*
X140607200Y-113204762D01*
X140607200Y-113204762D02*
X140654819Y-113347619D01*
X140654819Y-113347619D02*
X140654819Y-113442857D01*
X140654819Y-113442857D02*
X140607200Y-113585714D01*
X140607200Y-113585714D02*
X140511961Y-113680952D01*
X140511961Y-113680952D02*
X140416723Y-113728571D01*
X140416723Y-113728571D02*
X140226247Y-113776190D01*
X140226247Y-113776190D02*
X140083390Y-113776190D01*
X140083390Y-113776190D02*
X139892914Y-113728571D01*
X139892914Y-113728571D02*
X139797676Y-113680952D01*
X139797676Y-113680952D02*
X139702438Y-113585714D01*
X139702438Y-113585714D02*
X139654819Y-113442857D01*
X139654819Y-113442857D02*
X139654819Y-113347619D01*
X139654819Y-113347619D02*
X139702438Y-113204762D01*
X139702438Y-113204762D02*
X139750057Y-113157143D01*
X140654819Y-112585714D02*
X140607200Y-112680952D01*
X140607200Y-112680952D02*
X140559580Y-112728571D01*
X140559580Y-112728571D02*
X140464342Y-112776190D01*
X140464342Y-112776190D02*
X140178628Y-112776190D01*
X140178628Y-112776190D02*
X140083390Y-112728571D01*
X140083390Y-112728571D02*
X140035771Y-112680952D01*
X140035771Y-112680952D02*
X139988152Y-112585714D01*
X139988152Y-112585714D02*
X139988152Y-112442857D01*
X139988152Y-112442857D02*
X140035771Y-112347619D01*
X140035771Y-112347619D02*
X140083390Y-112300000D01*
X140083390Y-112300000D02*
X140178628Y-112252381D01*
X140178628Y-112252381D02*
X140464342Y-112252381D01*
X140464342Y-112252381D02*
X140559580Y-112300000D01*
X140559580Y-112300000D02*
X140607200Y-112347619D01*
X140607200Y-112347619D02*
X140654819Y-112442857D01*
X140654819Y-112442857D02*
X140654819Y-112585714D01*
X139988152Y-111395238D02*
X140654819Y-111395238D01*
X139988152Y-111823809D02*
X140511961Y-111823809D01*
X140511961Y-111823809D02*
X140607200Y-111776190D01*
X140607200Y-111776190D02*
X140654819Y-111680952D01*
X140654819Y-111680952D02*
X140654819Y-111538095D01*
X140654819Y-111538095D02*
X140607200Y-111442857D01*
X140607200Y-111442857D02*
X140559580Y-111395238D01*
X139988152Y-111061904D02*
X139988152Y-110680952D01*
X139654819Y-110919047D02*
X140511961Y-110919047D01*
X140511961Y-110919047D02*
X140607200Y-110871428D01*
X140607200Y-110871428D02*
X140654819Y-110776190D01*
X140654819Y-110776190D02*
X140654819Y-110680952D01*
X139750057Y-110395237D02*
X139702438Y-110347618D01*
X139702438Y-110347618D02*
X139654819Y-110252380D01*
X139654819Y-110252380D02*
X139654819Y-110014285D01*
X139654819Y-110014285D02*
X139702438Y-109919047D01*
X139702438Y-109919047D02*
X139750057Y-109871428D01*
X139750057Y-109871428D02*
X139845295Y-109823809D01*
X139845295Y-109823809D02*
X139940533Y-109823809D01*
X139940533Y-109823809D02*
X140083390Y-109871428D01*
X140083390Y-109871428D02*
X140654819Y-110442856D01*
X140654819Y-110442856D02*
X140654819Y-109823809D01*
X142759580Y-113157143D02*
X142807200Y-113204762D01*
X142807200Y-113204762D02*
X142854819Y-113347619D01*
X142854819Y-113347619D02*
X142854819Y-113442857D01*
X142854819Y-113442857D02*
X142807200Y-113585714D01*
X142807200Y-113585714D02*
X142711961Y-113680952D01*
X142711961Y-113680952D02*
X142616723Y-113728571D01*
X142616723Y-113728571D02*
X142426247Y-113776190D01*
X142426247Y-113776190D02*
X142283390Y-113776190D01*
X142283390Y-113776190D02*
X142092914Y-113728571D01*
X142092914Y-113728571D02*
X141997676Y-113680952D01*
X141997676Y-113680952D02*
X141902438Y-113585714D01*
X141902438Y-113585714D02*
X141854819Y-113442857D01*
X141854819Y-113442857D02*
X141854819Y-113347619D01*
X141854819Y-113347619D02*
X141902438Y-113204762D01*
X141902438Y-113204762D02*
X141950057Y-113157143D01*
X142854819Y-112585714D02*
X142807200Y-112680952D01*
X142807200Y-112680952D02*
X142759580Y-112728571D01*
X142759580Y-112728571D02*
X142664342Y-112776190D01*
X142664342Y-112776190D02*
X142378628Y-112776190D01*
X142378628Y-112776190D02*
X142283390Y-112728571D01*
X142283390Y-112728571D02*
X142235771Y-112680952D01*
X142235771Y-112680952D02*
X142188152Y-112585714D01*
X142188152Y-112585714D02*
X142188152Y-112442857D01*
X142188152Y-112442857D02*
X142235771Y-112347619D01*
X142235771Y-112347619D02*
X142283390Y-112300000D01*
X142283390Y-112300000D02*
X142378628Y-112252381D01*
X142378628Y-112252381D02*
X142664342Y-112252381D01*
X142664342Y-112252381D02*
X142759580Y-112300000D01*
X142759580Y-112300000D02*
X142807200Y-112347619D01*
X142807200Y-112347619D02*
X142854819Y-112442857D01*
X142854819Y-112442857D02*
X142854819Y-112585714D01*
X142188152Y-111395238D02*
X142854819Y-111395238D01*
X142188152Y-111823809D02*
X142711961Y-111823809D01*
X142711961Y-111823809D02*
X142807200Y-111776190D01*
X142807200Y-111776190D02*
X142854819Y-111680952D01*
X142854819Y-111680952D02*
X142854819Y-111538095D01*
X142854819Y-111538095D02*
X142807200Y-111442857D01*
X142807200Y-111442857D02*
X142759580Y-111395238D01*
X142188152Y-111061904D02*
X142188152Y-110680952D01*
X141854819Y-110919047D02*
X142711961Y-110919047D01*
X142711961Y-110919047D02*
X142807200Y-110871428D01*
X142807200Y-110871428D02*
X142854819Y-110776190D01*
X142854819Y-110776190D02*
X142854819Y-110680952D01*
X142854819Y-109823809D02*
X142854819Y-110395237D01*
X142854819Y-110109523D02*
X141854819Y-110109523D01*
X141854819Y-110109523D02*
X141997676Y-110204761D01*
X141997676Y-110204761D02*
X142092914Y-110299999D01*
X142092914Y-110299999D02*
X142140533Y-110395237D01*
X163140419Y-100269523D02*
X163092800Y-100221904D01*
X163092800Y-100221904D02*
X163045180Y-100079047D01*
X163045180Y-100079047D02*
X163045180Y-99983809D01*
X163045180Y-99983809D02*
X163092800Y-99840952D01*
X163092800Y-99840952D02*
X163188038Y-99745714D01*
X163188038Y-99745714D02*
X163283276Y-99698095D01*
X163283276Y-99698095D02*
X163473752Y-99650476D01*
X163473752Y-99650476D02*
X163616609Y-99650476D01*
X163616609Y-99650476D02*
X163807085Y-99698095D01*
X163807085Y-99698095D02*
X163902323Y-99745714D01*
X163902323Y-99745714D02*
X163997561Y-99840952D01*
X163997561Y-99840952D02*
X164045180Y-99983809D01*
X164045180Y-99983809D02*
X164045180Y-100079047D01*
X164045180Y-100079047D02*
X163997561Y-100221904D01*
X163997561Y-100221904D02*
X163949942Y-100269523D01*
X163045180Y-100698095D02*
X164045180Y-100698095D01*
X164045180Y-100698095D02*
X163045180Y-101269523D01*
X163045180Y-101269523D02*
X164045180Y-101269523D01*
X163949942Y-101698095D02*
X163997561Y-101745714D01*
X163997561Y-101745714D02*
X164045180Y-101840952D01*
X164045180Y-101840952D02*
X164045180Y-102079047D01*
X164045180Y-102079047D02*
X163997561Y-102174285D01*
X163997561Y-102174285D02*
X163949942Y-102221904D01*
X163949942Y-102221904D02*
X163854704Y-102269523D01*
X163854704Y-102269523D02*
X163759466Y-102269523D01*
X163759466Y-102269523D02*
X163616609Y-102221904D01*
X163616609Y-102221904D02*
X163045180Y-101650476D01*
X163045180Y-101650476D02*
X163045180Y-102269523D01*
X127600419Y-100229523D02*
X127552800Y-100181904D01*
X127552800Y-100181904D02*
X127505180Y-100039047D01*
X127505180Y-100039047D02*
X127505180Y-99943809D01*
X127505180Y-99943809D02*
X127552800Y-99800952D01*
X127552800Y-99800952D02*
X127648038Y-99705714D01*
X127648038Y-99705714D02*
X127743276Y-99658095D01*
X127743276Y-99658095D02*
X127933752Y-99610476D01*
X127933752Y-99610476D02*
X128076609Y-99610476D01*
X128076609Y-99610476D02*
X128267085Y-99658095D01*
X128267085Y-99658095D02*
X128362323Y-99705714D01*
X128362323Y-99705714D02*
X128457561Y-99800952D01*
X128457561Y-99800952D02*
X128505180Y-99943809D01*
X128505180Y-99943809D02*
X128505180Y-100039047D01*
X128505180Y-100039047D02*
X128457561Y-100181904D01*
X128457561Y-100181904D02*
X128409942Y-100229523D01*
X127505180Y-100658095D02*
X128505180Y-100658095D01*
X128505180Y-100658095D02*
X127505180Y-101229523D01*
X127505180Y-101229523D02*
X128505180Y-101229523D01*
X127505180Y-102229523D02*
X127505180Y-101658095D01*
X127505180Y-101943809D02*
X128505180Y-101943809D01*
X128505180Y-101943809D02*
X128362323Y-101848571D01*
X128362323Y-101848571D02*
X128267085Y-101753333D01*
X128267085Y-101753333D02*
X128219466Y-101658095D01*
X139559580Y-96657142D02*
X139607200Y-96704761D01*
X139607200Y-96704761D02*
X139654819Y-96847618D01*
X139654819Y-96847618D02*
X139654819Y-96942856D01*
X139654819Y-96942856D02*
X139607200Y-97085713D01*
X139607200Y-97085713D02*
X139511961Y-97180951D01*
X139511961Y-97180951D02*
X139416723Y-97228570D01*
X139416723Y-97228570D02*
X139226247Y-97276189D01*
X139226247Y-97276189D02*
X139083390Y-97276189D01*
X139083390Y-97276189D02*
X138892914Y-97228570D01*
X138892914Y-97228570D02*
X138797676Y-97180951D01*
X138797676Y-97180951D02*
X138702438Y-97085713D01*
X138702438Y-97085713D02*
X138654819Y-96942856D01*
X138654819Y-96942856D02*
X138654819Y-96847618D01*
X138654819Y-96847618D02*
X138702438Y-96704761D01*
X138702438Y-96704761D02*
X138750057Y-96657142D01*
X139654819Y-96228570D02*
X138988152Y-96228570D01*
X138654819Y-96228570D02*
X138702438Y-96276189D01*
X138702438Y-96276189D02*
X138750057Y-96228570D01*
X138750057Y-96228570D02*
X138702438Y-96180951D01*
X138702438Y-96180951D02*
X138654819Y-96228570D01*
X138654819Y-96228570D02*
X138750057Y-96228570D01*
X138988152Y-95752380D02*
X139654819Y-95752380D01*
X139083390Y-95752380D02*
X139035771Y-95704761D01*
X139035771Y-95704761D02*
X138988152Y-95609523D01*
X138988152Y-95609523D02*
X138988152Y-95466666D01*
X138988152Y-95466666D02*
X139035771Y-95371428D01*
X139035771Y-95371428D02*
X139131009Y-95323809D01*
X139131009Y-95323809D02*
X139654819Y-95323809D01*
X138654819Y-94942856D02*
X138654819Y-94323809D01*
X138654819Y-94323809D02*
X139035771Y-94657142D01*
X139035771Y-94657142D02*
X139035771Y-94514285D01*
X139035771Y-94514285D02*
X139083390Y-94419047D01*
X139083390Y-94419047D02*
X139131009Y-94371428D01*
X139131009Y-94371428D02*
X139226247Y-94323809D01*
X139226247Y-94323809D02*
X139464342Y-94323809D01*
X139464342Y-94323809D02*
X139559580Y-94371428D01*
X139559580Y-94371428D02*
X139607200Y-94419047D01*
X139607200Y-94419047D02*
X139654819Y-94514285D01*
X139654819Y-94514285D02*
X139654819Y-94799999D01*
X139654819Y-94799999D02*
X139607200Y-94895237D01*
X139607200Y-94895237D02*
X139559580Y-94942856D01*
X137159580Y-96657142D02*
X137207200Y-96704761D01*
X137207200Y-96704761D02*
X137254819Y-96847618D01*
X137254819Y-96847618D02*
X137254819Y-96942856D01*
X137254819Y-96942856D02*
X137207200Y-97085713D01*
X137207200Y-97085713D02*
X137111961Y-97180951D01*
X137111961Y-97180951D02*
X137016723Y-97228570D01*
X137016723Y-97228570D02*
X136826247Y-97276189D01*
X136826247Y-97276189D02*
X136683390Y-97276189D01*
X136683390Y-97276189D02*
X136492914Y-97228570D01*
X136492914Y-97228570D02*
X136397676Y-97180951D01*
X136397676Y-97180951D02*
X136302438Y-97085713D01*
X136302438Y-97085713D02*
X136254819Y-96942856D01*
X136254819Y-96942856D02*
X136254819Y-96847618D01*
X136254819Y-96847618D02*
X136302438Y-96704761D01*
X136302438Y-96704761D02*
X136350057Y-96657142D01*
X137254819Y-96228570D02*
X136588152Y-96228570D01*
X136254819Y-96228570D02*
X136302438Y-96276189D01*
X136302438Y-96276189D02*
X136350057Y-96228570D01*
X136350057Y-96228570D02*
X136302438Y-96180951D01*
X136302438Y-96180951D02*
X136254819Y-96228570D01*
X136254819Y-96228570D02*
X136350057Y-96228570D01*
X136588152Y-95752380D02*
X137254819Y-95752380D01*
X136683390Y-95752380D02*
X136635771Y-95704761D01*
X136635771Y-95704761D02*
X136588152Y-95609523D01*
X136588152Y-95609523D02*
X136588152Y-95466666D01*
X136588152Y-95466666D02*
X136635771Y-95371428D01*
X136635771Y-95371428D02*
X136731009Y-95323809D01*
X136731009Y-95323809D02*
X137254819Y-95323809D01*
X136350057Y-94895237D02*
X136302438Y-94847618D01*
X136302438Y-94847618D02*
X136254819Y-94752380D01*
X136254819Y-94752380D02*
X136254819Y-94514285D01*
X136254819Y-94514285D02*
X136302438Y-94419047D01*
X136302438Y-94419047D02*
X136350057Y-94371428D01*
X136350057Y-94371428D02*
X136445295Y-94323809D01*
X136445295Y-94323809D02*
X136540533Y-94323809D01*
X136540533Y-94323809D02*
X136683390Y-94371428D01*
X136683390Y-94371428D02*
X137254819Y-94942856D01*
X137254819Y-94942856D02*
X137254819Y-94323809D01*
X134559580Y-96657142D02*
X134607200Y-96704761D01*
X134607200Y-96704761D02*
X134654819Y-96847618D01*
X134654819Y-96847618D02*
X134654819Y-96942856D01*
X134654819Y-96942856D02*
X134607200Y-97085713D01*
X134607200Y-97085713D02*
X134511961Y-97180951D01*
X134511961Y-97180951D02*
X134416723Y-97228570D01*
X134416723Y-97228570D02*
X134226247Y-97276189D01*
X134226247Y-97276189D02*
X134083390Y-97276189D01*
X134083390Y-97276189D02*
X133892914Y-97228570D01*
X133892914Y-97228570D02*
X133797676Y-97180951D01*
X133797676Y-97180951D02*
X133702438Y-97085713D01*
X133702438Y-97085713D02*
X133654819Y-96942856D01*
X133654819Y-96942856D02*
X133654819Y-96847618D01*
X133654819Y-96847618D02*
X133702438Y-96704761D01*
X133702438Y-96704761D02*
X133750057Y-96657142D01*
X134654819Y-96228570D02*
X133988152Y-96228570D01*
X133654819Y-96228570D02*
X133702438Y-96276189D01*
X133702438Y-96276189D02*
X133750057Y-96228570D01*
X133750057Y-96228570D02*
X133702438Y-96180951D01*
X133702438Y-96180951D02*
X133654819Y-96228570D01*
X133654819Y-96228570D02*
X133750057Y-96228570D01*
X133988152Y-95752380D02*
X134654819Y-95752380D01*
X134083390Y-95752380D02*
X134035771Y-95704761D01*
X134035771Y-95704761D02*
X133988152Y-95609523D01*
X133988152Y-95609523D02*
X133988152Y-95466666D01*
X133988152Y-95466666D02*
X134035771Y-95371428D01*
X134035771Y-95371428D02*
X134131009Y-95323809D01*
X134131009Y-95323809D02*
X134654819Y-95323809D01*
X134654819Y-94323809D02*
X134654819Y-94895237D01*
X134654819Y-94609523D02*
X133654819Y-94609523D01*
X133654819Y-94609523D02*
X133797676Y-94704761D01*
X133797676Y-94704761D02*
X133892914Y-94799999D01*
X133892914Y-94799999D02*
X133940533Y-94895237D01*
D12*
%TO.C,VIN*%
X133100000Y-96000000D02*
G75*
G02*
X129900000Y-96000000I-1600000J0D01*
G01*
X129900000Y-96000000D02*
G75*
G02*
X133100000Y-96000000I1600000J0D01*
G01*
%TO.C,Q2*%
X139690000Y-102270000D02*
G75*
G02*
X139370000Y-102270000I-160000J0D01*
G01*
X139370000Y-102270000D02*
G75*
G02*
X139690000Y-102270000I160000J0D01*
G01*
X140040000Y-104950000D02*
X143290000Y-104950000D01*
X140060000Y-101850000D02*
X143310000Y-101850000D01*
%TO.C,VOUT*%
X153600000Y-112000000D02*
G75*
G02*
X150400000Y-112000000I-1600000J0D01*
G01*
X150400000Y-112000000D02*
G75*
G02*
X153600000Y-112000000I1600000J0D01*
G01*
%TO.C,GND*%
X157390000Y-92750000D02*
G75*
G02*
X154190000Y-92750000I-1600000J0D01*
G01*
X154190000Y-92750000D02*
G75*
G02*
X157390000Y-92750000I1600000J0D01*
G01*
%TO.C,Q1*%
X141020000Y-101470000D02*
G75*
G02*
X140700000Y-101470000I-160000J0D01*
G01*
X140700000Y-101470000D02*
G75*
G02*
X141020000Y-101470000I160000J0D01*
G01*
X143540000Y-100960000D02*
X143540000Y-97710000D01*
X140440000Y-100940000D02*
X140440000Y-97690000D01*
%TO.C,LF1*%
X158830000Y-106190000D02*
X158830000Y-110000000D01*
X158830000Y-110000000D02*
X145110000Y-110000000D01*
X145110000Y-110000000D02*
X145110000Y-106190000D01*
X145110000Y-100610000D02*
X145110000Y-96800000D01*
X145110000Y-96800000D02*
X158830000Y-96800000D01*
X158830000Y-96800000D02*
X158830000Y-100610000D01*
%TO.C,Cout4*%
X134900000Y-105590000D02*
X134900000Y-107000000D01*
X136700000Y-107000000D02*
X136700000Y-105590000D01*
X136550000Y-105440000D02*
X135050000Y-105440000D01*
X134900000Y-109210000D02*
X134900000Y-107800000D01*
X136700000Y-107800000D02*
X136700000Y-109210000D01*
X136550000Y-109360000D02*
X135050000Y-109360000D01*
X136550000Y-105440000D02*
G75*
G02*
X136700000Y-105590000I0J-150000D01*
G01*
X134900000Y-105590000D02*
G75*
G02*
X135050000Y-105440000I150000J0D01*
G01*
X136700000Y-109210000D02*
G75*
G02*
X136550000Y-109360000I-150000J0D01*
G01*
X135050000Y-109360000D02*
G75*
G02*
X134900000Y-109210000I0J150000D01*
G01*
%TO.C,Cout3*%
X137100000Y-105590000D02*
X137100000Y-107000000D01*
X138900000Y-107000000D02*
X138900000Y-105590000D01*
X138750000Y-105440000D02*
X137250000Y-105440000D01*
X137100000Y-109210000D02*
X137100000Y-107800000D01*
X138900000Y-107800000D02*
X138900000Y-109210000D01*
X138750000Y-109360000D02*
X137250000Y-109360000D01*
X138750000Y-105440000D02*
G75*
G02*
X138900000Y-105590000I0J-150000D01*
G01*
X137100000Y-105590000D02*
G75*
G02*
X137250000Y-105440000I150000J0D01*
G01*
X138900000Y-109210000D02*
G75*
G02*
X138750000Y-109360000I-150000J0D01*
G01*
X137250000Y-109360000D02*
G75*
G02*
X137100000Y-109210000I0J150000D01*
G01*
%TO.C,Cout2*%
X139300000Y-105590000D02*
X139300000Y-107000000D01*
X141100000Y-107000000D02*
X141100000Y-105590000D01*
X140950000Y-105440000D02*
X139450000Y-105440000D01*
X139300000Y-109210000D02*
X139300000Y-107800000D01*
X141100000Y-107800000D02*
X141100000Y-109210000D01*
X140950000Y-109360000D02*
X139450000Y-109360000D01*
X140950000Y-105440000D02*
G75*
G02*
X141100000Y-105590000I0J-150000D01*
G01*
X139300000Y-105590000D02*
G75*
G02*
X139450000Y-105440000I150000J0D01*
G01*
X141100000Y-109210000D02*
G75*
G02*
X140950000Y-109360000I-150000J0D01*
G01*
X139450000Y-109360000D02*
G75*
G02*
X139300000Y-109210000I0J150000D01*
G01*
%TO.C,Cout1*%
X141500000Y-105590000D02*
X141500000Y-107000000D01*
X143300000Y-107000000D02*
X143300000Y-105590000D01*
X143150000Y-105440000D02*
X141650000Y-105440000D01*
X141500000Y-109210000D02*
X141500000Y-107800000D01*
X143300000Y-107800000D02*
X143300000Y-109210000D01*
X143150000Y-109360000D02*
X141650000Y-109360000D01*
X143150000Y-105440000D02*
G75*
G02*
X143300000Y-105590000I0J-150000D01*
G01*
X141500000Y-105590000D02*
G75*
G02*
X141650000Y-105440000I150000J0D01*
G01*
X143300000Y-109210000D02*
G75*
G02*
X143150000Y-109360000I-150000J0D01*
G01*
X141650000Y-109360000D02*
G75*
G02*
X141500000Y-109210000I0J150000D01*
G01*
%TO.C,CN2*%
X162500000Y-95880000D02*
X172700000Y-95880000D01*
X164780000Y-106040000D02*
X164790000Y-95880000D01*
X162500000Y-106040000D02*
X162500000Y-95880000D01*
X170540000Y-106040000D02*
X170540000Y-106350000D01*
X170540000Y-106350000D02*
X170400000Y-106500000D01*
X170400000Y-106500000D02*
X170400000Y-106600000D01*
X170400000Y-106600000D02*
X171200000Y-106600000D01*
X171200000Y-106600000D02*
X171200000Y-106400000D01*
X171200000Y-106400000D02*
X171100000Y-106300000D01*
X171100000Y-106300000D02*
X171100000Y-106040000D01*
X171100000Y-106040000D02*
X171100000Y-106100000D01*
X162500000Y-106040000D02*
X172700000Y-106040000D01*
X164250000Y-106040000D02*
X164250000Y-106350000D01*
X164250000Y-106350000D02*
X164100000Y-106500000D01*
X164100000Y-106500000D02*
X164100000Y-106600000D01*
X164100000Y-106600000D02*
X164900000Y-106600000D01*
X164900000Y-106600000D02*
X164900000Y-106400000D01*
X164900000Y-106400000D02*
X164800000Y-106300000D01*
X164800000Y-106300000D02*
X164800000Y-106040000D01*
X164800000Y-106040000D02*
X164800000Y-106000000D01*
X171470000Y-106040000D02*
X171470000Y-95880000D01*
X172080000Y-106040000D02*
X172080000Y-95880000D01*
X172700000Y-106040000D02*
X172700000Y-95880000D01*
X167650000Y-106670000D02*
G75*
G02*
X167170000Y-106670000I-240000J0D01*
G01*
X167170000Y-106670000D02*
G75*
G02*
X167650000Y-106670000I240000J0D01*
G01*
%TO.C,CN1*%
X128960000Y-106000000D02*
X118760000Y-106000000D01*
X126680000Y-95840000D02*
X126670000Y-106000000D01*
X128960000Y-95840000D02*
X128960000Y-106000000D01*
X120920000Y-95840000D02*
X120920000Y-95530000D01*
X120920000Y-95530000D02*
X121060000Y-95380000D01*
X121060000Y-95380000D02*
X121060000Y-95280000D01*
X121060000Y-95280000D02*
X120260000Y-95280000D01*
X120260000Y-95280000D02*
X120260000Y-95480000D01*
X120260000Y-95480000D02*
X120360000Y-95580000D01*
X120360000Y-95580000D02*
X120360000Y-95840000D01*
X120360000Y-95840000D02*
X120360000Y-95780000D01*
X128960000Y-95840000D02*
X118760000Y-95840000D01*
X127210000Y-95840000D02*
X127210000Y-95530000D01*
X127210000Y-95530000D02*
X127360000Y-95380000D01*
X127360000Y-95380000D02*
X127360000Y-95280000D01*
X127360000Y-95280000D02*
X126560000Y-95280000D01*
X126560000Y-95280000D02*
X126560000Y-95480000D01*
X126560000Y-95480000D02*
X126660000Y-95580000D01*
X126660000Y-95580000D02*
X126660000Y-95840000D01*
X126660000Y-95840000D02*
X126660000Y-95880000D01*
X119990000Y-95840000D02*
X119990000Y-106000000D01*
X119380000Y-95840000D02*
X119380000Y-106000000D01*
X118760000Y-95840000D02*
X118760000Y-106000000D01*
X124290000Y-95210000D02*
G75*
G02*
X123810000Y-95210000I-240000J0D01*
G01*
X123810000Y-95210000D02*
G75*
G02*
X124290000Y-95210000I240000J0D01*
G01*
%TO.C,Cin3*%
X140100000Y-101410000D02*
X140100000Y-100000000D01*
X138300000Y-100000000D02*
X138300000Y-101410000D01*
X138450000Y-101560000D02*
X139950000Y-101560000D01*
X140100000Y-97790000D02*
X140100000Y-99200000D01*
X138300000Y-99200000D02*
X138300000Y-97790000D01*
X138450000Y-97640000D02*
X139950000Y-97640000D01*
X138450000Y-101560000D02*
G75*
G02*
X138300000Y-101410000I0J150000D01*
G01*
X140100000Y-101410000D02*
G75*
G02*
X139950000Y-101560000I-150000J0D01*
G01*
X138300000Y-97790000D02*
G75*
G02*
X138450000Y-97640000I150000J0D01*
G01*
X139950000Y-97640000D02*
G75*
G02*
X140100000Y-97790000I0J-150000D01*
G01*
%TO.C,Cin2*%
X137890000Y-102600000D02*
X137890000Y-101120000D01*
X135710000Y-101120000D02*
X135710000Y-102600000D01*
X135860000Y-102750000D02*
X137740000Y-102750000D01*
X137890000Y-97780000D02*
X137890000Y-99260000D01*
X135710000Y-99260000D02*
X135710000Y-97780000D01*
X135860000Y-97630000D02*
X137740000Y-97630000D01*
X135860000Y-102750000D02*
G75*
G02*
X135710000Y-102600000I0J150000D01*
G01*
X137890000Y-102600000D02*
G75*
G02*
X137740000Y-102750000I-150000J0D01*
G01*
X135710000Y-97780000D02*
G75*
G02*
X135860000Y-97630000I150000J0D01*
G01*
X137740000Y-97630000D02*
G75*
G02*
X137890000Y-97780000I0J-150000D01*
G01*
%TO.C,Cin1*%
X135290000Y-102600000D02*
X135290000Y-101120000D01*
X133110000Y-101120000D02*
X133110000Y-102600000D01*
X133260000Y-102750000D02*
X135140000Y-102750000D01*
X135290000Y-97780000D02*
X135290000Y-99260000D01*
X133110000Y-99260000D02*
X133110000Y-97780000D01*
X133260000Y-97630000D02*
X135140000Y-97630000D01*
X133260000Y-102750000D02*
G75*
G02*
X133110000Y-102600000I0J150000D01*
G01*
X135290000Y-102600000D02*
G75*
G02*
X135140000Y-102750000I-150000J0D01*
G01*
X133110000Y-97780000D02*
G75*
G02*
X133260000Y-97630000I150000J0D01*
G01*
X135140000Y-97630000D02*
G75*
G02*
X135290000Y-97780000I0J-150000D01*
G01*
%TD*%
%LPC*%
G36*
X123010894Y-108793093D02*
G01*
X123344348Y-108869202D01*
X123667184Y-108982167D01*
X123975343Y-109130569D01*
X124264947Y-109312539D01*
X124532357Y-109525791D01*
X124774209Y-109767643D01*
X124987461Y-110035053D01*
X125169431Y-110324657D01*
X125317833Y-110632816D01*
X125430798Y-110955652D01*
X125506907Y-111289106D01*
X125545202Y-111628985D01*
X125545202Y-111971015D01*
X125506907Y-112310894D01*
X125430798Y-112644348D01*
X125317833Y-112967184D01*
X125169431Y-113275343D01*
X124987461Y-113564947D01*
X124774209Y-113832357D01*
X124532357Y-114074209D01*
X124264947Y-114287461D01*
X123975343Y-114469431D01*
X123667184Y-114617833D01*
X123344348Y-114730798D01*
X123010894Y-114806907D01*
X122671015Y-114845202D01*
X122328985Y-114845202D01*
X121989106Y-114806907D01*
X121655652Y-114730798D01*
X121332816Y-114617833D01*
X121024657Y-114469431D01*
X120735053Y-114287461D01*
X120467643Y-114074209D01*
X120225791Y-113832357D01*
X120012539Y-113564947D01*
X119830569Y-113275343D01*
X119682167Y-112967184D01*
X119569202Y-112644348D01*
X119493093Y-112310894D01*
X119454798Y-111971015D01*
X119454798Y-111628985D01*
X119493093Y-111289106D01*
X119569202Y-110955652D01*
X119682167Y-110632816D01*
X119830569Y-110324657D01*
X120012539Y-110035053D01*
X120225791Y-109767643D01*
X120467643Y-109525791D01*
X120735053Y-109312539D01*
X121024657Y-109130569D01*
X121332816Y-108982167D01*
X121655652Y-108869202D01*
X121989106Y-108793093D01*
X122328985Y-108754798D01*
X122671015Y-108754798D01*
X123010894Y-108793093D01*
G37*
G36*
X165010894Y-108793093D02*
G01*
X165344348Y-108869202D01*
X165667184Y-108982167D01*
X165975343Y-109130569D01*
X166264947Y-109312539D01*
X166532357Y-109525791D01*
X166774209Y-109767643D01*
X166987461Y-110035053D01*
X167169431Y-110324657D01*
X167317833Y-110632816D01*
X167430798Y-110955652D01*
X167506907Y-111289106D01*
X167545202Y-111628985D01*
X167545202Y-111971015D01*
X167506907Y-112310894D01*
X167430798Y-112644348D01*
X167317833Y-112967184D01*
X167169431Y-113275343D01*
X166987461Y-113564947D01*
X166774209Y-113832357D01*
X166532357Y-114074209D01*
X166264947Y-114287461D01*
X165975343Y-114469431D01*
X165667184Y-114617833D01*
X165344348Y-114730798D01*
X165010894Y-114806907D01*
X164671015Y-114845202D01*
X164328985Y-114845202D01*
X163989106Y-114806907D01*
X163655652Y-114730798D01*
X163332816Y-114617833D01*
X163024657Y-114469431D01*
X162735053Y-114287461D01*
X162467643Y-114074209D01*
X162225791Y-113832357D01*
X162012539Y-113564947D01*
X161830569Y-113275343D01*
X161682167Y-112967184D01*
X161569202Y-112644348D01*
X161493093Y-112310894D01*
X161454798Y-111971015D01*
X161454798Y-111628985D01*
X161493093Y-111289106D01*
X161569202Y-110955652D01*
X161682167Y-110632816D01*
X161830569Y-110324657D01*
X162012539Y-110035053D01*
X162225791Y-109767643D01*
X162467643Y-109525791D01*
X162735053Y-109312539D01*
X163024657Y-109130569D01*
X163332816Y-108982167D01*
X163655652Y-108869202D01*
X163989106Y-108793093D01*
X164328985Y-108754798D01*
X164671015Y-108754798D01*
X165010894Y-108793093D01*
G37*
G36*
X152326824Y-110638682D02*
G01*
X152535757Y-110706569D01*
X152731498Y-110806304D01*
X152909227Y-110935432D01*
X153064568Y-111090773D01*
X153193696Y-111268502D01*
X153293431Y-111464243D01*
X153361318Y-111673176D01*
X153395684Y-111890157D01*
X153395684Y-112109843D01*
X153361318Y-112326824D01*
X153293431Y-112535757D01*
X153193696Y-112731498D01*
X153064568Y-112909227D01*
X152909227Y-113064568D01*
X152731498Y-113193696D01*
X152535757Y-113293431D01*
X152326824Y-113361318D01*
X152109843Y-113395684D01*
X151890157Y-113395684D01*
X151673176Y-113361318D01*
X151464243Y-113293431D01*
X151268502Y-113193696D01*
X151090773Y-113064568D01*
X150935432Y-112909227D01*
X150806304Y-112731498D01*
X150706569Y-112535757D01*
X150638682Y-112326824D01*
X150604316Y-112109843D01*
X150604316Y-111890157D01*
X150638682Y-111673176D01*
X150706569Y-111464243D01*
X150806304Y-111268502D01*
X150935432Y-111090773D01*
X151090773Y-110935432D01*
X151268502Y-110806304D01*
X151464243Y-110706569D01*
X151673176Y-110638682D01*
X151890157Y-110604316D01*
X152109843Y-110604316D01*
X152326824Y-110638682D01*
G37*
G36*
X136494134Y-107648806D02*
G01*
X136510355Y-107659645D01*
X136521194Y-107675866D01*
X136525000Y-107695000D01*
X136525000Y-109105000D01*
X136521194Y-109124134D01*
X136510355Y-109140355D01*
X136494134Y-109151194D01*
X136475000Y-109155000D01*
X135125000Y-109155000D01*
X135105866Y-109151194D01*
X135089645Y-109140355D01*
X135078806Y-109124134D01*
X135075000Y-109105000D01*
X135075000Y-107695000D01*
X135078806Y-107675866D01*
X135089645Y-107659645D01*
X135105866Y-107648806D01*
X135125000Y-107645000D01*
X136475000Y-107645000D01*
X136494134Y-107648806D01*
G37*
G36*
X138694134Y-107648806D02*
G01*
X138710355Y-107659645D01*
X138721194Y-107675866D01*
X138725000Y-107695000D01*
X138725000Y-109105000D01*
X138721194Y-109124134D01*
X138710355Y-109140355D01*
X138694134Y-109151194D01*
X138675000Y-109155000D01*
X137325000Y-109155000D01*
X137305866Y-109151194D01*
X137289645Y-109140355D01*
X137278806Y-109124134D01*
X137275000Y-109105000D01*
X137275000Y-107695000D01*
X137278806Y-107675866D01*
X137289645Y-107659645D01*
X137305866Y-107648806D01*
X137325000Y-107645000D01*
X138675000Y-107645000D01*
X138694134Y-107648806D01*
G37*
G36*
X140894134Y-107648806D02*
G01*
X140910355Y-107659645D01*
X140921194Y-107675866D01*
X140925000Y-107695000D01*
X140925000Y-109105000D01*
X140921194Y-109124134D01*
X140910355Y-109140355D01*
X140894134Y-109151194D01*
X140875000Y-109155000D01*
X139525000Y-109155000D01*
X139505866Y-109151194D01*
X139489645Y-109140355D01*
X139478806Y-109124134D01*
X139475000Y-109105000D01*
X139475000Y-107695000D01*
X139478806Y-107675866D01*
X139489645Y-107659645D01*
X139505866Y-107648806D01*
X139525000Y-107645000D01*
X140875000Y-107645000D01*
X140894134Y-107648806D01*
G37*
G36*
X143094134Y-107648806D02*
G01*
X143110355Y-107659645D01*
X143121194Y-107675866D01*
X143125000Y-107695000D01*
X143125000Y-109105000D01*
X143121194Y-109124134D01*
X143110355Y-109140355D01*
X143094134Y-109151194D01*
X143075000Y-109155000D01*
X141725000Y-109155000D01*
X141705866Y-109151194D01*
X141689645Y-109140355D01*
X141678806Y-109124134D01*
X141675000Y-109105000D01*
X141675000Y-107695000D01*
X141678806Y-107675866D01*
X141689645Y-107659645D01*
X141705866Y-107648806D01*
X141725000Y-107645000D01*
X143075000Y-107645000D01*
X143094134Y-107648806D01*
G37*
G36*
X136494134Y-105648806D02*
G01*
X136510355Y-105659645D01*
X136521194Y-105675866D01*
X136525000Y-105695000D01*
X136525000Y-107105000D01*
X136521194Y-107124134D01*
X136510355Y-107140355D01*
X136494134Y-107151194D01*
X136475000Y-107155000D01*
X135125000Y-107155000D01*
X135105866Y-107151194D01*
X135089645Y-107140355D01*
X135078806Y-107124134D01*
X135075000Y-107105000D01*
X135075000Y-105695000D01*
X135078806Y-105675866D01*
X135089645Y-105659645D01*
X135105866Y-105648806D01*
X135125000Y-105645000D01*
X136475000Y-105645000D01*
X136494134Y-105648806D01*
G37*
G36*
X138694134Y-105648806D02*
G01*
X138710355Y-105659645D01*
X138721194Y-105675866D01*
X138725000Y-105695000D01*
X138725000Y-107105000D01*
X138721194Y-107124134D01*
X138710355Y-107140355D01*
X138694134Y-107151194D01*
X138675000Y-107155000D01*
X137325000Y-107155000D01*
X137305866Y-107151194D01*
X137289645Y-107140355D01*
X137278806Y-107124134D01*
X137275000Y-107105000D01*
X137275000Y-105695000D01*
X137278806Y-105675866D01*
X137289645Y-105659645D01*
X137305866Y-105648806D01*
X137325000Y-105645000D01*
X138675000Y-105645000D01*
X138694134Y-105648806D01*
G37*
G36*
X140894134Y-105648806D02*
G01*
X140910355Y-105659645D01*
X140921194Y-105675866D01*
X140925000Y-105695000D01*
X140925000Y-107105000D01*
X140921194Y-107124134D01*
X140910355Y-107140355D01*
X140894134Y-107151194D01*
X140875000Y-107155000D01*
X139525000Y-107155000D01*
X139505866Y-107151194D01*
X139489645Y-107140355D01*
X139478806Y-107124134D01*
X139475000Y-107105000D01*
X139475000Y-105695000D01*
X139478806Y-105675866D01*
X139489645Y-105659645D01*
X139505866Y-105648806D01*
X139525000Y-105645000D01*
X140875000Y-105645000D01*
X140894134Y-105648806D01*
G37*
G36*
X143094134Y-105648806D02*
G01*
X143110355Y-105659645D01*
X143121194Y-105675866D01*
X143125000Y-105695000D01*
X143125000Y-107105000D01*
X143121194Y-107124134D01*
X143110355Y-107140355D01*
X143094134Y-107151194D01*
X143075000Y-107155000D01*
X141725000Y-107155000D01*
X141705866Y-107151194D01*
X141689645Y-107140355D01*
X141678806Y-107124134D01*
X141675000Y-107105000D01*
X141675000Y-105695000D01*
X141678806Y-105675866D01*
X141689645Y-105659645D01*
X141705866Y-105648806D01*
X141725000Y-105645000D01*
X143075000Y-105645000D01*
X143094134Y-105648806D01*
G37*
G36*
X148084134Y-100853806D02*
G01*
X148100355Y-100864645D01*
X148111194Y-100880866D01*
X148115000Y-100900000D01*
X148115000Y-105900000D01*
X148111194Y-105919134D01*
X148100355Y-105935355D01*
X148084134Y-105946194D01*
X148065000Y-105950000D01*
X144335000Y-105950000D01*
X144315866Y-105946194D01*
X144299645Y-105935355D01*
X144288806Y-105919134D01*
X144285000Y-105900000D01*
X144285000Y-100900000D01*
X144288806Y-100880866D01*
X144299645Y-100864645D01*
X144315866Y-100853806D01*
X144335000Y-100850000D01*
X148065000Y-100850000D01*
X148084134Y-100853806D01*
G37*
G36*
X159624134Y-100853806D02*
G01*
X159640355Y-100864645D01*
X159651194Y-100880866D01*
X159655000Y-100900000D01*
X159655000Y-105900000D01*
X159651194Y-105919134D01*
X159640355Y-105935355D01*
X159624134Y-105946194D01*
X159605000Y-105950000D01*
X155875000Y-105950000D01*
X155855866Y-105946194D01*
X155839645Y-105935355D01*
X155828806Y-105919134D01*
X155825000Y-105900000D01*
X155825000Y-100900000D01*
X155828806Y-100880866D01*
X155839645Y-100864645D01*
X155855866Y-100853806D01*
X155875000Y-100850000D01*
X159605000Y-100850000D01*
X159624134Y-100853806D01*
G37*
G36*
X143219134Y-102038806D02*
G01*
X143235355Y-102049645D01*
X143246194Y-102065866D01*
X143250000Y-102085000D01*
X143250000Y-102118035D01*
X143271965Y-102140000D01*
X143590000Y-102140000D01*
X143609134Y-102143806D01*
X143625355Y-102154645D01*
X143636194Y-102170866D01*
X143640000Y-102190000D01*
X143640000Y-102690000D01*
X143636194Y-102709134D01*
X143625355Y-102725355D01*
X143609134Y-102736194D01*
X143607286Y-102736561D01*
X143594723Y-102744956D01*
X143594723Y-102785044D01*
X143607287Y-102793438D01*
X143609134Y-102793806D01*
X143625355Y-102804645D01*
X143636194Y-102820866D01*
X143640000Y-102840000D01*
X143640000Y-103340000D01*
X143636194Y-103359134D01*
X143625355Y-103375355D01*
X143609134Y-103386194D01*
X143607286Y-103386561D01*
X143594723Y-103394956D01*
X143594723Y-103435044D01*
X143607287Y-103443438D01*
X143609134Y-103443806D01*
X143625355Y-103454645D01*
X143636194Y-103470866D01*
X143640000Y-103490000D01*
X143640000Y-103990000D01*
X143636194Y-104009134D01*
X143625355Y-104025355D01*
X143609134Y-104036194D01*
X143607286Y-104036561D01*
X143594723Y-104044956D01*
X143594723Y-104085044D01*
X143607287Y-104093438D01*
X143609134Y-104093806D01*
X143625355Y-104104645D01*
X143636194Y-104120866D01*
X143640000Y-104140000D01*
X143640000Y-104640000D01*
X143636194Y-104659134D01*
X143625355Y-104675355D01*
X143609134Y-104686194D01*
X143590000Y-104690000D01*
X143271963Y-104690000D01*
X143250000Y-104711965D01*
X143250000Y-104735000D01*
X143246194Y-104754134D01*
X143235355Y-104770355D01*
X143219134Y-104781194D01*
X143200000Y-104785000D01*
X141200000Y-104785000D01*
X141180866Y-104781194D01*
X141164645Y-104770355D01*
X141153806Y-104754134D01*
X141150000Y-104735000D01*
X141150000Y-102085000D01*
X141153806Y-102065866D01*
X141164645Y-102049645D01*
X141180866Y-102038806D01*
X141200000Y-102035000D01*
X143200000Y-102035000D01*
X143219134Y-102038806D01*
G37*
G36*
X168669134Y-102303806D02*
G01*
X168685355Y-102314645D01*
X168696194Y-102330866D01*
X168700000Y-102350000D01*
X168700000Y-104650000D01*
X168696194Y-104669134D01*
X168685355Y-104685355D01*
X168669134Y-104696194D01*
X168650000Y-104700000D01*
X166350000Y-104700000D01*
X166330866Y-104696194D01*
X166314645Y-104685355D01*
X166303806Y-104669134D01*
X166300000Y-104650000D01*
X166300000Y-102350000D01*
X166303806Y-102330866D01*
X166314645Y-102314645D01*
X166330866Y-102303806D01*
X166350000Y-102300000D01*
X168650000Y-102300000D01*
X168669134Y-102303806D01*
G37*
G36*
X124240134Y-102293156D02*
G01*
X124419220Y-102351345D01*
X124586998Y-102436832D01*
X124739338Y-102547513D01*
X124872487Y-102680662D01*
X124983168Y-102833002D01*
X125068655Y-103000780D01*
X125126844Y-103179866D01*
X125156301Y-103365849D01*
X125156301Y-103554151D01*
X125126844Y-103740134D01*
X125068655Y-103919220D01*
X124983168Y-104086998D01*
X124872487Y-104239338D01*
X124739338Y-104372487D01*
X124586998Y-104483168D01*
X124419220Y-104568655D01*
X124240134Y-104626844D01*
X124054151Y-104656301D01*
X123865849Y-104656301D01*
X123679866Y-104626844D01*
X123500780Y-104568655D01*
X123333002Y-104483168D01*
X123180662Y-104372487D01*
X123047513Y-104239338D01*
X122936832Y-104086998D01*
X122851345Y-103919220D01*
X122793156Y-103740134D01*
X122763699Y-103554151D01*
X122763699Y-103365849D01*
X122793156Y-103179866D01*
X122851345Y-103000780D01*
X122936832Y-102833002D01*
X123047513Y-102680662D01*
X123180662Y-102547513D01*
X123333002Y-102436832D01*
X123500780Y-102351345D01*
X123679866Y-102293156D01*
X123865849Y-102263699D01*
X124054151Y-102263699D01*
X124240134Y-102293156D01*
G37*
G36*
X140649134Y-104088806D02*
G01*
X140665355Y-104099645D01*
X140676194Y-104115866D01*
X140680000Y-104135000D01*
X140680000Y-104585000D01*
X140676194Y-104604134D01*
X140665355Y-104620355D01*
X140649134Y-104631194D01*
X140630000Y-104635000D01*
X139950000Y-104635000D01*
X139930866Y-104631194D01*
X139914645Y-104620355D01*
X139903806Y-104604134D01*
X139900000Y-104585000D01*
X139900000Y-104135000D01*
X139903806Y-104115866D01*
X139914645Y-104099645D01*
X139930866Y-104088806D01*
X139950000Y-104085000D01*
X140630000Y-104085000D01*
X140649134Y-104088806D01*
G37*
G36*
X140649134Y-103438806D02*
G01*
X140665355Y-103449645D01*
X140676194Y-103465866D01*
X140680000Y-103485000D01*
X140680000Y-103935000D01*
X140676194Y-103954134D01*
X140665355Y-103970355D01*
X140649134Y-103981194D01*
X140630000Y-103985000D01*
X139950000Y-103985000D01*
X139930866Y-103981194D01*
X139914645Y-103970355D01*
X139903806Y-103954134D01*
X139900000Y-103935000D01*
X139900000Y-103485000D01*
X139903806Y-103465866D01*
X139914645Y-103449645D01*
X139930866Y-103438806D01*
X139950000Y-103435000D01*
X140630000Y-103435000D01*
X140649134Y-103438806D01*
G37*
G36*
X140649134Y-102788806D02*
G01*
X140665355Y-102799645D01*
X140676194Y-102815866D01*
X140680000Y-102835000D01*
X140680000Y-103285000D01*
X140676194Y-103304134D01*
X140665355Y-103320355D01*
X140649134Y-103331194D01*
X140630000Y-103335000D01*
X139950000Y-103335000D01*
X139930866Y-103331194D01*
X139914645Y-103320355D01*
X139903806Y-103304134D01*
X139900000Y-103285000D01*
X139900000Y-102835000D01*
X139903806Y-102815866D01*
X139914645Y-102799645D01*
X139930866Y-102788806D01*
X139950000Y-102785000D01*
X140630000Y-102785000D01*
X140649134Y-102788806D01*
G37*
G36*
X140649134Y-102138806D02*
G01*
X140665355Y-102149645D01*
X140676194Y-102165866D01*
X140680000Y-102185000D01*
X140680000Y-102635000D01*
X140676194Y-102654134D01*
X140665355Y-102670355D01*
X140649134Y-102681194D01*
X140630000Y-102685000D01*
X139950000Y-102685000D01*
X139930866Y-102681194D01*
X139914645Y-102670355D01*
X139903806Y-102654134D01*
X139900000Y-102635000D01*
X139900000Y-102185000D01*
X139903806Y-102165866D01*
X139914645Y-102149645D01*
X139930866Y-102138806D01*
X139950000Y-102135000D01*
X140630000Y-102135000D01*
X140649134Y-102138806D01*
G37*
G36*
X135084134Y-100988806D02*
G01*
X135100355Y-100999645D01*
X135111194Y-101015866D01*
X135115000Y-101035000D01*
X135115000Y-102525000D01*
X135111194Y-102544134D01*
X135100355Y-102560355D01*
X135084134Y-102571194D01*
X135065000Y-102575000D01*
X133335000Y-102575000D01*
X133315866Y-102571194D01*
X133299645Y-102560355D01*
X133288806Y-102544134D01*
X133285000Y-102525000D01*
X133285000Y-101035000D01*
X133288806Y-101015866D01*
X133299645Y-100999645D01*
X133315866Y-100988806D01*
X133335000Y-100985000D01*
X135065000Y-100985000D01*
X135084134Y-100988806D01*
G37*
G36*
X137684134Y-100988806D02*
G01*
X137700355Y-100999645D01*
X137711194Y-101015866D01*
X137715000Y-101035000D01*
X137715000Y-102525000D01*
X137711194Y-102544134D01*
X137700355Y-102560355D01*
X137684134Y-102571194D01*
X137665000Y-102575000D01*
X135935000Y-102575000D01*
X135915866Y-102571194D01*
X135899645Y-102560355D01*
X135888806Y-102544134D01*
X135885000Y-102525000D01*
X135885000Y-101035000D01*
X135888806Y-101015866D01*
X135899645Y-100999645D01*
X135915866Y-100988806D01*
X135935000Y-100985000D01*
X137665000Y-100985000D01*
X137684134Y-100988806D01*
G37*
G36*
X139894134Y-99848806D02*
G01*
X139910355Y-99859645D01*
X139921194Y-99875866D01*
X139925000Y-99895000D01*
X139925000Y-101305000D01*
X139921194Y-101324134D01*
X139910355Y-101340355D01*
X139894134Y-101351194D01*
X139875000Y-101355000D01*
X138525000Y-101355000D01*
X138505866Y-101351194D01*
X138489645Y-101340355D01*
X138478806Y-101324134D01*
X138475000Y-101305000D01*
X138475000Y-99895000D01*
X138478806Y-99875866D01*
X138489645Y-99859645D01*
X138505866Y-99848806D01*
X138525000Y-99845000D01*
X139875000Y-99845000D01*
X139894134Y-99848806D01*
G37*
G36*
X141244134Y-100323806D02*
G01*
X141260355Y-100334645D01*
X141271194Y-100350866D01*
X141275000Y-100370000D01*
X141275000Y-101050000D01*
X141271194Y-101069134D01*
X141260355Y-101085355D01*
X141244134Y-101096194D01*
X141225000Y-101100000D01*
X140775000Y-101100000D01*
X140755866Y-101096194D01*
X140739645Y-101085355D01*
X140728806Y-101069134D01*
X140725000Y-101050000D01*
X140725000Y-100370000D01*
X140728806Y-100350866D01*
X140739645Y-100334645D01*
X140755866Y-100323806D01*
X140775000Y-100320000D01*
X141225000Y-100320000D01*
X141244134Y-100323806D01*
G37*
G36*
X141894134Y-100323806D02*
G01*
X141910355Y-100334645D01*
X141921194Y-100350866D01*
X141925000Y-100370000D01*
X141925000Y-101050000D01*
X141921194Y-101069134D01*
X141910355Y-101085355D01*
X141894134Y-101096194D01*
X141875000Y-101100000D01*
X141425000Y-101100000D01*
X141405866Y-101096194D01*
X141389645Y-101085355D01*
X141378806Y-101069134D01*
X141375000Y-101050000D01*
X141375000Y-100370000D01*
X141378806Y-100350866D01*
X141389645Y-100334645D01*
X141405866Y-100323806D01*
X141425000Y-100320000D01*
X141875000Y-100320000D01*
X141894134Y-100323806D01*
G37*
G36*
X142544134Y-100323806D02*
G01*
X142560355Y-100334645D01*
X142571194Y-100350866D01*
X142575000Y-100370000D01*
X142575000Y-101050000D01*
X142571194Y-101069134D01*
X142560355Y-101085355D01*
X142544134Y-101096194D01*
X142525000Y-101100000D01*
X142075000Y-101100000D01*
X142055866Y-101096194D01*
X142039645Y-101085355D01*
X142028806Y-101069134D01*
X142025000Y-101050000D01*
X142025000Y-100370000D01*
X142028806Y-100350866D01*
X142039645Y-100334645D01*
X142055866Y-100323806D01*
X142075000Y-100320000D01*
X142525000Y-100320000D01*
X142544134Y-100323806D01*
G37*
G36*
X143194134Y-100323806D02*
G01*
X143210355Y-100334645D01*
X143221194Y-100350866D01*
X143225000Y-100370000D01*
X143225000Y-101050000D01*
X143221194Y-101069134D01*
X143210355Y-101085355D01*
X143194134Y-101096194D01*
X143175000Y-101100000D01*
X142725000Y-101100000D01*
X142705866Y-101096194D01*
X142689645Y-101085355D01*
X142678806Y-101069134D01*
X142675000Y-101050000D01*
X142675000Y-100370000D01*
X142678806Y-100350866D01*
X142689645Y-100334645D01*
X142705866Y-100323806D01*
X142725000Y-100320000D01*
X143175000Y-100320000D01*
X143194134Y-100323806D01*
G37*
G36*
X141299134Y-97363806D02*
G01*
X141315355Y-97374645D01*
X141326194Y-97390866D01*
X141326561Y-97392711D01*
X141334957Y-97405276D01*
X141375043Y-97405276D01*
X141383439Y-97392710D01*
X141383806Y-97390866D01*
X141394645Y-97374645D01*
X141410866Y-97363806D01*
X141430000Y-97360000D01*
X141930000Y-97360000D01*
X141949134Y-97363806D01*
X141965355Y-97374645D01*
X141976194Y-97390866D01*
X141976561Y-97392711D01*
X141984957Y-97405276D01*
X142025043Y-97405276D01*
X142033439Y-97392710D01*
X142033806Y-97390866D01*
X142044645Y-97374645D01*
X142060866Y-97363806D01*
X142080000Y-97360000D01*
X142580000Y-97360000D01*
X142599134Y-97363806D01*
X142615355Y-97374645D01*
X142626194Y-97390866D01*
X142626561Y-97392711D01*
X142634957Y-97405276D01*
X142675043Y-97405276D01*
X142683439Y-97392710D01*
X142683806Y-97390866D01*
X142694645Y-97374645D01*
X142710866Y-97363806D01*
X142730000Y-97360000D01*
X143230000Y-97360000D01*
X143249134Y-97363806D01*
X143265355Y-97374645D01*
X143276194Y-97390866D01*
X143280000Y-97410000D01*
X143280000Y-97728035D01*
X143301965Y-97750000D01*
X143325000Y-97750000D01*
X143344134Y-97753806D01*
X143360355Y-97764645D01*
X143371194Y-97780866D01*
X143375000Y-97800000D01*
X143375000Y-99800000D01*
X143371194Y-99819134D01*
X143360355Y-99835355D01*
X143344134Y-99846194D01*
X143325000Y-99850000D01*
X140675000Y-99850000D01*
X140655866Y-99846194D01*
X140639645Y-99835355D01*
X140628806Y-99819134D01*
X140625000Y-99800000D01*
X140625000Y-97800000D01*
X140628806Y-97780866D01*
X140639645Y-97764645D01*
X140655866Y-97753806D01*
X140675000Y-97750000D01*
X140678695Y-97750000D01*
X140708035Y-97749999D01*
X140730000Y-97728033D01*
X140730000Y-97413695D01*
X140730000Y-97413694D01*
X140730000Y-97410000D01*
X140733806Y-97390866D01*
X140744645Y-97374645D01*
X140760866Y-97363806D01*
X140780000Y-97360000D01*
X141280000Y-97360000D01*
X141299134Y-97363806D01*
G37*
G36*
X167780134Y-97253156D02*
G01*
X167959220Y-97311345D01*
X168126998Y-97396832D01*
X168279338Y-97507513D01*
X168412487Y-97640662D01*
X168523168Y-97793002D01*
X168608655Y-97960780D01*
X168666844Y-98139866D01*
X168696301Y-98325849D01*
X168696301Y-98514151D01*
X168666844Y-98700134D01*
X168608655Y-98879220D01*
X168523168Y-99046998D01*
X168412487Y-99199338D01*
X168279338Y-99332487D01*
X168126998Y-99443168D01*
X167959220Y-99528655D01*
X167780134Y-99586844D01*
X167594151Y-99616301D01*
X167405849Y-99616301D01*
X167219866Y-99586844D01*
X167040780Y-99528655D01*
X166873002Y-99443168D01*
X166720662Y-99332487D01*
X166587513Y-99199338D01*
X166476832Y-99046998D01*
X166391345Y-98879220D01*
X166333156Y-98700134D01*
X166303699Y-98514151D01*
X166303699Y-98325849D01*
X166333156Y-98139866D01*
X166391345Y-97960780D01*
X166476832Y-97793002D01*
X166587513Y-97640662D01*
X166720662Y-97507513D01*
X166873002Y-97396832D01*
X167040780Y-97311345D01*
X167219866Y-97253156D01*
X167405849Y-97223699D01*
X167594151Y-97223699D01*
X167780134Y-97253156D01*
G37*
G36*
X125129134Y-97183806D02*
G01*
X125145355Y-97194645D01*
X125156194Y-97210866D01*
X125160000Y-97230000D01*
X125160000Y-99530000D01*
X125156194Y-99549134D01*
X125145355Y-99565355D01*
X125129134Y-99576194D01*
X125110000Y-99580000D01*
X122810000Y-99580000D01*
X122790866Y-99576194D01*
X122774645Y-99565355D01*
X122763806Y-99549134D01*
X122760000Y-99530000D01*
X122760000Y-97230000D01*
X122763806Y-97210866D01*
X122774645Y-97194645D01*
X122790866Y-97183806D01*
X122810000Y-97180000D01*
X125110000Y-97180000D01*
X125129134Y-97183806D01*
G37*
G36*
X135084134Y-97808806D02*
G01*
X135100355Y-97819645D01*
X135111194Y-97835866D01*
X135115000Y-97855000D01*
X135115000Y-99345000D01*
X135111194Y-99364134D01*
X135100355Y-99380355D01*
X135084134Y-99391194D01*
X135065000Y-99395000D01*
X133335000Y-99395000D01*
X133315866Y-99391194D01*
X133299645Y-99380355D01*
X133288806Y-99364134D01*
X133285000Y-99345000D01*
X133285000Y-97855000D01*
X133288806Y-97835866D01*
X133299645Y-97819645D01*
X133315866Y-97808806D01*
X133335000Y-97805000D01*
X135065000Y-97805000D01*
X135084134Y-97808806D01*
G37*
G36*
X137684134Y-97808806D02*
G01*
X137700355Y-97819645D01*
X137711194Y-97835866D01*
X137715000Y-97855000D01*
X137715000Y-99345000D01*
X137711194Y-99364134D01*
X137700355Y-99380355D01*
X137684134Y-99391194D01*
X137665000Y-99395000D01*
X135935000Y-99395000D01*
X135915866Y-99391194D01*
X135899645Y-99380355D01*
X135888806Y-99364134D01*
X135885000Y-99345000D01*
X135885000Y-97855000D01*
X135888806Y-97835866D01*
X135899645Y-97819645D01*
X135915866Y-97808806D01*
X135935000Y-97805000D01*
X137665000Y-97805000D01*
X137684134Y-97808806D01*
G37*
G36*
X139894134Y-97848806D02*
G01*
X139910355Y-97859645D01*
X139921194Y-97875866D01*
X139925000Y-97895000D01*
X139925000Y-99305000D01*
X139921194Y-99324134D01*
X139910355Y-99340355D01*
X139894134Y-99351194D01*
X139875000Y-99355000D01*
X138525000Y-99355000D01*
X138505866Y-99351194D01*
X138489645Y-99340355D01*
X138478806Y-99324134D01*
X138475000Y-99305000D01*
X138475000Y-97895000D01*
X138478806Y-97875866D01*
X138489645Y-97859645D01*
X138505866Y-97848806D01*
X138525000Y-97845000D01*
X139875000Y-97845000D01*
X139894134Y-97848806D01*
G37*
G36*
X131826824Y-94638682D02*
G01*
X132035757Y-94706569D01*
X132231498Y-94806304D01*
X132409227Y-94935432D01*
X132564568Y-95090773D01*
X132693696Y-95268502D01*
X132793431Y-95464243D01*
X132861318Y-95673176D01*
X132895684Y-95890157D01*
X132895684Y-96109843D01*
X132861318Y-96326824D01*
X132793431Y-96535757D01*
X132693696Y-96731498D01*
X132564568Y-96909227D01*
X132409227Y-97064568D01*
X132231498Y-97193696D01*
X132035757Y-97293431D01*
X131826824Y-97361318D01*
X131609843Y-97395684D01*
X131390157Y-97395684D01*
X131173176Y-97361318D01*
X130964243Y-97293431D01*
X130768502Y-97193696D01*
X130590773Y-97064568D01*
X130435432Y-96909227D01*
X130306304Y-96731498D01*
X130206569Y-96535757D01*
X130138682Y-96326824D01*
X130104316Y-96109843D01*
X130104316Y-95890157D01*
X130138682Y-95673176D01*
X130206569Y-95464243D01*
X130306304Y-95268502D01*
X130435432Y-95090773D01*
X130590773Y-94935432D01*
X130768502Y-94806304D01*
X130964243Y-94706569D01*
X131173176Y-94638682D01*
X131390157Y-94604316D01*
X131609843Y-94604316D01*
X131826824Y-94638682D01*
G37*
G36*
X156116824Y-91388682D02*
G01*
X156325757Y-91456569D01*
X156521498Y-91556304D01*
X156699227Y-91685432D01*
X156854568Y-91840773D01*
X156983696Y-92018502D01*
X157083431Y-92214243D01*
X157151318Y-92423176D01*
X157185684Y-92640157D01*
X157185684Y-92859843D01*
X157151318Y-93076824D01*
X157083431Y-93285757D01*
X156983696Y-93481498D01*
X156854568Y-93659227D01*
X156699227Y-93814568D01*
X156521498Y-93943696D01*
X156325757Y-94043431D01*
X156116824Y-94111318D01*
X155899843Y-94145684D01*
X155680157Y-94145684D01*
X155463176Y-94111318D01*
X155254243Y-94043431D01*
X155058502Y-93943696D01*
X154880773Y-93814568D01*
X154725432Y-93659227D01*
X154596304Y-93481498D01*
X154496569Y-93285757D01*
X154428682Y-93076824D01*
X154394316Y-92859843D01*
X154394316Y-92640157D01*
X154428682Y-92423176D01*
X154496569Y-92214243D01*
X154596304Y-92018502D01*
X154725432Y-91840773D01*
X154880773Y-91685432D01*
X155058502Y-91556304D01*
X155254243Y-91456569D01*
X155463176Y-91388682D01*
X155680157Y-91354316D01*
X155899843Y-91354316D01*
X156116824Y-91388682D01*
G37*
G36*
X122760894Y-86743093D02*
G01*
X123094348Y-86819202D01*
X123417184Y-86932167D01*
X123725343Y-87080569D01*
X124014947Y-87262539D01*
X124282357Y-87475791D01*
X124524209Y-87717643D01*
X124737461Y-87985053D01*
X124919431Y-88274657D01*
X125067833Y-88582816D01*
X125180798Y-88905652D01*
X125256907Y-89239106D01*
X125295202Y-89578985D01*
X125295202Y-89921015D01*
X125256907Y-90260894D01*
X125180798Y-90594348D01*
X125067833Y-90917184D01*
X124919431Y-91225343D01*
X124737461Y-91514947D01*
X124524209Y-91782357D01*
X124282357Y-92024209D01*
X124014947Y-92237461D01*
X123725343Y-92419431D01*
X123417184Y-92567833D01*
X123094348Y-92680798D01*
X122760894Y-92756907D01*
X122421015Y-92795202D01*
X122078985Y-92795202D01*
X121739106Y-92756907D01*
X121405652Y-92680798D01*
X121082816Y-92567833D01*
X120774657Y-92419431D01*
X120485053Y-92237461D01*
X120217643Y-92024209D01*
X119975791Y-91782357D01*
X119762539Y-91514947D01*
X119580569Y-91225343D01*
X119432167Y-90917184D01*
X119319202Y-90594348D01*
X119243093Y-90260894D01*
X119204798Y-89921015D01*
X119204798Y-89578985D01*
X119243093Y-89239106D01*
X119319202Y-88905652D01*
X119432167Y-88582816D01*
X119580569Y-88274657D01*
X119762539Y-87985053D01*
X119975791Y-87717643D01*
X120217643Y-87475791D01*
X120485053Y-87262539D01*
X120774657Y-87080569D01*
X121082816Y-86932167D01*
X121405652Y-86819202D01*
X121739106Y-86743093D01*
X122078985Y-86704798D01*
X122421015Y-86704798D01*
X122760894Y-86743093D01*
G37*
G36*
X169760894Y-86743093D02*
G01*
X170094348Y-86819202D01*
X170417184Y-86932167D01*
X170725343Y-87080569D01*
X171014947Y-87262539D01*
X171282357Y-87475791D01*
X171524209Y-87717643D01*
X171737461Y-87985053D01*
X171919431Y-88274657D01*
X172067833Y-88582816D01*
X172180798Y-88905652D01*
X172256907Y-89239106D01*
X172295202Y-89578985D01*
X172295202Y-89921015D01*
X172256907Y-90260894D01*
X172180798Y-90594348D01*
X172067833Y-90917184D01*
X171919431Y-91225343D01*
X171737461Y-91514947D01*
X171524209Y-91782357D01*
X171282357Y-92024209D01*
X171014947Y-92237461D01*
X170725343Y-92419431D01*
X170417184Y-92567833D01*
X170094348Y-92680798D01*
X169760894Y-92756907D01*
X169421015Y-92795202D01*
X169078985Y-92795202D01*
X168739106Y-92756907D01*
X168405652Y-92680798D01*
X168082816Y-92567833D01*
X167774657Y-92419431D01*
X167485053Y-92237461D01*
X167217643Y-92024209D01*
X166975791Y-91782357D01*
X166762539Y-91514947D01*
X166580569Y-91225343D01*
X166432167Y-90917184D01*
X166319202Y-90594348D01*
X166243093Y-90260894D01*
X166204798Y-89921015D01*
X166204798Y-89578985D01*
X166243093Y-89239106D01*
X166319202Y-88905652D01*
X166432167Y-88582816D01*
X166580569Y-88274657D01*
X166762539Y-87985053D01*
X166975791Y-87717643D01*
X167217643Y-87475791D01*
X167485053Y-87262539D01*
X167774657Y-87080569D01*
X168082816Y-86932167D01*
X168405652Y-86819202D01*
X168739106Y-86743093D01*
X169078985Y-86704798D01*
X169421015Y-86704798D01*
X169760894Y-86743093D01*
G37*
%LPD*%
M02*
