%TF.GenerationSoftware,KiCad,Pcbnew,9.0.1*%
%TF.CreationDate,2025-05-14T23:35:05-05:00*%
%TF.ProjectId,Project-Star,50726f6a-6563-4742-9d53-7461722e6b69,rev?*%
%TF.SameCoordinates,Original*%
%TF.FileFunction,Copper,L1,Top*%
%TF.FilePolarity,Positive*%
%FSLAX46Y46*%
G04 Gerber Fmt 4.6, Leading zero omitted, Abs format (unit mm)*
G04 Created by KiCad (PCBNEW 9.0.1) date 2025-05-14 23:35:05*
%MOMM*%
%LPD*%
G01*
G04 APERTURE LIST*
%TA.AperFunction,ComponentPad*%
%ADD10C,2.700000*%
%TD*%
%TA.AperFunction,SMDPad,CuDef*%
%ADD11R,2.000000X2.650000*%
%TD*%
%TA.AperFunction,SMDPad,CuDef*%
%ADD12R,0.600000X0.500000*%
%TD*%
%TA.AperFunction,SMDPad,CuDef*%
%ADD13R,0.680000X0.450000*%
%TD*%
%TA.AperFunction,SMDPad,CuDef*%
%ADD14R,2.650000X2.000000*%
%TD*%
%TA.AperFunction,SMDPad,CuDef*%
%ADD15R,0.500000X0.600000*%
%TD*%
%TA.AperFunction,SMDPad,CuDef*%
%ADD16R,0.450000X0.680000*%
%TD*%
%TA.AperFunction,SMDPad,CuDef*%
%ADD17R,3.730000X5.000000*%
%TD*%
%TA.AperFunction,SMDPad,CuDef*%
%ADD18R,1.350000X1.410000*%
%TD*%
%TA.AperFunction,ComponentPad*%
%ADD19R,2.300000X2.300000*%
%TD*%
%TA.AperFunction,ComponentPad*%
%ADD20C,2.300000*%
%TD*%
%TA.AperFunction,SMDPad,CuDef*%
%ADD21R,1.730000X1.490000*%
%TD*%
%TA.AperFunction,ComponentPad*%
%ADD22C,6.000000*%
%TD*%
%TA.AperFunction,ViaPad*%
%ADD23C,0.600000*%
%TD*%
%TA.AperFunction,Conductor*%
%ADD24C,0.300000*%
%TD*%
%TA.AperFunction,Conductor*%
%ADD25C,2.000000*%
%TD*%
%TA.AperFunction,Conductor*%
%ADD26C,1.000000*%
%TD*%
%TA.AperFunction,Conductor*%
%ADD27C,0.200000*%
%TD*%
%TA.AperFunction,Conductor*%
%ADD28C,0.400000*%
%TD*%
%TA.AperFunction,Conductor*%
%ADD29C,0.600000*%
%TD*%
%TA.AperFunction,Conductor*%
%ADD30C,3.000000*%
%TD*%
%TA.AperFunction,Conductor*%
%ADD31C,0.800000*%
%TD*%
%TA.AperFunction,Conductor*%
%ADD32C,0.500000*%
%TD*%
G04 APERTURE END LIST*
D10*
%TO.P,VIN,1,1*%
%TO.N,/20V_Power_Line/Vin*%
X131500000Y-96000000D03*
%TD*%
D11*
%TO.P,Q2,9,D*%
%TO.N,Net-(U4-SW)*%
X142200000Y-103410000D03*
D12*
%TO.P,Q2,5,D*%
X143290000Y-104390000D03*
%TO.P,Q2,6,D*%
X143290000Y-103740000D03*
%TO.P,Q2,7,D*%
X143290000Y-103090000D03*
%TO.P,Q2,8,D*%
X143290000Y-102440000D03*
D13*
%TO.P,Q2,4,G*%
%TO.N,Net-(Q2-G)*%
X140290000Y-104360000D03*
%TO.P,Q2,3,S*%
%TO.N,GND*%
X140290000Y-103710000D03*
%TO.P,Q2,2,S*%
X140290000Y-103060000D03*
%TO.P,Q2,1,S*%
X140290000Y-102410000D03*
%TD*%
D10*
%TO.P,VOUT,1,1*%
%TO.N,/20V_Power_Line/Vout*%
X152000000Y-112000000D03*
%TD*%
%TO.P,GND,1,1*%
%TO.N,GND*%
X155790000Y-92750000D03*
%TD*%
D14*
%TO.P,Q1,9,D*%
%TO.N,/20V_Power_Line/Vin*%
X142000000Y-98800000D03*
D15*
%TO.P,Q1,5,D*%
X142980000Y-97710000D03*
%TO.P,Q1,6,D*%
X142330000Y-97710000D03*
%TO.P,Q1,7,D*%
X141680000Y-97710000D03*
%TO.P,Q1,8,D*%
X141030000Y-97710000D03*
D16*
%TO.P,Q1,4,G*%
%TO.N,Net-(Q1-G)*%
X142950000Y-100710000D03*
%TO.P,Q1,3,S*%
%TO.N,Net-(U4-SW)*%
X142300000Y-100710000D03*
%TO.P,Q1,2,S*%
X141650000Y-100710000D03*
%TO.P,Q1,1,S*%
X141000000Y-100710000D03*
%TD*%
D17*
%TO.P,LF1,1,1*%
%TO.N,Net-(U4-SW)*%
X146200000Y-103400000D03*
%TO.P,LF1,2,2*%
%TO.N,/20V_Power_Line/Vout*%
X157740000Y-103400000D03*
%TD*%
D18*
%TO.P,Cout4,2,2*%
%TO.N,GND*%
X135800000Y-106400000D03*
%TO.P,Cout4,1,1*%
%TO.N,/20V_Power_Line/Vout*%
X135800000Y-108400000D03*
%TD*%
%TO.P,Cout3,2,2*%
%TO.N,GND*%
X138000000Y-106400000D03*
%TO.P,Cout3,1,1*%
%TO.N,/20V_Power_Line/Vout*%
X138000000Y-108400000D03*
%TD*%
%TO.P,Cout2,2,2*%
%TO.N,GND*%
X140200000Y-106400000D03*
%TO.P,Cout2,1,1*%
%TO.N,/20V_Power_Line/Vout*%
X140200000Y-108400000D03*
%TD*%
%TO.P,Cout1,2,2*%
%TO.N,GND*%
X142400000Y-106400000D03*
%TO.P,Cout1,1,1*%
%TO.N,/20V_Power_Line/Vout*%
X142400000Y-108400000D03*
%TD*%
D19*
%TO.P,CN2,1,1*%
%TO.N,/20V_Power_Line/Vout*%
X167500000Y-103500000D03*
D20*
%TO.P,CN2,2,2*%
%TO.N,GND*%
X167500000Y-98420000D03*
%TD*%
D19*
%TO.P,CN1,1,1*%
%TO.N,/20V_Power_Line/Vin*%
X123960000Y-98380000D03*
D20*
%TO.P,CN1,2,2*%
%TO.N,GND*%
X123960000Y-103460000D03*
%TD*%
D18*
%TO.P,Cin3,2,2*%
%TO.N,GND*%
X139200000Y-100600000D03*
%TO.P,Cin3,1,1*%
%TO.N,/20V_Power_Line/Vin*%
X139200000Y-98600000D03*
%TD*%
D21*
%TO.P,Cin2,2,2*%
%TO.N,GND*%
X136800000Y-101780000D03*
%TO.P,Cin2,1,1*%
%TO.N,/20V_Power_Line/Vin*%
X136800000Y-98600000D03*
%TD*%
%TO.P,Cin1,2,2*%
%TO.N,GND*%
X134200000Y-101780000D03*
%TO.P,Cin1,1,1*%
%TO.N,/20V_Power_Line/Vin*%
X134200000Y-98600000D03*
%TD*%
D22*
%TO.P,H2,1*%
%TO.N,GND*%
X122500000Y-111800000D03*
%TD*%
%TO.P,H4,1*%
%TO.N,GND*%
X169250000Y-89750000D03*
%TD*%
%TO.P,H3,1*%
%TO.N,GND*%
X122250000Y-89750000D03*
%TD*%
%TO.P,H1,1*%
%TO.N,GND*%
X164500000Y-111800000D03*
%TD*%
D23*
%TO.N,/20V_Power_Line/Vout*%
X137108976Y-108500000D03*
%TO.N,Net-(U4-SW)*%
X143290000Y-102440000D03*
X141600000Y-94500000D03*
%TO.N,Net-(Q2-G)*%
X134642804Y-105562759D03*
%TO.N,Net-(Q1-G)*%
X143654253Y-100176290D03*
%TO.N,Net-(U4-ILIM)*%
X134927974Y-100500000D03*
X139800000Y-97100000D03*
%TO.N,GND*%
X133750000Y-106750000D03*
X145250000Y-92250000D03*
X136262727Y-103315942D03*
%TO.N,/20V_Power_Line/Vout*%
X135800000Y-110000000D03*
%TO.N,GND*%
X137735000Y-100640000D03*
X139284808Y-104205214D03*
X136800000Y-101090000D03*
%TO.N,Net-(Q2-G)*%
X134750000Y-97354998D03*
%TO.N,GND*%
X134500000Y-103250000D03*
X141250000Y-105235002D03*
X132500000Y-98750000D03*
%TO.N,/20V_Power_Line/Vin*%
X142500000Y-97250000D03*
%TO.N,GND*%
X138889723Y-103610277D03*
%TO.N,/20V_Power_Line/Vin*%
X141750000Y-99869998D03*
%TO.N,GND*%
X139500000Y-102250000D03*
X143750000Y-101000000D03*
X144000000Y-98500000D03*
%TO.N,Net-(Q1-G)*%
X137735692Y-97360023D03*
%TO.N,GND*%
X133000000Y-93500000D03*
X141000000Y-113250000D03*
X136800000Y-100190000D03*
X135865000Y-100640000D03*
%TD*%
D24*
%TO.N,/20V_Power_Line/Vin*%
X131500000Y-96000000D02*
X132050000Y-95450000D01*
D25*
X141680000Y-96730000D02*
X141680000Y-97710000D01*
X132050000Y-95450000D02*
X140400000Y-95450000D01*
X140400000Y-95450000D02*
X141680000Y-96730000D01*
D24*
X134200000Y-98600000D02*
X134100000Y-98600000D01*
D26*
%TO.N,/20V_Power_Line/Vout*%
X157740000Y-103400000D02*
X159150000Y-103400000D01*
X159150000Y-103400000D02*
X159900000Y-104150000D01*
X159900000Y-104150000D02*
X159900000Y-110600000D01*
X145000000Y-111750000D02*
X142400000Y-109150000D01*
X142400000Y-109150000D02*
X142400000Y-108400000D01*
X159900000Y-110600000D02*
X158750000Y-111750000D01*
X158750000Y-111750000D02*
X145000000Y-111750000D01*
D27*
X135800000Y-110000000D02*
X135800000Y-108400000D01*
D24*
%TO.N,Net-(Q2-G)*%
X134642804Y-105562759D02*
X135349349Y-104856214D01*
X139793786Y-104856214D02*
X140290000Y-104360000D01*
X135349349Y-104856214D02*
X139793786Y-104856214D01*
%TO.N,Net-(Q1-G)*%
X143654253Y-100176290D02*
X143653056Y-100176290D01*
X143653056Y-100176290D02*
X143119346Y-100710000D01*
X143119346Y-100710000D02*
X142950000Y-100710000D01*
D28*
%TO.N,Net-(U4-SW)*%
X142300000Y-100710000D02*
X142050000Y-100960000D01*
X142050000Y-100960000D02*
X142050000Y-103060000D01*
X142050000Y-103060000D02*
X142300000Y-103310000D01*
X141000000Y-100710000D02*
X141400000Y-101110000D01*
X141400000Y-101110000D02*
X141400000Y-102610000D01*
X141400000Y-102610000D02*
X142200000Y-103410000D01*
D24*
%TO.N,/20V_Power_Line/Vin*%
X141750000Y-99869998D02*
X142000000Y-99619998D01*
X142000000Y-99619998D02*
X142000000Y-98800000D01*
X142500000Y-97250000D02*
X142500000Y-98300000D01*
X142500000Y-98300000D02*
X142000000Y-98800000D01*
%TO.N,GND*%
X139780022Y-103710000D02*
X139284808Y-104205214D01*
X140290000Y-103710000D02*
X139780022Y-103710000D01*
X139440000Y-103060000D02*
X138889723Y-103610277D01*
X140290000Y-103060000D02*
X139440000Y-103060000D01*
X139500000Y-102250000D02*
X139930000Y-102250000D01*
X139930000Y-102250000D02*
X140090000Y-102410000D01*
X140090000Y-102410000D02*
X140290000Y-102410000D01*
X137735000Y-100640000D02*
X139160000Y-100640000D01*
X139160000Y-100640000D02*
X139200000Y-100600000D01*
D25*
%TO.N,/20V_Power_Line/Vin*%
X123960000Y-98380000D02*
X129120000Y-98380000D01*
X129120000Y-98380000D02*
X131500000Y-96000000D01*
%TO.N,GND*%
X155790000Y-92750000D02*
X161830000Y-92750000D01*
X161830000Y-92750000D02*
X167500000Y-98420000D01*
D29*
%TO.N,/20V_Power_Line/Vout*%
X157740000Y-103400000D02*
X159101000Y-104761000D01*
D30*
X157740000Y-103400000D02*
X167400000Y-103400000D01*
X167400000Y-103400000D02*
X167500000Y-103500000D01*
D27*
X158901000Y-104561000D02*
X157740000Y-103400000D01*
D26*
X135800000Y-108400000D02*
X142400000Y-108400000D01*
D27*
%TO.N,GND*%
X134200000Y-102950000D02*
X134500000Y-103250000D01*
X134200000Y-101780000D02*
X134200000Y-102950000D01*
X136800000Y-102778669D02*
X136262727Y-103315942D01*
X136800000Y-101780000D02*
X136800000Y-102778669D01*
D24*
X134100000Y-106400000D02*
X133750000Y-106750000D01*
X135800000Y-106400000D02*
X134100000Y-106400000D01*
D26*
X142400000Y-106400000D02*
X135800000Y-106400000D01*
D25*
%TO.N,Net-(U4-SW)*%
X146200000Y-103400000D02*
X142210000Y-103400000D01*
D27*
X142210000Y-103400000D02*
X142200000Y-103410000D01*
D28*
X141000000Y-100710000D02*
X142300000Y-100710000D01*
D31*
%TO.N,/20V_Power_Line/Vin*%
X142980000Y-97710000D02*
X141030000Y-97710000D01*
D28*
%TO.N,GND*%
X138000000Y-106400000D02*
X138000000Y-106200000D01*
X140200000Y-106400000D02*
X140200000Y-106200000D01*
X142400000Y-106400000D02*
X142400000Y-106200000D01*
%TO.N,Net-(U4-SW)*%
X141650000Y-100710000D02*
X141650000Y-102860000D01*
D27*
X141650000Y-102860000D02*
X142200000Y-103410000D01*
X142300000Y-103310000D02*
X142200000Y-103410000D01*
D32*
%TO.N,/20V_Power_Line/Vin*%
X134200000Y-98600000D02*
X136800000Y-98600000D01*
X136800000Y-98600000D02*
X139200000Y-98600000D01*
D26*
X139200000Y-98600000D02*
X141800000Y-98600000D01*
D27*
X141800000Y-98600000D02*
X142000000Y-98800000D01*
%TO.N,GND*%
X166200000Y-110100000D02*
X164500000Y-111800000D01*
X165800000Y-110500000D02*
X164500000Y-111800000D01*
D26*
X166000000Y-110300000D02*
X165800000Y-110500000D01*
%TD*%
M02*
