%TF.GenerationSoftware,KiCad,Pcbnew,9.0.1*%
%TF.CreationDate,2025-05-12T16:56:18-05:00*%
%TF.ProjectId,Project-Star,50726f6a-6563-4742-9d53-7461722e6b69,rev?*%
%TF.SameCoordinates,Original*%
%TF.FileFunction,Soldermask,Top*%
%TF.FilePolarity,Negative*%
%FSLAX46Y46*%
G04 Gerber Fmt 4.6, Leading zero omitted, Abs format (unit mm)*
G04 Created by KiCad (PCBNEW 9.0.1) date 2025-05-12 16:56:18*
%MOMM*%
%LPD*%
G01*
G04 APERTURE LIST*
%ADD10C,6.000000*%
%ADD11C,2.700000*%
%ADD12R,2.300000X2.300000*%
%ADD13C,2.300000*%
%ADD14R,2.700000X1.700000*%
%ADD15R,0.850000X0.280000*%
%ADD16R,0.280000X0.850000*%
%ADD17R,0.570000X0.540000*%
%ADD18R,0.810000X0.860000*%
%ADD19R,0.450000X0.680000*%
%ADD20R,0.500000X0.600000*%
%ADD21R,2.650000X2.000000*%
%ADD22R,0.680000X0.450000*%
%ADD23R,0.600000X0.500000*%
%ADD24R,2.000000X2.650000*%
%ADD25R,2.920000X3.500000*%
%ADD26R,0.790000X0.540000*%
%ADD27R,0.800000X0.900000*%
%ADD28R,1.410000X1.350000*%
%ADD29R,1.490000X1.730000*%
G04 APERTURE END LIST*
D10*
%TO.C,H4*%
X97500000Y-87000000D03*
%TD*%
%TO.C,H3*%
X139500000Y-87000000D03*
%TD*%
%TO.C,H1*%
X97500000Y-45000000D03*
%TD*%
%TO.C,H2*%
X139500000Y-45000000D03*
%TD*%
D11*
%TO.C,U6*%
X98500000Y-56000000D03*
%TD*%
%TO.C,U5*%
X98500000Y-75000000D03*
%TD*%
%TO.C,U4*%
X138500000Y-57000000D03*
%TD*%
D12*
%TO.C,CN2*%
X138500000Y-63420000D03*
D13*
X138500000Y-68500000D03*
%TD*%
D12*
%TO.C,CN1*%
X98500000Y-67500000D03*
D13*
X98500000Y-62420000D03*
%TD*%
D14*
%TO.C,U3*%
X119750000Y-65750000D03*
D15*
X117500000Y-65000000D03*
D16*
X118000000Y-64000000D03*
X118500000Y-64000000D03*
X119000000Y-64000000D03*
X119500000Y-64000000D03*
X120000000Y-64000000D03*
X120500000Y-64000000D03*
X121000000Y-64000000D03*
X121500000Y-64000000D03*
D15*
X122000000Y-65000000D03*
X122000000Y-66500000D03*
D16*
X121500000Y-67500000D03*
X121000000Y-67500000D03*
X120500000Y-67500000D03*
X120000000Y-67500000D03*
X119500000Y-67500000D03*
X119000000Y-67500000D03*
X118500000Y-67500000D03*
X118000000Y-67500000D03*
D15*
X117500000Y-66500000D03*
%TD*%
D17*
%TO.C,R31*%
X76355000Y-70225000D03*
X75495000Y-70225000D03*
%TD*%
%TO.C,R30*%
X76355000Y-68075000D03*
X75495000Y-68075000D03*
%TD*%
%TO.C,R29*%
X76355000Y-65925000D03*
X75495000Y-65925000D03*
%TD*%
D18*
%TO.C,R28*%
X69165000Y-67455000D03*
X67665000Y-67455000D03*
%TD*%
%TO.C,R27*%
X69165000Y-64985000D03*
X67665000Y-64985000D03*
%TD*%
%TO.C,R26*%
X69165000Y-62515000D03*
X67665000Y-62515000D03*
%TD*%
%TO.C,R25*%
X69165000Y-60045000D03*
X67665000Y-60045000D03*
%TD*%
%TO.C,R24*%
X69165000Y-57575000D03*
X67665000Y-57575000D03*
%TD*%
%TO.C,R23*%
X69165000Y-55105000D03*
X67665000Y-55105000D03*
%TD*%
%TO.C,R22*%
X69165000Y-52635000D03*
X67665000Y-52635000D03*
%TD*%
D17*
%TO.C,R21*%
X76355000Y-63775000D03*
X75495000Y-63775000D03*
%TD*%
D19*
%TO.C,Q2*%
X82750000Y-66500000D03*
X83400000Y-66500000D03*
X84050000Y-66500000D03*
X84700000Y-66500000D03*
D20*
X82780000Y-63500000D03*
X83430000Y-63500000D03*
X84080000Y-63500000D03*
X84730000Y-63500000D03*
D21*
X83750000Y-64590000D03*
%TD*%
D22*
%TO.C,Q1*%
X110000000Y-71990000D03*
X110000000Y-71340000D03*
X110000000Y-70690000D03*
X110000000Y-70040000D03*
D23*
X107000000Y-71960000D03*
X107000000Y-71310000D03*
X107000000Y-70660000D03*
X107000000Y-70010000D03*
D24*
X108090000Y-70990000D03*
%TD*%
D25*
%TO.C,L1*%
X113140000Y-47000000D03*
X123500000Y-47000000D03*
%TD*%
D26*
%TO.C,C45*%
X86955000Y-60525000D03*
X85855000Y-60525000D03*
%TD*%
D27*
%TO.C,C44*%
X73095000Y-74715000D03*
X71695000Y-74715000D03*
%TD*%
D28*
%TO.C,C43*%
X88195000Y-55825000D03*
X86195000Y-55825000D03*
%TD*%
%TO.C,C42*%
X88195000Y-52875000D03*
X86195000Y-52875000D03*
%TD*%
D27*
%TO.C,C41*%
X73095000Y-72045000D03*
X71695000Y-72045000D03*
%TD*%
D26*
%TO.C,C40*%
X86955000Y-58375000D03*
X85855000Y-58375000D03*
%TD*%
D27*
%TO.C,C39*%
X73095000Y-69375000D03*
X71695000Y-69375000D03*
%TD*%
D29*
%TO.C,C38*%
X89015000Y-73035000D03*
X85835000Y-73035000D03*
%TD*%
D27*
%TO.C,C37*%
X73095000Y-66705000D03*
X71695000Y-66705000D03*
%TD*%
D29*
%TO.C,C36*%
X89015000Y-69705000D03*
X85835000Y-69705000D03*
%TD*%
D27*
%TO.C,C35*%
X73095000Y-64035000D03*
X71695000Y-64035000D03*
%TD*%
M02*
