%TF.GenerationSoftware,KiCad,Pcbnew,9.0.1*%
%TF.CreationDate,2025-05-14T01:42:24-05:00*%
%TF.ProjectId,Project-Star,50726f6a-6563-4742-9d53-7461722e6b69,rev?*%
%TF.SameCoordinates,Original*%
%TF.FileFunction,Soldermask,Bot*%
%TF.FilePolarity,Negative*%
%FSLAX46Y46*%
G04 Gerber Fmt 4.6, Leading zero omitted, Abs format (unit mm)*
G04 Created by KiCad (PCBNEW 9.0.1) date 2025-05-14 01:42:24*
%MOMM*%
%LPD*%
G01*
G04 APERTURE LIST*
G04 APERTURE END LIST*
G36*
X123110894Y-108993093D02*
G01*
X123444348Y-109069202D01*
X123767184Y-109182167D01*
X124075343Y-109330569D01*
X124364947Y-109512539D01*
X124632357Y-109725791D01*
X124874209Y-109967643D01*
X125087461Y-110235053D01*
X125269431Y-110524657D01*
X125417833Y-110832816D01*
X125530798Y-111155652D01*
X125606907Y-111489106D01*
X125645202Y-111828985D01*
X125645202Y-112171015D01*
X125606907Y-112510894D01*
X125530798Y-112844348D01*
X125417833Y-113167184D01*
X125269431Y-113475343D01*
X125087461Y-113764947D01*
X124874209Y-114032357D01*
X124632357Y-114274209D01*
X124364947Y-114487461D01*
X124075343Y-114669431D01*
X123767184Y-114817833D01*
X123444348Y-114930798D01*
X123110894Y-115006907D01*
X122771015Y-115045202D01*
X122428985Y-115045202D01*
X122089106Y-115006907D01*
X121755652Y-114930798D01*
X121432816Y-114817833D01*
X121124657Y-114669431D01*
X120835053Y-114487461D01*
X120567643Y-114274209D01*
X120325791Y-114032357D01*
X120112539Y-113764947D01*
X119930569Y-113475343D01*
X119782167Y-113167184D01*
X119669202Y-112844348D01*
X119593093Y-112510894D01*
X119554798Y-112171015D01*
X119554798Y-111828985D01*
X119593093Y-111489106D01*
X119669202Y-111155652D01*
X119782167Y-110832816D01*
X119930569Y-110524657D01*
X120112539Y-110235053D01*
X120325791Y-109967643D01*
X120567643Y-109725791D01*
X120835053Y-109512539D01*
X121124657Y-109330569D01*
X121432816Y-109182167D01*
X121755652Y-109069202D01*
X122089106Y-108993093D01*
X122428985Y-108954798D01*
X122771015Y-108954798D01*
X123110894Y-108993093D01*
G37*
G36*
X165110894Y-108993093D02*
G01*
X165444348Y-109069202D01*
X165767184Y-109182167D01*
X166075343Y-109330569D01*
X166364947Y-109512539D01*
X166632357Y-109725791D01*
X166874209Y-109967643D01*
X167087461Y-110235053D01*
X167269431Y-110524657D01*
X167417833Y-110832816D01*
X167530798Y-111155652D01*
X167606907Y-111489106D01*
X167645202Y-111828985D01*
X167645202Y-112171015D01*
X167606907Y-112510894D01*
X167530798Y-112844348D01*
X167417833Y-113167184D01*
X167269431Y-113475343D01*
X167087461Y-113764947D01*
X166874209Y-114032357D01*
X166632357Y-114274209D01*
X166364947Y-114487461D01*
X166075343Y-114669431D01*
X165767184Y-114817833D01*
X165444348Y-114930798D01*
X165110894Y-115006907D01*
X164771015Y-115045202D01*
X164428985Y-115045202D01*
X164089106Y-115006907D01*
X163755652Y-114930798D01*
X163432816Y-114817833D01*
X163124657Y-114669431D01*
X162835053Y-114487461D01*
X162567643Y-114274209D01*
X162325791Y-114032357D01*
X162112539Y-113764947D01*
X161930569Y-113475343D01*
X161782167Y-113167184D01*
X161669202Y-112844348D01*
X161593093Y-112510894D01*
X161554798Y-112171015D01*
X161554798Y-111828985D01*
X161593093Y-111489106D01*
X161669202Y-111155652D01*
X161782167Y-110832816D01*
X161930569Y-110524657D01*
X162112539Y-110235053D01*
X162325791Y-109967643D01*
X162567643Y-109725791D01*
X162835053Y-109512539D01*
X163124657Y-109330569D01*
X163432816Y-109182167D01*
X163755652Y-109069202D01*
X164089106Y-108993093D01*
X164428985Y-108954798D01*
X164771015Y-108954798D01*
X165110894Y-108993093D01*
G37*
G36*
X92786824Y-99203682D02*
G01*
X92995757Y-99271569D01*
X93191498Y-99371304D01*
X93369227Y-99500432D01*
X93524568Y-99655773D01*
X93653696Y-99833502D01*
X93753431Y-100029243D01*
X93821318Y-100238176D01*
X93855684Y-100455157D01*
X93855684Y-100674843D01*
X93821318Y-100891824D01*
X93753431Y-101100757D01*
X93653696Y-101296498D01*
X93524568Y-101474227D01*
X93369227Y-101629568D01*
X93191498Y-101758696D01*
X92995757Y-101858431D01*
X92786824Y-101926318D01*
X92569843Y-101960684D01*
X92350157Y-101960684D01*
X92133176Y-101926318D01*
X91924243Y-101858431D01*
X91728502Y-101758696D01*
X91550773Y-101629568D01*
X91395432Y-101474227D01*
X91266304Y-101296498D01*
X91166569Y-101100757D01*
X91098682Y-100891824D01*
X91064316Y-100674843D01*
X91064316Y-100455157D01*
X91098682Y-100238176D01*
X91166569Y-100029243D01*
X91266304Y-99833502D01*
X91395432Y-99655773D01*
X91550773Y-99500432D01*
X91728502Y-99371304D01*
X91924243Y-99271569D01*
X92133176Y-99203682D01*
X92350157Y-99169316D01*
X92569843Y-99169316D01*
X92786824Y-99203682D01*
G37*
G36*
X92786824Y-94743682D02*
G01*
X92995757Y-94811569D01*
X93191498Y-94911304D01*
X93369227Y-95040432D01*
X93524568Y-95195773D01*
X93653696Y-95373502D01*
X93753431Y-95569243D01*
X93821318Y-95778176D01*
X93855684Y-95995157D01*
X93855684Y-96214843D01*
X93821318Y-96431824D01*
X93753431Y-96640757D01*
X93653696Y-96836498D01*
X93524568Y-97014227D01*
X93369227Y-97169568D01*
X93191498Y-97298696D01*
X92995757Y-97398431D01*
X92786824Y-97466318D01*
X92569843Y-97500684D01*
X92350157Y-97500684D01*
X92133176Y-97466318D01*
X91924243Y-97398431D01*
X91728502Y-97298696D01*
X91550773Y-97169568D01*
X91395432Y-97014227D01*
X91266304Y-96836498D01*
X91166569Y-96640757D01*
X91098682Y-96431824D01*
X91064316Y-96214843D01*
X91064316Y-95995157D01*
X91098682Y-95778176D01*
X91166569Y-95569243D01*
X91266304Y-95373502D01*
X91395432Y-95195773D01*
X91550773Y-95040432D01*
X91728502Y-94911304D01*
X91924243Y-94811569D01*
X92133176Y-94743682D01*
X92350157Y-94709316D01*
X92569843Y-94709316D01*
X92786824Y-94743682D01*
G37*
G36*
X92786824Y-90283682D02*
G01*
X92995757Y-90351569D01*
X93191498Y-90451304D01*
X93369227Y-90580432D01*
X93524568Y-90735773D01*
X93653696Y-90913502D01*
X93753431Y-91109243D01*
X93821318Y-91318176D01*
X93855684Y-91535157D01*
X93855684Y-91754843D01*
X93821318Y-91971824D01*
X93753431Y-92180757D01*
X93653696Y-92376498D01*
X93524568Y-92554227D01*
X93369227Y-92709568D01*
X93191498Y-92838696D01*
X92995757Y-92938431D01*
X92786824Y-93006318D01*
X92569843Y-93040684D01*
X92350157Y-93040684D01*
X92133176Y-93006318D01*
X91924243Y-92938431D01*
X91728502Y-92838696D01*
X91550773Y-92709568D01*
X91395432Y-92554227D01*
X91266304Y-92376498D01*
X91166569Y-92180757D01*
X91098682Y-91971824D01*
X91064316Y-91754843D01*
X91064316Y-91535157D01*
X91098682Y-91318176D01*
X91166569Y-91109243D01*
X91266304Y-90913502D01*
X91395432Y-90735773D01*
X91550773Y-90580432D01*
X91728502Y-90451304D01*
X91924243Y-90351569D01*
X92133176Y-90283682D01*
X92350157Y-90249316D01*
X92569843Y-90249316D01*
X92786824Y-90283682D01*
G37*
G36*
X78289134Y-88078806D02*
G01*
X78305355Y-88089645D01*
X78316194Y-88105866D01*
X78320000Y-88125000D01*
X78320000Y-90425000D01*
X78316194Y-90444134D01*
X78305355Y-90460355D01*
X78289134Y-90471194D01*
X78270000Y-90475000D01*
X75970000Y-90475000D01*
X75950866Y-90471194D01*
X75934645Y-90460355D01*
X75923806Y-90444134D01*
X75920000Y-90425000D01*
X75920000Y-88125000D01*
X75923806Y-88105866D01*
X75934645Y-88089645D01*
X75950866Y-88078806D01*
X75970000Y-88075000D01*
X78270000Y-88075000D01*
X78289134Y-88078806D01*
G37*
G36*
X82480134Y-88108156D02*
G01*
X82659220Y-88166345D01*
X82826998Y-88251832D01*
X82979338Y-88362513D01*
X83112487Y-88495662D01*
X83223168Y-88648002D01*
X83308655Y-88815780D01*
X83366844Y-88994866D01*
X83396301Y-89180849D01*
X83396301Y-89369151D01*
X83366844Y-89555134D01*
X83308655Y-89734220D01*
X83223168Y-89901998D01*
X83112487Y-90054338D01*
X82979338Y-90187487D01*
X82826998Y-90298168D01*
X82659220Y-90383655D01*
X82480134Y-90441844D01*
X82294151Y-90471301D01*
X82105849Y-90471301D01*
X81919866Y-90441844D01*
X81740780Y-90383655D01*
X81573002Y-90298168D01*
X81420662Y-90187487D01*
X81287513Y-90054338D01*
X81176832Y-89901998D01*
X81091345Y-89734220D01*
X81033156Y-89555134D01*
X81003699Y-89369151D01*
X81003699Y-89180849D01*
X81033156Y-88994866D01*
X81091345Y-88815780D01*
X81176832Y-88648002D01*
X81287513Y-88495662D01*
X81420662Y-88362513D01*
X81573002Y-88251832D01*
X81740780Y-88166345D01*
X81919866Y-88108156D01*
X82105849Y-88078699D01*
X82294151Y-88078699D01*
X82480134Y-88108156D01*
G37*
G36*
X78289134Y-76748806D02*
G01*
X78305355Y-76759645D01*
X78316194Y-76775866D01*
X78320000Y-76795000D01*
X78320000Y-79095000D01*
X78316194Y-79114134D01*
X78305355Y-79130355D01*
X78289134Y-79141194D01*
X78270000Y-79145000D01*
X75970000Y-79145000D01*
X75950866Y-79141194D01*
X75934645Y-79130355D01*
X75923806Y-79114134D01*
X75920000Y-79095000D01*
X75920000Y-76795000D01*
X75923806Y-76775866D01*
X75934645Y-76759645D01*
X75950866Y-76748806D01*
X75970000Y-76745000D01*
X78270000Y-76745000D01*
X78289134Y-76748806D01*
G37*
G36*
X82480134Y-76778156D02*
G01*
X82659220Y-76836345D01*
X82826998Y-76921832D01*
X82979338Y-77032513D01*
X83112487Y-77165662D01*
X83223168Y-77318002D01*
X83308655Y-77485780D01*
X83366844Y-77664866D01*
X83396301Y-77850849D01*
X83396301Y-78039151D01*
X83366844Y-78225134D01*
X83308655Y-78404220D01*
X83223168Y-78571998D01*
X83112487Y-78724338D01*
X82979338Y-78857487D01*
X82826998Y-78968168D01*
X82659220Y-79053655D01*
X82480134Y-79111844D01*
X82294151Y-79141301D01*
X82105849Y-79141301D01*
X81919866Y-79111844D01*
X81740780Y-79053655D01*
X81573002Y-78968168D01*
X81420662Y-78857487D01*
X81287513Y-78724338D01*
X81176832Y-78571998D01*
X81091345Y-78404220D01*
X81033156Y-78225134D01*
X81003699Y-78039151D01*
X81003699Y-77850849D01*
X81033156Y-77664866D01*
X81091345Y-77485780D01*
X81176832Y-77318002D01*
X81287513Y-77165662D01*
X81420662Y-77032513D01*
X81573002Y-76921832D01*
X81740780Y-76836345D01*
X81919866Y-76778156D01*
X82105849Y-76748699D01*
X82294151Y-76748699D01*
X82480134Y-76778156D01*
G37*
G36*
X123010894Y-72993093D02*
G01*
X123344348Y-73069202D01*
X123667184Y-73182167D01*
X123975343Y-73330569D01*
X124264947Y-73512539D01*
X124532357Y-73725791D01*
X124774209Y-73967643D01*
X124987461Y-74235053D01*
X125169431Y-74524657D01*
X125317833Y-74832816D01*
X125430798Y-75155652D01*
X125506907Y-75489106D01*
X125545202Y-75828985D01*
X125545202Y-76171015D01*
X125506907Y-76510894D01*
X125430798Y-76844348D01*
X125317833Y-77167184D01*
X125169431Y-77475343D01*
X124987461Y-77764947D01*
X124774209Y-78032357D01*
X124532357Y-78274209D01*
X124264947Y-78487461D01*
X123975343Y-78669431D01*
X123667184Y-78817833D01*
X123344348Y-78930798D01*
X123010894Y-79006907D01*
X122671015Y-79045202D01*
X122328985Y-79045202D01*
X121989106Y-79006907D01*
X121655652Y-78930798D01*
X121332816Y-78817833D01*
X121024657Y-78669431D01*
X120735053Y-78487461D01*
X120467643Y-78274209D01*
X120225791Y-78032357D01*
X120012539Y-77764947D01*
X119830569Y-77475343D01*
X119682167Y-77167184D01*
X119569202Y-76844348D01*
X119493093Y-76510894D01*
X119454798Y-76171015D01*
X119454798Y-75828985D01*
X119493093Y-75489106D01*
X119569202Y-75155652D01*
X119682167Y-74832816D01*
X119830569Y-74524657D01*
X120012539Y-74235053D01*
X120225791Y-73967643D01*
X120467643Y-73725791D01*
X120735053Y-73512539D01*
X121024657Y-73330569D01*
X121332816Y-73182167D01*
X121655652Y-73069202D01*
X121989106Y-72993093D01*
X122328985Y-72954798D01*
X122671015Y-72954798D01*
X123010894Y-72993093D01*
G37*
G36*
X165010894Y-72993093D02*
G01*
X165344348Y-73069202D01*
X165667184Y-73182167D01*
X165975343Y-73330569D01*
X166264947Y-73512539D01*
X166532357Y-73725791D01*
X166774209Y-73967643D01*
X166987461Y-74235053D01*
X167169431Y-74524657D01*
X167317833Y-74832816D01*
X167430798Y-75155652D01*
X167506907Y-75489106D01*
X167545202Y-75828985D01*
X167545202Y-76171015D01*
X167506907Y-76510894D01*
X167430798Y-76844348D01*
X167317833Y-77167184D01*
X167169431Y-77475343D01*
X166987461Y-77764947D01*
X166774209Y-78032357D01*
X166532357Y-78274209D01*
X166264947Y-78487461D01*
X165975343Y-78669431D01*
X165667184Y-78817833D01*
X165344348Y-78930798D01*
X165010894Y-79006907D01*
X164671015Y-79045202D01*
X164328985Y-79045202D01*
X163989106Y-79006907D01*
X163655652Y-78930798D01*
X163332816Y-78817833D01*
X163024657Y-78669431D01*
X162735053Y-78487461D01*
X162467643Y-78274209D01*
X162225791Y-78032357D01*
X162012539Y-77764947D01*
X161830569Y-77475343D01*
X161682167Y-77167184D01*
X161569202Y-76844348D01*
X161493093Y-76510894D01*
X161454798Y-76171015D01*
X161454798Y-75828985D01*
X161493093Y-75489106D01*
X161569202Y-75155652D01*
X161682167Y-74832816D01*
X161830569Y-74524657D01*
X162012539Y-74235053D01*
X162225791Y-73967643D01*
X162467643Y-73725791D01*
X162735053Y-73512539D01*
X163024657Y-73330569D01*
X163332816Y-73182167D01*
X163655652Y-73069202D01*
X163989106Y-72993093D01*
X164328985Y-72954798D01*
X164671015Y-72954798D01*
X165010894Y-72993093D01*
G37*
M02*
