%TF.GenerationSoftware,KiCad,Pcbnew,9.0.1*%
%TF.CreationDate,2025-05-14T01:42:24-05:00*%
%TF.ProjectId,Project-Star,50726f6a-6563-4742-9d53-7461722e6b69,rev?*%
%TF.SameCoordinates,Original*%
%TF.FileFunction,Soldermask,Top*%
%TF.FilePolarity,Negative*%
%FSLAX46Y46*%
G04 Gerber Fmt 4.6, Leading zero omitted, Abs format (unit mm)*
G04 Created by KiCad (PCBNEW 9.0.1) date 2025-05-14 01:42:24*
%MOMM*%
%LPD*%
G01*
G04 APERTURE LIST*
G04 APERTURE END LIST*
G36*
X123110894Y-108993093D02*
G01*
X123444348Y-109069202D01*
X123767184Y-109182167D01*
X124075343Y-109330569D01*
X124364947Y-109512539D01*
X124632357Y-109725791D01*
X124874209Y-109967643D01*
X125087461Y-110235053D01*
X125269431Y-110524657D01*
X125417833Y-110832816D01*
X125530798Y-111155652D01*
X125606907Y-111489106D01*
X125645202Y-111828985D01*
X125645202Y-112171015D01*
X125606907Y-112510894D01*
X125530798Y-112844348D01*
X125417833Y-113167184D01*
X125269431Y-113475343D01*
X125087461Y-113764947D01*
X124874209Y-114032357D01*
X124632357Y-114274209D01*
X124364947Y-114487461D01*
X124075343Y-114669431D01*
X123767184Y-114817833D01*
X123444348Y-114930798D01*
X123110894Y-115006907D01*
X122771015Y-115045202D01*
X122428985Y-115045202D01*
X122089106Y-115006907D01*
X121755652Y-114930798D01*
X121432816Y-114817833D01*
X121124657Y-114669431D01*
X120835053Y-114487461D01*
X120567643Y-114274209D01*
X120325791Y-114032357D01*
X120112539Y-113764947D01*
X119930569Y-113475343D01*
X119782167Y-113167184D01*
X119669202Y-112844348D01*
X119593093Y-112510894D01*
X119554798Y-112171015D01*
X119554798Y-111828985D01*
X119593093Y-111489106D01*
X119669202Y-111155652D01*
X119782167Y-110832816D01*
X119930569Y-110524657D01*
X120112539Y-110235053D01*
X120325791Y-109967643D01*
X120567643Y-109725791D01*
X120835053Y-109512539D01*
X121124657Y-109330569D01*
X121432816Y-109182167D01*
X121755652Y-109069202D01*
X122089106Y-108993093D01*
X122428985Y-108954798D01*
X122771015Y-108954798D01*
X123110894Y-108993093D01*
G37*
G36*
X165110894Y-108993093D02*
G01*
X165444348Y-109069202D01*
X165767184Y-109182167D01*
X166075343Y-109330569D01*
X166364947Y-109512539D01*
X166632357Y-109725791D01*
X166874209Y-109967643D01*
X167087461Y-110235053D01*
X167269431Y-110524657D01*
X167417833Y-110832816D01*
X167530798Y-111155652D01*
X167606907Y-111489106D01*
X167645202Y-111828985D01*
X167645202Y-112171015D01*
X167606907Y-112510894D01*
X167530798Y-112844348D01*
X167417833Y-113167184D01*
X167269431Y-113475343D01*
X167087461Y-113764947D01*
X166874209Y-114032357D01*
X166632357Y-114274209D01*
X166364947Y-114487461D01*
X166075343Y-114669431D01*
X165767184Y-114817833D01*
X165444348Y-114930798D01*
X165110894Y-115006907D01*
X164771015Y-115045202D01*
X164428985Y-115045202D01*
X164089106Y-115006907D01*
X163755652Y-114930798D01*
X163432816Y-114817833D01*
X163124657Y-114669431D01*
X162835053Y-114487461D01*
X162567643Y-114274209D01*
X162325791Y-114032357D01*
X162112539Y-113764947D01*
X161930569Y-113475343D01*
X161782167Y-113167184D01*
X161669202Y-112844348D01*
X161593093Y-112510894D01*
X161554798Y-112171015D01*
X161554798Y-111828985D01*
X161593093Y-111489106D01*
X161669202Y-111155652D01*
X161782167Y-110832816D01*
X161930569Y-110524657D01*
X162112539Y-110235053D01*
X162325791Y-109967643D01*
X162567643Y-109725791D01*
X162835053Y-109512539D01*
X163124657Y-109330569D01*
X163432816Y-109182167D01*
X163755652Y-109069202D01*
X164089106Y-108993093D01*
X164428985Y-108954798D01*
X164771015Y-108954798D01*
X165110894Y-108993093D01*
G37*
G36*
X100659134Y-103128806D02*
G01*
X100675355Y-103139645D01*
X100686194Y-103155866D01*
X100690000Y-103175000D01*
X100690000Y-104025000D01*
X100686194Y-104044134D01*
X100675355Y-104060355D01*
X100659134Y-104071194D01*
X100640000Y-104075000D01*
X100360000Y-104075000D01*
X100340866Y-104071194D01*
X100324645Y-104060355D01*
X100313806Y-104044134D01*
X100310000Y-104025000D01*
X100310000Y-103175000D01*
X100313806Y-103155866D01*
X100324645Y-103139645D01*
X100340866Y-103128806D01*
X100360000Y-103125000D01*
X100640000Y-103125000D01*
X100659134Y-103128806D01*
G37*
G36*
X101159134Y-103128806D02*
G01*
X101175355Y-103139645D01*
X101186194Y-103155866D01*
X101190000Y-103175000D01*
X101190000Y-104025000D01*
X101186194Y-104044134D01*
X101175355Y-104060355D01*
X101159134Y-104071194D01*
X101140000Y-104075000D01*
X100860000Y-104075000D01*
X100840866Y-104071194D01*
X100824645Y-104060355D01*
X100813806Y-104044134D01*
X100810000Y-104025000D01*
X100810000Y-103175000D01*
X100813806Y-103155866D01*
X100824645Y-103139645D01*
X100840866Y-103128806D01*
X100860000Y-103125000D01*
X101140000Y-103125000D01*
X101159134Y-103128806D01*
G37*
G36*
X101659134Y-103128806D02*
G01*
X101675355Y-103139645D01*
X101686194Y-103155866D01*
X101690000Y-103175000D01*
X101690000Y-104025000D01*
X101686194Y-104044134D01*
X101675355Y-104060355D01*
X101659134Y-104071194D01*
X101640000Y-104075000D01*
X101360000Y-104075000D01*
X101340866Y-104071194D01*
X101324645Y-104060355D01*
X101313806Y-104044134D01*
X101310000Y-104025000D01*
X101310000Y-103175000D01*
X101313806Y-103155866D01*
X101324645Y-103139645D01*
X101340866Y-103128806D01*
X101360000Y-103125000D01*
X101640000Y-103125000D01*
X101659134Y-103128806D01*
G37*
G36*
X102159134Y-103128806D02*
G01*
X102175355Y-103139645D01*
X102186194Y-103155866D01*
X102190000Y-103175000D01*
X102190000Y-104025000D01*
X102186194Y-104044134D01*
X102175355Y-104060355D01*
X102159134Y-104071194D01*
X102140000Y-104075000D01*
X101860000Y-104075000D01*
X101840866Y-104071194D01*
X101824645Y-104060355D01*
X101813806Y-104044134D01*
X101810000Y-104025000D01*
X101810000Y-103175000D01*
X101813806Y-103155866D01*
X101824645Y-103139645D01*
X101840866Y-103128806D01*
X101860000Y-103125000D01*
X102140000Y-103125000D01*
X102159134Y-103128806D01*
G37*
G36*
X102659134Y-103128806D02*
G01*
X102675355Y-103139645D01*
X102686194Y-103155866D01*
X102690000Y-103175000D01*
X102690000Y-104025000D01*
X102686194Y-104044134D01*
X102675355Y-104060355D01*
X102659134Y-104071194D01*
X102640000Y-104075000D01*
X102360000Y-104075000D01*
X102340866Y-104071194D01*
X102324645Y-104060355D01*
X102313806Y-104044134D01*
X102310000Y-104025000D01*
X102310000Y-103175000D01*
X102313806Y-103155866D01*
X102324645Y-103139645D01*
X102340866Y-103128806D01*
X102360000Y-103125000D01*
X102640000Y-103125000D01*
X102659134Y-103128806D01*
G37*
G36*
X103159134Y-103128806D02*
G01*
X103175355Y-103139645D01*
X103186194Y-103155866D01*
X103190000Y-103175000D01*
X103190000Y-104025000D01*
X103186194Y-104044134D01*
X103175355Y-104060355D01*
X103159134Y-104071194D01*
X103140000Y-104075000D01*
X102860000Y-104075000D01*
X102840866Y-104071194D01*
X102824645Y-104060355D01*
X102813806Y-104044134D01*
X102810000Y-104025000D01*
X102810000Y-103175000D01*
X102813806Y-103155866D01*
X102824645Y-103139645D01*
X102840866Y-103128806D01*
X102860000Y-103125000D01*
X103140000Y-103125000D01*
X103159134Y-103128806D01*
G37*
G36*
X103659134Y-103128806D02*
G01*
X103675355Y-103139645D01*
X103686194Y-103155866D01*
X103690000Y-103175000D01*
X103690000Y-104025000D01*
X103686194Y-104044134D01*
X103675355Y-104060355D01*
X103659134Y-104071194D01*
X103640000Y-104075000D01*
X103360000Y-104075000D01*
X103340866Y-104071194D01*
X103324645Y-104060355D01*
X103313806Y-104044134D01*
X103310000Y-104025000D01*
X103310000Y-103175000D01*
X103313806Y-103155866D01*
X103324645Y-103139645D01*
X103340866Y-103128806D01*
X103360000Y-103125000D01*
X103640000Y-103125000D01*
X103659134Y-103128806D01*
G37*
G36*
X104159134Y-103128806D02*
G01*
X104175355Y-103139645D01*
X104186194Y-103155866D01*
X104190000Y-103175000D01*
X104190000Y-104025000D01*
X104186194Y-104044134D01*
X104175355Y-104060355D01*
X104159134Y-104071194D01*
X104140000Y-104075000D01*
X103860000Y-104075000D01*
X103840866Y-104071194D01*
X103824645Y-104060355D01*
X103813806Y-104044134D01*
X103810000Y-104025000D01*
X103810000Y-103175000D01*
X103813806Y-103155866D01*
X103824645Y-103139645D01*
X103840866Y-103128806D01*
X103860000Y-103125000D01*
X104140000Y-103125000D01*
X104159134Y-103128806D01*
G37*
G36*
X77724134Y-103158806D02*
G01*
X77740355Y-103169645D01*
X77751194Y-103185866D01*
X77755000Y-103205000D01*
X77755000Y-103745000D01*
X77751194Y-103764134D01*
X77740355Y-103780355D01*
X77724134Y-103791194D01*
X77705000Y-103795000D01*
X76915000Y-103795000D01*
X76895866Y-103791194D01*
X76879645Y-103780355D01*
X76868806Y-103764134D01*
X76865000Y-103745000D01*
X76865000Y-103205000D01*
X76868806Y-103185866D01*
X76879645Y-103169645D01*
X76895866Y-103158806D01*
X76915000Y-103155000D01*
X77705000Y-103155000D01*
X77724134Y-103158806D01*
G37*
G36*
X78824134Y-103158806D02*
G01*
X78840355Y-103169645D01*
X78851194Y-103185866D01*
X78855000Y-103205000D01*
X78855000Y-103745000D01*
X78851194Y-103764134D01*
X78840355Y-103780355D01*
X78824134Y-103791194D01*
X78805000Y-103795000D01*
X78015000Y-103795000D01*
X77995866Y-103791194D01*
X77979645Y-103780355D01*
X77968806Y-103764134D01*
X77965000Y-103745000D01*
X77965000Y-103205000D01*
X77968806Y-103185866D01*
X77979645Y-103169645D01*
X77995866Y-103158806D01*
X78015000Y-103155000D01*
X78805000Y-103155000D01*
X78824134Y-103158806D01*
G37*
G36*
X87524134Y-101663806D02*
G01*
X87540355Y-101674645D01*
X87551194Y-101690866D01*
X87555000Y-101710000D01*
X87555000Y-103060000D01*
X87551194Y-103079134D01*
X87540355Y-103095355D01*
X87524134Y-103106194D01*
X87505000Y-103110000D01*
X86095000Y-103110000D01*
X86075866Y-103106194D01*
X86059645Y-103095355D01*
X86048806Y-103079134D01*
X86045000Y-103060000D01*
X86045000Y-101710000D01*
X86048806Y-101690866D01*
X86059645Y-101674645D01*
X86075866Y-101663806D01*
X86095000Y-101660000D01*
X87505000Y-101660000D01*
X87524134Y-101663806D01*
G37*
G36*
X89524134Y-101663806D02*
G01*
X89540355Y-101674645D01*
X89551194Y-101690866D01*
X89555000Y-101710000D01*
X89555000Y-103060000D01*
X89551194Y-103079134D01*
X89540355Y-103095355D01*
X89524134Y-103106194D01*
X89505000Y-103110000D01*
X88095000Y-103110000D01*
X88075866Y-103106194D01*
X88059645Y-103095355D01*
X88048806Y-103079134D01*
X88045000Y-103060000D01*
X88045000Y-101710000D01*
X88048806Y-101690866D01*
X88059645Y-101674645D01*
X88075866Y-101663806D01*
X88095000Y-101660000D01*
X89505000Y-101660000D01*
X89524134Y-101663806D01*
G37*
G36*
X100444134Y-102413806D02*
G01*
X100460355Y-102424645D01*
X100471194Y-102440866D01*
X100475000Y-102460000D01*
X100475000Y-102740000D01*
X100471194Y-102759134D01*
X100460355Y-102775355D01*
X100444134Y-102786194D01*
X100425000Y-102790000D01*
X99575000Y-102790000D01*
X99555866Y-102786194D01*
X99539645Y-102775355D01*
X99528806Y-102759134D01*
X99525000Y-102740000D01*
X99525000Y-102460000D01*
X99528806Y-102440866D01*
X99539645Y-102424645D01*
X99555866Y-102413806D01*
X99575000Y-102410000D01*
X100425000Y-102410000D01*
X100444134Y-102413806D01*
G37*
G36*
X104944134Y-102413806D02*
G01*
X104960355Y-102424645D01*
X104971194Y-102440866D01*
X104975000Y-102460000D01*
X104975000Y-102740000D01*
X104971194Y-102759134D01*
X104960355Y-102775355D01*
X104944134Y-102786194D01*
X104925000Y-102790000D01*
X104075000Y-102790000D01*
X104055866Y-102786194D01*
X104039645Y-102775355D01*
X104028806Y-102759134D01*
X104025000Y-102740000D01*
X104025000Y-102460000D01*
X104028806Y-102440866D01*
X104039645Y-102424645D01*
X104055866Y-102413806D01*
X104075000Y-102410000D01*
X104925000Y-102410000D01*
X104944134Y-102413806D01*
G37*
G36*
X103619134Y-100953806D02*
G01*
X103635355Y-100964645D01*
X103646194Y-100980866D01*
X103650000Y-101000000D01*
X103650000Y-102700000D01*
X103646194Y-102719134D01*
X103635355Y-102735355D01*
X103619134Y-102746194D01*
X103600000Y-102750000D01*
X100900000Y-102750000D01*
X100880866Y-102746194D01*
X100864645Y-102735355D01*
X100853806Y-102719134D01*
X100850000Y-102700000D01*
X100850000Y-101000000D01*
X100853806Y-100980866D01*
X100864645Y-100964645D01*
X100880866Y-100953806D01*
X100900000Y-100950000D01*
X103600000Y-100950000D01*
X103619134Y-100953806D01*
G37*
G36*
X74524134Y-102088806D02*
G01*
X74540355Y-102099645D01*
X74551194Y-102115866D01*
X74555000Y-102135000D01*
X74555000Y-102675000D01*
X74551194Y-102694134D01*
X74540355Y-102710355D01*
X74524134Y-102721194D01*
X74505000Y-102725000D01*
X73935000Y-102725000D01*
X73915866Y-102721194D01*
X73899645Y-102710355D01*
X73888806Y-102694134D01*
X73885000Y-102675000D01*
X73885000Y-102135000D01*
X73888806Y-102115866D01*
X73899645Y-102099645D01*
X73915866Y-102088806D01*
X73935000Y-102085000D01*
X74505000Y-102085000D01*
X74524134Y-102088806D01*
G37*
G36*
X75384134Y-102088806D02*
G01*
X75400355Y-102099645D01*
X75411194Y-102115866D01*
X75415000Y-102135000D01*
X75415000Y-102675000D01*
X75411194Y-102694134D01*
X75400355Y-102710355D01*
X75384134Y-102721194D01*
X75365000Y-102725000D01*
X74795000Y-102725000D01*
X74775866Y-102721194D01*
X74759645Y-102710355D01*
X74748806Y-102694134D01*
X74745000Y-102675000D01*
X74745000Y-102135000D01*
X74748806Y-102115866D01*
X74759645Y-102099645D01*
X74775866Y-102088806D01*
X74795000Y-102085000D01*
X75365000Y-102085000D01*
X75384134Y-102088806D01*
G37*
G36*
X92786824Y-99203682D02*
G01*
X92995757Y-99271569D01*
X93191498Y-99371304D01*
X93369227Y-99500432D01*
X93524568Y-99655773D01*
X93653696Y-99833502D01*
X93753431Y-100029243D01*
X93821318Y-100238176D01*
X93855684Y-100455157D01*
X93855684Y-100674843D01*
X93821318Y-100891824D01*
X93753431Y-101100757D01*
X93653696Y-101296498D01*
X93524568Y-101474227D01*
X93369227Y-101629568D01*
X93191498Y-101758696D01*
X92995757Y-101858431D01*
X92786824Y-101926318D01*
X92569843Y-101960684D01*
X92350157Y-101960684D01*
X92133176Y-101926318D01*
X91924243Y-101858431D01*
X91728502Y-101758696D01*
X91550773Y-101629568D01*
X91395432Y-101474227D01*
X91266304Y-101296498D01*
X91166569Y-101100757D01*
X91098682Y-100891824D01*
X91064316Y-100674843D01*
X91064316Y-100455157D01*
X91098682Y-100238176D01*
X91166569Y-100029243D01*
X91266304Y-99833502D01*
X91395432Y-99655773D01*
X91550773Y-99500432D01*
X91728502Y-99371304D01*
X91924243Y-99271569D01*
X92133176Y-99203682D01*
X92350157Y-99169316D01*
X92569843Y-99169316D01*
X92786824Y-99203682D01*
G37*
G36*
X77724134Y-101058806D02*
G01*
X77740355Y-101069645D01*
X77751194Y-101085866D01*
X77755000Y-101105000D01*
X77755000Y-101645000D01*
X77751194Y-101664134D01*
X77740355Y-101680355D01*
X77724134Y-101691194D01*
X77705000Y-101695000D01*
X76915000Y-101695000D01*
X76895866Y-101691194D01*
X76879645Y-101680355D01*
X76868806Y-101664134D01*
X76865000Y-101645000D01*
X76865000Y-101105000D01*
X76868806Y-101085866D01*
X76879645Y-101069645D01*
X76895866Y-101058806D01*
X76915000Y-101055000D01*
X77705000Y-101055000D01*
X77724134Y-101058806D01*
G37*
G36*
X78824134Y-101058806D02*
G01*
X78840355Y-101069645D01*
X78851194Y-101085866D01*
X78855000Y-101105000D01*
X78855000Y-101645000D01*
X78851194Y-101664134D01*
X78840355Y-101680355D01*
X78824134Y-101691194D01*
X78805000Y-101695000D01*
X78015000Y-101695000D01*
X77995866Y-101691194D01*
X77979645Y-101680355D01*
X77968806Y-101664134D01*
X77965000Y-101645000D01*
X77965000Y-101105000D01*
X77968806Y-101085866D01*
X77979645Y-101069645D01*
X77995866Y-101058806D01*
X78015000Y-101055000D01*
X78805000Y-101055000D01*
X78824134Y-101058806D01*
G37*
G36*
X100444134Y-100913806D02*
G01*
X100460355Y-100924645D01*
X100471194Y-100940866D01*
X100475000Y-100960000D01*
X100475000Y-101240000D01*
X100471194Y-101259134D01*
X100460355Y-101275355D01*
X100444134Y-101286194D01*
X100425000Y-101290000D01*
X99575000Y-101290000D01*
X99555866Y-101286194D01*
X99539645Y-101275355D01*
X99528806Y-101259134D01*
X99525000Y-101240000D01*
X99525000Y-100960000D01*
X99528806Y-100940866D01*
X99539645Y-100924645D01*
X99555866Y-100913806D01*
X99575000Y-100910000D01*
X100425000Y-100910000D01*
X100444134Y-100913806D01*
G37*
G36*
X104944134Y-100913806D02*
G01*
X104960355Y-100924645D01*
X104971194Y-100940866D01*
X104975000Y-100960000D01*
X104975000Y-101240000D01*
X104971194Y-101259134D01*
X104960355Y-101275355D01*
X104944134Y-101286194D01*
X104925000Y-101290000D01*
X104075000Y-101290000D01*
X104055866Y-101286194D01*
X104039645Y-101275355D01*
X104028806Y-101259134D01*
X104025000Y-101240000D01*
X104025000Y-100960000D01*
X104028806Y-100940866D01*
X104039645Y-100924645D01*
X104055866Y-100913806D01*
X104075000Y-100910000D01*
X104925000Y-100910000D01*
X104944134Y-100913806D01*
G37*
G36*
X96429134Y-100178806D02*
G01*
X96445355Y-100189645D01*
X96456194Y-100205866D01*
X96460000Y-100225000D01*
X96460000Y-101125000D01*
X96456194Y-101144134D01*
X96445355Y-101160355D01*
X96429134Y-101171194D01*
X96410000Y-101175000D01*
X95610000Y-101175000D01*
X95590866Y-101171194D01*
X95574645Y-101160355D01*
X95563806Y-101144134D01*
X95560000Y-101125000D01*
X95560000Y-100225000D01*
X95563806Y-100205866D01*
X95574645Y-100189645D01*
X95590866Y-100178806D01*
X95610000Y-100175000D01*
X96410000Y-100175000D01*
X96429134Y-100178806D01*
G37*
G36*
X97829134Y-100178806D02*
G01*
X97845355Y-100189645D01*
X97856194Y-100205866D01*
X97860000Y-100225000D01*
X97860000Y-101125000D01*
X97856194Y-101144134D01*
X97845355Y-101160355D01*
X97829134Y-101171194D01*
X97810000Y-101175000D01*
X97010000Y-101175000D01*
X96990866Y-101171194D01*
X96974645Y-101160355D01*
X96963806Y-101144134D01*
X96960000Y-101125000D01*
X96960000Y-100225000D01*
X96963806Y-100205866D01*
X96974645Y-100189645D01*
X96990866Y-100178806D01*
X97010000Y-100175000D01*
X97810000Y-100175000D01*
X97829134Y-100178806D01*
G37*
G36*
X74524134Y-99988806D02*
G01*
X74540355Y-99999645D01*
X74551194Y-100015866D01*
X74555000Y-100035000D01*
X74555000Y-100575000D01*
X74551194Y-100594134D01*
X74540355Y-100610355D01*
X74524134Y-100621194D01*
X74505000Y-100625000D01*
X73935000Y-100625000D01*
X73915866Y-100621194D01*
X73899645Y-100610355D01*
X73888806Y-100594134D01*
X73885000Y-100575000D01*
X73885000Y-100035000D01*
X73888806Y-100015866D01*
X73899645Y-99999645D01*
X73915866Y-99988806D01*
X73935000Y-99985000D01*
X74505000Y-99985000D01*
X74524134Y-99988806D01*
G37*
G36*
X75384134Y-99988806D02*
G01*
X75400355Y-99999645D01*
X75411194Y-100015866D01*
X75415000Y-100035000D01*
X75415000Y-100575000D01*
X75411194Y-100594134D01*
X75400355Y-100610355D01*
X75384134Y-100621194D01*
X75365000Y-100625000D01*
X74795000Y-100625000D01*
X74775866Y-100621194D01*
X74759645Y-100610355D01*
X74748806Y-100594134D01*
X74745000Y-100575000D01*
X74745000Y-100035000D01*
X74748806Y-100015866D01*
X74759645Y-99999645D01*
X74775866Y-99988806D01*
X74795000Y-99985000D01*
X75365000Y-99985000D01*
X75384134Y-99988806D01*
G37*
G36*
X100659134Y-99628806D02*
G01*
X100675355Y-99639645D01*
X100686194Y-99655866D01*
X100690000Y-99675000D01*
X100690000Y-100525000D01*
X100686194Y-100544134D01*
X100675355Y-100560355D01*
X100659134Y-100571194D01*
X100640000Y-100575000D01*
X100360000Y-100575000D01*
X100340866Y-100571194D01*
X100324645Y-100560355D01*
X100313806Y-100544134D01*
X100310000Y-100525000D01*
X100310000Y-99675000D01*
X100313806Y-99655866D01*
X100324645Y-99639645D01*
X100340866Y-99628806D01*
X100360000Y-99625000D01*
X100640000Y-99625000D01*
X100659134Y-99628806D01*
G37*
G36*
X101159134Y-99628806D02*
G01*
X101175355Y-99639645D01*
X101186194Y-99655866D01*
X101190000Y-99675000D01*
X101190000Y-100525000D01*
X101186194Y-100544134D01*
X101175355Y-100560355D01*
X101159134Y-100571194D01*
X101140000Y-100575000D01*
X100860000Y-100575000D01*
X100840866Y-100571194D01*
X100824645Y-100560355D01*
X100813806Y-100544134D01*
X100810000Y-100525000D01*
X100810000Y-99675000D01*
X100813806Y-99655866D01*
X100824645Y-99639645D01*
X100840866Y-99628806D01*
X100860000Y-99625000D01*
X101140000Y-99625000D01*
X101159134Y-99628806D01*
G37*
G36*
X101659134Y-99628806D02*
G01*
X101675355Y-99639645D01*
X101686194Y-99655866D01*
X101690000Y-99675000D01*
X101690000Y-100525000D01*
X101686194Y-100544134D01*
X101675355Y-100560355D01*
X101659134Y-100571194D01*
X101640000Y-100575000D01*
X101360000Y-100575000D01*
X101340866Y-100571194D01*
X101324645Y-100560355D01*
X101313806Y-100544134D01*
X101310000Y-100525000D01*
X101310000Y-99675000D01*
X101313806Y-99655866D01*
X101324645Y-99639645D01*
X101340866Y-99628806D01*
X101360000Y-99625000D01*
X101640000Y-99625000D01*
X101659134Y-99628806D01*
G37*
G36*
X102159134Y-99628806D02*
G01*
X102175355Y-99639645D01*
X102186194Y-99655866D01*
X102190000Y-99675000D01*
X102190000Y-100525000D01*
X102186194Y-100544134D01*
X102175355Y-100560355D01*
X102159134Y-100571194D01*
X102140000Y-100575000D01*
X101860000Y-100575000D01*
X101840866Y-100571194D01*
X101824645Y-100560355D01*
X101813806Y-100544134D01*
X101810000Y-100525000D01*
X101810000Y-99675000D01*
X101813806Y-99655866D01*
X101824645Y-99639645D01*
X101840866Y-99628806D01*
X101860000Y-99625000D01*
X102140000Y-99625000D01*
X102159134Y-99628806D01*
G37*
G36*
X102659134Y-99628806D02*
G01*
X102675355Y-99639645D01*
X102686194Y-99655866D01*
X102690000Y-99675000D01*
X102690000Y-100525000D01*
X102686194Y-100544134D01*
X102675355Y-100560355D01*
X102659134Y-100571194D01*
X102640000Y-100575000D01*
X102360000Y-100575000D01*
X102340866Y-100571194D01*
X102324645Y-100560355D01*
X102313806Y-100544134D01*
X102310000Y-100525000D01*
X102310000Y-99675000D01*
X102313806Y-99655866D01*
X102324645Y-99639645D01*
X102340866Y-99628806D01*
X102360000Y-99625000D01*
X102640000Y-99625000D01*
X102659134Y-99628806D01*
G37*
G36*
X103159134Y-99628806D02*
G01*
X103175355Y-99639645D01*
X103186194Y-99655866D01*
X103190000Y-99675000D01*
X103190000Y-100525000D01*
X103186194Y-100544134D01*
X103175355Y-100560355D01*
X103159134Y-100571194D01*
X103140000Y-100575000D01*
X102860000Y-100575000D01*
X102840866Y-100571194D01*
X102824645Y-100560355D01*
X102813806Y-100544134D01*
X102810000Y-100525000D01*
X102810000Y-99675000D01*
X102813806Y-99655866D01*
X102824645Y-99639645D01*
X102840866Y-99628806D01*
X102860000Y-99625000D01*
X103140000Y-99625000D01*
X103159134Y-99628806D01*
G37*
G36*
X103659134Y-99628806D02*
G01*
X103675355Y-99639645D01*
X103686194Y-99655866D01*
X103690000Y-99675000D01*
X103690000Y-100525000D01*
X103686194Y-100544134D01*
X103675355Y-100560355D01*
X103659134Y-100571194D01*
X103640000Y-100575000D01*
X103360000Y-100575000D01*
X103340866Y-100571194D01*
X103324645Y-100560355D01*
X103313806Y-100544134D01*
X103310000Y-100525000D01*
X103310000Y-99675000D01*
X103313806Y-99655866D01*
X103324645Y-99639645D01*
X103340866Y-99628806D01*
X103360000Y-99625000D01*
X103640000Y-99625000D01*
X103659134Y-99628806D01*
G37*
G36*
X104159134Y-99628806D02*
G01*
X104175355Y-99639645D01*
X104186194Y-99655866D01*
X104190000Y-99675000D01*
X104190000Y-100525000D01*
X104186194Y-100544134D01*
X104175355Y-100560355D01*
X104159134Y-100571194D01*
X104140000Y-100575000D01*
X103860000Y-100575000D01*
X103840866Y-100571194D01*
X103824645Y-100560355D01*
X103813806Y-100544134D01*
X103810000Y-100525000D01*
X103810000Y-99675000D01*
X103813806Y-99655866D01*
X103824645Y-99639645D01*
X103840866Y-99628806D01*
X103860000Y-99625000D01*
X104140000Y-99625000D01*
X104159134Y-99628806D01*
G37*
G36*
X87524134Y-98763806D02*
G01*
X87540355Y-98774645D01*
X87551194Y-98790866D01*
X87555000Y-98810000D01*
X87555000Y-100160000D01*
X87551194Y-100179134D01*
X87540355Y-100195355D01*
X87524134Y-100206194D01*
X87505000Y-100210000D01*
X86095000Y-100210000D01*
X86075866Y-100206194D01*
X86059645Y-100195355D01*
X86048806Y-100179134D01*
X86045000Y-100160000D01*
X86045000Y-98810000D01*
X86048806Y-98790866D01*
X86059645Y-98774645D01*
X86075866Y-98763806D01*
X86095000Y-98760000D01*
X87505000Y-98760000D01*
X87524134Y-98763806D01*
G37*
G36*
X89524134Y-98763806D02*
G01*
X89540355Y-98774645D01*
X89551194Y-98790866D01*
X89555000Y-98810000D01*
X89555000Y-100160000D01*
X89551194Y-100179134D01*
X89540355Y-100195355D01*
X89524134Y-100206194D01*
X89505000Y-100210000D01*
X88095000Y-100210000D01*
X88075866Y-100206194D01*
X88059645Y-100195355D01*
X88048806Y-100179134D01*
X88045000Y-100160000D01*
X88045000Y-98810000D01*
X88048806Y-98790866D01*
X88059645Y-98774645D01*
X88075866Y-98763806D01*
X88095000Y-98760000D01*
X89505000Y-98760000D01*
X89524134Y-98763806D01*
G37*
G36*
X77494134Y-98468806D02*
G01*
X77510355Y-98479645D01*
X77521194Y-98495866D01*
X77525000Y-98515000D01*
X77525000Y-99195000D01*
X77521194Y-99214134D01*
X77510355Y-99230355D01*
X77494134Y-99241194D01*
X77475000Y-99245000D01*
X77025000Y-99245000D01*
X77005866Y-99241194D01*
X76989645Y-99230355D01*
X76978806Y-99214134D01*
X76975000Y-99195000D01*
X76975000Y-98515000D01*
X76978806Y-98495866D01*
X76989645Y-98479645D01*
X77005866Y-98468806D01*
X77025000Y-98465000D01*
X77475000Y-98465000D01*
X77494134Y-98468806D01*
G37*
G36*
X78144134Y-98468806D02*
G01*
X78160355Y-98479645D01*
X78171194Y-98495866D01*
X78175000Y-98515000D01*
X78175000Y-99195000D01*
X78171194Y-99214134D01*
X78160355Y-99230355D01*
X78144134Y-99241194D01*
X78125000Y-99245000D01*
X77675000Y-99245000D01*
X77655866Y-99241194D01*
X77639645Y-99230355D01*
X77628806Y-99214134D01*
X77625000Y-99195000D01*
X77625000Y-98515000D01*
X77628806Y-98495866D01*
X77639645Y-98479645D01*
X77655866Y-98468806D01*
X77675000Y-98465000D01*
X78125000Y-98465000D01*
X78144134Y-98468806D01*
G37*
G36*
X78794134Y-98468806D02*
G01*
X78810355Y-98479645D01*
X78821194Y-98495866D01*
X78825000Y-98515000D01*
X78825000Y-99195000D01*
X78821194Y-99214134D01*
X78810355Y-99230355D01*
X78794134Y-99241194D01*
X78775000Y-99245000D01*
X78325000Y-99245000D01*
X78305866Y-99241194D01*
X78289645Y-99230355D01*
X78278806Y-99214134D01*
X78275000Y-99195000D01*
X78275000Y-98515000D01*
X78278806Y-98495866D01*
X78289645Y-98479645D01*
X78305866Y-98468806D01*
X78325000Y-98465000D01*
X78775000Y-98465000D01*
X78794134Y-98468806D01*
G37*
G36*
X79444134Y-98468806D02*
G01*
X79460355Y-98479645D01*
X79471194Y-98495866D01*
X79475000Y-98515000D01*
X79475000Y-99195000D01*
X79471194Y-99214134D01*
X79460355Y-99230355D01*
X79444134Y-99241194D01*
X79425000Y-99245000D01*
X78975000Y-99245000D01*
X78955866Y-99241194D01*
X78939645Y-99230355D01*
X78928806Y-99214134D01*
X78925000Y-99195000D01*
X78925000Y-98515000D01*
X78928806Y-98495866D01*
X78939645Y-98479645D01*
X78955866Y-98468806D01*
X78975000Y-98465000D01*
X79425000Y-98465000D01*
X79444134Y-98468806D01*
G37*
G36*
X81694134Y-98468806D02*
G01*
X81710355Y-98479645D01*
X81721194Y-98495866D01*
X81725000Y-98515000D01*
X81725000Y-99195000D01*
X81721194Y-99214134D01*
X81710355Y-99230355D01*
X81694134Y-99241194D01*
X81675000Y-99245000D01*
X81225000Y-99245000D01*
X81205866Y-99241194D01*
X81189645Y-99230355D01*
X81178806Y-99214134D01*
X81175000Y-99195000D01*
X81175000Y-98515000D01*
X81178806Y-98495866D01*
X81189645Y-98479645D01*
X81205866Y-98468806D01*
X81225000Y-98465000D01*
X81675000Y-98465000D01*
X81694134Y-98468806D01*
G37*
G36*
X82344134Y-98468806D02*
G01*
X82360355Y-98479645D01*
X82371194Y-98495866D01*
X82375000Y-98515000D01*
X82375000Y-99195000D01*
X82371194Y-99214134D01*
X82360355Y-99230355D01*
X82344134Y-99241194D01*
X82325000Y-99245000D01*
X81875000Y-99245000D01*
X81855866Y-99241194D01*
X81839645Y-99230355D01*
X81828806Y-99214134D01*
X81825000Y-99195000D01*
X81825000Y-98515000D01*
X81828806Y-98495866D01*
X81839645Y-98479645D01*
X81855866Y-98468806D01*
X81875000Y-98465000D01*
X82325000Y-98465000D01*
X82344134Y-98468806D01*
G37*
G36*
X82994134Y-98468806D02*
G01*
X83010355Y-98479645D01*
X83021194Y-98495866D01*
X83025000Y-98515000D01*
X83025000Y-99195000D01*
X83021194Y-99214134D01*
X83010355Y-99230355D01*
X82994134Y-99241194D01*
X82975000Y-99245000D01*
X82525000Y-99245000D01*
X82505866Y-99241194D01*
X82489645Y-99230355D01*
X82478806Y-99214134D01*
X82475000Y-99195000D01*
X82475000Y-98515000D01*
X82478806Y-98495866D01*
X82489645Y-98479645D01*
X82505866Y-98468806D01*
X82525000Y-98465000D01*
X82975000Y-98465000D01*
X82994134Y-98468806D01*
G37*
G36*
X83644134Y-98468806D02*
G01*
X83660355Y-98479645D01*
X83671194Y-98495866D01*
X83675000Y-98515000D01*
X83675000Y-99195000D01*
X83671194Y-99214134D01*
X83660355Y-99230355D01*
X83644134Y-99241194D01*
X83625000Y-99245000D01*
X83175000Y-99245000D01*
X83155866Y-99241194D01*
X83139645Y-99230355D01*
X83128806Y-99214134D01*
X83125000Y-99195000D01*
X83125000Y-98515000D01*
X83128806Y-98495866D01*
X83139645Y-98479645D01*
X83155866Y-98468806D01*
X83175000Y-98465000D01*
X83625000Y-98465000D01*
X83644134Y-98468806D01*
G37*
G36*
X96429134Y-97658806D02*
G01*
X96445355Y-97669645D01*
X96456194Y-97685866D01*
X96460000Y-97705000D01*
X96460000Y-98605000D01*
X96456194Y-98624134D01*
X96445355Y-98640355D01*
X96429134Y-98651194D01*
X96410000Y-98655000D01*
X95610000Y-98655000D01*
X95590866Y-98651194D01*
X95574645Y-98640355D01*
X95563806Y-98624134D01*
X95560000Y-98605000D01*
X95560000Y-97705000D01*
X95563806Y-97685866D01*
X95574645Y-97669645D01*
X95590866Y-97658806D01*
X95610000Y-97655000D01*
X96410000Y-97655000D01*
X96429134Y-97658806D01*
G37*
G36*
X97829134Y-97658806D02*
G01*
X97845355Y-97669645D01*
X97856194Y-97685866D01*
X97860000Y-97705000D01*
X97860000Y-98605000D01*
X97856194Y-98624134D01*
X97845355Y-98640355D01*
X97829134Y-98651194D01*
X97810000Y-98655000D01*
X97010000Y-98655000D01*
X96990866Y-98651194D01*
X96974645Y-98640355D01*
X96963806Y-98624134D01*
X96960000Y-98605000D01*
X96960000Y-97705000D01*
X96963806Y-97685866D01*
X96974645Y-97669645D01*
X96990866Y-97658806D01*
X97010000Y-97655000D01*
X97810000Y-97655000D01*
X97829134Y-97658806D01*
G37*
G36*
X74524134Y-97888806D02*
G01*
X74540355Y-97899645D01*
X74551194Y-97915866D01*
X74555000Y-97935000D01*
X74555000Y-98475000D01*
X74551194Y-98494134D01*
X74540355Y-98510355D01*
X74524134Y-98521194D01*
X74505000Y-98525000D01*
X73935000Y-98525000D01*
X73915866Y-98521194D01*
X73899645Y-98510355D01*
X73888806Y-98494134D01*
X73885000Y-98475000D01*
X73885000Y-97935000D01*
X73888806Y-97915866D01*
X73899645Y-97899645D01*
X73915866Y-97888806D01*
X73935000Y-97885000D01*
X74505000Y-97885000D01*
X74524134Y-97888806D01*
G37*
G36*
X75384134Y-97888806D02*
G01*
X75400355Y-97899645D01*
X75411194Y-97915866D01*
X75415000Y-97935000D01*
X75415000Y-98475000D01*
X75411194Y-98494134D01*
X75400355Y-98510355D01*
X75384134Y-98521194D01*
X75365000Y-98525000D01*
X74795000Y-98525000D01*
X74775866Y-98521194D01*
X74759645Y-98510355D01*
X74748806Y-98494134D01*
X74745000Y-98475000D01*
X74745000Y-97935000D01*
X74748806Y-97915866D01*
X74759645Y-97899645D01*
X74775866Y-97888806D01*
X74795000Y-97885000D01*
X75365000Y-97885000D01*
X75384134Y-97888806D01*
G37*
G36*
X100934134Y-96623806D02*
G01*
X100950355Y-96634645D01*
X100961194Y-96650866D01*
X100965000Y-96670000D01*
X100965000Y-98400000D01*
X100961194Y-98419134D01*
X100950355Y-98435355D01*
X100934134Y-98446194D01*
X100915000Y-98450000D01*
X99425000Y-98450000D01*
X99405866Y-98446194D01*
X99389645Y-98435355D01*
X99378806Y-98419134D01*
X99375000Y-98400000D01*
X99375000Y-96670000D01*
X99378806Y-96650866D01*
X99389645Y-96634645D01*
X99405866Y-96623806D01*
X99425000Y-96620000D01*
X100915000Y-96620000D01*
X100934134Y-96623806D01*
G37*
G36*
X104114134Y-96623806D02*
G01*
X104130355Y-96634645D01*
X104141194Y-96650866D01*
X104145000Y-96670000D01*
X104145000Y-98400000D01*
X104141194Y-98419134D01*
X104130355Y-98435355D01*
X104114134Y-98446194D01*
X104095000Y-98450000D01*
X102605000Y-98450000D01*
X102585866Y-98446194D01*
X102569645Y-98435355D01*
X102558806Y-98419134D01*
X102555000Y-98400000D01*
X102555000Y-96670000D01*
X102558806Y-96650866D01*
X102569645Y-96634645D01*
X102585866Y-96623806D01*
X102605000Y-96620000D01*
X104095000Y-96620000D01*
X104114134Y-96623806D01*
G37*
G36*
X77549134Y-95508806D02*
G01*
X77565355Y-95519645D01*
X77576194Y-95535866D01*
X77576561Y-95537711D01*
X77584957Y-95550276D01*
X77625043Y-95550276D01*
X77633439Y-95537710D01*
X77633806Y-95535866D01*
X77644645Y-95519645D01*
X77660866Y-95508806D01*
X77680000Y-95505000D01*
X78180000Y-95505000D01*
X78199134Y-95508806D01*
X78215355Y-95519645D01*
X78226194Y-95535866D01*
X78226561Y-95537711D01*
X78234957Y-95550276D01*
X78275043Y-95550276D01*
X78283439Y-95537710D01*
X78283806Y-95535866D01*
X78294645Y-95519645D01*
X78310866Y-95508806D01*
X78330000Y-95505000D01*
X78830000Y-95505000D01*
X78849134Y-95508806D01*
X78865355Y-95519645D01*
X78876194Y-95535866D01*
X78876561Y-95537711D01*
X78884957Y-95550276D01*
X78925043Y-95550276D01*
X78933439Y-95537710D01*
X78933806Y-95535866D01*
X78944645Y-95519645D01*
X78960866Y-95508806D01*
X78980000Y-95505000D01*
X79480000Y-95505000D01*
X79499134Y-95508806D01*
X79515355Y-95519645D01*
X79526194Y-95535866D01*
X79530000Y-95555000D01*
X79530000Y-95873035D01*
X79551965Y-95895000D01*
X79575000Y-95895000D01*
X79594134Y-95898806D01*
X79610355Y-95909645D01*
X79621194Y-95925866D01*
X79625000Y-95945000D01*
X79625000Y-97945000D01*
X79621194Y-97964134D01*
X79610355Y-97980355D01*
X79594134Y-97991194D01*
X79575000Y-97995000D01*
X76925000Y-97995000D01*
X76905866Y-97991194D01*
X76889645Y-97980355D01*
X76878806Y-97964134D01*
X76875000Y-97945000D01*
X76875000Y-95945000D01*
X76878806Y-95925866D01*
X76889645Y-95909645D01*
X76905866Y-95898806D01*
X76925000Y-95895000D01*
X76928695Y-95895000D01*
X76958035Y-95894999D01*
X76980000Y-95873033D01*
X76980000Y-95558695D01*
X76980000Y-95558694D01*
X76980000Y-95555000D01*
X76983806Y-95535866D01*
X76994645Y-95519645D01*
X77010866Y-95508806D01*
X77030000Y-95505000D01*
X77530000Y-95505000D01*
X77549134Y-95508806D01*
G37*
G36*
X81749134Y-95508806D02*
G01*
X81765355Y-95519645D01*
X81776194Y-95535866D01*
X81776561Y-95537711D01*
X81784957Y-95550276D01*
X81825043Y-95550276D01*
X81833439Y-95537710D01*
X81833806Y-95535866D01*
X81844645Y-95519645D01*
X81860866Y-95508806D01*
X81880000Y-95505000D01*
X82380000Y-95505000D01*
X82399134Y-95508806D01*
X82415355Y-95519645D01*
X82426194Y-95535866D01*
X82426561Y-95537711D01*
X82434957Y-95550276D01*
X82475043Y-95550276D01*
X82483439Y-95537710D01*
X82483806Y-95535866D01*
X82494645Y-95519645D01*
X82510866Y-95508806D01*
X82530000Y-95505000D01*
X83030000Y-95505000D01*
X83049134Y-95508806D01*
X83065355Y-95519645D01*
X83076194Y-95535866D01*
X83076561Y-95537711D01*
X83084957Y-95550276D01*
X83125043Y-95550276D01*
X83133439Y-95537710D01*
X83133806Y-95535866D01*
X83144645Y-95519645D01*
X83160866Y-95508806D01*
X83180000Y-95505000D01*
X83680000Y-95505000D01*
X83699134Y-95508806D01*
X83715355Y-95519645D01*
X83726194Y-95535866D01*
X83730000Y-95555000D01*
X83730000Y-95873035D01*
X83751965Y-95895000D01*
X83775000Y-95895000D01*
X83794134Y-95898806D01*
X83810355Y-95909645D01*
X83821194Y-95925866D01*
X83825000Y-95945000D01*
X83825000Y-97945000D01*
X83821194Y-97964134D01*
X83810355Y-97980355D01*
X83794134Y-97991194D01*
X83775000Y-97995000D01*
X81125000Y-97995000D01*
X81105866Y-97991194D01*
X81089645Y-97980355D01*
X81078806Y-97964134D01*
X81075000Y-97945000D01*
X81075000Y-95945000D01*
X81078806Y-95925866D01*
X81089645Y-95909645D01*
X81105866Y-95898806D01*
X81125000Y-95895000D01*
X81128695Y-95895000D01*
X81158035Y-95894999D01*
X81180000Y-95873033D01*
X81180000Y-95558695D01*
X81180000Y-95558694D01*
X81180000Y-95555000D01*
X81183806Y-95535866D01*
X81194645Y-95519645D01*
X81210866Y-95508806D01*
X81230000Y-95505000D01*
X81730000Y-95505000D01*
X81749134Y-95508806D01*
G37*
G36*
X92786824Y-94743682D02*
G01*
X92995757Y-94811569D01*
X93191498Y-94911304D01*
X93369227Y-95040432D01*
X93524568Y-95195773D01*
X93653696Y-95373502D01*
X93753431Y-95569243D01*
X93821318Y-95778176D01*
X93855684Y-95995157D01*
X93855684Y-96214843D01*
X93821318Y-96431824D01*
X93753431Y-96640757D01*
X93653696Y-96836498D01*
X93524568Y-97014227D01*
X93369227Y-97169568D01*
X93191498Y-97298696D01*
X92995757Y-97398431D01*
X92786824Y-97466318D01*
X92569843Y-97500684D01*
X92350157Y-97500684D01*
X92133176Y-97466318D01*
X91924243Y-97398431D01*
X91728502Y-97298696D01*
X91550773Y-97169568D01*
X91395432Y-97014227D01*
X91266304Y-96836498D01*
X91166569Y-96640757D01*
X91098682Y-96431824D01*
X91064316Y-96214843D01*
X91064316Y-95995157D01*
X91098682Y-95778176D01*
X91166569Y-95569243D01*
X91266304Y-95373502D01*
X91395432Y-95195773D01*
X91550773Y-95040432D01*
X91728502Y-94911304D01*
X91924243Y-94811569D01*
X92133176Y-94743682D01*
X92350157Y-94709316D01*
X92569843Y-94709316D01*
X92786824Y-94743682D01*
G37*
G36*
X87524134Y-95863806D02*
G01*
X87540355Y-95874645D01*
X87551194Y-95890866D01*
X87555000Y-95910000D01*
X87555000Y-97260000D01*
X87551194Y-97279134D01*
X87540355Y-97295355D01*
X87524134Y-97306194D01*
X87505000Y-97310000D01*
X86095000Y-97310000D01*
X86075866Y-97306194D01*
X86059645Y-97295355D01*
X86048806Y-97279134D01*
X86045000Y-97260000D01*
X86045000Y-95910000D01*
X86048806Y-95890866D01*
X86059645Y-95874645D01*
X86075866Y-95863806D01*
X86095000Y-95860000D01*
X87505000Y-95860000D01*
X87524134Y-95863806D01*
G37*
G36*
X89524134Y-95863806D02*
G01*
X89540355Y-95874645D01*
X89551194Y-95890866D01*
X89555000Y-95910000D01*
X89555000Y-97260000D01*
X89551194Y-97279134D01*
X89540355Y-97295355D01*
X89524134Y-97306194D01*
X89505000Y-97310000D01*
X88095000Y-97310000D01*
X88075866Y-97306194D01*
X88059645Y-97295355D01*
X88048806Y-97279134D01*
X88045000Y-97260000D01*
X88045000Y-95910000D01*
X88048806Y-95890866D01*
X88059645Y-95874645D01*
X88075866Y-95863806D01*
X88095000Y-95860000D01*
X89505000Y-95860000D01*
X89524134Y-95863806D01*
G37*
G36*
X74524134Y-95788806D02*
G01*
X74540355Y-95799645D01*
X74551194Y-95815866D01*
X74555000Y-95835000D01*
X74555000Y-96375000D01*
X74551194Y-96394134D01*
X74540355Y-96410355D01*
X74524134Y-96421194D01*
X74505000Y-96425000D01*
X73935000Y-96425000D01*
X73915866Y-96421194D01*
X73899645Y-96410355D01*
X73888806Y-96394134D01*
X73885000Y-96375000D01*
X73885000Y-95835000D01*
X73888806Y-95815866D01*
X73899645Y-95799645D01*
X73915866Y-95788806D01*
X73935000Y-95785000D01*
X74505000Y-95785000D01*
X74524134Y-95788806D01*
G37*
G36*
X75384134Y-95788806D02*
G01*
X75400355Y-95799645D01*
X75411194Y-95815866D01*
X75415000Y-95835000D01*
X75415000Y-96375000D01*
X75411194Y-96394134D01*
X75400355Y-96410355D01*
X75384134Y-96421194D01*
X75365000Y-96425000D01*
X74795000Y-96425000D01*
X74775866Y-96421194D01*
X74759645Y-96410355D01*
X74748806Y-96394134D01*
X74745000Y-96375000D01*
X74745000Y-95835000D01*
X74748806Y-95815866D01*
X74759645Y-95799645D01*
X74775866Y-95788806D01*
X74795000Y-95785000D01*
X75365000Y-95785000D01*
X75384134Y-95788806D01*
G37*
G36*
X96429134Y-95138806D02*
G01*
X96445355Y-95149645D01*
X96456194Y-95165866D01*
X96460000Y-95185000D01*
X96460000Y-96085000D01*
X96456194Y-96104134D01*
X96445355Y-96120355D01*
X96429134Y-96131194D01*
X96410000Y-96135000D01*
X95610000Y-96135000D01*
X95590866Y-96131194D01*
X95574645Y-96120355D01*
X95563806Y-96104134D01*
X95560000Y-96085000D01*
X95560000Y-95185000D01*
X95563806Y-95165866D01*
X95574645Y-95149645D01*
X95590866Y-95138806D01*
X95610000Y-95135000D01*
X96410000Y-95135000D01*
X96429134Y-95138806D01*
G37*
G36*
X97829134Y-95138806D02*
G01*
X97845355Y-95149645D01*
X97856194Y-95165866D01*
X97860000Y-95185000D01*
X97860000Y-96085000D01*
X97856194Y-96104134D01*
X97845355Y-96120355D01*
X97829134Y-96131194D01*
X97810000Y-96135000D01*
X97010000Y-96135000D01*
X96990866Y-96131194D01*
X96974645Y-96120355D01*
X96963806Y-96104134D01*
X96960000Y-96085000D01*
X96960000Y-95185000D01*
X96963806Y-95165866D01*
X96974645Y-95149645D01*
X96990866Y-95138806D01*
X97010000Y-95135000D01*
X97810000Y-95135000D01*
X97829134Y-95138806D01*
G37*
G36*
X100934134Y-93343806D02*
G01*
X100950355Y-93354645D01*
X100961194Y-93370866D01*
X100965000Y-93390000D01*
X100965000Y-95120000D01*
X100961194Y-95139134D01*
X100950355Y-95155355D01*
X100934134Y-95166194D01*
X100915000Y-95170000D01*
X99425000Y-95170000D01*
X99405866Y-95166194D01*
X99389645Y-95155355D01*
X99378806Y-95139134D01*
X99375000Y-95120000D01*
X99375000Y-93390000D01*
X99378806Y-93370866D01*
X99389645Y-93354645D01*
X99405866Y-93343806D01*
X99425000Y-93340000D01*
X100915000Y-93340000D01*
X100934134Y-93343806D01*
G37*
G36*
X104114134Y-93343806D02*
G01*
X104130355Y-93354645D01*
X104141194Y-93370866D01*
X104145000Y-93390000D01*
X104145000Y-95120000D01*
X104141194Y-95139134D01*
X104130355Y-95155355D01*
X104114134Y-95166194D01*
X104095000Y-95170000D01*
X102605000Y-95170000D01*
X102585866Y-95166194D01*
X102569645Y-95155355D01*
X102558806Y-95139134D01*
X102555000Y-95120000D01*
X102555000Y-93390000D01*
X102558806Y-93370866D01*
X102569645Y-93354645D01*
X102585866Y-93343806D01*
X102605000Y-93340000D01*
X104095000Y-93340000D01*
X104114134Y-93343806D01*
G37*
G36*
X87524134Y-92963806D02*
G01*
X87540355Y-92974645D01*
X87551194Y-92990866D01*
X87555000Y-93010000D01*
X87555000Y-94360000D01*
X87551194Y-94379134D01*
X87540355Y-94395355D01*
X87524134Y-94406194D01*
X87505000Y-94410000D01*
X86095000Y-94410000D01*
X86075866Y-94406194D01*
X86059645Y-94395355D01*
X86048806Y-94379134D01*
X86045000Y-94360000D01*
X86045000Y-93010000D01*
X86048806Y-92990866D01*
X86059645Y-92974645D01*
X86075866Y-92963806D01*
X86095000Y-92960000D01*
X87505000Y-92960000D01*
X87524134Y-92963806D01*
G37*
G36*
X89524134Y-92963806D02*
G01*
X89540355Y-92974645D01*
X89551194Y-92990866D01*
X89555000Y-93010000D01*
X89555000Y-94360000D01*
X89551194Y-94379134D01*
X89540355Y-94395355D01*
X89524134Y-94406194D01*
X89505000Y-94410000D01*
X88095000Y-94410000D01*
X88075866Y-94406194D01*
X88059645Y-94395355D01*
X88048806Y-94379134D01*
X88045000Y-94360000D01*
X88045000Y-93010000D01*
X88048806Y-92990866D01*
X88059645Y-92974645D01*
X88075866Y-92963806D01*
X88095000Y-92960000D01*
X89505000Y-92960000D01*
X89524134Y-92963806D01*
G37*
G36*
X96429134Y-92618806D02*
G01*
X96445355Y-92629645D01*
X96456194Y-92645866D01*
X96460000Y-92665000D01*
X96460000Y-93565000D01*
X96456194Y-93584134D01*
X96445355Y-93600355D01*
X96429134Y-93611194D01*
X96410000Y-93615000D01*
X95610000Y-93615000D01*
X95590866Y-93611194D01*
X95574645Y-93600355D01*
X95563806Y-93584134D01*
X95560000Y-93565000D01*
X95560000Y-92665000D01*
X95563806Y-92645866D01*
X95574645Y-92629645D01*
X95590866Y-92618806D01*
X95610000Y-92615000D01*
X96410000Y-92615000D01*
X96429134Y-92618806D01*
G37*
G36*
X97829134Y-92618806D02*
G01*
X97845355Y-92629645D01*
X97856194Y-92645866D01*
X97860000Y-92665000D01*
X97860000Y-93565000D01*
X97856194Y-93584134D01*
X97845355Y-93600355D01*
X97829134Y-93611194D01*
X97810000Y-93615000D01*
X97010000Y-93615000D01*
X96990866Y-93611194D01*
X96974645Y-93600355D01*
X96963806Y-93584134D01*
X96960000Y-93565000D01*
X96960000Y-92665000D01*
X96963806Y-92645866D01*
X96974645Y-92629645D01*
X96990866Y-92618806D01*
X97010000Y-92615000D01*
X97810000Y-92615000D01*
X97829134Y-92618806D01*
G37*
G36*
X92786824Y-90283682D02*
G01*
X92995757Y-90351569D01*
X93191498Y-90451304D01*
X93369227Y-90580432D01*
X93524568Y-90735773D01*
X93653696Y-90913502D01*
X93753431Y-91109243D01*
X93821318Y-91318176D01*
X93855684Y-91535157D01*
X93855684Y-91754843D01*
X93821318Y-91971824D01*
X93753431Y-92180757D01*
X93653696Y-92376498D01*
X93524568Y-92554227D01*
X93369227Y-92709568D01*
X93191498Y-92838696D01*
X92995757Y-92938431D01*
X92786824Y-93006318D01*
X92569843Y-93040684D01*
X92350157Y-93040684D01*
X92133176Y-93006318D01*
X91924243Y-92938431D01*
X91728502Y-92838696D01*
X91550773Y-92709568D01*
X91395432Y-92554227D01*
X91266304Y-92376498D01*
X91166569Y-92180757D01*
X91098682Y-91971824D01*
X91064316Y-91754843D01*
X91064316Y-91535157D01*
X91098682Y-91318176D01*
X91166569Y-91109243D01*
X91266304Y-90913502D01*
X91395432Y-90735773D01*
X91550773Y-90580432D01*
X91728502Y-90451304D01*
X91924243Y-90351569D01*
X92133176Y-90283682D01*
X92350157Y-90249316D01*
X92569843Y-90249316D01*
X92786824Y-90283682D01*
G37*
G36*
X100934134Y-90063806D02*
G01*
X100950355Y-90074645D01*
X100961194Y-90090866D01*
X100965000Y-90110000D01*
X100965000Y-91840000D01*
X100961194Y-91859134D01*
X100950355Y-91875355D01*
X100934134Y-91886194D01*
X100915000Y-91890000D01*
X99425000Y-91890000D01*
X99405866Y-91886194D01*
X99389645Y-91875355D01*
X99378806Y-91859134D01*
X99375000Y-91840000D01*
X99375000Y-90110000D01*
X99378806Y-90090866D01*
X99389645Y-90074645D01*
X99405866Y-90063806D01*
X99425000Y-90060000D01*
X100915000Y-90060000D01*
X100934134Y-90063806D01*
G37*
G36*
X104114134Y-90063806D02*
G01*
X104130355Y-90074645D01*
X104141194Y-90090866D01*
X104145000Y-90110000D01*
X104145000Y-91840000D01*
X104141194Y-91859134D01*
X104130355Y-91875355D01*
X104114134Y-91886194D01*
X104095000Y-91890000D01*
X102605000Y-91890000D01*
X102585866Y-91886194D01*
X102569645Y-91875355D01*
X102558806Y-91859134D01*
X102555000Y-91840000D01*
X102555000Y-90110000D01*
X102558806Y-90090866D01*
X102569645Y-90074645D01*
X102585866Y-90063806D01*
X102605000Y-90060000D01*
X104095000Y-90060000D01*
X104114134Y-90063806D01*
G37*
G36*
X87524134Y-90063806D02*
G01*
X87540355Y-90074645D01*
X87551194Y-90090866D01*
X87555000Y-90110000D01*
X87555000Y-91460000D01*
X87551194Y-91479134D01*
X87540355Y-91495355D01*
X87524134Y-91506194D01*
X87505000Y-91510000D01*
X86095000Y-91510000D01*
X86075866Y-91506194D01*
X86059645Y-91495355D01*
X86048806Y-91479134D01*
X86045000Y-91460000D01*
X86045000Y-90110000D01*
X86048806Y-90090866D01*
X86059645Y-90074645D01*
X86075866Y-90063806D01*
X86095000Y-90060000D01*
X87505000Y-90060000D01*
X87524134Y-90063806D01*
G37*
G36*
X89524134Y-90063806D02*
G01*
X89540355Y-90074645D01*
X89551194Y-90090866D01*
X89555000Y-90110000D01*
X89555000Y-91460000D01*
X89551194Y-91479134D01*
X89540355Y-91495355D01*
X89524134Y-91506194D01*
X89505000Y-91510000D01*
X88095000Y-91510000D01*
X88075866Y-91506194D01*
X88059645Y-91495355D01*
X88048806Y-91479134D01*
X88045000Y-91460000D01*
X88045000Y-90110000D01*
X88048806Y-90090866D01*
X88059645Y-90074645D01*
X88075866Y-90063806D01*
X88095000Y-90060000D01*
X89505000Y-90060000D01*
X89524134Y-90063806D01*
G37*
G36*
X96429134Y-90098806D02*
G01*
X96445355Y-90109645D01*
X96456194Y-90125866D01*
X96460000Y-90145000D01*
X96460000Y-91045000D01*
X96456194Y-91064134D01*
X96445355Y-91080355D01*
X96429134Y-91091194D01*
X96410000Y-91095000D01*
X95610000Y-91095000D01*
X95590866Y-91091194D01*
X95574645Y-91080355D01*
X95563806Y-91064134D01*
X95560000Y-91045000D01*
X95560000Y-90145000D01*
X95563806Y-90125866D01*
X95574645Y-90109645D01*
X95590866Y-90098806D01*
X95610000Y-90095000D01*
X96410000Y-90095000D01*
X96429134Y-90098806D01*
G37*
G36*
X97829134Y-90098806D02*
G01*
X97845355Y-90109645D01*
X97856194Y-90125866D01*
X97860000Y-90145000D01*
X97860000Y-91045000D01*
X97856194Y-91064134D01*
X97845355Y-91080355D01*
X97829134Y-91091194D01*
X97810000Y-91095000D01*
X97010000Y-91095000D01*
X96990866Y-91091194D01*
X96974645Y-91080355D01*
X96963806Y-91064134D01*
X96960000Y-91045000D01*
X96960000Y-90145000D01*
X96963806Y-90125866D01*
X96974645Y-90109645D01*
X96990866Y-90098806D01*
X97010000Y-90095000D01*
X97810000Y-90095000D01*
X97829134Y-90098806D01*
G37*
G36*
X78289134Y-88078806D02*
G01*
X78305355Y-88089645D01*
X78316194Y-88105866D01*
X78320000Y-88125000D01*
X78320000Y-90425000D01*
X78316194Y-90444134D01*
X78305355Y-90460355D01*
X78289134Y-90471194D01*
X78270000Y-90475000D01*
X75970000Y-90475000D01*
X75950866Y-90471194D01*
X75934645Y-90460355D01*
X75923806Y-90444134D01*
X75920000Y-90425000D01*
X75920000Y-88125000D01*
X75923806Y-88105866D01*
X75934645Y-88089645D01*
X75950866Y-88078806D01*
X75970000Y-88075000D01*
X78270000Y-88075000D01*
X78289134Y-88078806D01*
G37*
G36*
X82480134Y-88108156D02*
G01*
X82659220Y-88166345D01*
X82826998Y-88251832D01*
X82979338Y-88362513D01*
X83112487Y-88495662D01*
X83223168Y-88648002D01*
X83308655Y-88815780D01*
X83366844Y-88994866D01*
X83396301Y-89180849D01*
X83396301Y-89369151D01*
X83366844Y-89555134D01*
X83308655Y-89734220D01*
X83223168Y-89901998D01*
X83112487Y-90054338D01*
X82979338Y-90187487D01*
X82826998Y-90298168D01*
X82659220Y-90383655D01*
X82480134Y-90441844D01*
X82294151Y-90471301D01*
X82105849Y-90471301D01*
X81919866Y-90441844D01*
X81740780Y-90383655D01*
X81573002Y-90298168D01*
X81420662Y-90187487D01*
X81287513Y-90054338D01*
X81176832Y-89901998D01*
X81091345Y-89734220D01*
X81033156Y-89555134D01*
X81003699Y-89369151D01*
X81003699Y-89180849D01*
X81033156Y-88994866D01*
X81091345Y-88815780D01*
X81176832Y-88648002D01*
X81287513Y-88495662D01*
X81420662Y-88362513D01*
X81573002Y-88251832D01*
X81740780Y-88166345D01*
X81919866Y-88108156D01*
X82105849Y-88078699D01*
X82294151Y-88078699D01*
X82480134Y-88108156D01*
G37*
G36*
X86904134Y-87648806D02*
G01*
X86920355Y-87659645D01*
X86931194Y-87675866D01*
X86935000Y-87695000D01*
X86935000Y-88555000D01*
X86931194Y-88574134D01*
X86920355Y-88590355D01*
X86904134Y-88601194D01*
X86885000Y-88605000D01*
X86075000Y-88605000D01*
X86055866Y-88601194D01*
X86039645Y-88590355D01*
X86028806Y-88574134D01*
X86025000Y-88555000D01*
X86025000Y-87695000D01*
X86028806Y-87675866D01*
X86039645Y-87659645D01*
X86055866Y-87648806D01*
X86075000Y-87645000D01*
X86885000Y-87645000D01*
X86904134Y-87648806D01*
G37*
G36*
X88404134Y-87648806D02*
G01*
X88420355Y-87659645D01*
X88431194Y-87675866D01*
X88435000Y-87695000D01*
X88435000Y-88555000D01*
X88431194Y-88574134D01*
X88420355Y-88590355D01*
X88404134Y-88601194D01*
X88385000Y-88605000D01*
X87575000Y-88605000D01*
X87555866Y-88601194D01*
X87539645Y-88590355D01*
X87528806Y-88574134D01*
X87525000Y-88555000D01*
X87525000Y-87695000D01*
X87528806Y-87675866D01*
X87539645Y-87659645D01*
X87555866Y-87648806D01*
X87575000Y-87645000D01*
X88385000Y-87645000D01*
X88404134Y-87648806D01*
G37*
G36*
X86904134Y-85228806D02*
G01*
X86920355Y-85239645D01*
X86931194Y-85255866D01*
X86935000Y-85275000D01*
X86935000Y-86135000D01*
X86931194Y-86154134D01*
X86920355Y-86170355D01*
X86904134Y-86181194D01*
X86885000Y-86185000D01*
X86075000Y-86185000D01*
X86055866Y-86181194D01*
X86039645Y-86170355D01*
X86028806Y-86154134D01*
X86025000Y-86135000D01*
X86025000Y-85275000D01*
X86028806Y-85255866D01*
X86039645Y-85239645D01*
X86055866Y-85228806D01*
X86075000Y-85225000D01*
X86885000Y-85225000D01*
X86904134Y-85228806D01*
G37*
G36*
X88404134Y-85228806D02*
G01*
X88420355Y-85239645D01*
X88431194Y-85255866D01*
X88435000Y-85275000D01*
X88435000Y-86135000D01*
X88431194Y-86154134D01*
X88420355Y-86170355D01*
X88404134Y-86181194D01*
X88385000Y-86185000D01*
X87575000Y-86185000D01*
X87555866Y-86181194D01*
X87539645Y-86170355D01*
X87528806Y-86154134D01*
X87525000Y-86135000D01*
X87525000Y-85275000D01*
X87528806Y-85255866D01*
X87539645Y-85239645D01*
X87555866Y-85228806D01*
X87575000Y-85225000D01*
X88385000Y-85225000D01*
X88404134Y-85228806D01*
G37*
G36*
X86904134Y-82808806D02*
G01*
X86920355Y-82819645D01*
X86931194Y-82835866D01*
X86935000Y-82855000D01*
X86935000Y-83715000D01*
X86931194Y-83734134D01*
X86920355Y-83750355D01*
X86904134Y-83761194D01*
X86885000Y-83765000D01*
X86075000Y-83765000D01*
X86055866Y-83761194D01*
X86039645Y-83750355D01*
X86028806Y-83734134D01*
X86025000Y-83715000D01*
X86025000Y-82855000D01*
X86028806Y-82835866D01*
X86039645Y-82819645D01*
X86055866Y-82808806D01*
X86075000Y-82805000D01*
X86885000Y-82805000D01*
X86904134Y-82808806D01*
G37*
G36*
X88404134Y-82808806D02*
G01*
X88420355Y-82819645D01*
X88431194Y-82835866D01*
X88435000Y-82855000D01*
X88435000Y-83715000D01*
X88431194Y-83734134D01*
X88420355Y-83750355D01*
X88404134Y-83761194D01*
X88385000Y-83765000D01*
X87575000Y-83765000D01*
X87555866Y-83761194D01*
X87539645Y-83750355D01*
X87528806Y-83734134D01*
X87525000Y-83715000D01*
X87525000Y-82855000D01*
X87528806Y-82835866D01*
X87539645Y-82819645D01*
X87555866Y-82808806D01*
X87575000Y-82805000D01*
X88385000Y-82805000D01*
X88404134Y-82808806D01*
G37*
G36*
X93419134Y-76998806D02*
G01*
X93435355Y-77009645D01*
X93446194Y-77025866D01*
X93450000Y-77045000D01*
X93450000Y-82045000D01*
X93446194Y-82064134D01*
X93435355Y-82080355D01*
X93419134Y-82091194D01*
X93400000Y-82095000D01*
X89670000Y-82095000D01*
X89650866Y-82091194D01*
X89634645Y-82080355D01*
X89623806Y-82064134D01*
X89620000Y-82045000D01*
X89620000Y-77045000D01*
X89623806Y-77025866D01*
X89634645Y-77009645D01*
X89650866Y-76998806D01*
X89670000Y-76995000D01*
X93400000Y-76995000D01*
X93419134Y-76998806D01*
G37*
G36*
X104959134Y-76998806D02*
G01*
X104975355Y-77009645D01*
X104986194Y-77025866D01*
X104990000Y-77045000D01*
X104990000Y-82045000D01*
X104986194Y-82064134D01*
X104975355Y-82080355D01*
X104959134Y-82091194D01*
X104940000Y-82095000D01*
X101210000Y-82095000D01*
X101190866Y-82091194D01*
X101174645Y-82080355D01*
X101163806Y-82064134D01*
X101160000Y-82045000D01*
X101160000Y-77045000D01*
X101163806Y-77025866D01*
X101174645Y-77009645D01*
X101190866Y-76998806D01*
X101210000Y-76995000D01*
X104940000Y-76995000D01*
X104959134Y-76998806D01*
G37*
G36*
X86904134Y-80388806D02*
G01*
X86920355Y-80399645D01*
X86931194Y-80415866D01*
X86935000Y-80435000D01*
X86935000Y-81295000D01*
X86931194Y-81314134D01*
X86920355Y-81330355D01*
X86904134Y-81341194D01*
X86885000Y-81345000D01*
X86075000Y-81345000D01*
X86055866Y-81341194D01*
X86039645Y-81330355D01*
X86028806Y-81314134D01*
X86025000Y-81295000D01*
X86025000Y-80435000D01*
X86028806Y-80415866D01*
X86039645Y-80399645D01*
X86055866Y-80388806D01*
X86075000Y-80385000D01*
X86885000Y-80385000D01*
X86904134Y-80388806D01*
G37*
G36*
X88404134Y-80388806D02*
G01*
X88420355Y-80399645D01*
X88431194Y-80415866D01*
X88435000Y-80435000D01*
X88435000Y-81295000D01*
X88431194Y-81314134D01*
X88420355Y-81330355D01*
X88404134Y-81341194D01*
X88385000Y-81345000D01*
X87575000Y-81345000D01*
X87555866Y-81341194D01*
X87539645Y-81330355D01*
X87528806Y-81314134D01*
X87525000Y-81295000D01*
X87525000Y-80435000D01*
X87528806Y-80415866D01*
X87539645Y-80399645D01*
X87555866Y-80388806D01*
X87575000Y-80385000D01*
X88385000Y-80385000D01*
X88404134Y-80388806D01*
G37*
G36*
X78289134Y-76748806D02*
G01*
X78305355Y-76759645D01*
X78316194Y-76775866D01*
X78320000Y-76795000D01*
X78320000Y-79095000D01*
X78316194Y-79114134D01*
X78305355Y-79130355D01*
X78289134Y-79141194D01*
X78270000Y-79145000D01*
X75970000Y-79145000D01*
X75950866Y-79141194D01*
X75934645Y-79130355D01*
X75923806Y-79114134D01*
X75920000Y-79095000D01*
X75920000Y-76795000D01*
X75923806Y-76775866D01*
X75934645Y-76759645D01*
X75950866Y-76748806D01*
X75970000Y-76745000D01*
X78270000Y-76745000D01*
X78289134Y-76748806D01*
G37*
G36*
X82480134Y-76778156D02*
G01*
X82659220Y-76836345D01*
X82826998Y-76921832D01*
X82979338Y-77032513D01*
X83112487Y-77165662D01*
X83223168Y-77318002D01*
X83308655Y-77485780D01*
X83366844Y-77664866D01*
X83396301Y-77850849D01*
X83396301Y-78039151D01*
X83366844Y-78225134D01*
X83308655Y-78404220D01*
X83223168Y-78571998D01*
X83112487Y-78724338D01*
X82979338Y-78857487D01*
X82826998Y-78968168D01*
X82659220Y-79053655D01*
X82480134Y-79111844D01*
X82294151Y-79141301D01*
X82105849Y-79141301D01*
X81919866Y-79111844D01*
X81740780Y-79053655D01*
X81573002Y-78968168D01*
X81420662Y-78857487D01*
X81287513Y-78724338D01*
X81176832Y-78571998D01*
X81091345Y-78404220D01*
X81033156Y-78225134D01*
X81003699Y-78039151D01*
X81003699Y-77850849D01*
X81033156Y-77664866D01*
X81091345Y-77485780D01*
X81176832Y-77318002D01*
X81287513Y-77165662D01*
X81420662Y-77032513D01*
X81573002Y-76921832D01*
X81740780Y-76836345D01*
X81919866Y-76778156D01*
X82105849Y-76748699D01*
X82294151Y-76748699D01*
X82480134Y-76778156D01*
G37*
G36*
X123010894Y-72993093D02*
G01*
X123344348Y-73069202D01*
X123667184Y-73182167D01*
X123975343Y-73330569D01*
X124264947Y-73512539D01*
X124532357Y-73725791D01*
X124774209Y-73967643D01*
X124987461Y-74235053D01*
X125169431Y-74524657D01*
X125317833Y-74832816D01*
X125430798Y-75155652D01*
X125506907Y-75489106D01*
X125545202Y-75828985D01*
X125545202Y-76171015D01*
X125506907Y-76510894D01*
X125430798Y-76844348D01*
X125317833Y-77167184D01*
X125169431Y-77475343D01*
X124987461Y-77764947D01*
X124774209Y-78032357D01*
X124532357Y-78274209D01*
X124264947Y-78487461D01*
X123975343Y-78669431D01*
X123667184Y-78817833D01*
X123344348Y-78930798D01*
X123010894Y-79006907D01*
X122671015Y-79045202D01*
X122328985Y-79045202D01*
X121989106Y-79006907D01*
X121655652Y-78930798D01*
X121332816Y-78817833D01*
X121024657Y-78669431D01*
X120735053Y-78487461D01*
X120467643Y-78274209D01*
X120225791Y-78032357D01*
X120012539Y-77764947D01*
X119830569Y-77475343D01*
X119682167Y-77167184D01*
X119569202Y-76844348D01*
X119493093Y-76510894D01*
X119454798Y-76171015D01*
X119454798Y-75828985D01*
X119493093Y-75489106D01*
X119569202Y-75155652D01*
X119682167Y-74832816D01*
X119830569Y-74524657D01*
X120012539Y-74235053D01*
X120225791Y-73967643D01*
X120467643Y-73725791D01*
X120735053Y-73512539D01*
X121024657Y-73330569D01*
X121332816Y-73182167D01*
X121655652Y-73069202D01*
X121989106Y-72993093D01*
X122328985Y-72954798D01*
X122671015Y-72954798D01*
X123010894Y-72993093D01*
G37*
G36*
X165010894Y-72993093D02*
G01*
X165344348Y-73069202D01*
X165667184Y-73182167D01*
X165975343Y-73330569D01*
X166264947Y-73512539D01*
X166532357Y-73725791D01*
X166774209Y-73967643D01*
X166987461Y-74235053D01*
X167169431Y-74524657D01*
X167317833Y-74832816D01*
X167430798Y-75155652D01*
X167506907Y-75489106D01*
X167545202Y-75828985D01*
X167545202Y-76171015D01*
X167506907Y-76510894D01*
X167430798Y-76844348D01*
X167317833Y-77167184D01*
X167169431Y-77475343D01*
X166987461Y-77764947D01*
X166774209Y-78032357D01*
X166532357Y-78274209D01*
X166264947Y-78487461D01*
X165975343Y-78669431D01*
X165667184Y-78817833D01*
X165344348Y-78930798D01*
X165010894Y-79006907D01*
X164671015Y-79045202D01*
X164328985Y-79045202D01*
X163989106Y-79006907D01*
X163655652Y-78930798D01*
X163332816Y-78817833D01*
X163024657Y-78669431D01*
X162735053Y-78487461D01*
X162467643Y-78274209D01*
X162225791Y-78032357D01*
X162012539Y-77764947D01*
X161830569Y-77475343D01*
X161682167Y-77167184D01*
X161569202Y-76844348D01*
X161493093Y-76510894D01*
X161454798Y-76171015D01*
X161454798Y-75828985D01*
X161493093Y-75489106D01*
X161569202Y-75155652D01*
X161682167Y-74832816D01*
X161830569Y-74524657D01*
X162012539Y-74235053D01*
X162225791Y-73967643D01*
X162467643Y-73725791D01*
X162735053Y-73512539D01*
X163024657Y-73330569D01*
X163332816Y-73182167D01*
X163655652Y-73069202D01*
X163989106Y-72993093D01*
X164328985Y-72954798D01*
X164671015Y-72954798D01*
X165010894Y-72993093D01*
G37*
G36*
X86904134Y-77968806D02*
G01*
X86920355Y-77979645D01*
X86931194Y-77995866D01*
X86935000Y-78015000D01*
X86935000Y-78875000D01*
X86931194Y-78894134D01*
X86920355Y-78910355D01*
X86904134Y-78921194D01*
X86885000Y-78925000D01*
X86075000Y-78925000D01*
X86055866Y-78921194D01*
X86039645Y-78910355D01*
X86028806Y-78894134D01*
X86025000Y-78875000D01*
X86025000Y-78015000D01*
X86028806Y-77995866D01*
X86039645Y-77979645D01*
X86055866Y-77968806D01*
X86075000Y-77965000D01*
X86885000Y-77965000D01*
X86904134Y-77968806D01*
G37*
G36*
X88404134Y-77968806D02*
G01*
X88420355Y-77979645D01*
X88431194Y-77995866D01*
X88435000Y-78015000D01*
X88435000Y-78875000D01*
X88431194Y-78894134D01*
X88420355Y-78910355D01*
X88404134Y-78921194D01*
X88385000Y-78925000D01*
X87575000Y-78925000D01*
X87555866Y-78921194D01*
X87539645Y-78910355D01*
X87528806Y-78894134D01*
X87525000Y-78875000D01*
X87525000Y-78015000D01*
X87528806Y-77995866D01*
X87539645Y-77979645D01*
X87555866Y-77968806D01*
X87575000Y-77965000D01*
X88385000Y-77965000D01*
X88404134Y-77968806D01*
G37*
G36*
X86904134Y-75548806D02*
G01*
X86920355Y-75559645D01*
X86931194Y-75575866D01*
X86935000Y-75595000D01*
X86935000Y-76455000D01*
X86931194Y-76474134D01*
X86920355Y-76490355D01*
X86904134Y-76501194D01*
X86885000Y-76505000D01*
X86075000Y-76505000D01*
X86055866Y-76501194D01*
X86039645Y-76490355D01*
X86028806Y-76474134D01*
X86025000Y-76455000D01*
X86025000Y-75595000D01*
X86028806Y-75575866D01*
X86039645Y-75559645D01*
X86055866Y-75548806D01*
X86075000Y-75545000D01*
X86885000Y-75545000D01*
X86904134Y-75548806D01*
G37*
G36*
X88404134Y-75548806D02*
G01*
X88420355Y-75559645D01*
X88431194Y-75575866D01*
X88435000Y-75595000D01*
X88435000Y-76455000D01*
X88431194Y-76474134D01*
X88420355Y-76490355D01*
X88404134Y-76501194D01*
X88385000Y-76505000D01*
X87575000Y-76505000D01*
X87555866Y-76501194D01*
X87539645Y-76490355D01*
X87528806Y-76474134D01*
X87525000Y-76455000D01*
X87525000Y-75595000D01*
X87528806Y-75575866D01*
X87539645Y-75559645D01*
X87555866Y-75548806D01*
X87575000Y-75545000D01*
X88385000Y-75545000D01*
X88404134Y-75548806D01*
G37*
G36*
X86904134Y-73128806D02*
G01*
X86920355Y-73139645D01*
X86931194Y-73155866D01*
X86935000Y-73175000D01*
X86935000Y-74035000D01*
X86931194Y-74054134D01*
X86920355Y-74070355D01*
X86904134Y-74081194D01*
X86885000Y-74085000D01*
X86075000Y-74085000D01*
X86055866Y-74081194D01*
X86039645Y-74070355D01*
X86028806Y-74054134D01*
X86025000Y-74035000D01*
X86025000Y-73175000D01*
X86028806Y-73155866D01*
X86039645Y-73139645D01*
X86055866Y-73128806D01*
X86075000Y-73125000D01*
X86885000Y-73125000D01*
X86904134Y-73128806D01*
G37*
G36*
X88404134Y-73128806D02*
G01*
X88420355Y-73139645D01*
X88431194Y-73155866D01*
X88435000Y-73175000D01*
X88435000Y-74035000D01*
X88431194Y-74054134D01*
X88420355Y-74070355D01*
X88404134Y-74081194D01*
X88385000Y-74085000D01*
X87575000Y-74085000D01*
X87555866Y-74081194D01*
X87539645Y-74070355D01*
X87528806Y-74054134D01*
X87525000Y-74035000D01*
X87525000Y-73175000D01*
X87528806Y-73155866D01*
X87539645Y-73139645D01*
X87555866Y-73128806D01*
X87575000Y-73125000D01*
X88385000Y-73125000D01*
X88404134Y-73128806D01*
G37*
M02*
