%TF.GenerationSoftware,KiCad,Pcbnew,9.0.1*%
%TF.CreationDate,2025-05-14T23:35:05-05:00*%
%TF.ProjectId,Project-Star,50726f6a-6563-4742-9d53-7461722e6b69,rev?*%
%TF.SameCoordinates,Original*%
%TF.FileFunction,Copper,L2,Inr*%
%TF.FilePolarity,Positive*%
%FSLAX46Y46*%
G04 Gerber Fmt 4.6, Leading zero omitted, Abs format (unit mm)*
G04 Created by KiCad (PCBNEW 9.0.1) date 2025-05-14 23:35:05*
%MOMM*%
%LPD*%
G01*
G04 APERTURE LIST*
%TA.AperFunction,ComponentPad*%
%ADD10C,2.700000*%
%TD*%
%TA.AperFunction,ComponentPad*%
%ADD11R,2.300000X2.300000*%
%TD*%
%TA.AperFunction,ComponentPad*%
%ADD12C,2.300000*%
%TD*%
%TA.AperFunction,ComponentPad*%
%ADD13C,6.000000*%
%TD*%
%TA.AperFunction,ViaPad*%
%ADD14C,0.600000*%
%TD*%
%TA.AperFunction,Conductor*%
%ADD15C,0.300000*%
%TD*%
G04 APERTURE END LIST*
D10*
%TO.N,/20V_Power_Line/Vin*%
%TO.C,VIN*%
X131500000Y-96000000D03*
%TD*%
%TO.N,/20V_Power_Line/Vout*%
%TO.C,VOUT*%
X152000000Y-112000000D03*
%TD*%
%TO.N,GND*%
%TO.C,GND*%
X155790000Y-92750000D03*
%TD*%
D11*
%TO.N,/20V_Power_Line/Vout*%
%TO.C,CN2*%
X167500000Y-103500000D03*
D12*
%TO.N,GND*%
X167500000Y-98420000D03*
%TD*%
D11*
%TO.N,/20V_Power_Line/Vin*%
%TO.C,CN1*%
X123960000Y-98380000D03*
D12*
%TO.N,GND*%
X123960000Y-103460000D03*
%TD*%
D13*
%TO.N,GND*%
%TO.C,H2*%
X122500000Y-111800000D03*
%TD*%
%TO.N,GND*%
%TO.C,H4*%
X169250000Y-89750000D03*
%TD*%
%TO.N,GND*%
%TO.C,H3*%
X122250000Y-89750000D03*
%TD*%
%TO.N,GND*%
%TO.C,H1*%
X164500000Y-111800000D03*
%TD*%
D14*
%TO.N,/20V_Power_Line/Vout*%
X137108976Y-108500000D03*
%TO.N,Net-(U4-SW)*%
X143290000Y-102440000D03*
X141600000Y-94500000D03*
%TO.N,Net-(Q2-G)*%
X134642804Y-105562759D03*
%TO.N,Net-(Q1-G)*%
X143654253Y-100176290D03*
%TO.N,Net-(U4-ILIM)*%
X134927974Y-100500000D03*
X139800000Y-97100000D03*
%TO.N,GND*%
X133750000Y-106750000D03*
X145250000Y-92250000D03*
X136262727Y-103315942D03*
%TO.N,/20V_Power_Line/Vout*%
X135800000Y-110000000D03*
%TO.N,GND*%
X137735000Y-100640000D03*
X139284808Y-104205214D03*
X136800000Y-101090000D03*
%TO.N,Net-(Q2-G)*%
X134750000Y-97354998D03*
%TO.N,GND*%
X134500000Y-103250000D03*
X141250000Y-105235002D03*
X132500000Y-98750000D03*
%TO.N,/20V_Power_Line/Vin*%
X142500000Y-97250000D03*
%TO.N,GND*%
X138889723Y-103610277D03*
%TO.N,/20V_Power_Line/Vin*%
X141750000Y-99869998D03*
%TO.N,GND*%
X139500000Y-102250000D03*
X143750000Y-101000000D03*
X144000000Y-98500000D03*
%TO.N,Net-(Q1-G)*%
X137735692Y-97360023D03*
%TO.N,GND*%
X133000000Y-93500000D03*
X141000000Y-113250000D03*
X136800000Y-100190000D03*
X135865000Y-100640000D03*
%TD*%
D15*
%TO.N,Net-(U4-SW)*%
X143594176Y-102135824D02*
X143290000Y-102440000D01*
X141600000Y-94850000D02*
X144651000Y-97901000D01*
X144651000Y-101019654D02*
X143594176Y-102076478D01*
X141600000Y-94500000D02*
X141600000Y-94850000D01*
X144651000Y-97901000D02*
X144651000Y-101019654D01*
X143594176Y-102076478D02*
X143594176Y-102135824D01*
%TO.N,Net-(U4-ILIM)*%
X139800000Y-97100000D02*
X139450000Y-96750000D01*
X139450000Y-96750000D02*
X139266369Y-96750000D01*
X139266369Y-96750000D02*
X138005346Y-98011023D01*
X138005346Y-98011023D02*
X137416951Y-98011023D01*
X137416951Y-98011023D02*
X134927974Y-100500000D01*
%TO.N,Net-(Q2-G)*%
X133849000Y-104768955D02*
X134642804Y-105562759D01*
X133849000Y-98255998D02*
X133849000Y-104768955D01*
X134750000Y-97354998D02*
X133849000Y-98255998D01*
%TO.N,Net-(Q1-G)*%
X143654253Y-99733599D02*
X143654253Y-100176290D01*
X140019654Y-96099000D02*
X143654253Y-99733599D01*
X138996715Y-96099000D02*
X140019654Y-96099000D01*
X137735692Y-97360023D02*
X138996715Y-96099000D01*
%TD*%
M02*
