%TF.GenerationSoftware,KiCad,Pcbnew,9.0.1*%
%TF.CreationDate,2025-05-12T16:56:18-05:00*%
%TF.ProjectId,Project-Star,50726f6a-6563-4742-9d53-7461722e6b69,rev?*%
%TF.SameCoordinates,Original*%
%TF.FileFunction,Copper,L1,Top*%
%TF.FilePolarity,Positive*%
%FSLAX46Y46*%
G04 Gerber Fmt 4.6, Leading zero omitted, Abs format (unit mm)*
G04 Created by KiCad (PCBNEW 9.0.1) date 2025-05-12 16:56:18*
%MOMM*%
%LPD*%
G01*
G04 APERTURE LIST*
%TA.AperFunction,ComponentPad*%
%ADD10C,6.000000*%
%TD*%
%TA.AperFunction,ComponentPad*%
%ADD11C,2.700000*%
%TD*%
%TA.AperFunction,ComponentPad*%
%ADD12R,2.300000X2.300000*%
%TD*%
%TA.AperFunction,ComponentPad*%
%ADD13C,2.300000*%
%TD*%
%TA.AperFunction,SMDPad,CuDef*%
%ADD14R,2.700000X1.700000*%
%TD*%
%TA.AperFunction,SMDPad,CuDef*%
%ADD15R,0.850000X0.280000*%
%TD*%
%TA.AperFunction,SMDPad,CuDef*%
%ADD16R,0.280000X0.850000*%
%TD*%
%TA.AperFunction,SMDPad,CuDef*%
%ADD17R,0.570000X0.540000*%
%TD*%
%TA.AperFunction,SMDPad,CuDef*%
%ADD18R,0.810000X0.860000*%
%TD*%
%TA.AperFunction,SMDPad,CuDef*%
%ADD19R,0.450000X0.680000*%
%TD*%
%TA.AperFunction,SMDPad,CuDef*%
%ADD20R,0.500000X0.600000*%
%TD*%
%TA.AperFunction,SMDPad,CuDef*%
%ADD21R,2.650000X2.000000*%
%TD*%
%TA.AperFunction,SMDPad,CuDef*%
%ADD22R,0.680000X0.450000*%
%TD*%
%TA.AperFunction,SMDPad,CuDef*%
%ADD23R,0.600000X0.500000*%
%TD*%
%TA.AperFunction,SMDPad,CuDef*%
%ADD24R,2.000000X2.650000*%
%TD*%
%TA.AperFunction,SMDPad,CuDef*%
%ADD25R,2.920000X3.500000*%
%TD*%
%TA.AperFunction,SMDPad,CuDef*%
%ADD26R,0.790000X0.540000*%
%TD*%
%TA.AperFunction,SMDPad,CuDef*%
%ADD27R,0.800000X0.900000*%
%TD*%
%TA.AperFunction,SMDPad,CuDef*%
%ADD28R,1.410000X1.350000*%
%TD*%
%TA.AperFunction,SMDPad,CuDef*%
%ADD29R,1.490000X1.730000*%
%TD*%
G04 APERTURE END LIST*
D10*
%TO.P,H4,1*%
%TO.N,GND*%
X97500000Y-87000000D03*
%TD*%
%TO.P,H3,1*%
%TO.N,GND*%
X139500000Y-87000000D03*
%TD*%
%TO.P,H1,1*%
%TO.N,GND*%
X97500000Y-45000000D03*
%TD*%
%TO.P,H2,1*%
%TO.N,GND*%
X139500000Y-45000000D03*
%TD*%
D11*
%TO.P,U6,1,1*%
%TO.N,GND*%
X98500000Y-56000000D03*
%TD*%
%TO.P,U5,1,1*%
%TO.N,/20V_Power_Line/Vin*%
X98500000Y-75000000D03*
%TD*%
%TO.P,U4,1,1*%
%TO.N,/20V_Power_Line/Vout*%
X138500000Y-57000000D03*
%TD*%
D12*
%TO.P,CN2,1,1*%
%TO.N,/20V_Power_Line/Vout*%
X138500000Y-63420000D03*
D13*
%TO.P,CN2,2,2*%
%TO.N,GND*%
X138500000Y-68500000D03*
%TD*%
D12*
%TO.P,CN1,1,1*%
%TO.N,/20V_Power_Line/Vin*%
X98500000Y-67500000D03*
D13*
%TO.P,CN1,2,2*%
%TO.N,GND*%
X98500000Y-62420000D03*
%TD*%
D14*
%TO.P,U3,21,EP*%
%TO.N,GND*%
X119750000Y-65750000D03*
D15*
%TO.P,U3,20,VIN*%
%TO.N,Net-(U3-VIN)*%
X117500000Y-65000000D03*
D16*
%TO.P,U3,19,SW*%
%TO.N,Net-(U3-SW)*%
X118000000Y-64000000D03*
%TO.P,U3,18,HO*%
%TO.N,Net-(Q1-G)*%
X118500000Y-64000000D03*
%TO.P,U3,17,BST*%
%TO.N,Net-(U3-BST)*%
X119000000Y-64000000D03*
%TO.P,U3,16,NC*%
%TO.N,unconnected-(U3-NC-Pad16)*%
X119500000Y-64000000D03*
%TO.P,U3,15,EP*%
%TO.N,GND*%
X120000000Y-64000000D03*
%TO.P,U3,14,VCC*%
%TO.N,Net-(U3-VCC)*%
X120500000Y-64000000D03*
%TO.P,U3,13,LO*%
%TO.N,Net-(Q2-G)*%
X121000000Y-64000000D03*
%TO.P,U3,12,PGND*%
%TO.N,GND*%
X121500000Y-64000000D03*
D15*
%TO.P,U3,11,ILIM*%
%TO.N,Net-(U3-ILIM)*%
X122000000Y-65000000D03*
%TO.P,U3,10,PGOOD*%
%TO.N,Net-(U3-PGOOD)*%
X122000000Y-66500000D03*
D16*
%TO.P,U3,9,NC*%
%TO.N,unconnected-(U3-NC-Pad9)*%
X121500000Y-67500000D03*
%TO.P,U3,8,SYNCIN*%
%TO.N,Net-(U3-SYNCIN)*%
X121000000Y-67500000D03*
%TO.P,U3,7,SYNCOUT*%
%TO.N,unconnected-(U3-SYNCOUT-Pad7)*%
X120500000Y-67500000D03*
%TO.P,U3,6,AGND*%
%TO.N,GND*%
X120000000Y-67500000D03*
%TO.P,U3,5,FB*%
%TO.N,Net-(U3-FB)*%
X119500000Y-67500000D03*
%TO.P,U3,4,COMP*%
%TO.N,Net-(U3-COMP)*%
X119000000Y-67500000D03*
%TO.P,U3,3,SS/TRK*%
%TO.N,Net-(U3-SS{slash}TRK)*%
X118500000Y-67500000D03*
%TO.P,U3,2,RT*%
%TO.N,Net-(U3-RT)*%
X118000000Y-67500000D03*
D15*
%TO.P,U3,1,EN/UVLO*%
%TO.N,Net-(U3-EN{slash}UVLO)*%
X117500000Y-66500000D03*
%TD*%
D17*
%TO.P,R31,2,2*%
%TO.N,Net-(U3-FB)*%
X76355000Y-70225000D03*
%TO.P,R31,1,1*%
%TO.N,Net-(C44-Pad2)*%
X75495000Y-70225000D03*
%TD*%
%TO.P,R30,2,2*%
%TO.N,Net-(C41-Pad1)*%
X76355000Y-68075000D03*
%TO.P,R30,1,1*%
%TO.N,/20V_Power_Line/Vout*%
X75495000Y-68075000D03*
%TD*%
%TO.P,R29,2,2*%
%TO.N,GND*%
X76355000Y-65925000D03*
%TO.P,R29,1,1*%
%TO.N,Net-(U3-FB)*%
X75495000Y-65925000D03*
%TD*%
D18*
%TO.P,R28,2,2*%
%TO.N,Net-(U3-FB)*%
X69165000Y-67455000D03*
%TO.P,R28,1,1*%
%TO.N,/20V_Power_Line/Vout*%
X67665000Y-67455000D03*
%TD*%
%TO.P,R27,2,2*%
%TO.N,GND*%
X69165000Y-64985000D03*
%TO.P,R27,1,1*%
%TO.N,Net-(U3-RT)*%
X67665000Y-64985000D03*
%TD*%
%TO.P,R26,2,2*%
%TO.N,Net-(U3-VIN)*%
X69165000Y-62515000D03*
%TO.P,R26,1,1*%
%TO.N,/20V_Power_Line/Vin*%
X67665000Y-62515000D03*
%TD*%
%TO.P,R25,2,2*%
%TO.N,Net-(U3-PGOOD)*%
X69165000Y-60045000D03*
%TO.P,R25,1,1*%
%TO.N,Net-(U3-VCC)*%
X67665000Y-60045000D03*
%TD*%
%TO.P,R24,2,2*%
%TO.N,Net-(U3-SYNCIN)*%
X69165000Y-57575000D03*
%TO.P,R24,1,1*%
%TO.N,Net-(U3-VCC)*%
X67665000Y-57575000D03*
%TD*%
%TO.P,R23,2,2*%
%TO.N,Net-(U3-SW)*%
X69165000Y-55105000D03*
%TO.P,R23,1,1*%
%TO.N,Net-(U3-ILIM)*%
X67665000Y-55105000D03*
%TD*%
%TO.P,R22,2,2*%
%TO.N,GND*%
X69165000Y-52635000D03*
%TO.P,R22,1,1*%
%TO.N,Net-(U3-EN{slash}UVLO)*%
X67665000Y-52635000D03*
%TD*%
D17*
%TO.P,R21,2,2*%
%TO.N,Net-(U3-EN{slash}UVLO)*%
X76355000Y-63775000D03*
%TO.P,R21,1,1*%
%TO.N,/20V_Power_Line/Vin*%
X75495000Y-63775000D03*
%TD*%
D19*
%TO.P,Q2,1,S*%
%TO.N,GND*%
X82750000Y-66500000D03*
%TO.P,Q2,2,S*%
X83400000Y-66500000D03*
%TO.P,Q2,3,S*%
X84050000Y-66500000D03*
%TO.P,Q2,4,G*%
%TO.N,Net-(Q2-G)*%
X84700000Y-66500000D03*
D20*
%TO.P,Q2,8,D*%
%TO.N,Net-(U3-SW)*%
X82780000Y-63500000D03*
%TO.P,Q2,7,D*%
X83430000Y-63500000D03*
%TO.P,Q2,6,D*%
X84080000Y-63500000D03*
%TO.P,Q2,5,D*%
X84730000Y-63500000D03*
D21*
%TO.P,Q2,9,D*%
X83750000Y-64590000D03*
%TD*%
D22*
%TO.P,Q1,1,S*%
%TO.N,Net-(U3-SW)*%
X110000000Y-71990000D03*
%TO.P,Q1,2,S*%
X110000000Y-71340000D03*
%TO.P,Q1,3,S*%
X110000000Y-70690000D03*
%TO.P,Q1,4,G*%
%TO.N,Net-(Q1-G)*%
X110000000Y-70040000D03*
D23*
%TO.P,Q1,8,D*%
%TO.N,/20V_Power_Line/Vin*%
X107000000Y-71960000D03*
%TO.P,Q1,7,D*%
X107000000Y-71310000D03*
%TO.P,Q1,6,D*%
X107000000Y-70660000D03*
%TO.P,Q1,5,D*%
X107000000Y-70010000D03*
D24*
%TO.P,Q1,9,D*%
X108090000Y-70990000D03*
%TD*%
D25*
%TO.P,L1,1,1*%
%TO.N,Net-(U3-SW)*%
X113140000Y-47000000D03*
%TO.P,L1,2,2*%
%TO.N,/20V_Power_Line/Vout*%
X123500000Y-47000000D03*
%TD*%
D26*
%TO.P,C45,2,2*%
%TO.N,Net-(U3-FB)*%
X86955000Y-60525000D03*
%TO.P,C45,1,1*%
%TO.N,Net-(U3-COMP)*%
X85855000Y-60525000D03*
%TD*%
D27*
%TO.P,C44,2,2*%
%TO.N,Net-(C44-Pad2)*%
X73095000Y-74715000D03*
%TO.P,C44,1,1*%
%TO.N,Net-(U3-COMP)*%
X71695000Y-74715000D03*
%TD*%
D28*
%TO.P,C43,2,2*%
%TO.N,GND*%
X88195000Y-55825000D03*
%TO.P,C43,1,1*%
%TO.N,/20V_Power_Line/Vout*%
X86195000Y-55825000D03*
%TD*%
%TO.P,C42,2,2*%
%TO.N,GND*%
X88195000Y-52875000D03*
%TO.P,C42,1,1*%
%TO.N,/20V_Power_Line/Vout*%
X86195000Y-52875000D03*
%TD*%
D27*
%TO.P,C41,2,2*%
%TO.N,Net-(U3-FB)*%
X73095000Y-72045000D03*
%TO.P,C41,1,1*%
%TO.N,Net-(C41-Pad1)*%
X71695000Y-72045000D03*
%TD*%
D26*
%TO.P,C40,2,2*%
%TO.N,GND*%
X86955000Y-58375000D03*
%TO.P,C40,1,1*%
%TO.N,Net-(U3-ILIM)*%
X85855000Y-58375000D03*
%TD*%
D27*
%TO.P,C39,2,2*%
%TO.N,Net-(U3-BST)*%
X73095000Y-69375000D03*
%TO.P,C39,1,1*%
%TO.N,Net-(U3-SW)*%
X71695000Y-69375000D03*
%TD*%
D29*
%TO.P,C38,2,2*%
%TO.N,GND*%
X89015000Y-73035000D03*
%TO.P,C38,1,1*%
%TO.N,/20V_Power_Line/Vin*%
X85835000Y-73035000D03*
%TD*%
D27*
%TO.P,C37,2,2*%
%TO.N,GND*%
X73095000Y-66705000D03*
%TO.P,C37,1,1*%
%TO.N,Net-(U3-VIN)*%
X71695000Y-66705000D03*
%TD*%
D29*
%TO.P,C36,2,2*%
%TO.N,GND*%
X89015000Y-69705000D03*
%TO.P,C36,1,1*%
%TO.N,Net-(U3-VCC)*%
X85835000Y-69705000D03*
%TD*%
D27*
%TO.P,C35,2,2*%
%TO.N,GND*%
X73095000Y-64035000D03*
%TO.P,C35,1,1*%
%TO.N,Net-(U3-SS{slash}TRK)*%
X71695000Y-64035000D03*
%TD*%
M02*
